0
SECTION
2
HEADER
9
$ACADVER
1
AC1006
9
$INSUNITS
70
6
0
ENDSEC
0
SECTION
2
ENTITIES
0
POLYLINE
8
0
62
255
66
1
10
0
20
0
30
0
70
8
0
VERTEX
8
0
62
255
10
5
20
0
30
0
70
32
0
VERTEX
8
0
62
255
10
4.9671375
20
0.43456822
30
0
70
32
0
VERTEX
8
0
62
255
10
4.896683
20
0.86341733
30
0
70
32
0
VERTEX
8
0
62
255
10
4.7893822
20
1.2833111
30
0
70
32
0
VERTEX
8
0
62
255
10
4.646258
20
1.6910996
30
0
70
32
0
VERTEX
8
0
62
255
10
4.4686009
20
2.0837428
30
0
70
32
0
VERTEX
8
0
62
255
10
4.2579582
20
2.4583333
30
0
70
32
0
VERTEX
8
0
62
255
10
4.0161204
20
2.8121178
30
0
70
32
0
VERTEX
8
0
62
255
10
3.7451062
20
3.1425172
30
0
70
32
0
VERTEX
8
0
62
255
10
3.4471456
20
3.4471456
30
0
70
32
0
VERTEX
8
0
62
255
10
3.124662
20
3.7238272
30
0
70
32
0
VERTEX
8
0
62
255
10
2.7802524
20
3.970612
30
0
70
32
0
VERTEX
8
0
62
255
10
2.4166667
20
4.1857895
30
0
70
32
0
VERTEX
8
0
62
255
10
2.0367852
20
4.3679
30
0
70
32
0
VERTEX
8
0
62
255
10
1.6435968
20
4.5157451
30
0
70
32
0
VERTEX
8
0
62
255
10
1.2401746
20
4.6283946
30
0
70
32
0
VERTEX
8
0
62
255
10
0.8296524
20
4.7051926
30
0
70
32
0
VERTEX
8
0
62
255
10
0.41520027
20
4.7457609
30
0
70
32
0
VERTEX
8
0
62
255
10
2.9085361e-016
20
4.75
30
0
70
32
0
VERTEX
8
0
62
255
10
-0.41277928
20
4.7180888
30
0
70
32
0
VERTEX
8
0
62
255
10
-0.82000528
20
4.6504811
30
0
70
32
0
VERTEX
8
0
62
255
10
-1.2186063
20
4.5479008
30
0
70
32
0
VERTEX
8
0
62
255
10
-1.6055946
20
4.4113348
30
0
70
32
0
VERTEX
8
0
62
255
10
-1.9780883
20
4.2420239
30
0
70
32
0
VERTEX
8
0
62
255
10
-2.3333333
20
4.0414519
30
0
70
32
0
VERTEX
8
0
62
255
10
-2.6687237
20
3.8113324
30
0
70
32
0
VERTEX
8
0
62
255
10
-2.9818203
20
3.5535951
30
0
70
32
0
VERTEX
8
0
62
255
10
-3.2703689
20
3.2703689
30
0
70
32
0
VERTEX
8
0
62
255
10
-3.532316
20
2.9639651
30
0
70
32
0
VERTEX
8
0
62
255
10
-3.765824
20
2.6368583
30
0
70
32
0
VERTEX
8
0
62
255
10
-3.9692831
20
2.2916667
30
0
70
32
0
VERTEX
8
0
62
255
10
-4.1413231
20
1.9311307
30
0
70
32
0
VERTEX
8
0
62
255
10
-4.2808219
20
1.5580918
30
0
70
32
0
VERTEX
8
0
62
255
10
-4.3869131
20
1.1754698
30
0
70
32
0
VERTEX
8
0
62
255
10
-4.4589907
20
0.78624036
30
0
70
32
0
VERTEX
8
0
62
255
10
-4.4967122
20
0.39341134
30
0
70
32
0
VERTEX
8
0
62
255
10
-4.5
20
5.5109106e-016
30
0
70
32
0
VERTEX
8
0
62
255
10
-4.4690401
20
-0.39099035
30
0
70
32
0
VERTEX
8
0
62
255
10
-4.4042791
20
-0.77659324
30
0
70
32
0
VERTEX
8
0
62
255
10
-4.3064193
20
-1.1539016
30
0
70
32
0
VERTEX
8
0
62
255
10
-4.1764116
20
-1.5200895
30
0
70
32
0
VERTEX
8
0
62
255
10
-4.015447
20
-1.8724337
30
0
70
32
0
VERTEX
8
0
62
255
10
-3.8249455
20
-2.2083333
30
0
70
32
0
VERTEX
8
0
62
255
10
-3.6065444
20
-2.5253296
30
0
70
32
0
VERTEX
8
0
62
255
10
-3.3620839
20
-2.8211234
30
0
70
32
0
VERTEX
8
0
62
255
10
-3.0935922
20
-3.0935922
30
0
70
32
0
VERTEX
8
0
62
255
10
-2.8032682
20
-3.3408049
30
0
70
32
0
VERTEX
8
0
62
255
10
-2.4934642
20
-3.561036
30
0
70
32
0
VERTEX
8
0
62
255
10
-2.1666667
20
-3.7527767
30
0
70
32
0
VERTEX
8
0
62
255
10
-1.8254761
20
-3.9147461
30
0
70
32
0
VERTEX
8
0
62
255
10
-1.4725867
20
-4.0458988
30
0
70
32
0
VERTEX
8
0
62
255
10
-1.1107651
20
-4.1454317
30
0
70
32
0
VERTEX
8
0
62
255
10
-0.74282832
20
-4.2127887
30
0
70
32
0
VERTEX
8
0
62
255
10
-0.3716224
20
-4.2476635
30
0
70
32
0
VERTEX
8
0
62
255
10
-7.8071233e-016
20
-4.25
30
0
70
32
0
VERTEX
8
0
62
255
10
0.36920141
20
-4.2199914
30
0
70
32
0
VERTEX
8
0
62
255
10
0.73318119
20
-4.1580772
30
0
70
32
0
VERTEX
8
0
62
255
10
1.0891968
20
-4.0649379
30
0
70
32
0
VERTEX
8
0
62
255
10
1.4345845
20
-3.9414885
30
0
70
32
0
VERTEX
8
0
62
255
10
1.7667791
20
-3.7888701
30
0
70
32
0
VERTEX
8
0
62
255
10
2.0833333
20
-3.6084392
30
0
70
32
0
VERTEX
8
0
62
255
10
2.3819355
20
-3.4017564
30
0
70
32
0
VERTEX
8
0
62
255
10
2.6604265
20
-3.1705728
30
0
70
32
0
VERTEX
8
0
62
255
10
2.9168155
20
-2.9168155
30
0
70
32
0
VERTEX
8
0
62
255
10
3.1492938
20
-2.6425713
30
0
70
32
0
VERTEX
8
0
62
255
10
3.356248
20
-2.3500701
30
0
70
32
0
VERTEX
8
0
62
255
10
3.5362704
20
-2.0416667
30
0
70
32
0
VERTEX
8
0
62
255
10
3.6881692
20
-1.7198215
30
0
70
32
0
VERTEX
8
0
62
255
10
3.8109756
20
-1.3870817
30
0
70
32
0
VERTEX
8
0
62
255
10
3.9039502
20
-1.0460603
30
0
70
32
0
VERTEX
8
0
62
255
10
3.9665868
20
-0.69941627
30
0
70
32
0
VERTEX
8
0
62
255
10
3.9986148
20
-0.34983347
30
0
70
32
0
VERTEX
8
0
62
255
10
4
20
-9.7971744e-016
30
0
70
32
0
VERTEX
8
0
62
255
10
3.9709428
20
0.34741247
30
0
70
32
0
VERTEX
8
0
62
255
10
3.9118752
20
0.68976915
30
0
70
32
0
VERTEX
8
0
62
255
10
3.8234564
20
1.0244921
30
0
70
32
0
VERTEX
8
0
62
255
10
3.7065653
20
1.3490795
30
0
70
32
0
VERTEX
8
0
62
255
10
3.5622931
20
1.6611246
30
0
70
32
0
VERTEX
8
0
62
255
10
3.3919328
20
1.9583333
30
0
70
32
0
VERTEX
8
0
62
255
10
3.1969684
20
2.2385414
30
0
70
32
0
VERTEX
8
0
62
255
10
2.9790617
20
2.4997296
30
0
70
32
0
VERTEX
8
0
62
255
10
2.7400388
20
2.7400388
30
0
70
32
0
VERTEX
8
0
62
255
10
2.4818744
20
2.9577827
30
0
70
32
0
VERTEX
8
0
62
255
10
2.206676
20
3.1514599
30
0
70
32
0
VERTEX
8
0
62
255
10
1.9166667
20
3.319764
30
0
70
32
0
VERTEX
8
0
62
255
10
1.614167
20
3.4615922
30
0
70
32
0
VERTEX
8
0
62
255
10
1.3015767
20
3.5760525
30
0
70
32
0
VERTEX
8
0
62
255
10
0.98135555
20
3.6624688
30
0
70
32
0
VERTEX
8
0
62
255
10
0.65600423
20
3.7203848
30
0
70
32
0
VERTEX
8
0
62
255
10
0.32804453
20
3.7495662
30
0
70
32
0
VERTEX
8
0
62
255
10
1.1481064e-015
20
3.75
30
0
70
32
0
VERTEX
8
0
62
255
10
-0.32562354
20
3.7218941
30
0
70
32
0
VERTEX
8
0
62
255
10
-0.64635711
20
3.6656733
30
0
70
32
0
VERTEX
8
0
62
255
10
-0.95978729
20
3.5819749
30
0
70
32
0
VERTEX
8
0
62
255
10
-1.2635744
20
3.4716422
30
0
70
32
0
VERTEX
8
0
62
255
10
-1.55547
20
3.3357162
30
0
70
32
0
VERTEX
8
0
62
255
10
-1.8333333
20
3.1754265
30
0
70
32
0
VERTEX
8
0
62
255
10
-2.0951473
20
2.9921804
30
0
70
32
0
VERTEX
8
0
62
255
10
-2.3390327
20
2.7875506
30
0
70
32
0
VERTEX
8
0
62
255
10
-2.5632621
20
2.5632621
30
0
70
32
0
VERTEX
8
0
62
255
10
-2.7662716
20
2.3211775
30
0
70
32
0
VERTEX
8
0
62
255
10
-2.9466719
20
2.0632819
30
0
70
32
0
VERTEX
8
0
62
255
10
-3.1032577
20
1.7916667
30
0
70
32
0
VERTEX
8
0
62
255
10
-3.2350153
20
1.5085124
30
0
70
32
0
VERTEX
8
0
62
255
10
-3.3411293
20
1.2160716
30
0
70
32
0
VERTEX
8
0
62
255
10
-3.4209873
20
0.91665078
30
0
70
32
0
VERTEX
8
0
62
255
10
-3.4741829
20
0.61259218
30
0
70
32
0
VERTEX
8
0
62
255
10
-3.5005175
20
0.3062556
30
0
70
32
0
VERTEX
8
0
62
255
10
-3.5
20
1.2858791e-015
30
0
70
32
0
VERTEX
8
0
62
255
10
-3.4728454
20
-0.3038346
30
0
70
32
0
VERTEX
8
0
62
255
10
-3.4194714
20
-0.60294506
30
0
70
32
0
VERTEX
8
0
62
255
10
-3.3404935
20
-0.89508253
30
0
70
32
0
VERTEX
8
0
62
255
10
-3.236719
20
-1.1780694
30
0
70
32
0
VERTEX
8
0
62
255
10
-3.1091392
20
-1.4498154
30
0
70
32
0
VERTEX
8
0
62
255
10
-2.9589201
20
-1.7083333
30
0
70
32
0
VERTEX
8
0
62
255
10
-2.7873924
20
-1.9517532
30
0
70
32
0
VERTEX
8
0
62
255
10
-2.5960395
20
-2.1783358
30
0
70
32
0
VERTEX
8
0
62
255
10
-2.3864854
20
-2.3864854
30
0
70
32
0
VERTEX
8
0
62
255
10
-2.1604806
20
-2.5747605
30
0
70
32
0
VERTEX
8
0
62
255
10
-1.9198878
20
-2.7418839
30
0
70
32
0
VERTEX
8
0
62
255
10
-1.6666667
20
-2.8867513
30
0
70
32
0
VERTEX
8
0
62
255
10
-1.4028578
20
-3.0084383
30
0
70
32
0
VERTEX
8
0
62
255
10
-1.1305666
20
-3.1062062
30
0
70
32
0
VERTEX
8
0
62
255
10
-0.85194602
20
-3.1795058
30
0
70
32
0
VERTEX
8
0
62
255
10
-0.56918014
20
-3.227981
30
0
70
32
0
VERTEX
8
0
62
255
10
-0.28446666
20
-3.2514688
30
0
70
32
0
VERTEX
8
0
62
255
10
-1.3930357e-015
20
-3.25
30
0
70
32
0
VERTEX
8
0
62
255
10
0.28204567
20
-3.2237967
30
0
70
32
0
VERTEX
8
0
62
255
10
0.55953302
20
-3.1732694
30
0
70
32
0
VERTEX
8
0
62
255
10
0.83037777
20
-3.099012
30
0
70
32
0
VERTEX
8
0
62
255
10
1.0925643
20
-3.0017959
30
0
70
32
0
VERTEX
8
0
62
255
10
1.3441609
20
-2.8825623
30
0
70
32
0
VERTEX
8
0
62
255
10
1.5833333
20
-2.7424138
30
0
70
32
0
VERTEX
8
0
62
255
10
1.808359
20
-2.5826044
30
0
70
32
0
VERTEX
8
0
62
255
10
2.0176389
20
-2.4045284
30
0
70
32
0
VERTEX
8
0
62
255
10
2.2097087
20
-2.2097087
30
0
70
32
0
VERTEX
8
0
62
255
10
2.3832494
20
-1.9997837
30
0
70
32
0
VERTEX
8
0
62
255
10
2.5370959
20
-1.7764937
30
0
70
32
0
VERTEX
8
0
62
255
10
2.670245
20
-1.5416667
30
0
70
32
0
VERTEX
8
0
62
255
10
2.7818614
20
-1.2972033
30
0
70
32
0
VERTEX
8
0
62
255
10
2.871283
20
-1.0450615
30
0
70
32
0
VERTEX
8
0
62
255
10
2.9380244
20
-0.78724126
30
0
70
32
0
VERTEX
8
0
62
255
10
2.981779
20
-0.52576809
30
0
70
32
0
VERTEX
8
0
62
255
10
3.0024201
20
-0.26267772
30
0
70
32
0
VERTEX
8
0
62
255
10
3
20
-1.4695762e-015
30
0
70
32
0
VERTEX
8
0
62
255
10
2.9747481
20
0.26025673
30
0
70
32
0
VERTEX
8
0
62
255
10
2.9270675
20
0.51612097
30
0
70
32
0
VERTEX
8
0
62
255
10
2.8575306
20
0.76567301
30
0
70
32
0
VERTEX
8
0
62
255
10
2.7668727
20
1.0070593
30
0
70
32
0
VERTEX
8
0
62
255
10
2.6559853
20
1.2385063
30
0
70
32
0
VERTEX
8
0
62
255
10
2.5259074
20
1.4583333
30
0
70
32
0
VERTEX
8
0
62
255
10
2.3778164
20
1.6649649
30
0
70
32
0
VERTEX
8
0
62
255
10
2.2130173
20
1.856942
30
0
70
32
0
VERTEX
8
0
62
255
10
2.032932
20
2.032932
30
0
70
32
0
VERTEX
8
0
62
255
10
1.8390868
20
2.1917383
30
0
70
32
0
VERTEX
8
0
62
255
10
1.6330996
20
2.3323079
30
0
70
32
0
VERTEX
8
0
62
255
10
1.4166667
20
2.4537386
30
0
70
32
0
VERTEX
8
0
62
255
10
1.1915487
20
2.5552845
30
0
70
32
0
VERTEX
8
0
62
255
10
0.95955651
20
2.6363599
30
0
70
32
0
VERTEX
8
0
62
255
10
0.7225365
20
2.6965429
30
0
70
32
0
VERTEX
8
0
62
255
10
0.48235605
20
2.7355771
30
0
70
32
0
VERTEX
8
0
62
255
10
0.24088879
20
2.7533715
30
0
70
32
0
VERTEX
8
0
62
255
10
6.4004817e-015
20
2.75
30
0
70
32
0
VERTEX
8
0
62
255
10
-0.2384678
20
2.7256994
30
0
70
32
0
VERTEX
8
0
62
255
10
-0.47270893
20
2.6808655
30
0
70
32
0
VERTEX
8
0
62
255
10
-0.70096825
20
2.6160491
30
0
70
32
0
VERTEX
8
0
62
255
10
-0.92155428
20
2.5319496
30
0
70
32
0
VERTEX
8
0
62
255
10
-1.1328517
20
2.4294084
30
0
70
32
0
VERTEX
8
0
62
255
10
-1.3333333
20
2.3094011
30
0
70
32
0
VERTEX
8
0
62
255
10
-1.5215708
20
2.1730283
30
0
70
32
0
VERTEX
8
0
62
255
10
-1.6962451
20
2.0215062
30
0
70
32
0
VERTEX
8
0
62
255
10
-1.8561553
20
1.8561553
30
0
70
32
0
VERTEX
8
0
62
255
10
-2.0002272
20
1.6783899
30
0
70
32
0
VERTEX
8
0
62
255
10
-2.1275199
20
1.4897055
30
0
70
32
0
VERTEX
8
0
62
255
10
-2.2372323
20
1.2916667
30
0
70
32
0
VERTEX
8
0
62
255
10
-2.3287075
20
1.0858941
30
0
70
32
0
VERTEX
8
0
62
255
10
-2.4014367
20
0.87405148
30
0
70
32
0
VERTEX
8
0
62
255
10
-2.4550615
20
0.65783174
30
0
70
32
0
VERTEX
8
0
62
255
10
-2.4893752
20
0.438944
30
0
70
32
0
VERTEX
8
0
62
255
10
-2.5043228
20
0.21909985
30
0
70
32
0
VERTEX
8
0
62
255
10
-2.5
20
1.5308085e-015
30
0
70
32
0
VERTEX
8
0
62
255
10
-2.4766507
20
-0.21667886
30
0
70
32
0
VERTEX
8
0
62
255
10
-2.4346636
20
-0.42929688
30
0
70
32
0
VERTEX
8
0
62
255
10
-2.3745677
20
-0.63626349
30
0
70
32
0
VERTEX
8
0
62
255
10
-2.2970264
20
-0.83604924
30
0
70
32
0
VERTEX
8
0
62
255
10
-2.2028314
20
-1.0271972
30
0
70
32
0
VERTEX
8
0
62
255
10
-2.0928947
20
-1.2083333
30
0
70
32
0
VERTEX
8
0
62
255
10
-1.9682403
20
-1.3781767
30
0
70
32
0
VERTEX
8
0
62
255
10
-1.8299951
20
-1.5355482
30
0
70
32
0
VERTEX
8
0
62
255
10
-1.6793786
20
-1.6793786
30
0
70
32
0
VERTEX
8
0
62
255
10
-1.517693
20
-1.808716
30
0
70
32
0
VERTEX
8
0
62
255
10
-1.3463114
20
-1.9227319
30
0
70
32
0
VERTEX
8
0
62
255
10
-1.1666667
20
-2.0207259
30
0
70
32
0
VERTEX
8
0
62
255
10
-0.98023958
20
-2.1021306
30
0
70
32
0
VERTEX
8
0
62
255
10
-0.78854644
20
-2.1665135
30
0
70
32
0
VERTEX
8
0
62
255
10
-0.59312698
20
-2.21358
30
0
70
32
0
VERTEX
8
0
62
255
10
-0.39553196
20
-2.2431732
30
0
70
32
0
VERTEX
8
0
62
255
10
-0.19731092
20
-2.2552741
30
0
70
32
0
VERTEX
8
0
62
255
10
2.4813025e-015
20
-2.25
30
0
70
32
0
VERTEX
8
0
62
255
10
0.19488992
20
-2.227602
30
0
70
32
0
VERTEX
8
0
62
255
10
0.38588484
20
-2.1884617
30
0
70
32
0
VERTEX
8
0
62
255
10
0.57155872
20
-2.1330862
30
0
70
32
0
VERTEX
8
0
62
255
10
0.7505442
20
-2.0621033
30
0
70
32
0
VERTEX
8
0
62
255
10
0.9215426
20
-1.9762545
30
0
70
32
0
VERTEX
8
0
62
255
10
1.0833333
20
-1.8763884
30
0
70
32
0
VERTEX
8
0
62
255
10
1.2347826
20
-1.7634523
30
0
70
32
0
VERTEX
8
0
62
255
10
1.3748513
20
-1.6384839
30
0
70
32
0
VERTEX
8
0
62
255
10
1.5026019
20
-1.5026019
30
0
70
32
0
VERTEX
8
0
62
255
10
1.6172049
20
-1.3569961
30
0
70
32
0
VERTEX
8
0
62
255
10
1.7179439
20
-1.2029172
30
0
70
32
0
VERTEX
8
0
62
255
10
1.8042196
20
-1.0416667
30
0
70
32
0
VERTEX
8
0
62
255
10
1.8755536
20
-0.87458501
30
0
70
32
0
VERTEX
8
0
62
255
10
1.9315904
20
-0.70304141
30
0
70
32
0
VERTEX
8
0
62
255
10
1.9720986
20
-0.52842222
30
0
70
32
0
VERTEX
8
0
62
255
10
1.9969713
20
-0.35211992
30
0
70
32
0
VERTEX
8
0
62
255
10
2.0062254
20
-0.17552198
30
0
70
32
0
VERTEX
8
0
62
255
10
2
20
-1.4695762e-015
30
0
70
32
0
VERTEX
8
0
62
255
10
1.9785534
20
0.17310099
30
0
70
32
0
VERTEX
8
0
62
255
10
1.9422597
20
0.34247279
30
0
70
32
0
VERTEX
8
0
62
255
10
1.8916047
20
0.50685396
30
0
70
32
0
VERTEX
8
0
62
255
10
1.8271801
20
0.66503917
30
0
70
32
0
VERTEX
8
0
62
255
10
1.7496775
20
0.81588803
30
0
70
32
0
VERTEX
8
0
62
255
10
1.659882
20
0.95833333
30
0
70
32
0
VERTEX
8
0
62
255
10
1.5586643
20
1.0913885
30
0
70
32
0
VERTEX
8
0
62
255
10
1.4469728
20
1.2141544
30
0
70
32
0
VERTEX
8
0
62
255
10
1.3258252
20
1.3258252
30
0
70
32
0
VERTEX
8
0
62
255
10
1.1962992
20
1.4256938
30
0
70
32
0
VERTEX
8
0
62
255
10
1.0595231
20
1.5131559
30
0
70
32
0
VERTEX
8
0
62
255
10
0.91666667
20
1.5877132
30
0
70
32
0
VERTEX
8
0
62
255
10
0.76893045
20
1.6489767
30
0
70
32
0
VERTEX
8
0
62
255
10
0.61753637
20
1.6966672
30
0
70
32
0
VERTEX
8
0
62
255
10
0.46371746
20
1.7306171
30
0
70
32
0
VERTEX
8
0
62
255
10
0.30870787
20
1.7507693
30
0
70
32
0
VERTEX
8
0
62
255
10
0.15373305
20
1.7571768
30
0
70
32
0
VERTEX
8
0
62
255
10
-1.7155887e-015
20
1.75
30
0
70
32
0
VERTEX
8
0
62
255
10
-0.15131205
20
1.7295047
30
0
70
32
0
VERTEX
8
0
62
255
10
-0.29906075
20
1.6960578
30
0
70
32
0
VERTEX
8
0
62
255
10
-0.4421492
20
1.6501233
30
0
70
32
0
VERTEX
8
0
62
255
10
-0.57953413
20
1.5922569
30
0
70
32
0
VERTEX
8
0
62
255
10
-0.71023347
20
1.5231006
30
0
70
32
0
VERTEX
8
0
62
255
10
-0.83333333
20
1.4433757
30
0
70
32
0
VERTEX
8
0
62
255
10
-0.94799439
20
1.3538763
30
0
70
32
0
VERTEX
8
0
62
255
10
-1.0534575
20
1.2554617
30
0
70
32
0
VERTEX
8
0
62
255
10
-1.1490485
20
1.1490485
30
0
70
32
0
VERTEX
8
0
62
255
10
-1.2341827
20
1.0356023
30
0
70
32
0
VERTEX
8
0
62
255
10
-1.3083678
20
0.91612903
30
0
70
32
0
VERTEX
8
0
62
255
10
-1.3712069
20
0.79166667
30
0
70
32
0
VERTEX
8
0
62
255
10
-1.4223997
20
0.66327588
30
0
70
32
0
VERTEX
8
0
62
255
10
-1.4617441
20
0.53203133
30
0
70
32
0
VERTEX
8
0
62
255
10
-1.4891356
20
0.39901269
30
0
70
32
0
VERTEX
8
0
62
255
10
-1.5045674
20
0.26529583
30
0
70
32
0
VERTEX
8
0
62
255
10
-1.5081281
20
0.13194411
30
0
70
32
0
VERTEX
8
0
62
255
10
-1.5
20
1.2858791e-015
30
0
70
32
0
VERTEX
8
0
62
255
10
-1.480456
20
-0.12952312
30
0
70
32
0
VERTEX
8
0
62
255
10
-1.4498559
20
-0.25564871
30
0
70
32
0
VERTEX
8
0
62
255
10
-1.4086418
20
-0.37744444
30
0
70
32
0
VERTEX
8
0
62
255
10
-1.3573338
20
-0.4940291
30
0
70
32
0
VERTEX
8
0
62
255
10
-1.2965236
20
-0.6045789
30
0
70
32
0
VERTEX
8
0
62
255
10
-1.2268693
20
-0.70833333
30
0
70
32
0
VERTEX
8
0
62
255
10
-1.1490883
20
-0.80460028
30
0
70
32
0
VERTEX
8
0
62
255
10
-1.0639506
20
-0.89276057
30
0
70
32
0
VERTEX
8
0
62
255
10
-0.97227182
20
-0.97227182
30
0
70
32
0
VERTEX
8
0
62
255
10
-0.87490536
20
-1.0426716
30
0
70
32
0
VERTEX
8
0
62
255
10
-0.77273492
20
-1.1035798
30
0
70
32
0
VERTEX
8
0
62
255
10
-0.66666667
20
-1.1547005
30
0
70
32
0
VERTEX
8
0
62
255
10
-0.55762132
20
-1.1958228
30
0
70
32
0
VERTEX
8
0
62
255
10
-0.4465263
20
-1.2268209
30
0
70
32
0
VERTEX
8
0
62
255
10
-0.33430793
20
-1.2476542
30
0
70
32
0
VERTEX
8
0
62
255
10
-0.22188378
20
-1.2583655
30
0
70
32
0
VERTEX
8
0
62
255
10
-0.11015517
20
-1.2590794
30
0
70
32
0
VERTEX
8
0
62
255
10
1.0723397e-015
20
-1.25
30
0
70
32
0
VERTEX
8
0
62
255
10
0.10773418
20
-1.2314073
30
0
70
32
0
VERTEX
8
0
62
255
10
0.21223666
20
-1.2036539
30
0
70
32
0
VERTEX
8
0
62
255
10
0.31273968
20
-1.1671604
30
0
70
32
0
VERTEX
8
0
62
255
10
0.40852406
20
-1.1224106
30
0
70
32
0
VERTEX
8
0
62
255
10
0.49892434
20
-1.0699467
30
0
70
32
0
VERTEX
8
0
62
255
10
0.58333333
20
-1.010363
30
0
70
32
0
VERTEX
8
0
62
255
10
0.66120617
20
-0.94430027
30
0
70
32
0
VERTEX
8
0
62
255
10
0.73206367
20
-0.8724395
30
0
70
32
0
VERTEX
8
0
62
255
10
0.79549513
20
-0.79549513
30
0
70
32
0
VERTEX
8
0
62
255
10
0.85116049
20
-0.71420846
30
0
70
32
0
VERTEX
8
0
62
255
10
0.89879183
20
-0.62934081
30
0
70
32
0
VERTEX
8
0
62
255
10
0.93819419
20
-0.54166667
30
0
70
32
0
VERTEX
8
0
62
255
10
0.96924583
20
-0.45196675
30
0
70
32
0
VERTEX
8
0
62
255
10
0.99189777
20
-0.36102126
30
0
70
32
0
VERTEX
8
0
62
255
10
1.0061727
20
-0.26960317
30
0
70
32
0
VERTEX
8
0
62
255
10
1.0121635
20
-0.17847174
30
0
70
32
0
VERTEX
8
0
62
255
10
1.0100307
20
-0.088366239
30
0
70
32
0
VERTEX
8
0
62
255
10
1
20
-9.7971744e-016
30
0
70
32
0
VERTEX
8
0
62
255
10
0.98235866
20
0.085945246
30
0
70
32
0
VERTEX
8
0
62
255
10
0.95745198
20
0.16882462
30
0
70
32
0
VERTEX
8
0
62
255
10
0.92567892
20
0.24803492
30
0
70
32
0
VERTEX
8
0
62
255
10
0.88748748
20
0.32301902
30
0
70
32
0
VERTEX
8
0
62
255
10
0.84336975
20
0.39326977
30
0
70
32
0
VERTEX
8
0
62
255
10
0.79385662
20
0.45833333
30
0
70
32
0
VERTEX
8
0
62
255
10
0.73951226
20
0.51781206
30
0
70
32
0
VERTEX
8
0
62
255
10
0.68092839
20
0.57136676
30
0
70
32
0
VERTEX
8
0
62
255
10
0.61871843
20
0.61871843
30
0
70
32
0
VERTEX
8
0
62
255
10
0.55351155
20
0.65964938
30
0
70
32
0
VERTEX
8
0
62
255
10
0.4859467
20
0.69400382
30
0
70
32
0
VERTEX
8
0
62
255
10
0.41666667
20
0.72168784
30
0
70
32
0
VERTEX
8
0
62
255
10
0.34631219
20
0.74266888
30
0
70
32
0
VERTEX
8
0
62
255
10
0.27551623
20
0.75697461
30
0
70
32
0
VERTEX
8
0
62
255
10
0.20489841
20
0.76469128
30
0
70
32
0
VERTEX
8
0
62
255
10
0.13505969
20
0.76596159
30
0
70
32
0
VERTEX
8
0
62
255
10
0.066577303
20
0.76098206
30
0
70
32
0
VERTEX
8
0
62
255
10
2.11298e-015
20
0.75
30
0
70
32
0
VERTEX
8
0
62
255
10
-0.064156311
20
0.73330999
30
0
70
32
0
VERTEX
8
0
62
255
10
-0.12541257
20
0.71125004
30
0
70
32
0
VERTEX
8
0
62
255
10
-0.18333016
20
0.68419746
30
0
70
32
0
VERTEX
8
0
62
255
10
-0.23751399
20
0.65256432
30
0
70
32
0
VERTEX
8
0
62
255
10
-0.28761521
20
0.6167928
30
0
70
32
0
VERTEX
8
0
62
255
10
-0.33333333
20
0.57735027
30
0
70
32
0
VERTEX
8
0
62
255
10
-0.37441795
20
0.53472425
30
0
70
32
0
VERTEX
8
0
62
255
10
-0.41066986
20
0.48941728
30
0
70
32
0
VERTEX
8
0
62
255
10
-0.44194174
20
0.44194174
30
0
70
32
0
VERTEX
8
0
62
255
10
-0.46813827
20
0.39281465
30
0
70
32
0
VERTEX
8
0
62
255
10
-0.4892158
20
0.34255259
30
0
70
32
0
VERTEX
8
0
62
255
10
-0.50518149
20
0.29166667
30
0
70
32
0
VERTEX
8
0
62
255
10
-0.51609193
20
0.24065762
30
0
70
32
0
VERTEX
8
0
62
255
10
-0.52205146
20
0.19001119
30
0
70
32
0
VERTEX
8
0
62
255
10
-0.52320982
20
0.14019365
30
0
70
32
0
VERTEX
8
0
62
255
10
-0.51975965
20
0.091647649
30
0
70
32
0
VERTEX
8
0
62
255
10
-0.51193339
20
0.044788368
30
0
70
32
0
VERTEX
8
0
62
255
10
-0.5
20
2.3274479e-015
30
0
70
32
0
VERTEX
8
0
62
255
10
-0.48426131
20
-0.042367375
30
0
70
32
0
VERTEX
8
0
62
255
10
-0.46504811
20
-0.082000528
30
0
70
32
0
VERTEX
8
0
62
255
10
-0.442716
20
-0.1186254
30
0
70
32
0
VERTEX
8
0
62
255
10
-0.41764116
20
-0.15200895
30
0
70
32
0
VERTEX
8
0
62
255
10
-0.39021585
20
-0.18196064
30
0
70
32
0
VERTEX
8
0
62
255
10
-0.36084392
20
-0.20833333
30
0
70
32
0
VERTEX
8
0
62
255
10
-0.32993624
20
-0.23102384
30
0
70
32
0
VERTEX
8
0
62
255
10
-0.29790617
20
-0.24997296
30
0
70
32
0
VERTEX
8
0
62
255
10
-0.26516504
20
-0.26516504
30
0
70
32
0
VERTEX
8
0
62
255
10
-0.23211775
20
-0.27662716
30
0
70
32
0
VERTEX
8
0
62
255
10
-0.19915848
20
-0.28442779
30
0
70
32
0
VERTEX
8
0
62
255
10
-0.16666667
20
-0.28867513
30
0
70
32
0
VERTEX
8
0
62
255
10
-0.13500306
20
-0.28951499
30
0
70
32
0
VERTEX
8
0
62
255
10
-0.10450615
20
-0.2871283
30
0
70
32
0
VERTEX
8
0
62
255
10
-0.075488888
20
-0.28172837
30
0
70
32
0
VERTEX
8
0
62
255
10
-0.048235605
20
-0.27355771
30
0
70
32
0
VERTEX
8
0
62
255
10
-0.022999432
20
-0.26288471
30
0
70
32
0
VERTEX
8
0
62
255
10
1.532356e-016
20
-0.25
30
0
70
32
0
VERTEX
8
0
62
255
10
0.020578439
20
-0.23521264
30
0
70
32
0
VERTEX
8
0
62
255
10
0.038588484
20
-0.21884617
30
0
70
32
0
VERTEX
8
0
62
255
10
0.053920634
20
-0.20123455
30
0
70
32
0
VERTEX
8
0
62
255
10
0.066503917
20
-0.18271801
30
0
70
32
0
VERTEX
8
0
62
255
10
0.076306075
20
-0.16363891
30
0
70
32
0
VERTEX
8
0
62
255
10
0.083333333
20
-0.14433757
30
0
70
32
0
VERTEX
8
0
62
255
10
0.087629733
20
-0.12514823
30
0
70
32
0
VERTEX
8
0
62
255
10
0.089276057
20
-0.10639506
30
0
70
32
0
VERTEX
8
0
62
255
10
0.088388348
20
-0.088388348
30
0
70
32
0
VERTEX
8
0
62
255
10
0.085116049
20
-0.071420846
30
0
70
32
0
VERTEX
8
0
62
255
10
0.079639782
20
-0.055764376
30
0
70
32
0
VERTEX
8
0
62
255
10
0.072168784
20
-0.041666667
30
0
70
32
0
VERTEX
8
0
62
255
10
0.062938041
20
-0.02934849
30
0
70
32
0
VERTEX
8
0
62
255
10
0.052205146
20
-0.019001119
30
0
70
32
0
VERTEX
8
0
62
255
10
0.040246909
20
-0.010784127
30
0
70
32
0
VERTEX
8
0
62
255
10
0.027355771
20
-0.0048235605
30
0
70
32
0
VERTEX
8
0
62
255
10
0.013836037
20
-0.0012104964
30
0
70
32
0
VERTEX
8
0
62
255
10
0
20
-0
30
0
70
32
0
SEQEND
8
0
0
ENDSEC
0
EOF
