0
SECTION
2
HEADER
9
$ACADVER
1
AC1006
9
$INSUNITS
70
6
0
ENDSEC
0
SECTION
2
ENTITIES
0
POINT
8
20
62
2
10
8.1472369
20
7.4486786
30
4.2706235
0
POINT
8
20
62
2
10
9.0579194
20
8.9226719
30
9.553721
0
POINT
8
20
62
2
10
1.2698682
20
2.4260339
30
7.2424703
0
POINT
8
20
62
2
10
9.1337586
20
1.2959698
30
5.8089171
0
POINT
8
20
62
2
10
6.3235925
20
2.2506788
30
5.4025791
0
POINT
8
20
62
2
10
0.97540405
20
3.5001392
30
7.0544119
0
POINT
8
20
62
2
10
2.7849822
20
2.8708461
30
0.050288833
0
POINT
8
20
62
2
10
5.4688152
20
9.2748801
30
7.8251578
0
POINT
8
20
62
2
10
9.5750684
20
0.51313757
30
9.2685957
0
POINT
8
20
62
2
10
9.6488854
20
5.9266676
30
0.082956574
0
POINT
8
20
62
2
10
1.5761308
20
1.628989
30
8.2462834
0
POINT
8
20
62
2
10
9.7059278
20
8.3840577
30
7.6733587
0
POINT
8
20
62
2
10
9.5716695
20
1.6756093
30
9.971369
0
POINT
8
20
62
2
10
4.8537565
20
5.0220062
30
2.2765307
0
POINT
8
20
62
2
10
8.0028047
20
9.9932948
30
9.1954221
0
POINT
8
20
62
2
10
1.4188634
20
3.5540715
30
6.4199931
0
POINT
8
20
62
2
10
4.2176128
20
0.4707771
30
1.0532018
0
POINT
8
20
62
2
10
9.1573553
20
2.1366059
30
2.6816091
0
POINT
8
20
62
2
10
7.9220733
20
3.9783912
30
7.6384376
0
POINT
8
20
62
2
10
9.5949243
20
3.3366818
30
8.0551016
0
POINT
8
20
62
2
10
6.557407
20
2.2960253
30
1.04253
0
POINT
8
20
62
2
10
0.35711679
20
9.3612018
30
4.6975878
0
POINT
8
20
62
2
10
8.4912931
20
6.8318878
30
2.1906189
0
POINT
8
20
62
2
10
9.3399325
20
9.621138
30
9.2270791
0
POINT
8
20
62
2
10
6.7873515
20
4.3797318
30
3.2032263
0
POINT
8
20
62
2
10
7.5774013
20
9.4033665
30
8.5754381
0
POINT
8
20
62
2
10
7.4313247
20
0.058343246
30
2.5984667
0
POINT
8
20
62
2
10
3.9222702
20
6.1030703
30
8.7806294
0
POINT
8
20
62
2
10
6.5547789
20
8.0107576
30
1.8826762
0
POINT
8
20
62
2
10
1.7118669
20
2.3298153
30
7.5919384
0
POINT
8
20
62
2
10
7.0604609
20
9.3246868
30
0.316893
0
POINT
8
20
62
2
10
0.31832846
20
7.6326278
30
6.4233916
0
POINT
8
20
62
2
10
2.7692298
20
8.2644954
30
5.6687091
0
POINT
8
20
62
2
10
0.46171391
20
5.7346359
30
3.7640955
0
POINT
8
20
62
2
10
0.97131781
20
7.9258166
30
2.1254838
0
POINT
8
20
62
2
10
8.2345783
20
3.290412
30
7.9215684
0
POINT
8
20
62
2
10
6.9482862
20
2.2346198
30
1.4544348
0
POINT
8
20
62
2
10
3.1709948
20
3.1238634
30
4.8914245
0
POINT
8
20
62
2
10
9.5022205
20
5.8452348
30
0.12845747
0
POINT
8
20
62
2
10
0.34446081
20
8.2991414
30
1.8661202
0
POINT
8
20
62
2
10
4.3874436
20
2.9046249
30
4.8523046
0
POINT
8
20
62
2
10
3.8155846
20
4.0255439
30
8.3822608
0
POINT
8
20
62
2
10
7.6551679
20
8.620573
30
1.4105697
0
POINT
8
20
62
2
10
7.951999
20
6.1473955
30
7.3221699
0
POINT
8
20
62
2
10
1.868726
20
9.9118779
30
6.9106692
0
POINT
8
20
62
2
10
4.897644
20
2.0369888
30
0.3449262
0
POINT
8
20
62
2
10
4.455862
20
8.2720908
30
4.8885726
0
POINT
8
20
62
2
10
6.4631301
20
6.7586162
30
9.7139041
0
POINT
8
20
62
2
10
7.0936483
20
2.4894947
30
1.1245138
0
POINT
8
20
62
2
10
7.5468668
20
4.7578563
30
7.4321377
0
POINT
8
20
62
2
10
2.7602508
20
3.9907523
30
6.3854137
0
POINT
8
20
62
2
10
6.7970268
20
5.9943825
30
5.9418291
0
POINT
8
20
62
2
10
6.55098
20
8.0052277
30
4.9862251
0
POINT
8
20
62
2
10
1.6261174
20
1.0506877
30
5.6785266
0
POINT
8
20
62
2
10
1.1899768
20
8.2144219
30
4.2650425
0
POINT
8
20
62
2
10
4.9836405
20
8.4108633
30
0.76239442
0
POINT
8
20
62
2
10
9.5974396
20
3.5450624
30
2.9058665
0
POINT
8
20
62
2
10
3.4038573
20
4.3006946
30
5.6133505
0
POINT
8
20
62
2
10
5.8526775
20
5.7223922
30
6.3333347
0
POINT
8
20
62
2
10
2.2381194
20
7.0082473
30
9.3077586
0
POINT
8
20
62
2
10
7.5126706
20
7.4246976
30
9.7776916
0
POINT
8
20
62
2
10
2.5509512
20
7.5788415
30
0.93596546
0
POINT
8
20
62
2
10
5.0595705
20
3.8912876
30
6.6173494
0
POINT
8
20
62
2
10
6.9907672
20
4.2930248
30
6.027729
0
POINT
8
20
62
2
10
8.9090325
20
9.5634466
30
4.7381786
0
POINT
8
20
62
2
10
9.5929143
20
5.7297137
30
3.5625634
0
POINT
8
20
62
2
10
5.4721553
20
8.4972205
30
4.7557844
0
POINT
8
20
62
2
10
1.3862444
20
2.7634532
30
6.7102202
0
POINT
8
20
62
2
10
1.4929401
20
6.2232362
30
9.596452
0
POINT
8
20
62
2
10
2.5750825
20
5.8836168
30
0.89084266
0
POINT
8
20
62
2
10
8.4071726
20
9.6346847
30
7.9774246
0
POINT
8
20
62
2
10
2.5428218
20
0.85902695
30
5.9077575
0
POINT
8
20
62
2
10
8.1428483
20
5.0049889
30
9.1219675
0
POINT
8
20
62
2
10
2.4352497
20
5.2158968
30
1.0112932
0
POINT
8
20
62
2
10
9.2926362
20
0.90166002
30
2.9329464
0
POINT
8
20
62
2
10
3.4998377
20
9.0466648
30
0.51588205
0
POINT
8
20
62
2
10
1.9659525
20
8.8438894
30
5.0412818
0
POINT
8
20
62
2
10
2.5108386
20
4.3898967
30
7.6837575
0
POINT
8
20
62
2
10
6.1604468
20
7.8172261
30
2.8298538
0
POINT
8
20
62
2
10
4.7328885
20
1.4846502
30
2.2536025
0
POINT
8
20
62
2
10
3.5165951
20
6.1981593
30
3.3128964
0
POINT
8
20
62
2
10
8.3082863
20
2.6062368
30
4.5325135
0
POINT
8
20
62
2
10
5.8526409
20
4.4565621
30
7.3738464
0
POINT
8
20
62
2
10
5.4972361
20
8.4399951
30
5.0988565
0
POINT
8
20
62
2
10
9.1719366
20
1.9620492
30
3.8251419
0
POINT
8
20
62
2
10
2.8583902
20
3.0385162
30
9.0548322
0
POINT
8
20
62
2
10
7.5720023
20
4.8329457
30
9.6525775
0
POINT
8
20
62
2
10
7.5372909
20
3.3781204
30
6.2826735
0
POINT
8
20
62
2
10
3.8044585
20
7.9848583
30
1.3203117
0
POINT
8
20
62
2
10
5.6782164
20
9.8748758
30
6.1830178
0
POINT
8
20
62
2
10
0.7585429
20
1.5904755
30
3.830201
0
POINT
8
20
62
2
10
0.53950119
20
2.3687978
30
9.9119375
0
POINT
8
20
62
2
10
5.3079755
20
7.0223663
30
2.8682728
0
POINT
8
20
62
2
10
7.7916723
20
3.7547166
30
7.0619143
0
POINT
8
20
62
2
10
9.3401068
20
9.737049
30
5.352059
0
POINT
8
20
62
2
10
1.2990621
20
9.7230556
30
1.9321104
0
POINT
8
20
62
2
10
5.6882366
20
6.4369805
30
6.894351
0
POINT
8
20
62
2
10
4.6939064
20
8.6009888
30
0.50455003
0
POINT
8
20
62
2
10
0.1190207
20
4.018834
30
1.8443412
0
POINT
8
20
62
2
10
3.3712264
20
6.319308
30
0.45658323
0
POINT
8
20
62
2
10
1.6218231
20
9.8523664
30
8.850415
0
POINT
8
20
62
2
10
7.9428454
20
5.5947741
30
8.3979439
0
POINT
8
20
62
2
10
3.1121504
20
9.3359192
30
1.1815525
0
POINT
8
20
62
2
10
5.2853314
20
7.2034321
30
4.1041485
0
POINT
8
20
62
2
10
1.6564873
20
4.8403852
30
1.2022859
0
POINT
8
20
62
2
10
6.0198194
20
6.3903109
30
5.7209252
0
POINT
8
20
62
2
10
2.6297128
20
8.8763687
30
9.4939013
0
POINT
8
20
62
2
10
6.540791
20
1.9873675
30
2.5638516
0
POINT
8
20
62
2
10
6.892145
20
3.9536627
30
9.8986544
0
POINT
8
20
62
2
10
7.4815159
20
9.921753
30
3.4980804
0
POINT
8
20
62
2
10
4.505416
20
4.0235162
30
2.0852237
0
POINT
8
20
62
2
10
0.83821378
20
6.5885648
30
6.6582716
0
POINT
8
20
62
2
10
2.2897697
20
9.0134812
30
9.7334471
0
POINT
8
20
62
2
10
9.1333736
20
9.9538178
30
6.2269982
0
POINT
8
20
62
2
10
1.5237802
20
6.5316328
30
0.63537893
0
POINT
8
20
62
2
10
8.2581698
20
1.0843643
30
3.7350953
0
POINT
8
20
62
2
10
5.3834244
20
0.36114031
30
1.6625154
0
POINT
8
20
62
2
10
9.9613472
20
6.1809124
30
2.3127808
0
POINT
8
20
62
2
10
0.78175529
20
5.6714436
30
0.52208633
0
POINT
8
20
62
2
10
4.4267827
20
9.6196466
30
9.0175632
0
POINT
8
20
62
2
10
1.0665277
20
7.4610547
30
7.932917
0
POINT
8
20
62
2
10
9.6189808
20
6.625161
30
3.7301432
0
POINT
8
20
62
2
10
0.046342241
20
5.2331332
30
8.3205471
0
POINT
8
20
62
2
10
7.7491046
20
2.5989428
30
7.5383456
0
POINT
8
20
62
2
10
8.1730322
20
9.6199377
30
6.218631
0
POINT
8
20
62
2
10
8.6869471
20
5.4020404
30
3.9409318
0
POINT
8
20
62
2
10
0.84435846
20
0.30270163
30
3.5927796
0
POINT
8
20
62
2
10
3.9978265
20
6.9631446
30
0.88852461
0
POINT
8
20
62
2
10
2.598704
20
5.1971616
30
3.41677
0
POINT
8
20
62
2
10
8.0006848
20
0.59030556
30
5.4867059
0
POINT
8
20
62
2
10
4.3141383
20
8.9003623
30
4.6054746
0
POINT
8
20
62
2
10
9.1064759
20
3.3020224
30
6.4545237
0
POINT
8
20
62
2
10
1.8184703
20
2.297012
30
5.1352084
0
POINT
8
20
62
2
10
2.6380292
20
1.1394864
30
8.1442647
0
POINT
8
20
62
2
10
1.4553898
20
3.1092271
30
0.97183206
0
POINT
8
20
62
2
10
1.3606856
20
2.2843232
30
4.6371356
0
POINT
8
20
62
2
10
8.6929221
20
6.5199717
30
5.8981749
0
POINT
8
20
62
2
10
5.7970459
20
0.66160125
30
1.8717207
0
POINT
8
20
62
2
10
5.498602
20
2.7543138
30
6.1133015
0
POINT
8
20
62
2
10
1.449548
20
2.8182024
30
0.51941981
0
POINT
8
20
62
2
10
8.5303112
20
8.8006626
30
5.7572695
0
POINT
8
20
62
2
10
6.2205513
20
4.4433036
30
8.423447
0
POINT
8
20
62
2
10
3.5095238
20
7.5591412
30
4.9972597
0
POINT
8
20
62
2
10
5.1324954
20
6.0329638
30
4.3902489
0
POINT
8
20
62
2
10
4.0180803
20
7.8326594
30
1.4905708
0
POINT
8
20
62
2
10
0.75966692
20
1.1393064
30
0.28279451
0
POINT
8
20
62
2
10
2.3991615
20
9.7856389
30
7.5666979
0
POINT
8
20
62
2
10
1.2331893
20
8.4859668
30
7.9610624
0
POINT
8
20
62
2
10
1.8390779
20
0.50646498
30
2.9355559
0
POINT
8
20
62
2
10
2.3995253
20
4.6620183
30
1.1520675
0
POINT
8
20
62
2
10
4.1726707
20
3.2565327
30
3.7509163
0
POINT
8
20
62
2
10
0.4965443
20
6.3020512
30
8.2889375
0
POINT
8
20
62
2
10
9.0271611
20
2.3029916
30
8.4177658
0
POINT
8
20
62
2
10
9.4478719
20
5.7988497
30
6.6523845
0
POINT
8
20
62
2
10
4.9086409
20
6.0315632
30
9.6013998
0
POINT
8
20
62
2
10
4.8925264
20
5.998791
30
9.4311789
0
POINT
8
20
62
2
10
3.3771941
20
4.4842788
30
1.1269949
0
POINT
8
20
62
2
10
9.0005385
20
0.35423461
30
6.4828745
0
POINT
8
20
62
2
10
3.6924678
20
5.1381484
30
4.8080405
0
POINT
8
20
62
2
10
1.1120276
20
4.0773016
30
0.66520692
0
POINT
8
20
62
2
10
7.8025207
20
1.0804604
30
8.9777123
0
POINT
8
20
62
2
10
3.8973884
20
4.5987563
30
4.9723013
0
POINT
8
20
62
2
10
2.4169129
20
4.5088275
30
7.7130343
0
POINT
8
20
62
2
10
4.0391215
20
5.5114034
30
0.60362229
0
POINT
8
20
62
2
10
0.96454525
20
8.0540432
30
2.6245746
0
POINT
8
20
62
2
10
1.3197329
20
7.0085007
30
6.5106937
0
POINT
8
20
62
2
10
9.4205059
20
8.722355
30
1.3360391
0
POINT
8
20
62
2
10
9.5613454
20
0.52192152
30
6.3854574
0
POINT
8
20
62
2
10
5.752086
20
2.1968131
30
3.8494309
0
POINT
8
20
62
2
10
0.59779543
20
4.5964201
30
7.6569813
0
POINT
8
20
62
2
10
2.3477991
20
9.585336
30
6.5291568
0
POINT
8
20
62
2
10
3.5315857
20
7.9004536
30
3.8148907
0
POINT
8
20
62
2
10
8.2119404
20
4.5187461
30
3.0001858
0
POINT
8
20
62
2
10
0.15403438
20
3.3342819
30
3.4013956
0
POINT
8
20
62
2
10
0.43023802
20
0.59095313
30
9.1892654
0
POINT
8
20
62
2
10
1.6899003
20
7.409053
30
4.5626681
0
POINT
8
20
62
2
10
6.4911547
20
5.0679452
30
4.4249695
0
POINT
8
20
62
2
10
7.3172239
20
1.9992541
30
4.5418582
0
POINT
8
20
62
2
10
6.4774596
20
4.2719355
30
9.4528201
0
POINT
8
20
62
2
10
4.5092371
20
1.6869028
30
2.1911895
0
POINT
8
20
62
2
10
5.4700889
20
7.5169459
30
8.824028
0
POINT
8
20
62
2
10
2.9632081
20
3.6835084
30
0.19875423
0
POINT
8
20
62
2
10
7.4469281
20
9.418178
30
3.4176488
0
POINT
8
20
62
2
10
1.8895502
20
0.17172541
30
7.6602745
0
POINT
8
20
62
2
10
6.8677543
20
8.2905591
30
3.428037
0
POINT
8
20
62
2
10
1.8351116
20
6.2659097
30
6.188064
0
POINT
8
20
62
2
10
3.684846
20
5.3874652
30
4.5302116
0
POINT
8
20
62
2
10
6.2561856
20
6.5050764
30
0.10162603
0
POINT
8
20
62
2
10
7.8022744
20
7.2662953
30
5.9908117
0
POINT
8
20
62
2
10
0.81125769
20
0.94488564
30
6.0156835
0
POINT
8
20
62
2
10
9.2938597
20
8.7757393
30
6.4941745
0
POINT
8
20
62
2
10
7.7571268
20
0.14362144
30
3.4272063
0
POINT
8
20
62
2
10
4.8679163
20
2.9430263
30
4.9329926
0
POINT
8
20
62
2
10
4.3585859
20
1.7991488
30
7.0177395
0
POINT
8
20
62
2
10
4.4678375
20
9.2629427
30
8.878026
0
POINT
8
20
62
2
10
3.0634947
20
0.68180437
30
0.55057846
0
POINT
8
20
62
2
10
5.0850866
20
5.8109323
30
0.98361951
0
POINT
8
20
62
2
10
5.1077156
20
6.3715122
30
6.4978279
0
POINT
8
20
62
2
10
8.1762771
20
6.5126926
30
7.6407089
0
POINT
8
20
62
2
10
7.9483142
20
8.6462201
30
9.8795894
0
POINT
8
20
62
2
10
6.4431813
20
0.55952529
30
1.2532479
0
POINT
8
20
62
2
10
3.7860938
20
8.1685517
30
3.6447718
0
POINT
8
20
62
2
10
8.1158046
20
5.2892247
30
6.7623009
0
POINT
8
20
62
2
10
5.3282559
20
6.9435056
30
3.7575817
0
POINT
8
20
62
2
10
3.507271
20
2.124049
30
8.6345849
0
POINT
8
20
62
2
10
9.3900156
20
5.4327995
30
2.9197675
0
POINT
8
20
62
2
10
8.7594281
20
7.0252027
30
1.3347499
0
POINT
8
20
62
2
10
5.5015634
20
9.5643456
30
6.7265051
0
POINT
8
20
62
2
10
6.2247509
20
4.4454216
30
2.0258498
0
POINT
8
20
62
2
10
5.870447
20
0.85397831
30
8.685152
0
POINT
8
20
62
2
10
2.0774229
20
0.57340148
30
7.5115732
0
POINT
8
20
62
2
10
3.0124633
20
6.2945049
30
4.1937965
0
POINT
8
20
62
2
10
4.7092335
20
7.9617907
30
0.002310652
0
POINT
8
20
62
2
10
2.3048816
20
6.9119133
30
1.4946373
0
POINT
8
20
62
2
10
8.4430879
20
3.4530786
30
2.738343
0
POINT
8
20
62
2
10
1.9476429
20
9.4681667
30
8.7242502
0
POINT
8
20
62
2
10
2.2592178
20
5.2019032
30
6.0125114
0
POINT
8
20
62
2
10
1.7070805
20
9.5381303
30
3.2118845
0
POINT
8
20
62
2
10
2.276643
20
0.73595636
30
2.8429307
0
POINT
8
20
62
2
10
4.3569868
20
2.0703195
30
4.3531581
0
POINT
8
20
62
2
10
3.1110229
20
7.7502781
30
9.0375905
0
POINT
8
20
62
2
10
9.2337964
20
9.1418782
30
9.2510564
0
POINT
8
20
62
2
10
4.3020739
20
7.8255065
30
5.0529245
0
POINT
8
20
62
2
10
1.8481632
20
2.955342
30
6.2758181
0
POINT
8
20
62
2
10
9.0488097
20
1.5184572
30
7.1926393
0
POINT
8
20
62
2
10
9.7974838
20
8.4791052
30
0.23912881
0
POINT
8
20
62
2
10
4.3886997
20
7.8485459
30
5.749325
0
POINT
8
20
62
2
10
1.1111922
20
2.708315
30
0.46534464
0
POINT
8
20
62
2
10
2.580647
20
2.278107
30
4.2253139
0
POINT
8
20
62
2
10
4.0871985
20
3.2102322
30
4.6773426
0
POINT
8
20
62
2
10
5.9489607
20
8.295618
30
0.22627987
0
POINT
8
20
62
2
10
2.6221175
20
8.2218219
30
0.65074042
0
POINT
8
20
62
2
10
6.0284309
20
5.7068285
30
9.2395634
0
POINT
8
20
62
2
10
7.1121578
20
5.7182964
30
5.3414286
0
POINT
8
20
62
2
10
2.2174673
20
2.8601827
30
3.6679647
0
POINT
8
20
62
2
10
1.1741765
20
6.9913356
30
3.6394618
0
POINT
8
20
62
2
10
2.9667587
20
7.9625794
30
1.5137367
0
POINT
8
20
62
2
10
3.187783
20
4.4158906
30
1.496086
0
POINT
8
20
62
2
10
4.2416676
20
4.4621561
30
3.5080209
0
POINT
8
20
62
2
10
5.0785828
20
4.6566241
30
3.359661
0
POINT
8
20
62
2
10
0.85515797
20
2.7903919
30
7.8402785
0
POINT
8
20
62
2
10
2.6248223
20
6.7537532
30
4.8673921
0
POINT
8
20
62
2
10
8.0101462
20
9.0366453
30
4.6479801
0
POINT
8
20
62
2
10
0.29220278
20
9.085259
30
1.3125255
0
POINT
8
20
62
2
10
9.2885414
20
7.4719694
30
8.8639147
0
POINT
8
20
62
2
10
7.3033086
20
2.6051151
30
6.7455743
0
POINT
8
20
62
2
10
4.8860897
20
6.8963784
30
8.3515964
0
POINT
8
20
62
2
10
5.7852506
20
1.3183067
30
6.5648793
0
POINT
8
20
62
2
10
2.3728358
20
1.2350083
30
9.8391698
0
POINT
8
20
62
2
10
4.5884883
20
1.9090285
30
9.7978987
0
POINT
8
20
62
2
10
9.6308854
20
1.457321
30
2.5015301
0
POINT
8
20
62
2
10
5.4680572
20
5.8504362
30
6.245707
0
POINT
8
20
62
2
10
5.2113583
20
0.7336169
30
7.2824242
0
POINT
8
20
62
2
10
2.3159439
20
8.2232622
30
4.9817032
0
POINT
8
20
62
2
10
4.8889774
20
7.2290297
30
8.4982829
0
POINT
8
20
62
2
10
6.2406009
20
9.2585804
30
1.909182
0
POINT
8
20
62
2
10
6.7913554
20
4.926386
30
1.2414379
0
POINT
8
20
62
2
10
3.9551522
20
6.548829
30
0.027904213
0
POINT
8
20
62
2
10
3.6743665
20
8.9012348
30
1.5295279
0
POINT
8
20
62
2
10
9.87982
20
5.3852557
30
5.3416082
0
POINT
8
20
62
2
10
0.37738866
20
2.8220516
30
5.1063361
0
POINT
8
20
62
2
10
8.8516801
20
9.7595752
30
3.8521588
0
POINT
8
20
62
2
10
9.1328683
20
0.36425516
30
3.1059645
0
POINT
8
20
62
2
10
7.9618387
20
3.2624457
30
0.035554475
0
POINT
8
20
62
2
10
0.98712279
20
9.7301362
30
8.1524245
0
POINT
8
20
62
2
10
2.6187118
20
3.6503263
30
6.3841846
0
POINT
8
20
62
2
10
3.3535684
20
3.0914962
30
4.4833938
0
POINT
8
20
62
2
10
6.7972795
20
1.2091238
30
2.4408577
0
POINT
8
20
62
2
10
1.3655314
20
9.157657
30
8.0338509
0
POINT
8
20
62
2
10
7.212275
20
1.3547821
30
8.2397089
0
POINT
8
20
62
2
10
1.0676186
20
3.3211789
30
8.5219065
0
POINT
8
20
62
2
10
6.5375735
20
8.9747989
30
4.6725176
0
POINT
8
20
62
2
10
4.9417394
20
4.9964878
30
9.7069897
0
POINT
8
20
62
2
10
7.7905172
20
6.1528824
30
8.4124402
0
POINT
8
20
62
2
10
7.1503708
20
5.8313297
30
0.78548206
0
POINT
8
20
62
2
10
9.0372056
20
6.9825393
30
2.3759889
0
POINT
8
20
62
2
10
8.909225
20
0.29332343
30
8.1757088
0
POINT
8
20
62
2
10
3.3416305
20
5.2788269
30
4.0582871
0
POINT
8
20
62
2
10
6.9874583
20
0.32072846
30
4.6631222
0
POINT
8
20
62
2
10
1.9780983
20
8.2714232
30
9.5153622
0
POINT
8
20
62
2
10
0.30540946
20
3.3998621
30
9.6500531
0
POINT
8
20
62
2
10
7.4407426
20
8.4671096
30
7.6528487
0
POINT
8
20
62
2
10
5.0002244
20
2.4606957
30
5.7453359
0
POINT
8
20
62
2
10
4.7992214
20
5.8149125
30
9.1592503
0
POINT
8
20
62
2
10
9.0472224
20
9.3767688
30
4.9543241
0
POINT
8
20
62
2
10
6.0986665
20
0.47787292
30
1.6601238
0
POINT
8
20
62
2
10
6.1766639
20
0.53977659
30
3.2599767
0
POINT
8
20
62
2
10
8.5944231
20
0.20618034
30
2.9643611
0
POINT
8
20
62
2
10
8.0548942
20
6.8147851
30
5.5829849
0
POINT
8
20
62
2
10
5.7672152
20
5.9862853
30
0.67476803
0
POINT
8
20
62
2
10
1.8292247
20
1.1403003
30
0.68977846
0
POINT
8
20
62
2
10
2.3993201
20
7.9624535
30
1.6678458
0
POINT
8
20
62
2
10
8.8651193
20
6.1785059
30
9.4743826
0
POINT
8
20
62
2
10
0.28674152
20
0.70213524
30
8.1108842
0
POINT
8
20
62
2
10
4.8990139
20
0.69278973
30
7.1045569
0
POINT
8
20
62
2
10
1.6792715
20
1.3600739
30
9.7024556
0
POINT
8
20
62
2
10
9.7868065
20
7.8889132
30
9.9842679
0
POINT
8
20
62
2
10
7.1269447
20
0.92398458
30
9.8745481
0
POINT
8
20
62
2
10
5.0047162
20
2.3786879
30
1.5008658
0
POINT
8
20
62
2
10
4.7108837
20
2.4364791
30
9.584788
0
POINT
8
20
62
2
10
0.59618868
20
1.0482221
30
5.3045905
0
POINT
8
20
62
2
10
6.819719
20
8.5835276
30
0.74086517
0
POINT
8
20
62
2
10
0.42431138
20
6.9819977
30
3.118209
0
POINT
8
20
62
2
10
0.71445465
20
7.3374213
30
8.9517078
0
POINT
8
20
62
2
10
5.2164984
20
6.5053062
30
8.3476831
0
POINT
8
20
62
2
10
0.96730026
20
5.1627057
30
0.023487557
0
POINT
8
20
62
2
10
8.1814855
20
3.2638814
30
6.4020985
0
POINT
8
20
62
2
10
8.1754709
20
6.617762
30
8.0318258
0
POINT
8
20
62
2
10
7.2243959
20
1.1756548
30
2.4513076
0
POINT
8
20
62
2
10
1.4986544
20
1.4781741
30
0.64122232
0
POINT
8
20
62
2
10
6.5960525
20
0.19764664
30
2.6314832
0
POINT
8
20
62
2
10
5.1859494
20
9.6429173
30
1.0272036
0
POINT
8
20
62
2
10
9.7297455
20
9.703729
30
4.8371902
0
POINT
8
20
62
2
10
6.4899149
20
1.2386051
30
4.1888446
0
POINT
8
20
62
2
10
8.0033058
20
4.6741003
30
3.8128901
0
POINT
8
20
62
2
10
4.5379771
20
6.56694
30
8.8676512
0
POINT
8
20
62
2
10
4.323915
20
2.9018557
30
4.2055751
0
POINT
8
20
62
2
10
8.253138
20
7.5453664
30
2.8384787
0
POINT
8
20
62
2
10
0.83469815
20
5.5811805
30
0.48181144
0
POINT
8
20
62
2
10
1.3317101
20
4.277926
30
2.1916598
0
POINT
8
20
62
2
10
1.7338861
20
2.6719406
30
2.3917601
0
POINT
8
20
62
2
10
3.909378
20
7.5373607
30
0.29258487
0
POINT
8
20
62
2
10
8.3137974
20
8.9837633
30
7.0231092
0
POINT
8
20
62
2
10
8.0336439
20
7.2844403
30
0.076355548
0
POINT
8
20
62
2
10
0.60471179
20
4.0683013
30
6.1092068
0
POINT
8
20
62
2
10
3.9925777
20
9.3831584
30
4.0808954
0
POINT
8
20
62
2
10
5.2687583
20
2.5542745
30
2.4894667
0
POINT
8
20
62
2
10
4.1679947
20
5.3316324
30
6.5245972
0
POINT
8
20
62
2
10
6.5685989
20
9.5475487
30
3.2027709
0
POINT
8
20
62
2
10
6.2797336
20
2.6774754
30
1.0367212
0
POINT
8
20
62
2
10
2.9198408
20
2.5008462
30
5.3556489
0
POINT
8
20
62
2
10
4.3165117
20
9.2767272
30
1.6487024
0
POINT
8
20
62
2
10
0.15487126
20
0.68582349
30
8.834387
0
POINT
8
20
62
2
10
9.8406372
20
2.9940039
30
6.6645701
0
POINT
8
20
62
2
10
1.6716841
20
5.9158353
30
8.4774249
0
POINT
8
20
62
2
10
1.0621634
20
2.0329915
30
7.6266106
0
POINT
8
20
62
2
10
3.7240974
20
6.358832
30
8.0701377
0
POINT
8
20
62
2
10
1.981184
20
7.9837026
30
6.3295244
0
POINT
8
20
62
2
10
4.8968764
20
5.0170105
30
7.1042731
0
POINT
8
20
62
2
10
3.3949341
20
6.5081214
30
6.8866354
0
POINT
8
20
62
2
10
9.5163046
20
7.9595499
30
3.2094786
0
POINT
8
20
62
2
10
9.2033204
20
2.3337377
30
5.3164849
0
POINT
8
20
62
2
10
0.52676998
20
6.0083894
30
8.7319396
0
POINT
8
20
62
2
10
7.378581
20
1.1246238
30
0.54539674
0
POINT
8
20
62
2
10
2.6911943
20
5.1576565
30
5.0040078
0
POINT
8
20
62
2
10
4.2283562
20
8.3784069
30
4.3276321
0
POINT
8
20
62
2
10
5.478709
20
9.2079011
30
9.0428249
0
POINT
8
20
62
2
10
9.4273698
20
4.9822793
30
6.3018335
0
POINT
8
20
62
2
10
4.177441
20
2.7761112
30
9.8303622
0
POINT
8
20
62
2
10
9.8305247
20
6.5251996
30
5.8520034
0
POINT
8
20
62
2
10
3.0145495
20
9.172988
30
8.4063652
0
POINT
8
20
62
2
10
7.0109876
20
5.0983945
30
4.6881378
0
POINT
8
20
62
2
10
6.6633885
20
9.7419148
30
5.4522233
0
POINT
8
20
62
2
10
5.3912647
20
1.9727894
30
1.7910412
0
POINT
8
20
62
2
10
6.9810552
20
1.1118498
30
6.344617
0
POINT
8
20
62
2
10
6.6652791
20
2.9735429
30
9.6295878
0
POINT
8
20
62
2
10
1.7813245
20
3.9641854
30
5.3401375
0
POINT
8
20
62
2
10
1.280144
20
4.2075568
30
4.7961425
0
POINT
8
20
62
2
10
9.9908039
20
3.1147536
30
7.9366608
0
POINT
8
20
62
2
10
1.7112107
20
6.9384317
30
0.92713719
0
POINT
8
20
62
2
10
0.32600821
20
0.91871833
30
8.8079954
0
POINT
8
20
62
2
10
5.6119979
20
4.0208862
30
0.038735355
0
POINT
8
20
62
2
10
8.818665
20
2.951808
30
5.1152909
0
POINT
8
20
62
2
10
6.691753
20
3.0649678
30
6.7846363
0
POINT
8
20
62
2
10
1.9043327
20
1.0556113
30
5.6574765
0
POINT
8
20
62
2
10
3.6891655
20
5.938276
30
4.7845865
0
POINT
8
20
62
2
10
4.6072594
20
2.8272752
30
3.2051284
0
POINT
8
20
62
2
10
9.8163795
20
1.5522162
30
6.015798
0
POINT
8
20
62
2
10
1.5640495
20
0.0065866759
30
9.1315274
0
POINT
8
20
62
2
10
8.5552281
20
2.8359542
30
6.8251782
0
POINT
8
20
62
2
10
6.4476454
20
5.5081087
30
9.4673347
0
POINT
8
20
62
2
10
3.7627221
20
8.7090219
30
0.99089009
0
POINT
8
20
62
2
10
1.909237
20
0.42253425
30
5.1102892
0
POINT
8
20
62
2
10
4.2825299
20
9.0472198
30
1.1012834
0
POINT
8
20
62
2
10
4.8202206
20
1.3097409
30
5.4526188
0
POINT
8
20
62
2
10
1.2061161
20
8.3372895
30
6.887859
0
POINT
8
20
62
2
10
5.8950748
20
8.0046837
30
1.4741699
0
POINT
8
20
62
2
10
2.2618768
20
9.1788009
30
7.7756104
0
POINT
8
20
62
2
10
3.8461912
20
1.3730366
30
3.9905123
0
POINT
8
20
62
2
10
5.8298638
20
5.0473232
30
8.9829995
0
POINT
8
20
62
2
10
2.5180612
20
4.0495848
30
3.0704387
0
POINT
8
20
62
2
10
2.9044066
20
1.7357216
30
0.61051146
0
POINT
8
20
62
2
10
6.1709088
20
5.7518361
30
2.1947114
0
POINT
8
20
62
2
10
2.6528091
20
6.0621793
30
0.82832937
0
POINT
8
20
62
2
10
8.2437627
20
2.1444574
30
9.5039534
0
POINT
8
20
62
2
10
9.826634
20
5.1993226
30
0.16370661
0
POINT
8
20
62
2
10
7.3024879
20
9.8918581
30
1.1466843
0
POINT
8
20
62
2
10
3.43877
20
4.8991516
30
0.12409946
0
POINT
8
20
62
2
10
5.8406933
20
6.9487321
30
2.1622733
0
POINT
8
20
62
2
10
1.0776902
20
4.1142183
30
0.11427529
0
POINT
8
20
62
2
10
9.0630815
20
0.3477674
30
6.4244927
0
POINT
8
20
62
2
10
8.7965372
20
2.9283156
30
5.1699094
0
POINT
8
20
62
2
10
8.1776056
20
8.0144174
30
2.4554214
0
POINT
8
20
62
2
10
2.60728
20
3.4650199
30
1.9374734
0
POINT
8
20
62
2
10
5.9435625
20
0.83315945
30
0.90870578
0
POINT
8
20
62
2
10
0.22512593
20
5.1110637
30
3.6844167
0
POINT
8
20
62
2
10
4.2525932
20
3.6683341
30
0.077929106
0
POINT
8
20
62
2
10
3.1271889
20
7.394795
30
6.0270132
0
POINT
8
20
62
2
10
1.6148474
20
5.2474016
30
4.7885474
0
POINT
8
20
62
2
10
1.7876619
20
8.0452088
30
3.0811769
0
POINT
8
20
62
2
10
4.2288569
20
8.1691118
30
7.4444445
0
POINT
8
20
62
2
10
0.94229339
20
1.8947148
30
8.3934928
0
POINT
8
20
62
2
10
5.9852367
20
1.2369346
30
2.6243192
0
POINT
8
20
62
2
10
4.7092426
20
8.2099648
30
5.1423806
0
POINT
8
20
62
2
10
6.9594931
20
6.3789762
30
4.4677413
0
POINT
8
20
62
2
10
6.9988785
20
0.16119802
30
3.4121115
0
POINT
8
20
62
2
10
6.3853076
20
8.9595463
30
8.3914181
0
POINT
8
20
62
2
10
0.33603836
20
5.1537506
30
9.824925
0
POINT
8
20
62
2
10
0.68806099
20
5.4452194
30
6.264645
0
POINT
8
20
62
2
10
3.1959974
20
6.0644221
30
1.8127517
0
POINT
8
20
62
2
10
5.3086428
20
7.6043622
30
1.2301702
0
POINT
8
20
62
2
10
6.5444571
20
8.5534687
30
5.7996871
0
POINT
8
20
62
2
10
4.076192
20
3.8286845
30
3.285358
0
POINT
8
20
62
2
10
8.1998122
20
0.84649189
30
2.6818637
0
POINT
8
20
62
2
10
7.1835894
20
7.338733
30
5.502391
0
POINT
8
20
62
2
10
9.6864933
20
3.3198933
30
1.805169
0
POINT
8
20
62
2
10
5.3133391
20
8.3974953
30
6.7849187
0
POINT
8
20
62
2
10
3.2514568
20
3.7172331
30
0.5568849
0
POINT
8
20
62
2
10
1.056292
20
8.2821527
30
0.34057184
0
POINT
8
20
62
2
10
6.1095866
20
1.7651863
30
2.8651845
0
POINT
8
20
62
2
10
7.7880224
20
1.2951986
30
0.77390047
0
POINT
8
20
62
2
10
4.2345292
20
8.7988358
30
9.0057229
0
POINT
8
20
62
2
10
0.90823286
20
0.44079128
30
8.4660595
0
POINT
8
20
62
2
10
2.6647149
20
6.8672002
30
3.9569847
0
POINT
8
20
62
2
10
1.5365672
20
7.337729
30
1.6921527
0
POINT
8
20
62
2
10
2.810053
20
4.3717244
30
4.3045231
0
POINT
8
20
62
2
10
4.4008514
20
3.7983892
30
4.1621814
0
POINT
8
20
62
2
10
5.2714274
20
9.7965744
30
7.2876348
0
POINT
8
20
62
2
10
4.5742437
20
3.9899342
30
4.0647368
0
POINT
8
20
62
2
10
8.753716
20
4.4018691
30
9.5180746
0
POINT
8
20
62
2
10
5.1805211
20
1.5680789
30
9.1198502
0
POINT
8
20
62
2
10
9.4362262
20
3.2603428
30
9.5141432
0
POINT
8
20
62
2
10
6.377091
20
3.1406193
30
3.460012
0
POINT
8
20
62
2
10
9.5769394
20
8.9450066
30
2.9024421
0
POINT
8
20
62
2
10
2.4070704
20
2.4702418
30
8.8670076
0
POINT
8
20
62
2
10
6.761223
20
3.1067902
30
2.100308
0
POINT
8
20
62
2
10
2.8906457
20
4.0886891
30
1.3087655
0
POINT
8
20
62
2
10
6.7180817
20
7.0801089
30
5.2051589
0
POINT
8
20
62
2
10
6.951405
20
1.436376
30
9.0546275
0
POINT
8
20
62
2
10
0.67992768
20
8.7132207
30
4.0253024
0
POINT
8
20
62
2
10
2.5479016
20
0.83155897
30
2.1576125
0
POINT
8
20
62
2
10
2.2404003
20
4.6173784
30
0.78739483
0
POINT
8
20
62
2
10
6.6783273
20
0.30389024
30
9.3305986
0
POINT
8
20
62
2
10
8.4439216
20
7.5320053
30
6.0287156
0
POINT
8
20
62
2
10
3.4446241
20
7.0004267
30
3.7749217
0
POINT
8
20
62
2
10
7.8051965
20
2.1451225
30
6.6493144
0
POINT
8
20
62
2
10
6.7533207
20
6.7990469
30
7.9219026
0
POINT
8
20
62
2
10
0.067153143
20
5.5729268
30
3.3349213
0
POINT
8
20
62
2
10
6.0217049
20
8.506789
30
6.9265886
0
POINT
8
20
62
2
10
3.8677119
20
5.5856549
30
2.0381568
0
POINT
8
20
62
2
10
9.1599124
20
9.0177366
30
9.587136
0
POINT
8
20
62
2
10
0.011510571
20
4.195177
30
7.1183246
0
POINT
8
20
62
2
10
4.6244916
20
3.5812835
30
1.6690659
0
POINT
8
20
62
2
10
4.2434904
20
4.8898752
30
4.4277717
0
POINT
8
20
62
2
10
4.6091637
20
2.5596214
30
6.3299357
0
POINT
8
20
62
2
10
7.7015973
20
9.2916927
30
9.2996717
0
POINT
8
20
62
2
10
3.2247181
20
4.6675681
30
5.2933097
0
POINT
8
20
62
2
10
7.8473929
20
2.5400785
30
6.2647442
0
POINT
8
20
62
2
10
4.7135715
20
4.3121845
30
6.8081892
0
POINT
8
20
62
2
10
0.35762733
20
7.0253001
30
9.2319752
0
POINT
8
20
62
2
10
1.7587442
20
4.0232987
30
1.5283414
0
POINT
8
20
62
2
10
7.2175803
20
1.8184008
30
4.0572079
0
POINT
8
20
62
2
10
4.7348599
20
8.5625112
30
3.12476
0
POINT
8
20
62
2
10
1.527212
20
5.8420122
30
6.9389896
0
POINT
8
20
62
2
10
3.4112461
20
3.7357878
30
8.9068787
0
POINT
8
20
62
2
10
6.0738921
20
2.2169455
30
4.9067097
0
POINT
8
20
62
2
10
1.9174526
20
2.1899412
30
8.0582351
0
POINT
8
20
62
2
10
7.3842684
20
5.2223244
30
3.2643891
0
POINT
8
20
62
2
10
2.428496
20
4.3342271
30
5.4987915
0
POINT
8
20
62
2
10
9.1742434
20
7.4130399
30
3.8878433
0
POINT
8
20
62
2
10
2.6906159
20
0.70449632
30
8.9682901
0
POINT
8
20
62
2
10
7.6550002
20
8.4733344
30
6.7612008
0
POINT
8
20
62
2
10
1.8866198
20
6.7988023
30
8.2839695
0
POINT
8
20
62
2
10
2.8749817
20
1.3665152
30
1.1008885
0
POINT
8
20
62
2
10
0.91113464
20
8.5840219
30
2.7922733
0
POINT
8
20
62
2
10
5.7620938
20
1.9983412
30
7.6763617
0
POINT
8
20
62
2
10
6.8336324
20
6.0733992
30
2.160566
0
POINT
8
20
62
2
10
5.4659311
20
5.4304498
30
0.34062128
0
POINT
8
20
62
2
10
4.2572884
20
1.6232469
30
4.365519
0
POINT
8
20
62
2
10
6.4444278
20
0.056530681
30
9.3686371
0
POINT
8
20
62
2
10
6.4761763
20
7.7148515
30
2.6208896
0
POINT
8
20
62
2
10
6.7901675
20
7.6478756
30
5.697455
0
POINT
8
20
62
2
10
6.3578671
20
4.2106935
30
3.5955304
0
POINT
8
20
62
2
10
9.4517411
20
0.56813181
30
0.26838629
0
POINT
8
20
62
2
10
2.0893492
20
5.85747
30
5.0041919
0
POINT
8
20
62
2
10
7.092817
20
1.7415524
30
8.2701491
0
POINT
8
20
62
2
10
2.3623058
20
7.2861066
30
2.5898242
0
POINT
8
20
62
2
10
1.1939625
20
5.3429105
30
0.45885007
0
POINT
8
20
62
2
10
6.0730394
20
2.5306429
30
2.464716
0
POINT
8
20
62
2
10
4.501377
20
9.1705675
30
6.6073214
0
POINT
8
20
62
2
10
4.5872549
20
7.5819453
30
3.2940969
0
POINT
8
20
62
2
10
6.6194475
20
8.8703073
30
6.5949625
0
POINT
8
20
62
2
10
7.7028551
20
0.68798171
30
0.13004124
0
POINT
8
20
62
2
10
3.5021801
20
1.835282
30
7.1806786
0
POINT
8
20
62
2
10
6.620096
20
7.3707265
30
3.9111881
0
POINT
8
20
62
2
10
4.1615859
20
6.9671485
30
0.3350526
0
POINT
8
20
62
2
10
8.4192915
20
7.7699291
30
4.060154
0
POINT
8
20
62
2
10
8.3291682
20
5.0190342
30
7.1630764
0
POINT
8
20
62
2
10
2.5644099
20
4.2549683
30
9.2133641
0
POINT
8
20
62
2
10
6.1346074
20
6.1123713
30
9.8401574
0
POINT
8
20
62
2
10
5.8224916
20
8.5577189
30
9.8342087
0
POINT
8
20
62
2
10
5.4073934
20
6.7079711
30
8.9630609
0
POINT
8
20
62
2
10
8.6994103
20
5.2359204
30
8.6570321
0
POINT
8
20
62
2
10
2.6477903
20
2.9881541
30
8.0096097
0
POINT
8
20
62
2
10
3.1807408
20
7.0396908
30
5.5497885
0
POINT
8
20
62
2
10
1.1921454
20
3.8161088
30
4.1887215
0
POINT
8
20
62
2
10
9.3982947
20
5.67685
30
1.2712251
0
POINT
8
20
62
2
10
6.4555187
20
8.8786096
30
6.5462074
0
POINT
8
20
62
2
10
4.7946322
20
8.4294929
30
8.6396491
0
POINT
8
20
62
2
10
6.3931696
20
8.9879856
30
2.7459843
0
POINT
8
20
62
2
10
5.4471611
20
9.3900309
30
8.4016394
0
POINT
8
20
62
2
10
6.4731148
20
8.1543516
30
0.70755244
0
POINT
8
20
62
2
10
5.4388593
20
0.013578288
30
3.7879208
0
POINT
8
20
62
2
10
7.2104662
20
0.030906976
30
2.6816943
0
POINT
8
20
62
2
10
5.2249531
20
0.87468816
30
1.5292118
0
POINT
8
20
62
2
10
9.9370462
20
2.6072735
30
6.3099958
0
POINT
8
20
62
2
10
2.1867663
20
0.22798671
30
3.1637482
0
POINT
8
20
62
2
10
1.0579827
20
4.2408482
30
9.5911185
0
POINT
8
20
62
2
10
1.0969746
20
3.4106497
30
4.9867399
0
POINT
8
20
62
2
10
0.63591371
20
5.4135393
30
7.3860852
0
POINT
8
20
62
2
10
4.0458
20
9.2616908
30
0.12755669
0
POINT
8
20
62
2
10
4.4837291
20
2.9849945
30
6.0535319
0
POINT
8
20
62
2
10
3.6581618
20
3.3808479
30
5.7645132
0
POINT
8
20
62
2
10
7.6350464
20
8.5948011
30
8.0737882
0
POINT
8
20
62
2
10
6.2789638
20
3.4047831
30
6.5496806
0
POINT
8
20
62
2
10
7.7198039
20
1.381204
30
8.782284
0
POINT
8
20
62
2
10
9.3285357
20
5.0779896
30
9.0237293
0
POINT
8
20
62
2
10
9.7274085
20
8.5665648
30
1.5223286
0
POINT
8
20
62
2
10
1.9202835
20
3.8431362
30
1.9258009
0
POINT
8
20
62
2
10
1.388742
20
6.9569093
30
7.9097565
0
POINT
8
20
62
2
10
6.9626634
20
6.2790418
30
0.60705104
0
POINT
8
20
62
2
10
0.93820027
20
4.5038815
30
3.8982719
0
POINT
8
20
62
2
10
5.254044
20
4.7361794
30
2.9996585
0
POINT
8
20
62
2
10
5.3034422
20
9.4970635
30
7.3417991
0
POINT
8
20
62
2
10
8.6113981
20
0.83497562
30
1.0420925
0
POINT
8
20
62
2
10
4.8485333
20
2.7982892
30
7.9257549
0
POINT
8
20
62
2
10
3.9345636
20
4.4700731
30
7.8272894
0
POINT
8
20
62
2
10
6.7143114
20
5.8757126
30
5.3239769
0
POINT
8
20
62
2
10
7.4125794
20
8.7763414
30
2.5335234
0
POINT
8
20
62
2
10
5.2005247
20
4.6910052
30
0.70954585
0
POINT
8
20
62
2
10
3.4771267
20
4.3741848
30
6.2580333
0
POINT
8
20
62
2
10
1.4999725
20
7.4618494
30
0.2468147
0
POINT
8
20
62
2
10
5.8609207
20
4.6791047
30
0.62042493
0
POINT
8
20
62
2
10
2.6214532
20
8.6082735
30
1.2961198
0
POINT
8
20
62
2
10
0.44454092
20
4.6651201
30
4.5061407
0
POINT
8
20
62
2
10
7.5493327
20
4.9810449
30
6.7233584
0
POINT
8
20
62
2
10
2.4278536
20
4.8743065
30
8.5611083
0
POINT
8
20
62
2
10
4.4240231
20
2.2946877
30
4.9844542
0
POINT
8
20
62
2
10
6.8779609
20
0.85552232
30
0.48784504
0
POINT
8
20
62
2
10
3.5922821
20
0.67383314
30
3.1383236
0
POINT
8
20
62
2
10
7.3634007
20
8.8839093
30
6.4163117
0
POINT
8
20
62
2
10
3.9470748
20
2.3316769
30
7.8638664
0
POINT
8
20
62
2
10
6.8341587
20
8.6159576
30
2.8915049
0
POINT
8
20
62
2
10
7.0404743
20
7.1173509
30
4.9786801
0
POINT
8
20
62
2
10
4.4230541
20
8.7281299
30
8.1843462
0
POINT
8
20
62
2
10
0.19577624
20
9.3800201
30
5.9512829
0
POINT
8
20
62
2
10
3.3085788
20
1.3968928
30
5.3642461
0
POINT
8
20
62
2
10
4.243095
20
3.9390014
30
3.3087314
0
POINT
8
20
62
2
10
2.7027042
20
9.8056283
30
4.1169023
0
POINT
8
20
62
2
10
1.970538
20
6.4479403
30
7.9400624
0
POINT
8
20
62
2
10
8.2172118
20
8.9640978
30
3.4320822
0
POINT
8
20
62
2
10
4.2992141
20
4.8223041
30
4.6260674
0
POINT
8
20
62
2
10
8.8777095
20
0.14093075
30
3.6782367
0
POINT
8
20
62
2
10
3.91183
20
6.2288034
30
6.7957062
0
POINT
8
20
62
2
10
7.6911439
20
2.3109536
30
5.6777903
0
POINT
8
20
62
2
10
3.9679152
20
5.2743396
30
6.5177685
0
POINT
8
20
62
2
10
8.085141
20
7.2499196
30
4.9111375
0
POINT
8
20
62
2
10
7.550771
20
6.0741579
30
3.9845823
0
POINT
8
20
62
2
10
3.7739554
20
5.8836645
30
4.7748421
0
POINT
8
20
62
2
10
2.1601892
20
4.3343484
30
0.66587623
0
POINT
8
20
62
2
10
7.9040722
20
2.4417289
30
4.1102849
0
POINT
8
20
62
2
10
9.4930391
20
4.2896035
30
9.6909196
0
POINT
8
20
62
2
10
3.2756543
20
0.10177456
30
7.8072103
0
POINT
8
20
62
2
10
6.7126437
20
6.0882145
30
7.2901789
0
POINT
8
20
62
2
10
4.3864498
20
9.5797519
30
7.6565062
0
POINT
8
20
62
2
10
8.335006
20
0.95446524
30
7.565808
0
POINT
8
20
62
2
10
7.6885425
20
0.35590563
30
8.4327032
0
POINT
8
20
62
2
10
1.6725355
20
8.8623511
30
7.7015685
0
POINT
8
20
62
2
10
8.6198048
20
2.4694137
30
9.7866093
0
POINT
8
20
62
2
10
9.8987215
20
0.089150563
30
1.1135944
0
POINT
8
20
62
2
10
5.1442346
20
8.1492027
30
3.9607694
0
POINT
8
20
62
2
10
8.8428102
20
1.4049944
30
4.9206065
0
POINT
8
20
62
2
10
5.8802606
20
8.7986644
30
2.5809462
0
POINT
8
20
62
2
10
1.5475235
20
0.95376786
30
0.36966221
0
POINT
8
20
62
2
10
1.9986282
20
3.525601
30
9.7438132
0
POINT
8
20
62
2
10
4.0695484
20
5.9342057
30
7.2642598
0
POINT
8
20
62
2
10
7.4870572
20
5.8518164
30
1.4796483
0
POINT
8
20
62
2
10
8.2558382
20
6.6768176
30
1.4789456
0
POINT
8
20
62
2
10
7.8996303
20
6.4802712
30
7.048241
0
POINT
8
20
62
2
10
3.1852425
20
4.3336907
30
3.8099352
0
POINT
8
20
62
2
10
5.3406413
20
1.3975876
30
0.76411444
0
POINT
8
20
62
2
10
0.89950679
20
7.5192951
30
4.1084034
0
POINT
8
20
62
2
10
1.1170574
20
2.4178679
30
1.4299055
0
POINT
8
20
62
2
10
1.3629255
20
6.5045932
30
7.9892012
0
POINT
8
20
62
2
10
6.786523
20
8.5737406
30
9.3024816
0
POINT
8
20
62
2
10
4.9517702
20
0.84370471
30
0.047194779
0
POINT
8
20
62
2
10
1.8971041
20
9.7208916
30
6.5004058
0
POINT
8
20
62
2
10
4.9500582
20
0.31459936
30
6.7853246
0
POINT
8
20
62
2
10
1.4760822
20
8.3540455
30
2.5362284
0
POINT
8
20
62
2
10
0.54974147
20
8.3571335
30
8.4318091
0
POINT
8
20
62
2
10
8.5071267
20
0.49857501
30
2.9395877
0
POINT
8
20
62
2
10
5.6055953
20
5.4588621
30
0.26860384
0
POINT
8
20
62
2
10
9.2960887
20
9.4316984
30
0.93307163
0
POINT
8
20
62
2
10
6.966672
20
3.2147307
30
7.9788497
0
POINT
8
20
62
2
10
5.8279097
20
8.064668
30
7.1140263
0
POINT
8
20
62
2
10
8.1539721
20
6.0139876
30
7.8340678
0
POINT
8
20
62
2
10
8.790139
20
7.8962047
30
6.2392264
0
POINT
8
20
62
2
10
9.8891162
20
7.9918504
30
8.2541546
0
POINT
8
20
62
2
10
0.0052237536
20
0.49564766
30
0.35022585
0
POINT
8
20
62
2
10
8.6543859
20
2.8319863
30
4.0547497
0
POINT
8
20
62
2
10
6.1256647
20
6.5345682
30
2.4966876
0
POINT
8
20
62
2
10
9.8995021
20
4.8965535
30
4.8089684
0
POINT
8
20
62
2
10
5.2768007
20
9.7285224
30
8.8083913
0
POINT
8
20
62
2
10
4.7952339
20
7.4848991
30
2.8068482
0
POINT
8
20
62
2
10
8.0134761
20
5.6784115
30
5.9914251
0
POINT
8
20
62
2
10
2.2784294
20
2.9896416
30
0.26226139
0
POINT
8
20
62
2
10
4.9809429
20
2.5610978
30
1.5519867
0
POINT
8
20
62
2
10
9.0085249
20
8.8656379
30
8.3391087
0
POINT
8
20
62
2
10
5.7466122
20
4.4680086
30
1.9489337
0
POINT
8
20
62
2
10
8.4517819
20
8.1598725
30
8.2978804
0
POINT
8
20
62
2
10
7.3864029
20
0.98337302
30
3.3807486
0
POINT
8
20
62
2
10
5.8598704
20
8.5959345
30
6.7111655
0
POINT
8
20
62
2
10
2.4673453
20
0.27629008
30
0.52366319
0
POINT
8
20
62
2
10
6.6641622
20
8.9915643
30
7.3430907
0
POINT
8
20
62
2
10
0.83482814
20
8.999355
30
4.9948178
0
POINT
8
20
62
2
10
6.2595979
20
5.2410601
30
9.4329994
0
POINT
8
20
62
2
10
6.6094456
20
1.2019951
30
2.8977242
0
POINT
8
20
62
2
10
7.2975186
20
1.7779409
30
3.7656043
0
POINT
8
20
62
2
10
8.9075212
20
7.0610759
30
1.1375536
0
POINT
8
20
62
2
10
9.8230322
20
8.3135976
30
9.6485071
0
POINT
8
20
62
2
10
7.6902909
20
0.34833821
30
4.3251157
0
POINT
8
20
62
2
10
5.8144649
20
7.5783871
30
0.84563201
0
POINT
8
20
62
2
10
9.2831306
20
9.5711218
30
7.1667641
0
POINT
8
20
62
2
10
5.8009037
20
3.4287051
30
5.0678738
0
POINT
8
20
62
2
10
0.16982938
20
6.3824371
30
3.2808774
0
POINT
8
20
62
2
10
1.2085957
20
3.4300581
30
7.5352414
0
POINT
8
20
62
2
10
8.6271072
20
2.164714
30
8.3600582
0
POINT
8
20
62
2
10
4.8429651
20
7.8620063
30
2.5371635
0
POINT
8
20
62
2
10
8.4485567
20
7.2308996
30
5.3442502
0
POINT
8
20
62
2
10
2.0940508
20
2.788389
30
4.3516523
0
POINT
8
20
62
2
10
5.5229134
20
5.8243143
30
1.5770415
0
POINT
8
20
62
2
10
6.2988339
20
4.2100578
30
6.004812
0
POINT
8
20
62
2
10
0.31991016
20
0.92068707
30
9.3745076
0
POINT
8
20
62
2
10
6.1471342
20
0.24027325
30
1.0775858
0
POINT
8
20
62
2
10
3.6241146
20
4.911458
30
8.9998143
0
POINT
8
20
62
2
10
0.49532579
20
2.7826702
30
5.5046499
0
POINT
8
20
62
2
10
4.8956999
20
3.3975716
30
4.2735669
0
POINT
8
20
62
2
10
1.925104
20
2.8734961
30
1.5238083
0
POINT
8
20
62
2
10
1.2308375
20
1.7090324
30
2.47546
0
POINT
8
20
62
2
10
2.0549417
20
3.9926331
30
4.4736879
0
POINT
8
20
62
2
10
1.4651491
20
6.9764957
30
5.3278344
0
POINT
8
20
62
2
10
1.8907217
20
2.0367644
30
3.5465113
0
POINT
8
20
62
2
10
0.42652411
20
6.6632649
30
7.7311481
0
POINT
8
20
62
2
10
6.3519792
20
4.4306609
30
8.8168114
0
POINT
8
20
62
2
10
2.8186686
20
4.3329527
30
7.3409209
0
POINT
8
20
62
2
10
5.3859668
20
1.7523944
30
4.0643221
0
POINT
8
20
62
2
10
6.9516304
20
1.9320231
30
6.0417875
0
POINT
8
20
62
2
10
4.9911601
20
6.1642133
30
6.4110505
0
POINT
8
20
62
2
10
5.3580106
20
2.6901061
30
1.2746684
0
POINT
8
20
62
2
10
4.4518317
20
5.5967793
30
4.96192
0
POINT
8
20
62
2
10
1.2393228
20
9.4478399
30
3.1046936
0
POINT
8
20
62
2
10
4.9035729
20
7.1447164
30
5.7857446
0
POINT
8
20
62
2
10
8.5299816
20
6.7921966
30
9.4360894
0
POINT
8
20
62
2
10
8.7392741
20
9.5938058
30
4.2693961
0
POINT
8
20
62
2
10
2.7029433
20
7.7533431
30
0.33128441
0
POINT
8
20
62
2
10
2.0846136
20
6.0772697
30
9.2943388
0
POINT
8
20
62
2
10
5.6497957
20
9.4800236
30
9.2498225
0
POINT
8
20
62
2
10
6.4031183
20
0.59641624
30
3.5830692
0
POINT
8
20
62
2
10
4.1702895
20
2.6871235
30
2.5998912
0
POINT
8
20
62
2
10
2.0597552
20
9.8668004
30
7.8685965
0
POINT
8
20
62
2
10
9.4793312
20
7.7220673
30
5.1158224
0
POINT
8
20
62
2
10
0.82071207
20
4.753543
30
5.6252715
0
POINT
8
20
62
2
10
1.0570943
20
6.8089956
30
6.8479376
0
POINT
8
20
62
2
10
1.4204112
20
4.1693475
30
0.92396595
0
POINT
8
20
62
2
10
1.6646044
20
3.801492
30
8.7257897
0
POINT
8
20
62
2
10
6.2095864
20
2.1327039
30
9.4293788
0
POINT
8
20
62
2
10
5.7370976
20
3.8293799
30
0.96594237
0
POINT
8
20
62
2
10
0.5207789
20
0.29667752
30
8.4588251
0
POINT
8
20
62
2
10
9.3120138
20
4.7232107
30
9.0939561
0
POINT
8
20
62
2
10
7.2866168
20
3.3337269
30
0.11341141
0
POINT
8
20
62
2
10
7.3784165
20
9.758448
30
5.236827
0
POINT
8
20
62
2
10
0.63404501
20
5.5544354
30
6.5034527
0
POINT
8
20
62
2
10
8.6044056
20
8.4630364
30
3.8514535
0
POINT
8
20
62
2
10
9.3440512
20
4.0806349
30
6.4930205
0
POINT
8
20
62
2
10
9.8439831
20
4.6201816
30
7.6285348
0
POINT
8
20
62
2
10
8.5893882
20
8.2630672
30
5.7568598
0
POINT
8
20
62
2
10
7.8555899
20
9.912032
30
6.3191915
0
POINT
8
20
62
2
10
5.1337742
20
5.2394765
30
2.78204
0
POINT
8
20
62
2
10
1.7760246
20
9.2543689
30
8.3983642
0
POINT
8
20
62
2
10
3.985895
20
7.3902186
30
4.2683496
0
POINT
8
20
62
2
10
1.3393125
20
5.6743006
30
6.3162238
0
POINT
8
20
62
2
10
0.30889549
20
9.6877766
30
8.3346698
0
POINT
8
20
62
2
10
9.3914171
20
8.2449942
30
2.7018546
0
POINT
8
20
62
2
10
3.0130606
20
9.5960928
30
4.0080074
0
POINT
8
20
62
2
10
2.9553383
20
6.4634607
30
5.5425459
0
POINT
8
20
62
2
10
3.3293628
20
3.7957349
30
4.4386536
0
POINT
8
20
62
2
10
4.6706819
20
4.7657468
30
0.90384122
0
POINT
8
20
62
2
10
6.4819841
20
9.1188981
30
7.4438131
0
POINT
8
20
62
2
10
0.25228181
20
0.14853856
30
0.32615449
0
POINT
8
20
62
2
10
8.4220661
20
1.5669385
30
4.2974254
0
POINT
8
20
62
2
10
5.5903254
20
4.7156788
30
0.37262279
0
POINT
8
20
62
2
10
8.5409995
20
5.4299169
30
9.7579775
0
POINT
8
20
62
2
10
3.4787919
20
0.59691032
30
5.2233991
0
POINT
8
20
62
2
10
4.4602665
20
6.5803031
30
9.0962998
0
POINT
8
20
62
2
10
0.54239484
20
8.896353
30
3.8324792
0
POINT
8
20
62
2
10
1.7710753
20
1.0963261
30
8.8445224
0
POINT
8
20
62
2
10
6.6280806
20
4.3777311
30
2.5501761
0
POINT
8
20
62
2
10
3.30829
20
2.8023009
30
9.0904984
0
POINT
8
20
62
2
10
8.9848614
20
9.8524631
30
8.9456044
0
POINT
8
20
62
2
10
1.181552
20
6.0875871
30
3.9851716
0
POINT
8
20
62
2
10
9.8841793
20
2.5374921
30
6.2502
0
POINT
8
20
62
2
10
5.399821
20
1.3261473
30
5.6759729
0
POINT
8
20
62
2
10
7.0691742
20
5.4500489
30
8.9451189
0
POINT
8
20
62
2
10
9.9949162
20
8.2780393
30
2.141658
0
POINT
8
20
62
2
10
2.8784934
20
8.3700627
30
0.038591589
0
POINT
8
20
62
2
10
4.1452254
20
8.3334865
30
8.8058146
0
POINT
8
20
62
2
10
4.6483994
20
2.0371543
30
2.3512164
0
POINT
8
20
62
2
10
7.6395708
20
5.444177
30
2.4486462
0
POINT
8
20
62
2
10
8.1820404
20
8.7494272
30
6.4091704
0
POINT
8
20
62
2
10
1.0022154
20
1.2100009
30
3.0452448
0
POINT
8
20
62
2
10
1.7811695
20
8.5635077
30
8.2562081
0
POINT
8
20
62
2
10
3.5963491
20
8.9977602
30
8.8368871
0
POINT
8
20
62
2
10
0.56704689
20
2.1786512
30
9.4537296
0
POINT
8
20
62
2
10
5.2188567
20
0.76979085
30
3.9079534
0
POINT
8
20
62
2
10
3.3584897
20
4.7421516
30
8.0132006
0
POINT
8
20
62
2
10
1.7566903
20
8.3502747
30
1.5711329
0
POINT
8
20
62
2
10
2.0894667
20
4.693935
30
6.251654
0
POINT
8
20
62
2
10
9.0515356
20
4.1376994
30
6.9898535
0
POINT
8
20
62
2
10
6.7539118
20
5.0274626
30
0.85868933
0
POINT
8
20
62
2
10
4.684682
20
1.2543996
30
5.3117957
0
POINT
8
20
62
2
10
9.1213247
20
1.3228533
30
8.8856652
0
POINT
8
20
62
2
10
1.0401157
20
8.7047537
30
2.6366601
0
POINT
8
20
62
2
10
7.4554607
20
6.0295018
30
2.3478553
0
POINT
8
20
62
2
10
7.3626746
20
2.6530173
30
8.3965723
0
POINT
8
20
62
2
10
5.6186143
20
8.6480258
30
4.9554003
0
POINT
8
20
62
2
10
1.841941
20
0.58109458
30
1.5236637
0
POINT
8
20
62
2
10
5.9721135
20
4.5775389
30
2.3076816
0
POINT
8
20
62
2
10
2.9993699
20
7.2220964
30
6.5795396
0
POINT
8
20
62
2
10
1.3412293
20
3.3899915
30
5.6294838
0
POINT
8
20
62
2
10
2.1260153
20
4.0121986
30
2.9182874
0
POINT
8
20
62
2
10
8.9494168
20
5.2697975
30
6.2230498
0
POINT
8
20
62
2
10
0.71452813
20
8.9423571
30
7.1590541
0
POINT
8
20
62
2
10
2.4248656
20
7.7836066
30
2.8073103
0
POINT
8
20
62
2
10
0.53754392
20
0.69367603
30
4.1227316
0
POINT
8
20
62
2
10
4.4172206
20
2.7878453
30
3.6220571
0
POINT
8
20
62
2
10
0.132832
20
3.7936983
30
7.8139202
0
POINT
8
20
62
2
10
8.9719135
20
8.6467255
30
1.3548715
0
POINT
8
20
62
2
10
1.9665819
20
4.1996037
30
9.0206951
0
POINT
8
20
62
2
10
0.93370517
20
2.3987747
30
2.8963609
0
POINT
8
20
62
2
10
3.073669
20
5.9765452
30
4.9955793
0
POINT
8
20
62
2
10
4.5605767
20
4.794044
30
7.8359039
0
POINT
8
20
62
2
10
1.0166939
20
8.985475
30
6.7706206
0
POINT
8
20
62
2
10
9.9538973
20
9.3470924
30
1.4981173
0
POINT
8
20
62
2
10
3.3209283
20
8.1788683
30
6.9661948
0
POINT
8
20
62
2
10
2.9734682
20
7.0890898
30
1.2901304
0
POINT
8
20
62
2
10
0.62045221
20
7.4322057
30
9.4594629
0
POINT
8
20
62
2
10
2.9824397
20
8.9970978
30
8.8641185
0
POINT
8
20
62
2
10
0.46351265
20
0.65239805
30
5.1500461
0
POINT
8
20
62
2
10
5.0542814
20
3.3591117
30
6.7940875
0
POINT
8
20
62
2
10
7.6142589
20
0.043350726
30
9.7679336
0
POINT
8
20
62
2
10
6.3107
20
8.280956
30
1.2546036
0
POINT
8
20
62
2
10
0.89891651
20
5.0743538
30
7.5224305
0
POINT
8
20
62
2
10
0.80862423
20
3.6616244
30
8.2705191
0
POINT
8
20
62
2
10
7.7724054
20
2.2663972
30
7.8143033
0
POINT
8
20
62
2
10
9.0513474
20
5.3483171
30
1.9088267
0
POINT
8
20
62
2
10
5.3377195
20
2.8948487
30
4.2864134
0
POINT
8
20
62
2
10
1.0915421
20
0.68370897
30
0.14456747
0
POINT
8
20
62
2
10
8.2580886
20
0.84970746
30
3.2528549
0
POINT
8
20
62
2
10
3.3809772
20
0.68339468
30
1.3470203
0
POINT
8
20
62
2
10
2.9397305
20
4.098165
30
4.5051746
0
POINT
8
20
62
2
10
7.4631343
20
1.2338138
30
5.7227493
0
POINT
8
20
62
2
10
0.10336618
20
4.4301659
30
7.9202328
0
POINT
8
20
62
2
10
0.48447339
20
8.9893974
30
4.1973661
0
POINT
8
20
62
2
10
6.6791612
20
3.53639
30
5.3253654
0
POINT
8
20
62
2
10
6.0346798
20
1.2017812
30
9.2570439
0
POINT
8
20
62
2
10
5.2610247
20
5.6911103
30
8.9908184
0
POINT
8
20
62
2
10
7.2970945
20
8.7503273
30
5.448334
0
POINT
8
20
62
2
10
7.0725349
20
3.4857498
30
9.0112395
0
POINT
8
20
62
2
10
7.8137705
20
0.41921005
30
0.51826709
0
POINT
8
20
62
2
10
2.8797698
20
1.4233972
30
8.0860252
0
POINT
8
20
62
2
10
6.9253199
20
0.76592835
30
3.3490458
0
POINT
8
20
62
2
10
5.5666983
20
7.4052659
30
2.2868312
0
POINT
8
20
62
2
10
3.9652079
20
4.5652513
30
8.2240181
0
POINT
8
20
62
2
10
0.61590667
20
6.6824932
30
3.4823458
0
POINT
8
20
62
2
10
7.8017553
20
6.9924608
30
1.654706
0
POINT
8
20
62
2
10
3.3758386
20
5.7135721
30
0.28133568
0
POINT
8
20
62
2
10
6.0786591
20
6.2869334
30
9.5536977
0
POINT
8
20
62
2
10
7.4125405
20
8.7776393
30
6.8029071
0
POINT
8
20
62
2
10
1.0481324
20
6.6235174
30
8.6056211
0
POINT
8
20
62
2
10
1.2788838
20
8.7541361
30
9.3909352
0
POINT
8
20
62
2
10
5.4954011
20
4.6751702
30
6.8019396
0
POINT
8
20
62
2
10
4.8522941
20
1.4133603
30
9.1742375
0
POINT
8
20
62
2
10
8.9047568
20
0.68134457
30
2.5669167
0
POINT
8
20
62
2
10
7.9896028
20
7.1424241
30
8.8561813
0
POINT
8
20
62
2
10
7.3434108
20
3.0798603
30
9.2004279
0
POINT
8
20
62
2
10
0.51331886
20
6.7116397
30
3.0006344
0
POINT
8
20
62
2
10
0.72885299
20
6.5242084
30
0.73390947
0
POINT
8
20
62
2
10
0.8852746
20
5.3104884
30
7.6739873
0
POINT
8
20
62
2
10
7.9835086
20
7.1510703
30
0.84952216
0
POINT
8
20
62
2
10
9.4300814
20
5.0481062
30
7.2876408
0
POINT
8
20
62
2
10
6.8371557
20
4.8799936
30
4.4788964
0
POINT
8
20
62
2
10
1.3208296
20
4.9783831
30
6.5124866
0
POINT
8
20
62
2
10
7.2272454
20
9.3597555
30
1.6950187
0
POINT
8
20
62
2
10
1.1035348
20
3.8928168
30
5.3144924
0
POINT
8
20
62
2
10
1.1749285
20
1.1714517
30
6.3380086
0
POINT
8
20
62
2
10
6.4071792
20
2.4042355
30
0.14096004
0
POINT
8
20
62
2
10
3.2881421
20
6.8490849
30
4.7037134
0
POINT
8
20
62
2
10
6.5381202
20
8.3925362
30
8.8632597
0
POINT
8
20
62
2
10
7.4913146
20
9.7014463
30
1.1402844
0
POINT
8
20
62
2
10
5.8318573
20
2.1516961
30
4.4254115
0
POINT
8
20
62
2
10
7.4003233
20
7.6034335
30
6.5954789
0
POINT
8
20
62
2
10
2.3482691
20
5.8410285
30
2.9477297
0
POINT
8
20
62
2
10
7.3495754
20
4.0295158
30
9.503684
0
POINT
8
20
62
2
10
9.7059853
20
5.1004034
30
6.9428625
0
POINT
8
20
62
2
10
8.6693029
20
4.9564422
30
2.0680653
0
POINT
8
20
62
2
10
0.8623453
20
6.5136834
30
5.5476233
0
POINT
8
20
62
2
10
3.6643662
20
7.4370614
30
8.7927848
0
POINT
8
20
62
2
10
3.691988
20
3.0195347
30
5.5785769
0
POINT
8
20
62
2
10
6.8502847
20
0.89611935
30
7.5233406
0
POINT
8
20
62
2
10
5.9794164
20
8.2596548
30
8.9490079
0
POINT
8
20
62
2
10
7.8936394
20
3.8958701
30
8.4184417
0
POINT
8
20
62
2
10
3.6765292
20
7.7530485
30
1.3085668
0
POINT
8
20
62
2
10
2.0602786
20
1.793691
30
1.8915393
0
POINT
8
20
62
2
10
0.86666547
20
1.0936121
30
1.5363983
0
POINT
8
20
62
2
10
7.7193392
20
9.0515834
30
0.28902066
0
POINT
8
20
62
2
10
2.0567452
20
8.76351
30
0.090848985
0
POINT
8
20
62
2
10
3.8827163
20
9.9979256
30
5.9645174
0
POINT
8
20
62
2
10
5.5177853
20
8.6425469
30
6.0904932
0
POINT
8
20
62
2
10
2.2895325
20
0.36877522
30
9.1892343
0
POINT
8
20
62
2
10
6.4194062
20
5.4468244
30
7.3357444
0
POINT
8
20
62
2
10
4.8448037
20
9.9761618
30
3.0114695
0
POINT
8
20
62
2
10
1.5184553
20
5.1100815
30
4.9557448
0
POINT
8
20
62
2
10
7.8193197
20
8.7351218
30
2.5816302
0
POINT
8
20
62
2
10
1.0060632
20
0.70221472
30
7.3285436
0
POINT
8
20
62
2
10
2.9406633
20
9.8753874
30
1.1676075
0
POINT
8
20
62
2
10
2.3737302
20
9.2271343
30
7.4604156
0
POINT
8
20
62
2
10
5.3087226
20
5.6426092
30
8.0978911
0
POINT
8
20
62
2
10
0.91498731
20
4.3146205
30
7.4523368
0
POINT
8
20
62
2
10
4.0531542
20
3.3784457
30
3.3714331
0
POINT
8
20
62
2
10
1.0484625
20
7.2072343
30
5.8432498
0
POINT
8
20
62
2
10
1.1228396
20
0.13655567
30
4.689521
0
POINT
8
20
62
2
10
7.8442789
20
3.7406019
30
0.87265034
0
POINT
8
20
62
2
10
2.9157032
20
9.2268522
30
8.2871743
0
POINT
8
20
62
2
10
6.0353344
20
5.4647965
30
6.8594471
0
POINT
8
20
62
2
10
9.6442267
20
4.7388687
30
2.6732506
0
POINT
8
20
62
2
10
4.3248499
20
4.9653732
30
9.6948356
0
POINT
8
20
62
2
10
6.9475219
20
3.0897108
30
1.837742
0
POINT
8
20
62
2
10
7.5809928
20
9.5083756
30
2.9994092
0
POINT
8
20
62
2
10
4.3264233
20
9.8199328
30
4.1118489
0
POINT
8
20
62
2
10
6.5549804
20
5.135631
30
2.3648919
0
POINT
8
20
62
2
10
1.0975505
20
9.9258982
30
1.9505532
0
POINT
8
20
62
2
10
9.3375985
20
4.558437
30
7.0537928
0
POINT
8
20
62
2
10
1.8746081
20
4.2604088
30
1.8054825
0
POINT
8
20
62
2
10
2.6617884
20
2.1321478
30
5.2233292
0
POINT
8
20
62
2
10
7.9783026
20
1.9324948
30
2.9617182
0
POINT
8
20
62
2
10
4.8760378
20
8.3275425
30
4.6278189
0
POINT
8
20
62
2
10
7.6895826
20
7.266371
30
9.2523242
0
POINT
8
20
62
2
10
3.9600675
20
5.2974569
30
2.1588914
0
POINT
8
20
62
2
10
2.7293879
20
8.2908074
30
0.010088785
0
POINT
8
20
62
2
10
0.37234634
20
5.1187443
30
9.0660624
0
POINT
8
20
62
2
10
6.7329491
20
5.5196185
30
6.8004195
0
POINT
8
20
62
2
10
4.2956446
20
2.1328489
30
5.1495181
0
POINT
8
20
62
2
10
4.5173923
20
5.8782063
30
5.2206888
0
POINT
8
20
62
2
10
6.0985717
20
1.4276323
30
1.0291858
0
POINT
8
20
62
2
10
0.59403297
20
0.52223528
30
9.9688049
0
POINT
8
20
62
2
10
3.1581144
20
6.8330792
30
3.5896882
0
POINT
8
20
62
2
10
7.7272213
20
6.0855948
30
6.252426
0
POINT
8
20
62
2
10
6.9643299
20
2.1965593
30
3.9336652
0
POINT
8
20
62
2
10
1.2533218
20
4.0627994
30
0.076624455
0
POINT
8
20
62
2
10
1.3015145
20
6.2990794
30
5.4528493
0
POINT
8
20
62
2
10
0.92352339
20
5.5530762
30
5.0911037
0
POINT
8
20
62
2
10
0.078202936
20
1.2757906
30
2.4677892
0
POINT
8
20
62
2
10
4.2310939
20
1.6919833
30
0.45395275
0
POINT
8
20
62
2
10
6.5557317
20
0.0099941812
30
8.4172974
0
POINT
8
20
62
2
10
7.2292252
20
4.1816247
30
0.48249918
0
POINT
8
20
62
2
10
5.3120929
20
4.8848568
30
3.163205
0
POINT
8
20
62
2
10
1.0881794
20
1.5986884
30
7.8341943
0
POINT
8
20
62
2
10
6.3176637
20
6.6683858
30
9.7240006
0
POINT
8
20
62
2
10
1.2649987
20
0.17920369
30
5.8646408
0
POINT
8
20
62
2
10
1.343033
20
1.1967536
30
7.7804385
0
POINT
8
20
62
2
10
0.98594093
20
9.5212531
30
7.2769744
0
POINT
8
20
62
2
10
1.4202725
20
9.7585397
30
6.509868
0
POINT
8
20
62
2
10
1.682513
20
0.30914539
30
6.6461502
0
POINT
8
20
62
2
10
1.9624892
20
4.9388184
30
9.387798
0
POINT
8
20
62
2
10
3.1747978
20
8.6272213
30
5.3508127
0
POINT
8
20
62
2
10
3.16429
20
2.4287617
30
3.9844012
0
POINT
8
20
62
2
10
2.1756331
20
8.3427016
30
6.7045766
0
POINT
8
20
62
2
10
2.5104185
20
8.1359119
30
4.4053447
0
POINT
8
20
62
2
10
8.9292241
20
6.289731
30
1.3287394
0
POINT
8
20
62
2
10
7.0322322
20
0.022381986
30
4.3920375
0
POINT
8
20
62
2
10
5.5573794
20
3.7972394
30
5.4764274
0
POINT
8
20
62
2
10
1.8443367
20
9.044057
30
3.9513638
0
POINT
8
20
62
2
10
2.1203084
20
6.8035167
30
3.9827199
0
POINT
8
20
62
2
10
0.77346808
20
3.7882313
30
7.5134865
0
POINT
8
20
62
2
10
9.1380041
20
6.3195471
30
5.2235035
0
POINT
8
20
62
2
10
7.0671522
20
2.4326952
30
4.9043303
0
POINT
8
20
62
2
10
5.5778897
20
5.7141307
30
0.88678935
0
POINT
8
20
62
2
10
3.1342899
20
9.8172877
30
2.5085163
0
POINT
8
20
62
2
10
1.6620356
20
8.4968202
30
4.4755902
0
POINT
8
20
62
2
10
6.2249726
20
2.8344419
30
6.379609
0
POINT
8
20
62
2
10
9.8793473
20
6.8245766
30
7.0944529
0
POINT
8
20
62
2
10
1.7043202
20
3.5812453
30
9.9261981
0
POINT
8
20
62
2
10
2.5779225
20
9.8692677
30
9.3219487
0
POINT
8
20
62
2
10
3.9679932
20
0.83986296
30
0.92229496
0
POINT
8
20
62
2
10
0.7399477
20
2.5030589
30
9.5353997
0
POINT
8
20
62
2
10
6.8409607
20
8.1134662
30
1.6279566
0
POINT
8
20
62
2
10
4.0238833
20
0.84423104
30
9.7045509
0
POINT
8
20
62
2
10
9.828352
20
5.3125396
30
5.9700667
0
POINT
8
20
62
2
10
4.0218399
20
8.0062298
30
2.4022712
0
POINT
8
20
62
2
10
6.2067195
20
7.3882324
30
0.70295161
0
POINT
8
20
62
2
10
1.5436981
20
1.4166298
30
3.0004122
0
POINT
8
20
62
2
10
3.813452
20
4.3789426
30
8.1354482
0
POINT
8
20
62
2
10
1.6113397
20
3.5038037
30
0.76709874
0
POINT
8
20
62
2
10
7.5811243
20
4.784975
30
3.544731
0
POINT
8
20
62
2
10
8.7111112
20
5.874034
30
1.3201087
0
POINT
8
20
62
2
10
3.5077674
20
1.458057
30
1.5817963
0
POINT
8
20
62
2
10
6.8553571
20
9.0533061
30
0.62147052
0
POINT
8
20
62
2
10
2.9414863
20
6.4019425
30
7.0184348
0
POINT
8
20
62
2
10
5.306293
20
1.6293957
30
0.86481697
0
POINT
8
20
62
2
10
8.3242339
20
5.6591059
30
6.1678724
0
POINT
8
20
62
2
10
5.9749019
20
9.3161614
30
1.7377158
0
POINT
8
20
62
2
10
3.3531133
20
7.8310188
30
6.5140106
0
POINT
8
20
62
2
10
2.9922502
20
6.8568714
30
4.9869641
0
POINT
8
20
62
2
10
4.5259254
20
4.6621928
30
2.8451069
0
POINT
8
20
62
2
10
4.2264565
20
2.603181
30
8.3055974
0
POINT
8
20
62
2
10
3.5960632
20
5.6926817
30
8.1835988
0
POINT
8
20
62
2
10
5.583192
20
2.4877066
30
9.381694
0
POINT
8
20
62
2
10
7.4254537
20
3.1930159
30
0.0032609634
0
POINT
8
20
62
2
10
4.2433478
20
9.1080223
30
6.4038922
0
POINT
8
20
62
2
10
4.2935579
20
8.8522004
30
0.073556928
0
POINT
8
20
62
2
10
1.2487276
20
7.9458942
30
1.0642111
0
POINT
8
20
62
2
10
0.24434016
20
9.2580981
30
1.0679441
0
POINT
8
20
62
2
10
2.9018527
20
1.7883995
30
3.6710904
0
POINT
8
20
62
2
10
3.1752058
20
5.1754115
30
2.396077
0
POINT
8
20
62
2
10
6.5369013
20
6.2700532
30
3.461402
0
POINT
8
20
62
2
10
9.5693592
20
9.1318235
30
2.4961984
0
POINT
8
20
62
2
10
9.3573087
20
6.6396825
30
3.8706431
0
POINT
8
20
62
2
10
4.5788633
20
3.8919282
30
4.2103837
0
POINT
8
20
62
2
10
2.404784
20
7.4000758
30
6.4007729
0
POINT
8
20
62
2
10
7.6389794
20
8.1763486
30
7.8755297
0
POINT
8
20
62
2
10
7.5932738
20
6.0034479
30
2.6999442
0
POINT
8
20
62
2
10
7.4064806
20
0.84997065
30
8.4398236
0
POINT
8
20
62
2
10
7.4368834
20
9.22358
30
7.4046838
0
POINT
8
20
62
2
10
1.0592042
20
0.53597815
30
8.2610195
0
POINT
8
20
62
2
10
6.8156043
20
5.2702495
30
1.8219225
0
POINT
8
20
62
2
10
4.6326058
20
1.1885328
30
0.65436183
0
POINT
8
20
62
2
10
2.1216321
20
3.8014299
30
6.1035026
0
POINT
8
20
62
2
10
0.98518738
20
8.1283253
30
7.0155281
0
POINT
8
20
62
2
10
8.2357447
20
2.4409592
30
1.1161771
0
POINT
8
20
62
2
10
1.7500974
20
8.8442266
30
0.95823732
0
POINT
8
20
62
2
10
1.6356991
20
7.1264679
30
5.9783377
0
POINT
8
20
62
2
10
6.6598722
20
3.7814844
30
8.1223261
0
POINT
8
20
62
2
10
8.9438938
20
2.4891961
30
8.1457817
0
POINT
8
20
62
2
10
5.1655821
20
2.5285375
30
0.89436965
0
POINT
8
20
62
2
10
7.0270231
20
7.6724359
30
7.3127871
0
POINT
8
20
62
2
10
1.5359038
20
0.49861885
30
9.0385658
0
POINT
8
20
62
2
10
9.5345707
20
6.8528857
30
4.5223179
0
POINT
8
20
62
2
10
5.4088408
20
6.2027812
30
0.70687676
0
POINT
8
20
62
2
10
6.797339
20
7.4668463
30
2.4127816
0
POINT
8
20
62
2
10
0.36563018
20
9.7725565
30
7.3186506
0
POINT
8
20
62
2
10
8.0920385
20
3.8391351
30
0.40491616
0
POINT
8
20
62
2
10
7.4861887
20
2.602056
30
4.2452276
0
POINT
8
20
62
2
10
1.2018702
20
8.7746954
30
5.4021509
0
POINT
8
20
62
2
10
5.2504516
20
8.0609598
30
9.5382784
0
POINT
8
20
62
2
10
3.2583363
20
4.6112108
30
2.0890574
0
POINT
8
20
62
2
10
5.4644944
20
0.90961688
30
1.163321
0
POINT
8
20
62
2
10
3.9888075
20
5.6426883
30
6.4622007
0
POINT
8
20
62
2
10
4.1509339
20
1.8738289
30
1.0841109
0
POINT
8
20
62
2
10
1.8073776
20
5.3168959
30
9.8349692
0
POINT
8
20
62
2
10
2.5538674
20
3.5503332
30
2.4834404
0
POINT
8
20
62
2
10
0.20535775
20
3.147835
30
6.0635572
0
POINT
8
20
62
2
10
9.2367561
20
7.2674147
30
8.1669527
0
POINT
8
20
62
2
10
6.5369989
20
5.1577286
30
8.3005421
0
POINT
8
20
62
2
10
9.3261357
20
7.906449
30
4.8903933
0
POINT
8
20
62
2
10
1.6351237
20
2.0449258
30
7.6072826
0
POINT
8
20
62
2
10
9.2109726
20
6.7810608
30
9.1510794
0
POINT
8
20
62
2
10
7.9465789
20
0.52485543
30
9.0097496
0
POINT
8
20
62
2
10
5.773942
20
8.0117236
30
2.1423751
0
POINT
8
20
62
2
10
4.400356
20
6.7856864
30
5.4706111
0
POINT
8
20
62
2
10
2.5761374
20
9.4600895
30
7.8470948
0
POINT
8
20
62
2
10
7.5194639
20
0.91558143
30
1.9444109
0
POINT
8
20
62
2
10
2.2866948
20
9.0843837
30
7.4688915
0
POINT
8
20
62
2
10
0.64187087
20
5.0995304
30
4.7555822
0
POINT
8
20
62
2
10
7.6732951
20
6.1490357
30
5.8325858
0
POINT
8
20
62
2
10
6.7120219
20
3.160712
30
2.6054808
0
POINT
8
20
62
2
10
7.1521251
20
0.77487482
30
0.8482246
0
POINT
8
20
62
2
10
6.4206083
20
8.5061407
30
2.9813285
0
POINT
8
20
62
2
10
4.1904829
20
1.4452691
30
9.1712936
0
POINT
8
20
62
2
10
3.9076208
20
3.7048579
30
4.7051819
0
POINT
8
20
62
2
10
8.161401
20
6.2239143
30
2.6946755
0
POINT
8
20
62
2
10
3.1742786
20
9.975519
30
7.6297048
0
POINT
8
20
62
2
10
8.1453977
20
5.1734413
30
7.7217211
0
POINT
8
20
62
2
10
7.8907351
20
9.9051122
30
0.21299624
0
POINT
8
20
62
2
10
8.5226389
20
2.2653446
30
8.7998619
0
POINT
8
20
62
2
10
5.0563662
20
3.9800519
30
7.9817018
0
POINT
8
20
62
2
10
6.3566139
20
6.9656869
30
3.2416524
0
POINT
8
20
62
2
10
9.5089442
20
0.64640759
30
6.6904442
0
POINT
8
20
62
2
10
4.4396416
20
7.4766158
30
2.9629386
0
POINT
8
20
62
2
10
0.6001882
20
4.2040043
30
9.2995204
0
POINT
8
20
62
2
10
8.667499
20
8.1131742
30
2.8196043
0
POINT
8
20
62
2
10
6.3118873
20
3.7960529
30
1.6887997
0
POINT
8
20
62
2
10
3.5507365
20
3.1906782
30
7.451666
0
POINT
8
20
62
2
10
9.9700327
20
9.8605107
30
4.7713435
0
POINT
8
20
62
2
10
2.241715
20
7.1818091
30
6.5344454
0
POINT
8
20
62
2
10
6.5245107
20
4.1318336
30
9.6657593
0
POINT
8
20
62
2
10
6.0499064
20
0.98630237
30
3.1302749
0
POINT
8
20
62
2
10
3.8724543
20
7.3455913
30
0.76439458
0
POINT
8
20
62
2
10
1.4218716
20
6.3730629
30
7.9141515
0
POINT
8
20
62
2
10
0.25134986
20
0.73841877
30
3.6538398
0
POINT
8
20
62
2
10
4.2111225
20
1.2050817
30
5.8509939
0
POINT
8
20
62
2
10
1.8410029
20
9.8159621
30
1.8333671
0
POINT
8
20
62
2
10
7.2577527
20
4.9679942
30
0.76918942
0
POINT
8
20
62
2
10
3.7036269
20
0.22413654
30
1.5366277
0
POINT
8
20
62
2
10
8.4156009
20
0.53831549
30
8.2687599
0
POINT
8
20
62
2
10
7.3422969
20
1.408738
30
3.0095674
0
POINT
8
20
62
2
10
5.7102587
20
8.9347431
30
3.8388449
0
POINT
8
20
62
2
10
1.7685506
20
4.6582007
30
6.5074895
0
POINT
8
20
62
2
10
9.5738402
20
5.6085674
30
8.1737052
0
POINT
8
20
62
2
10
2.6532204
20
4.9445635
30
7.6626622
0
POINT
8
20
62
2
10
9.245809
20
0.67785488
30
3.7417556
0
POINT
8
20
62
2
10
2.237704
20
8.9764654
30
1.8986248
0
POINT
8
20
62
2
10
3.7356381
20
2.8856531
30
6.4650176
0
POINT
8
20
62
2
10
0.8750035
20
2.6904681
30
0.036053045
0
POINT
8
20
62
2
10
6.4011655
20
5.9419418
30
2.8288791
0
POINT
8
20
62
2
10
1.8061689
20
4.7587902
30
6.3860059
0
POINT
8
20
62
2
10
0.45051107
20
3.6831104
30
5.9207458
0
POINT
8
20
62
2
10
7.2317348
20
6.5561109
30
3.252892
0
POINT
8
20
62
2
10
3.4743765
20
9.3820041
30
9.8895125
0
POINT
8
20
62
2
10
6.6061682
20
6.2042519
30
1.2323585
0
POINT
8
20
62
2
10
3.838686
20
2.8284009
30
7.3587699
0
POINT
8
20
62
2
10
6.273465
20
2.0518125
30
1.5661702
0
POINT
8
20
62
2
10
0.21649815
20
4.3913408
30
4.3464741
0
POINT
8
20
62
2
10
9.1056999
20
0.2725022
30
8.3224322
0
POINT
8
20
62
2
10
8.0055866
20
8.7618434
30
3.5990956
0
POINT
8
20
62
2
10
7.4584748
20
6.1009225
30
0.76238048
0
POINT
8
20
62
2
10
8.1311281
20
2.0359238
30
5.5692555
0
POINT
8
20
62
2
10
3.8330632
20
5.1991682
30
2.7393022
0
POINT
8
20
62
2
10
6.1727923
20
0.53824302
30
1.3205468
0
POINT
8
20
62
2
10
5.7549486
20
8.6218743
30
6.9965485
0
POINT
8
20
62
2
10
5.300517
20
4.4293467
30
4.8590491
0
POINT
8
20
62
2
10
2.7506976
20
5.4800916
30
1.8271625
0
POINT
8
20
62
2
10
2.4862896
20
5.6686083
30
1.0121454
0
POINT
8
20
62
2
10
4.5163877
20
6.8039499
30
2.0158433
0
POINT
8
20
62
2
10
2.2771283
20
3.7137858
30
1.3474601
0
POINT
8
20
62
2
10
8.0444958
20
0.78228709
30
3.2378915
0
POINT
8
20
62
2
10
9.8610424
20
4.5635072
30
9.5054505
0
POINT
8
20
62
2
10
0.2999195
20
0.478438
30
5.3213056
0
POINT
8
20
62
2
10
5.3566419
20
7.3825699
30
2.4768571
0
POINT
8
20
62
2
10
0.8707722
20
0.38001535
30
4.3727625
0
POINT
8
20
62
2
10
8.0209144
20
9.5424432
30
6.6908778
0
POINT
8
20
62
2
10
9.8914491
20
7.4237233
30
5.4769571
0
POINT
8
20
62
2
10
0.66946258
20
9.3744957
30
6.0905449
0
POINT
8
20
62
2
10
9.3939836
20
5.1336399
30
8.6313476
0
POINT
8
20
62
2
10
0.18177534
20
2.409048
30
3.8069595
0
POINT
8
20
62
2
10
6.8383861
20
2.5996528
30
7.4895562
0
POINT
8
20
62
2
10
7.8373648
20
7.5897416
30
1.566968
0
POINT
8
20
62
2
10
5.3413757
20
9.9334276
30
0.58123818
0
POINT
8
20
62
2
10
8.8535945
20
3.5670575
30
3.3970696
0
POINT
8
20
62
2
10
8.990049
20
7.5285784
30
8.1717642
0
POINT
8
20
62
2
10
6.2593763
20
1.100485
30
3.7754767
0
POINT
8
20
62
2
10
1.3786899
20
5.9704523
30
9.7260493
0
POINT
8
20
62
2
10
2.1780159
20
4.305952
30
6.0531859
0
POINT
8
20
62
2
10
1.8214108
20
7.3071802
30
3.3823617
0
POINT
8
20
62
2
10
0.41819864
20
2.6117617
30
9.2798372
0
POINT
8
20
62
2
10
1.0694166
20
0.94807682
30
8.9842469
0
POINT
8
20
62
2
10
6.1644349
20
4.5096349
30
8.5070646
0
POINT
8
20
62
2
10
9.3966101
20
6.4007451
30
2.5679192
0
POINT
8
20
62
2
10
3.5445573
20
1.3203882
30
2.854955
0
POINT
8
20
62
2
10
4.1062909
20
4.5282243
30
7.7994691
0
POINT
8
20
62
2
10
9.8434942
20
6.521996
30
7.0139523
0
POINT
8
20
62
2
10
9.4557919
20
8.2699833
30
4.9251178
0
POINT
8
20
62
2
10
6.7664468
20
3.0807691
30
9.6766775
0
POINT
8
20
62
2
10
9.8830226
20
4.0236358
30
4.7616149
0
POINT
8
20
62
2
10
7.6683139
20
8.8423132
30
9.9490552
0
POINT
8
20
62
2
10
3.3669926
20
7.0057951
30
4.9057862
0
POINT
8
20
62
2
10
6.6238186
20
2.418723
30
5.034534
0
POINT
8
20
62
2
10
2.4416529
20
7.5983182
30
7.6877288
0
POINT
8
20
62
2
10
2.9550725
20
2.9092574
30
3.8808448
0
POINT
8
20
62
2
10
6.8017837
20
2.7743872
30
4.5325926
0
POINT
8
20
62
2
10
5.2784683
20
0.06107803
30
1.3285397
0
POINT
8
20
62
2
10
4.1159351
20
3.7471114
30
7.5850633
0
POINT
8
20
62
2
10
6.0263822
20
4.3693278
30
5.6523693
0
POINT
8
20
62
2
10
7.5052006
20
3.0429847
30
6.486366
0
POINT
8
20
62
2
10
5.8353317
20
2.9086033
30
7.9805806
0
POINT
8
20
62
2
10
5.5179251
20
2.4251631
30
2.2044824
0
POINT
8
20
62
2
10
5.8357062
20
9.3668361
30
8.5789077
0
POINT
8
20
62
2
10
5.1181992
20
8.6019024
30
9.0472892
0
POINT
8
20
62
2
10
0.82592727
20
3.9722826
30
2.9201989
0
POINT
8
20
62
2
10
7.1957013
20
4.794191
30
7.2586976
0
POINT
8
20
62
2
10
9.9615611
20
5.6499609
30
3.394458
0
POINT
8
20
62
2
10
3.545343
20
4.8961939
30
2.7268123
0
POINT
8
20
62
2
10
9.7125882
20
2.6981163
30
1.7027459
0
POINT
8
20
62
2
10
3.4644876
20
9.8974014
30
6.6401823
0
POINT
8
20
62
2
10
8.8654386
20
1.836757
30
5.3585166
0
POINT
8
20
62
2
10
4.5469486
20
8.6165672
30
8.2910942
0
POINT
8
20
62
2
10
4.1342729
20
0.32632572
30
2.6736208
0
POINT
8
20
62
2
10
2.1773207
20
3.3195802
30
1.7615578
0
POINT
8
20
62
2
10
1.2565459
20
7.48747
30
4.3118637
0
POINT
8
20
62
2
10
3.0891459
20
6.4436646
30
4.7565504
0
POINT
8
20
62
2
10
7.2610443
20
1.6923796
30
7.8522091
0
POINT
8
20
62
2
10
7.8287207
20
9.522051
30
1.306516
0
POINT
8
20
62
2
10
6.9378761
20
5.4327024
30
0.51355733
0
POINT
8
20
62
2
10
0.098022523
20
2.5141348
30
6.2750648
0
POINT
8
20
62
2
10
8.4321334
20
5.7857231
30
0.29087552
0
POINT
8
20
62
2
10
9.22332
20
9.154766
30
1.3619461
0
POINT
8
20
62
2
10
7.7095422
20
8.9559653
30
6.945556
0
POINT
8
20
62
2
10
0.42659856
20
4.8250662
30
5.1567896
0
POINT
8
20
62
2
10
3.7818614
20
4.4273998
30
5.4258242
0
POINT
8
20
62
2
10
7.0433962
20
3.1175495
30
8.0848351
0
POINT
8
20
62
2
10
7.2951305
20
0.55313772
30
7.9368603
0
POINT
8
20
62
2
10
2.2427707
20
7.5379177
30
5.0186709
0
POINT
8
20
62
2
10
2.6905473
20
1.3194748
30
2.7663206
0
POINT
8
20
62
2
10
6.7303117
20
3.5592212
30
1.1966494
0
POINT
8
20
62
2
10
4.774922
20
3.9587096
30
8.8659776
0
POINT
8
20
62
2
10
6.2371641
20
8.8552123
30
9.7028899
0
POINT
8
20
62
2
10
2.3644493
20
0.21239549
30
9.4252631
0
POINT
8
20
62
2
10
1.7712375
20
8.4408072
30
6.3812813
0
POINT
8
20
62
2
10
8.2964339
20
2.8807064
30
0.90590152
0
POINT
8
20
62
2
10
7.6692167
20
2.5034288
30
0.74708115
0
POINT
8
20
62
2
10
9.3447827
20
4.8837964
30
1.8245094
0
POINT
8
20
62
2
10
1.0788891
20
7.2903612
30
0.31687662
0
POINT
8
20
62
2
10
1.8222751
20
2.026161
30
7.2493631
0
POINT
8
20
62
2
10
0.99095282
20
2.1627621
30
1.4415881
0
POINT
8
20
62
2
10
4.897638
20
9.7633451
30
6.3592682
0
POINT
8
20
62
2
10
1.9324533
20
5.9323579
30
7.8984756
0
POINT
8
20
62
2
10
8.9589157
20
3.0440358
30
5.6625313
0
POINT
8
20
62
2
10
0.9908965
20
9.6770288
30
3.7741392
0
POINT
8
20
62
2
10
0.44165572
20
8.9596983
30
8.2158612
0
POINT
8
20
62
2
10
5.5729516
20
1.9002548
30
3.0488083
0
POINT
8
20
62
2
10
7.7249507
20
0.017993239
30
3.193731
0
POINT
8
20
62
2
10
3.1194006
20
7.1176376
30
7.8497989
0
POINT
8
20
62
2
10
1.7898248
20
8.6772679
30
5.0373644
0
POINT
8
20
62
2
10
3.3895568
20
1.1830791
30
2.6099673
0
POINT
8
20
62
2
10
2.1014564
20
0.39022977
30
7.3247552
0
POINT
8
20
62
2
10
5.1015252
20
5.9819453
30
1.6294997
0
POINT
8
20
62
2
10
9.0636432
20
6.0431351
30
9.2107522
0
POINT
8
20
62
2
10
6.2892394
20
5.1643241
30
2.2222346
0
POINT
8
20
62
2
10
1.0153389
20
0.075074041
30
0.83608717
0
POINT
8
20
62
2
10
3.9085475
20
6.8893336
30
0.73701554
0
POINT
8
20
62
2
10
0.54616615
20
9.4602038
30
7.6955166
0
POINT
8
20
62
2
10
5.0128291
20
8.7353646
30
8.1767703
0
POINT
8
20
62
2
10
4.3172117
20
1.1327645
30
7.4042554
0
POINT
8
20
62
2
10
9.9756035
20
3.5456934
30
7.5824879
0
POINT
8
20
62
2
10
8.1160258
20
2.4193683
30
9.6119498
0
POINT
8
20
62
2
10
4.8565167
20
5.6033331
30
4.6642496
0
POINT
8
20
62
2
10
8.9444776
20
6.1272711
30
7.8699649
0
POINT
8
20
62
2
10
1.3754659
20
3.0080909
30
4.2256808
0
POINT
8
20
62
2
10
3.9000491
20
7.9814171
30
9.4372996
0
POINT
8
20
62
2
10
9.2735622
20
7.9564163
30
0.01314398
0
POINT
8
20
62
2
10
9.1749383
20
7.8109227
30
9.8126791
0
POINT
8
20
62
2
10
7.1357401
20
3.5109843
30
5.7019418
0
POINT
8
20
62
2
10
6.1833738
20
0.54297354
30
3.4647055
0
POINT
8
20
62
2
10
3.4328789
20
7.0870462
30
5.5750305
0
POINT
8
20
62
2
10
9.3602733
20
9.9292844
30
2.997847
0
POINT
8
20
62
2
10
1.2477404
20
1.6247649
30
1.5907282
0
POINT
8
20
62
2
10
7.3058536
20
1.1356634
30
6.6525629
0
POINT
8
20
62
2
10
6.4647743
20
9.1287543
30
6.8420278
0
POINT
8
20
62
2
10
8.3315199
20
4.8165698
30
7.9240936
0
POINT
8
20
62
2
10
3.9828223
20
8.5180595
30
3.4862444
0
POINT
8
20
62
2
10
7.4982221
20
8.099138
30
2.5007473
0
POINT
8
20
62
2
10
8.3522051
20
1.8675954
30
3.4500339
0
POINT
8
20
62
2
10
3.224604
20
2.4719986
30
3.2863259
0
POINT
8
20
62
2
10
5.5226162
20
0.54188841
30
9.2748553
0
POINT
8
20
62
2
10
9.7912913
20
6.0896146
30
7.5607243
0
POINT
8
20
62
2
10
5.4930853
20
7.7723243
30
2.8823863
0
POINT
8
20
62
2
10
3.3042361
20
5.1106409
30
6.0617988
0
POINT
8
20
62
2
10
6.1947156
20
0.27750088
30
7.6602936
0
POINT
8
20
62
2
10
3.6063657
20
9.9038528
30
8.4615234
0
POINT
8
20
62
2
10
7.5650954
20
5.0093992
30
9.0198119
0
POINT
8
20
62
2
10
4.1390075
20
3.3199749
30
5.9570715
0
POINT
8
20
62
2
10
4.923451
20
1.7388314
30
0.68536145
0
POINT
8
20
62
2
10
6.9474323
20
6.2563639
30
2.1804337
0
POINT
8
20
62
2
10
9.7273389
20
5.7513483
30
8.6940849
0
POINT
8
20
62
2
10
3.2775496
20
7.5098538
30
4.1421785
0
POINT
8
20
62
2
10
8.3780318
20
1.535188
30
6.6120915
0
POINT
8
20
62
2
10
7.3907223
20
3.567872
30
7.8348484
0
POINT
8
20
62
2
10
9.5417446
20
1.439508
30
2.4788601
0
POINT
8
20
62
2
10
0.3192263
20
8.5060766
30
5.5442529
0
POINT
8
20
62
2
10
3.5686899
20
3.3786974
30
2.295854
0
POINT
8
20
62
2
10
6.6265383
20
2.7519649
30
0.06912764
0
POINT
8
20
62
2
10
2.8150156
20
0.060109731
30
7.666394
0
POINT
8
20
62
2
10
2.3038307
20
8.0191197
30
0.2183325
0
POINT
8
20
62
2
10
7.1112855
20
4.9740828
30
3.9310343
0
POINT
8
20
62
2
10
6.2457292
20
5.3784284
30
2.5254016
0
POINT
8
20
62
2
10
5.9060865
20
8.7091252
30
2.0421692
0
POINT
8
20
62
2
10
6.6043797
20
7.2284357
30
6.6227947
0
POINT
8
20
62
2
10
0.47554673
20
6.6808593
30
9.1474208
0
POINT
8
20
62
2
10
3.4878481
20
1.7882779
30
0.069025477
0
POINT
8
20
62
2
10
4.5134058
20
5.5049535
30
7.464232
0
POINT
8
20
62
2
10
2.40905
20
9.5987508
30
7.9967079
0
POINT
8
20
62
2
10
7.1504501
20
5.9602167
30
9.0779894
0
POINT
8
20
62
2
10
8.5618229
20
8.0857071
30
9.7457394
0
POINT
8
20
62
2
10
2.815077
20
9.8453235
30
1.1986349
0
POINT
8
20
62
2
10
7.3105083
20
8.8592445
30
5.1896976
0
POINT
8
20
62
2
10
1.3776289
20
2.13837
30
8.2197481
0
POINT
8
20
62
2
10
8.3672278
20
0.34630061
30
6.370228
0
POINT
8
20
62
2
10
1.3860172
20
4.5112379
30
9.5391038
0
POINT
8
20
62
2
10
5.8820939
20
0.13794557
30
9.4692637
0
POINT
8
20
62
2
10
3.661568
20
4.7371075
30
9.6660525
0
POINT
8
20
62
2
10
8.0675954
20
9.5119709
30
0.67344188
0
POINT
8
20
62
2
10
5.0378079
20
2.4895228
30
4.3753479
0
POINT
8
20
62
2
10
4.8959434
20
3.864228
30
3.2083994
0
POINT
8
20
62
2
10
8.7704872
20
4.3143338
30
1.3405206
0
POINT
8
20
62
2
10
3.5314181
20
8.3088648
30
1.3458515
0
POINT
8
20
62
2
10
4.4944356
20
8.2464682
30
8.0594766
0
POINT
8
20
62
2
10
9.6353029
20
4.5299861
30
5.2476426
0
POINT
8
20
62
2
10
0.42297798
20
3.8056017
30
9.4425697
0
POINT
8
20
62
2
10
9.7295833
20
9.2586854
30
9.8834008
0
POINT
8
20
62
2
10
1.8920684
20
7.4084363
30
4.0989418
0
POINT
8
20
62
2
10
6.671203
20
7.3763307
30
3.7118788
0
POINT
8
20
62
2
10
5.8643961
20
9.46916
30
2.2685409
0
POINT
8
20
62
2
10
6.7511242
20
5.1009971
30
4.4603096
0
POINT
8
20
62
2
10
3.6102205
20
7.9187918
30
2.6622144
0
POINT
8
20
62
2
10
6.2027843
20
4.521735
30
4.5909639
0
POINT
8
20
62
2
10
8.1115089
20
8.4919871
30
4.3290533
0
POINT
8
20
62
2
10
0.19257477
20
3.9043083
30
2.5962343
0
POINT
8
20
62
2
10
0.83873508
20
7.3837651
30
1.3371451
0
POINT
8
20
62
2
10
9.7480167
20
9.7643856
30
4.1922842
0
POINT
8
20
62
2
10
6.5134953
20
5.2329906
30
5.0686051
0
POINT
8
20
62
2
10
2.3123782
20
4.299153
30
3.2432456
0
POINT
8
20
62
2
10
4.0349114
20
2.0715808
30
6.846888
0
POINT
8
20
62
2
10
1.2202052
20
3.2340138
30
4.4309351
0
POINT
8
20
62
2
10
2.6843882
20
1.1087022
30
4.3566308
0
POINT
8
20
62
2
10
2.5784617
20
3.7521005
30
7.9302352
0
POINT
8
20
62
2
10
3.3166524
20
3.2990398
30
8.1555637
0
POINT
8
20
62
2
10
1.5223401
20
3.4210517
30
7.5211265
0
POINT
8
20
62
2
10
3.4800766
20
8.1711885
30
7.8925594
0
POINT
8
20
62
2
10
1.2165845
20
5.3168531
30
5.0126745
0
POINT
8
20
62
2
10
8.8415306
20
5.2112205
30
5.5518192
0
POINT
8
20
62
2
10
0.9427839
20
7.7430971
30
6.3074974
0
POINT
8
20
62
2
10
9.3004063
20
1.2026277
30
0.97989165
0
POINT
8
20
62
2
10
3.9901997
20
6.2545015
30
2.4567618
0
POINT
8
20
62
2
10
0.47401462
20
3.4664869
30
6.1572514
0
POINT
8
20
62
2
10
3.423735
20
3.3461939
30
3.0495996
0
POINT
8
20
62
2
10
7.3596616
20
5.7461656
30
7.669676
0
POINT
8
20
62
2
10
7.9468216
20
8.6393764
30
2.6722909
0
POINT
8
20
62
2
10
5.449059
20
1.9856307
30
0.39506304
0
POINT
8
20
62
2
10
6.8622346
20
6.7245096
30
2.9656178
0
POINT
8
20
62
2
10
8.936327
20
9.0183137
30
5.5636498
0
POINT
8
20
62
2
10
0.5479179
20
1.9915718
30
9.6907447
0
POINT
8
20
62
2
10
3.0366138
20
2.9828415
30
6.8912471
0
POINT
8
20
62
2
10
0.46191556
20
4.9652027
30
7.178814
0
POINT
8
20
62
2
10
1.9547676
20
8.8990423
30
5.5902912
0
POINT
8
20
62
2
10
7.201658
20
5.0141459
30
5.3335421
0
POINT
8
20
62
2
10
7.2175327
20
2.7699524
30
8.75724
0
POINT
8
20
62
2
10
8.7779907
20
5.3395818
30
3.9309859
0
POINT
8
20
62
2
10
5.8243296
20
5.7424955
30
4.5806694
0
POINT
8
20
62
2
10
0.70684335
20
4.128044
30
2.082452
0
POINT
8
20
62
2
10
9.2274457
20
0.14763663
30
7.5727316
0
POINT
8
20
62
2
10
8.0037209
20
7.027648
30
5.4669203
0
POINT
8
20
62
2
10
2.8594686
20
5.0674715
30
3.5738819
0
POINT
8
20
62
2
10
5.4366323
20
3.812661
30
7.0099779
0
POINT
8
20
62
2
10
9.8477624
20
0.64931535
30
1.092225
0
POINT
8
20
62
2
10
7.1567807
20
3.5857996
30
0.06610766
0
POINT
8
20
62
2
10
8.389696
20
2.3425124
30
5.9730208
0
POINT
8
20
62
2
10
4.3326056
20
2.0350405
30
6.5917607
0
POINT
8
20
62
2
10
4.7062472
20
8.1377958
30
5.8000643
0
POINT
8
20
62
2
10
5.6071341
20
3.9343459
30
9.0995161
0
POINT
8
20
62
2
10
2.6909154
20
0.53575171
30
6.3600615
0
POINT
8
20
62
2
10
7.4901847
20
3.7505158
30
5.2556125
0
POINT
8
20
62
2
10
5.0388777
20
7.7499418
30
2.5962308
0
POINT
8
20
62
2
10
6.4680967
20
1.6529762
30
0.51170867
0
POINT
8
20
62
2
10
3.0774558
20
9.122189
30
7.3195013
0
POINT
8
20
62
2
10
1.3872464
20
3.1920578
30
1.6429139
0
POINT
8
20
62
2
10
4.7557293
20
3.2977967
30
2.8039701
0
POINT
8
20
62
2
10
3.6245928
20
2.0423567
30
2.5942745
0
POINT
8
20
62
2
10
7.8811343
20
7.6721474
30
5.4709596
0
POINT
8
20
62
2
10
7.8029582
20
0.69973149
30
5.4126847
0
POINT
8
20
62
2
10
6.6851221
20
9.5003395
30
7.8811318
0
POINT
8
20
62
2
10
1.3350386
20
1.5820978
30
8.6960556
0
POINT
8
20
62
2
10
0.21555887
20
2.8644587
30
7.8754053
0
POINT
8
20
62
2
10
5.5984071
20
6.8712911
30
9.6942786
0
POINT
8
20
62
2
10
3.0081902
20
1.4114982
30
1.8046811
0
POINT
8
20
62
2
10
9.3940971
20
5.1208665
30
9.3059896
0
POINT
8
20
62
2
10
9.8090364
20
7.2132693
30
0.45151876
0
POINT
8
20
62
2
10
2.8662039
20
9.2884514
30
2.4064589
0
POINT
8
20
62
2
10
8.0082029
20
7.3210385
30
0.088550301
0
POINT
8
20
62
2
10
8.9611135
20
7.4984802
30
6.7159353
0
POINT
8
20
62
2
10
5.9752658
20
4.073196
30
9.0481323
0
POINT
8
20
62
2
10
8.8401674
20
2.394917
30
5.7241631
0
POINT
8
20
62
2
10
9.4373154
20
5.2085048
30
1.5546129
0
POINT
8
20
62
2
10
5.4915809
20
2.1907736
30
5.0236743
0
POINT
8
20
62
2
10
7.2838682
20
8.423879
30
5.6773288
0
POINT
8
20
62
2
10
5.767583
20
6.6293291
30
1.8827178
0
POINT
8
20
62
2
10
0.25857471
20
8.1623529
30
3.2419646
0
POINT
8
20
62
2
10
4.4653098
20
7.938776
30
7.1603734
0
POINT
8
20
62
2
10
6.4630196
20
4.691052
30
5.5292871
0
POINT
8
20
62
2
10
5.2120295
20
3.0952498
30
1.4228174
0
POINT
8
20
62
2
10
3.7231266
20
6.8757925
30
3.8036356
0
POINT
8
20
62
2
10
9.3713467
20
9.8685222
30
3.9656925
0
POINT
8
20
62
2
10
8.2953282
20
7.6993388
30
5.767417
0
POINT
8
20
62
2
10
8.4908548
20
8.2958085
30
0.19401503
0
POINT
8
20
62
2
10
3.7253424
20
7.0608477
30
5.7758006
0
POINT
8
20
62
2
10
5.9318458
20
5.9533642
30
9.3219609
0
POINT
8
20
62
2
10
8.7255256
20
7.5287412
30
1.0687278
0
POINT
8
20
62
2
10
9.3350161
20
4.967222
30
7.3214976
0
POINT
8
20
62
2
10
6.6846427
20
8.6513265
30
9.7052279
0
POINT
8
20
62
2
10
2.0677646
20
0.68027694
30
6.0888554
0
POINT
8
20
62
2
10
6.5385059
20
9.6854594
30
7.1966561
0
POINT
8
20
62
2
10
0.72051551
20
0.98756312
30
3.0275233
0
POINT
8
20
62
2
10
4.0672692
20
5.4697709
30
4.5902239
0
POINT
8
20
62
2
10
6.6693153
20
4.0296991
30
0.48028613
0
POINT
8
20
62
2
10
9.3372566
20
1.0704016
30
3.8535211
0
POINT
8
20
62
2
10
8.1095003
20
7.2416617
30
3.6171638
0
POINT
8
20
62
2
10
4.8454827
20
6.1368235
30
2.8758406
0
POINT
8
20
62
2
10
7.5674921
20
7.8296819
30
8.1671274
0
POINT
8
20
62
2
10
4.1704745
20
5.6662058
30
4.5052809
0
POINT
8
20
62
2
10
9.7178599
20
8.1131916
30
8.0663252
0
POINT
8
20
62
2
10
9.879747
20
5.7677586
30
7.9017294
0
POINT
8
20
62
2
10
8.6414753
20
9.4402919
30
2.8295787
0
POINT
8
20
62
2
10
3.8888378
20
8.7145215
30
0.68309239
0
POINT
8
20
62
2
10
4.5474183
20
5.0760221
30
0.54930728
0
POINT
8
20
62
2
10
2.466872
20
7.8882317
30
6.3752264
0
POINT
8
20
62
2
10
7.8442309
20
4.7303064
30
4.2428558
0
POINT
8
20
62
2
10
8.8283761
20
8.288017
30
9.0553135
0
POINT
8
20
62
2
10
9.1371168
20
3.2248159
30
4.1732088
0
POINT
8
20
62
2
10
5.5828492
20
9.7614654
30
1.5405833
0
POINT
8
20
62
2
10
5.988681
20
2.7821104
30
5.3999926
0
POINT
8
20
62
2
10
1.4887672
20
0.72830805
30
9.3709137
0
POINT
8
20
62
2
10
8.9971348
20
7.5122361
30
6.6095506
0
POINT
8
20
62
2
10
4.5039358
20
8.3118862
30
3.9465744
0
POINT
8
20
62
2
10
2.0567234
20
9.2233809
30
2.5899054
0
POINT
8
20
62
2
10
8.9965099
20
3.2702429
30
8.4791216
0
POINT
8
20
62
2
10
7.6258554
20
8.0406926
30
9.4505607
0
POINT
8
20
62
2
10
8.8248631
20
5.3825033
30
3.7699984
0
POINT
8
20
62
2
10
2.8495022
20
4.6329488
30
0.67280185
0
POINT
8
20
62
2
10
6.7322599
20
8.2075025
30
1.8158177
0
POINT
8
20
62
2
10
6.642799
20
9.5190651
30
5.7574762
0
POINT
8
20
62
2
10
1.2281499
20
0.76272889
30
1.8588503
0
POINT
8
20
62
2
10
4.0731842
20
7.0867106
30
2.9144836
0
POINT
8
20
62
2
10
2.7528695
20
2.3492644
30
4.6166411
0
POINT
8
20
62
2
10
7.1666974
20
3.9889556
30
3.4697744
0
POINT
8
20
62
2
10
2.8338438
20
2.6812443
30
3.1816572
0
POINT
8
20
62
2
10
8.9619886
20
8.3251332
30
4.5991458
0
POINT
8
20
62
2
10
8.2657889
20
9.9537381
30
2.3589492
0
POINT
8
20
62
2
10
3.9002651
20
6.4975098
30
0.27752038
0
POINT
8
20
62
2
10
4.9790294
20
7.0395283
30
6.5845346
0
POINT
8
20
62
2
10
6.9480519
20
9.323032
30
1.5880356
0
POINT
8
20
62
2
10
8.34369
20
6.8765255
30
8.026626
0
POINT
8
20
62
2
10
6.0962969
20
5.6835392
30
4.0857977
0
POINT
8
20
62
2
10
5.7473716
20
3.8084753
30
3.2739188
0
POINT
8
20
62
2
10
3.2604217
20
6.3457948
30
7.4601473
0
POINT
8
20
62
2
10
4.564246
20
3.6322862
30
7.4635192
0
POINT
8
20
62
2
10
7.1379558
20
4.0761944
30
1.7395496
0
POINT
8
20
62
2
10
8.8440505
20
3.6869972
30
1.175448
0
POINT
8
20
62
2
10
7.2085567
20
4.6839876
30
1.7403752
0
POINT
8
20
62
2
10
0.18612775
20
5.0341384
30
6.2740916
0
POINT
8
20
62
2
10
6.7477647
20
9.1053578
30
8.4189026
0
POINT
8
20
62
2
10
4.3850882
20
2.0643102
30
5.1008285
0
POINT
8
20
62
2
10
4.3782018
20
3.3860368
30
1.6576374
0
POINT
8
20
62
2
10
1.1703682
20
5.7412562
30
7.1430528
0
POINT
8
20
62
2
10
8.1468169
20
4.8693244
30
9.070373
0
POINT
8
20
62
2
10
3.2485544
20
2.6221899
30
2.1853774
0
POINT
8
20
62
2
10
2.4622811
20
5.7959346
30
8.7096145
0
POINT
8
20
62
2
10
3.4271322
20
8.783277
30
2.1183594
0
POINT
8
20
62
2
10
3.7569214
20
0.60950222
30
8.3666494
0
POINT
8
20
62
2
10
5.4655379
20
4.4087647
30
8.5930169
0
POINT
8
20
62
2
10
5.6192015
20
0.84258001
30
5.2337747
0
POINT
8
20
62
2
10
3.9582223
20
5.6323762
30
4.7736279
0
POINT
8
20
62
2
10
3.9813088
20
5.3931058
30
8.8988313
0
POINT
8
20
62
2
10
5.1536722
20
7.680579
30
0.650762
0
POINT
8
20
62
2
10
6.5753054
20
2.3309027
30
5.0945613
0
POINT
8
20
62
2
10
9.509152
20
5.8736174
30
6.2079795
0
POINT
8
20
62
2
10
7.2234851
20
4.5897387
30
7.3356744
0
POINT
8
20
62
2
10
4.0007975
20
8.6098152
30
2.2999623
0
POINT
8
20
62
2
10
8.3187134
20
6.6083609
30
0.21871876
0
POINT
8
20
62
2
10
1.3433834
20
3.5387917
30
1.3898889
0
POINT
8
20
62
2
10
0.60466772
20
3.471863
30
7.6950745
0
POINT
8
20
62
2
10
0.84247052
20
2.537181
30
9.6976518
0
POINT
8
20
62
2
10
1.6389832
20
9.5252815
30
3.8679442
0
POINT
8
20
62
2
10
3.2421992
20
2.9820099
30
9.9342779
0
POINT
8
20
62
2
10
3.0172678
20
1.5840608
30
3.2639347
0
POINT
8
20
62
2
10
0.11680991
20
3.6129706
30
1.3716104
0
POINT
8
20
62
2
10
5.3990509
20
7.4162909
30
3.8475363
0
POINT
8
20
62
2
10
0.95372693
20
7.0590001
30
5.6263583
0
POINT
8
20
62
2
10
1.4651486
20
7.0089217
30
6.3383543
0
POINT
8
20
62
2
10
6.3114121
20
0.062257874
30
5.4160638
0
POINT
8
20
62
2
10
8.5932041
20
3.743456
30
3.1499342
0
POINT
8
20
62
2
10
9.7422163
20
9.0149562
30
1.5932672
0
POINT
8
20
62
2
10
5.7083843
20
3.1834483
30
1.5261623
0
POINT
8
20
62
2
10
9.9685021
20
5.9708292
30
1.3695077
0
POINT
8
20
62
2
10
5.5354157
20
2.9779518
30
7.0980312
0
POINT
8
20
62
2
10
5.1545845
20
1.2501438
30
4.6486447
0
POINT
8
20
62
2
10
3.3068207
20
3.8835567
30
1.1327118
0
POINT
8
20
62
2
10
4.300018
20
8.1768774
30
7.0087885
0
POINT
8
20
62
2
10
4.9180625
20
9.811757
30
1.7998614
0
POINT
8
20
62
2
10
0.71037084
20
8.6198984
30
8.0366808
0
POINT
8
20
62
2
10
8.8773922
20
0.83820882
30
5.139561
0
POINT
8
20
62
2
10
0.64633591
20
3.3771199
30
5.4843836
0
POINT
8
20
62
2
10
4.3618496
20
2.3612917
30
2.0784476
0
POINT
8
20
62
2
10
8.2662951
20
3.1780539
30
7.8458887
0
POINT
8
20
62
2
10
3.9453468
20
9.8444841
30
5.2648963
0
POINT
8
20
62
2
10
6.1347488
20
5.4825089
30
5.7102336
0
POINT
8
20
62
2
10
8.1864074
20
7.4925126
30
4.2204076
0
POINT
8
20
62
2
10
8.8623504
20
8.4185173
30
7.2115631
0
POINT
8
20
62
2
10
9.3111163
20
1.6688971
30
0.73138311
0
POINT
8
20
62
2
10
1.9078465
20
9.0309761
30
5.9486192
0
POINT
8
20
62
2
10
2.5858225
20
1.0512413
30
8.6197736
0
POINT
8
20
62
2
10
8.9786568
20
7.450931
30
4.4880106
0
POINT
8
20
62
2
10
5.9336186
20
7.2937194
30
6.5257739
0
POINT
8
20
62
2
10
5.0384008
20
7.174696
30
3.0347312
0
POINT
8
20
62
2
10
6.1280959
20
1.3343177
30
6.0743995
0
POINT
8
20
62
2
10
8.1942224
20
4.45789
30
2.7890231
0
POINT
8
20
62
2
10
5.3188917
20
5.0878723
30
7.9956234
0
POINT
8
20
62
2
10
2.020751
20
5.3049029
30
7.9616912
0
POINT
8
20
62
2
10
4.5389347
20
8.5971704
30
9.540869
0
POINT
8
20
62
2
10
4.2791092
20
6.7772491
30
4.4433817
0
POINT
8
20
62
2
10
9.6605275
20
8.0583826
30
4.5688281
0
POINT
8
20
62
2
10
6.2005505
20
5.3124287
30
5.9981714
0
POINT
8
20
62
2
10
6.9538995
20
9.5589584
30
8.4262183
0
POINT
8
20
62
2
10
7.2016461
20
0.66676945
30
0.31200453
0
POINT
8
20
62
2
10
3.4689519
20
5.4151803
30
1.8727014
0
POINT
8
20
62
2
10
5.1699042
20
2.8166034
30
9.435944
0
POINT
8
20
62
2
10
5.5669463
20
4.8090034
30
9.4792214
0
POINT
8
20
62
2
10
1.5649522
20
6.8486378
30
4.5298439
0
POINT
8
20
62
2
10
5.6205605
20
2.0825839
30
8.1083255
0
POINT
8
20
62
2
10
6.9480329
20
6.0816099
30
9.288792
0
POINT
8
20
62
2
10
4.2645554
20
3.2617617
30
6.7271728
0
POINT
8
20
62
2
10
8.3627042
20
8.808472
30
3.7233228
0
POINT
8
20
62
2
10
7.3138707
20
1.3339461
30
4.0569569
0
POINT
8
20
62
2
10
3.6003104
20
1.0240779
30
4.3882392
0
POINT
8
20
62
2
10
4.5421237
20
9.591169
30
6.786492
0
POINT
8
20
62
2
10
3.863899
20
1.52902
30
4.6507033
0
POINT
8
20
62
2
10
7.7555464
20
1.5253808
30
9.5326417
0
POINT
8
20
62
2
10
7.3427111
20
1.5555259
30
3.5469798
0
POINT
8
20
62
2
10
4.3027785
20
0.89569403
30
3.3902086
0
POINT
8
20
62
2
10
6.9375257
20
4.5442456
30
8.9586005
0
POINT
8
20
62
2
10
9.4521349
20
6.6889569
30
5.4543426
0
POINT
8
20
62
2
10
7.842326
20
8.3130168
30
7.4928372
0
POINT
8
20
62
2
10
7.0557186
20
7.9023514
30
1.248772
0
POINT
8
20
62
2
10
1.0933424
20
7.1271092
30
4.5323482
0
POINT
8
20
62
2
10
3.8993066
20
4.7259751
30
0.74749438
0
POINT
8
20
62
2
10
5.9090473
20
7.0858815
30
6.6334061
0
POINT
8
20
62
2
10
4.5938005
20
9.5805948
30
7.0365164
0
POINT
8
20
62
2
10
0.50339987
20
5.0577556
30
9.1895057
0
POINT
8
20
62
2
10
2.2868758
20
3.0505312
30
6.6007191
0
POINT
8
20
62
2
10
8.3418906
20
7.8981118
30
6.9010492
0
POINT
8
20
62
2
10
0.15644693
20
2.3638696
30
8.5372361
0
POINT
8
20
62
2
10
8.6371087
20
2.3430283
30
4.6790172
0
POINT
8
20
62
2
10
0.78069053
20
4.646994
30
4.5847868
0
POINT
8
20
62
2
10
6.6904259
20
6.193868
30
8.0610419
0
POINT
8
20
62
2
10
5.0021132
20
6.153294
30
8.2476724
0
POINT
8
20
62
2
10
2.179938
20
1.226239
30
1.904361
0
POINT
8
20
62
2
10
5.7161573
20
1.2379353
30
0.25673208
0
POINT
8
20
62
2
10
1.2218915
20
2.8445899
30
0.5681496
0
POINT
8
20
62
2
10
6.7116623
20
7.3573281
30
1.4293558
0
POINT
8
20
62
2
10
5.9958555
20
4.113081
30
1.7141874
0
POINT
8
20
62
2
10
0.55976157
20
8.2898189
30
6.2584478
0
POINT
8
20
62
2
10
0.56343019
20
9.3511412
30
0.29515208
0
POINT
8
20
62
2
10
1.5250064
20
3.9906666
30
4.7233227
0
POINT
8
20
62
2
10
0.19621067
20
0.5221138
30
6.7844277
0
POINT
8
20
62
2
10
4.3517555
20
5.711861
30
1.1478897
0
POINT
8
20
62
2
10
8.3222148
20
7.4766998
30
2.3606392
0
POINT
8
20
62
2
10
6.1739017
20
3.2024356
30
2.890806
0
POINT
8
20
62
2
10
5.2012942
20
4.9293432
30
1.7275629
0
POINT
8
20
62
2
10
8.6386822
20
2.2165275
30
3.2370612
0
POINT
8
20
62
2
10
0.97697918
20
9.3927374
30
8.011101
0
POINT
8
20
62
2
10
9.080522
20
4.8230529
30
2.996337
0
POINT
8
20
62
2
10
1.0801669
20
5.3999609
30
7.7562572
0
POINT
8
20
62
2
10
5.1699676
20
2.210571
30
5.5277083
0
POINT
8
20
62
2
10
1.4315602
20
0.95945002
30
5.5469172
0
POINT
8
20
62
2
10
5.5937057
20
0.60165416
30
7.3064729
0
POINT
8
20
62
2
10
0.045796239
20
8.1950887
30
7.7362482
0
POINT
8
20
62
2
10
7.66682
20
7.714783
30
9.008471
0
POINT
8
20
62
2
10
8.4870923
20
1.9569573
30
1.3816716
0
POINT
8
20
62
2
10
9.1682127
20
8.9511815
30
7.9407682
0
POINT
8
20
62
2
10
9.8696827
20
6.8430015
30
1.8941337
0
POINT
8
20
62
2
10
5.051331
20
6.5684648
30
0.28974383
0
POINT
8
20
62
2
10
2.7142162
20
9.903812
30
1.2738719
0
POINT
8
20
62
2
10
1.0075051
20
0.33691793
30
1.3373569
0
POINT
8
20
62
2
10
5.0784883
20
4.2425327
30
1.2831096
0
POINT
8
20
62
2
10
5.8560913
20
4.8998367
30
9.3525979
0
POINT
8
20
62
2
10
7.628871
20
5.8350447
30
2.7323006
0
POINT
8
20
62
2
10
0.82962649
20
0.83269748
30
9.4267926
0
POINT
8
20
62
2
10
6.6159619
20
6.6015463
30
6.381505
0
POINT
8
20
62
2
10
5.1697901
20
0.52305221
30
8.7253082
0
POINT
8
20
62
2
10
1.7104802
20
5.5683053
30
3.6707324
0
POINT
8
20
62
2
10
9.3855786
20
7.1202525
30
2.362019
0
POINT
8
20
62
2
10
5.9048318
20
4.8791063
30
1.8731824
0
POINT
8
20
62
2
10
4.4063468
20
6.1760065
30
5.4564926
0
POINT
8
20
62
2
10
9.4191893
20
2.1377757
30
2.5511646
0
POINT
8
20
62
2
10
6.5591382
20
6.4565866
30
3.0582361
0
POINT
8
20
62
2
10
4.5194571
20
3.8064229
30
0.15548619
0
POINT
8
20
62
2
10
8.3969742
20
1.0371284
30
5.8748809
0
POINT
8
20
62
2
10
5.326235
20
3.7751152
30
9.6255831
0
POINT
8
20
62
2
10
5.5388707
20
2.6286081
30
8.4984767
0
POINT
8
20
62
2
10
6.8006553
20
2.4128561
30
0.079402971
0
POINT
8
20
62
2
10
3.6718991
20
6.2292405
30
6.3402554
0
POINT
8
20
62
2
10
2.3929061
20
5.2292776
30
3.5929114
0
POINT
8
20
62
2
10
5.7892349
20
4.1323775
30
1.1405962
0
POINT
8
20
62
2
10
8.6688705
20
2.1779204
30
5.4081793
0
POINT
8
20
62
2
10
4.0677676
20
8.5855362
30
4.1642138
0
POINT
8
20
62
2
10
1.1261514
20
8.6100825
30
5.170985
0
POINT
8
20
62
2
10
4.4384584
20
2.8393901
30
8.8612288
0
POINT
8
20
62
2
10
3.001844
20
6.1539285
30
1.4939591
0
POINT
8
20
62
2
10
4.0138685
20
7.794895
30
4.3467652
0
POINT
8
20
62
2
10
8.3336356
20
9.5484731
30
0.59038808
0
POINT
8
20
62
2
10
4.0362866
20
9.1960325
30
3.8103006
0
POINT
8
20
62
2
10
3.9017594
20
3.848157
30
7.2236947
0
POINT
8
20
62
2
10
3.6044889
20
1.6264302
30
0.95119229
0
POINT
8
20
62
2
10
1.4025536
20
7.9675142
30
6.671904
0
POINT
8
20
62
2
10
2.6013019
20
1.1381718
30
2.9640055
0
POINT
8
20
62
2
10
0.86815101
20
1.588243
30
5.9856276
0
POINT
8
20
62
2
10
4.2939734
20
3.5582812
30
1.5185199
0
POINT
8
20
62
2
10
2.5728278
20
8.4775856
30
4.3637711
0
POINT
8
20
62
2
10
2.9755538
20
5.827812
30
0.12682301
0
POINT
8
20
62
2
10
4.2485841
20
5.8617767
30
2.2902295
0
POINT
8
20
62
2
10
1.1920726
20
9.2583799
30
2.6367965
0
POINT
8
20
62
2
10
4.9506692
20
5.7507827
30
5.1138523
0
POINT
8
20
62
2
10
7.0640723
20
0.09977395
30
2.1508489
0
POINT
8
20
62
2
10
2.4357337
20
8.0937729
30
3.4610979
0
POINT
8
20
62
2
10
7.8507008
20
6.0880836
30
7.4781709
0
POINT
8
20
62
2
10
0.74089577
20
4.7991368
30
4.1361945
0
POINT
8
20
62
2
10
3.9388343
20
2.6844016
30
0.55752562
0
POINT
8
20
62
2
10
0.03394123
20
2.5809638
30
3.9002814
0
POINT
8
20
62
2
10
2.2067689
20
4.8100954
30
4.7448394
0
POINT
8
20
62
2
10
0.013005687
20
2.2734148
30
8.2532072
0
POINT
8
20
62
2
10
1.8917967
20
0.48602298
30
3.0364357
0
POINT
8
20
62
2
10
1.4248405
20
1.6924181
30
8.2179014
0
POINT
8
20
62
2
10
2.68076
20
2.5844631
30
5.6567976
0
POINT
8
20
62
2
10
1.7489207
20
1.9791006
30
0.54381617
0
POINT
8
20
62
2
10
1.3864897
20
6.0569306
30
2.6001418
0
POINT
8
20
62
2
10
5.9888561
20
8.2370365
30
5.8910355
0
POINT
8
20
62
2
10
9.0105791
20
8.1061496
30
4.7973362
0
POINT
8
20
62
2
10
9.3937977
20
8.0223702
30
1.9865062
0
POINT
8
20
62
2
10
2.2118446
20
7.0811338
30
2.3901266
0
POINT
8
20
62
2
10
4.8267138
20
8.5937785
30
7.8019348
0
POINT
8
20
62
2
10
3.7601112
20
7.8108452
30
6.1730992
0
POINT
8
20
62
2
10
5.2378004
20
2.0379685
30
1.441288
0
POINT
8
20
62
2
10
2.6487259
20
9.9334325
30
7.1613202
0
POINT
8
20
62
2
10
0.6835722
20
0.93624528
30
4.0150643
0
POINT
8
20
62
2
10
4.3632708
20
6.5061854
30
4.6238537
0
POINT
8
20
62
2
10
1.7385304
20
2.1517653
30
7.0728201
0
POINT
8
20
62
2
10
0.26107108
20
2.438731
30
4.0121055
0
POINT
8
20
62
2
10
9.5467827
20
3.3968781
30
0.14385401
0
POINT
8
20
62
2
10
4.3059652
20
1.9786234
30
0.74640442
0
POINT
8
20
62
2
10
9.6155857
20
5.0683338
30
5.9106817
0
POINT
8
20
62
2
10
7.6241448
20
9.5075798
30
4.4600152
0
POINT
8
20
62
2
10
0.073486611
20
3.9460722
30
9.266206
0
POINT
8
20
62
2
10
6.8003864
20
5.8446484
30
0.94893356
0
POINT
8
20
62
2
10
7.0595075
20
6.0653725
30
3.7541878
0
POINT
8
20
62
2
10
6.4512879
20
7.1464287
30
5.4599886
0
POINT
8
20
62
2
10
5.5230984
20
4.0153635
30
1.1167837
0
POINT
8
20
62
2
10
2.1810873
20
8.5869102
30
9.0446323
0
POINT
8
20
62
2
10
7.7236621
20
9.2048498
30
6.33277
0
POINT
8
20
62
2
10
2.2802832
20
7.5083889
30
9.0541164
0
POINT
8
20
62
2
10
3.7086472
20
2.8559171
30
6.3055294
0
POINT
8
20
62
2
10
8.9092882
20
7.9681579
30
0.14228277
0
POINT
8
20
62
2
10
8.5637691
20
1.4276583
30
3.1647779
0
POINT
8
20
62
2
10
4.0243355
20
5.0455019
30
1.1187074
0
POINT
8
20
62
2
10
3.1801912
20
6.1068795
30
6.2946313
0
POINT
8
20
62
2
10
6.0863543
20
7.0379674
30
0.60709448
0
POINT
8
20
62
2
10
9.1019523
20
3.8333993
30
6.7399492
0
POINT
8
20
62
2
10
9.0909819
20
7.2868344
30
4.7743909
0
POINT
8
20
62
2
10
5.9159441
20
8.8728468
30
3.055458
0
POINT
8
20
62
2
10
3.3257141
20
0.55848321
30
5.1633298
0
POINT
8
20
62
2
10
8.5306363
20
1.3821634
30
7.0702825
0
POINT
8
20
62
2
10
4.4239789
20
8.6306498
30
8.1361098
0
POINT
8
20
62
2
10
9.0435548
20
4.2174648
30
3.1580834
0
POINT
8
20
62
2
10
0.33179406
20
4.1131417
30
3.1130218
0
POINT
8
20
62
2
10
5.3242648
20
9.5914134
30
3.4497687
0
POINT
8
20
62
2
10
7.1649735
20
7.5024529
30
6.6630489
0
POINT
8
20
62
2
10
1.7930184
20
9.8099711
30
8.6107163
0
POINT
8
20
62
2
10
3.3653293
20
2.3351581
30
7.6177925
0
POINT
8
20
62
2
10
1.8771295
20
0.96226761
30
8.7583758
0
POINT
8
20
62
2
10
3.2192718
20
3.845822
30
8.712355
0
POINT
8
20
62
2
10
4.0385671
20
5.0027255
30
1.727904
0
POINT
8
20
62
2
10
5.485663
20
5.7025587
30
8.5022398
0
POINT
8
20
62
2
10
0.48738593
20
9.766316
30
9.5958838
0
POINT
8
20
62
2
10
5.5273213
20
4.9285518
30
7.7020699
0
POINT
8
20
62
2
10
2.748114
20
4.0088287
30
8.7501535
0
POINT
8
20
62
2
10
2.4150174
20
9.9499026
30
0.67413476
0
POINT
8
20
62
2
10
2.4314518
20
2.6099801
30
6.4679222
0
POINT
8
20
62
2
10
1.5415945
20
6.6532471
30
3.2409659
0
POINT
8
20
62
2
10
9.5641636
20
9.6425662
30
6.4034691
0
POINT
8
20
62
2
10
9.3566138
20
6.7115104
30
8.7975103
0
POINT
8
20
62
2
10
8.1871444
20
2.9917486
30
3.7363768
0
POINT
8
20
62
2
10
7.2826185
20
5.3112653
30
7.6673756
0
POINT
8
20
62
2
10
1.7581173
20
0.014631752
30
1.6808666
0
POINT
8
20
62
2
10
3.6037098
20
8.8378881
30
5.1972468
0
POINT
8
20
62
2
10
1.8878997
20
4.0438386
30
6.2745561
0
POINT
8
20
62
2
10
0.011983968
20
3.0120559
30
7.1391369
0
POINT
8
20
62
2
10
3.1641951
20
9.5058159
30
3.0639611
0
POINT
8
20
62
2
10
6.9961699
20
4.6064819
30
2.6368711
0
POINT
8
20
62
2
10
6.2525518
20
2.8764751
30
9.1600351
0
POINT
8
20
62
2
10
5.4306218
20
0.84626639
30
6.1503426
0
POINT
8
20
62
2
10
4.390372
20
5.8218134
30
0.9317506
0
POINT
8
20
62
2
10
2.8742727
20
1.530687
30
6.276972
0
POINT
8
20
62
2
10
5.0165911
20
0.73094306
30
1.9202802
0
POINT
8
20
62
2
10
7.6154619
20
5.8056478
30
7.7696469
0
POINT
8
20
62
2
10
7.6240805
20
2.8701475
30
8.6450051
0
POINT
8
20
62
2
10
5.760559
20
3.6192008
30
3.3358161
0
POINT
8
20
62
2
10
7.4766284
20
7.2482469
30
1.35414
0
POINT
8
20
62
2
10
6.4553451
20
8.5831168
30
7.6546716
0
POINT
8
20
62
2
10
1.2321952
20
3.4791569
30
3.1861373
0
POINT
8
20
62
2
10
5.0439786
20
9.6174561
30
2.5237951
0
POINT
8
20
62
2
10
3.4726131
20
9.5356905
30
2.0007461
0
POINT
8
20
62
2
10
0.92147685
20
2.0603738
30
0.69009852
0
POINT
8
20
62
2
10
1.4784947
20
7.6824486
30
5.5191074
0
POINT
8
20
62
2
10
1.981697
20
6.1553188
30
4.0381162
0
POINT
8
20
62
2
10
6.7227024
20
9.1892249
30
7.501158
0
POINT
8
20
62
2
10
4.3151118
20
6.0253726
30
4.871835
0
POINT
8
20
62
2
10
6.9440391
20
7.0213823
30
3.8478612
0
POINT
8
20
62
2
10
2.5678456
20
7.4367496
30
0.6140851
0
POINT
8
20
62
2
10
0.097586499
20
3.8510228
30
2.1369149
0
POINT
8
20
62
2
10
5.3228307
20
2.5150379
30
5.4387336
0
POINT
8
20
62
2
10
2.7939197
20
0.36759737
30
4.1064461
0
POINT
8
20
62
2
10
9.4623015
20
4.7212287
30
9.0096321
0
POINT
8
20
62
2
10
9.0644327
20
6.4507233
30
0.56289537
0
POINT
8
20
62
2
10
3.9268458
20
2.7896994
30
4.4350925
0
POINT
8
20
62
2
10
0.24855234
20
5.1786091
30
5.3781253
0
POINT
8
20
62
2
10
6.714368
20
2.4566664
30
1.340606
0
POINT
8
20
62
2
10
8.3717064
20
2.9750817
30
5.4094722
0
POINT
8
20
62
2
10
9.7149964
20
6.5047409
30
8.5736819
0
POINT
8
20
62
2
10
0.56932885
20
8.9139331
30
1.9801736
0
POINT
8
20
62
2
10
4.5032381
20
8.6110647
30
1.556091
0
POINT
8
20
62
2
10
5.824703
20
2.0991508
30
0.61377768
0
POINT
8
20
62
2
10
6.8663781
20
3.9909391
30
6.6107399
0
POINT
8
20
62
2
10
7.1943275
20
8.8788302
30
0.18602642
0
POINT
8
20
62
2
10
6.5004075
20
2.5652801
30
2.9110294
0
POINT
8
20
62
2
10
7.2691455
20
9.668016
30
9.7382383
0
POINT
8
20
62
2
10
3.7384767
20
6.1915735
30
7.6464045
0
POINT
8
20
62
2
10
5.8158208
20
1.6534577
30
2.4368393
0
POINT
8
20
62
2
10
1.1611851
20
8.2619903
30
6.8211606
0
POINT
8
20
62
2
10
0.57654361
20
6.556931
30
1.3785451
0
POINT
8
20
62
2
10
9.7976522
20
5.4645258
30
6.2981167
0
POINT
8
20
62
2
10
2.8482373
20
2.5132928
30
8.5701469
0
POINT
8
20
62
2
10
5.949743
20
0.40156385
30
8.9979833
0
POINT
8
20
62
2
10
9.6216103
20
2.3337541
30
3.483684
0
POINT
8
20
62
2
10
1.8577826
20
3.6111294
30
4.8631019
0
POINT
8
20
62
2
10
1.9303982
20
6.3345504
30
6.7951749
0
POINT
8
20
62
2
10
3.416441
20
9.860981
30
7.0412189
0
POINT
8
20
62
2
10
9.328979
20
2.0715665
30
4.6088406
0
POINT
8
20
62
2
10
3.9066754
20
7.5708394
30
3.642723
0
POINT
8
20
62
2
10
2.7321671
20
8.8632811
30
2.8026522
0
POINT
8
20
62
2
10
1.5194708
20
4.7222986
30
0.76204434
0
POINT
8
20
62
2
10
3.9710884
20
1.5891353
30
4.4462497
0
POINT
8
20
62
2
10
3.7472247
20
8.1092079
30
1.657063
0
POINT
8
20
62
2
10
1.3111471
20
4.7650775
30
3.9874897
0
POINT
8
20
62
2
10
4.3504072
20
1.1628753
30
9.2058467
0
POINT
8
20
62
2
10
0.91513167
20
8.7572061
30
5.1133439
0
POINT
8
20
62
2
10
6.1462696
20
6.3518638
30
9.1414233
0
POINT
8
20
62
2
10
0.10979092
20
0.97281349
30
0.91933939
0
POINT
8
20
62
2
10
5.7326038
20
9.0843946
30
9.9303717
0
POINT
8
20
62
2
10
7.8972986
20
0.35016022
30
0.96433623
0
POINT
8
20
62
2
10
2.3536677
20
0.39749694
30
3.1314749
0
POINT
8
20
62
2
10
4.4801971
20
9.8856789
30
7.8537511
0
POINT
8
20
62
2
10
5.6935818
20
6.861816
30
6.0240026
0
POINT
8
20
62
2
10
0.61401442
20
3.7668919
30
4.6590835
0
POINT
8
20
62
2
10
4.9628889
20
5.0432425
30
2.9813135
0
POINT
8
20
62
2
10
6.4231523
20
7.6349568
30
1.3317278
0
POINT
8
20
62
2
10
2.2126573
20
0.48874797
30
2.9500895
0
POINT
8
20
62
2
10
8.3705645
20
7.2592766
30
1.6662708
0
POINT
8
20
62
2
10
9.7107523
20
7.0132806
30
3.1710394
0
POINT
8
20
62
2
10
8.4637289
20
4.5889083
30
1.0983968
0
POINT
8
20
62
2
10
5.0599946
20
5.8229481
30
8.3208796
0
POINT
8
20
62
2
10
2.7887561
20
3.390898
30
9.7159275
0
POINT
8
20
62
2
10
7.4661722
20
1.7062541
30
2.1827127
0
POINT
8
20
62
2
10
2.3693038
20
3.991934
30
7.0607763
0
POINT
8
20
62
2
10
9.5734528
20
9.1977719
30
0.39013692
0
POINT
8
20
62
2
10
6.2026004
20
2.2604544
30
6.1629512
0
POINT
8
20
62
2
10
6.0026215
20
3.610067
30
6.6936417
0
POINT
8
20
62
2
10
1.726045
20
3.2456201
30
0.37201533
0
POINT
8
20
62
2
10
0.90346738
20
0.83582114
30
0.033345617
0
POINT
8
20
62
2
10
2.552622
20
5.1266553
30
1.4246435
0
POINT
8
20
62
2
10
8.5857053
20
8.3286482
30
8.6240546
0
POINT
8
20
62
2
10
9.1106705
20
9.046135
30
2.7603742
0
POINT
8
20
62
2
10
6.9963377
20
7.2359591
30
5.3169154
0
POINT
8
20
62
2
10
7.2518236
20
3.8299582
30
5.222213
0
POINT
8
20
62
2
10
2.2988608
20
2.9801706
30
5.6761771
0
POINT
8
20
62
2
10
5.7605346
20
6.9171164
30
3.3303255
0
POINT
8
20
62
2
10
8.1062811
20
8.8045693
30
4.1341655
0
POINT
8
20
62
2
10
4.0384337
20
9.2454831
30
4.1434815
0
POINT
8
20
62
2
10
9.8843927
20
0.81252775
30
9.8392178
0
POINT
8
20
62
2
10
0.89998815
20
4.8267301
30
0.57739298
0
POINT
8
20
62
2
10
3.2094103
20
1.2826506
30
3.9654289
0
POINT
8
20
62
2
10
5.1140894
20
2.5291116
30
7.9132058
0
POINT
8
20
62
2
10
0.60606367
20
8.8396153
30
5.9418546
0
POINT
8
20
62
2
10
7.2568792
20
1.9627691
30
3.0956309
0
POINT
8
20
62
2
10
5.5655575
20
1.2135365
30
9.0180291
0
POINT
8
20
62
2
10
5.293599
20
5.4369499
30
0.9312699
0
POINT
8
20
62
2
10
8.2998243
20
3.1462075
30
3.1902714
0
POINT
8
20
62
2
10
8.5875903
20
3.8204092
30
8.8696161
0
POINT
8
20
62
2
10
7.8902892
20
7.9153926
30
6.5743167
0
POINT
8
20
62
2
10
3.1783305
20
8.3917948
30
6.8451689
0
POINT
8
20
62
2
10
4.5220745
20
6.8023639
30
4.7394862
0
POINT
8
20
62
2
10
7.5222797
20
4.1692201
30
1.4124416
0
POINT
8
20
62
2
10
1.0986171
20
6.4288981
30
9.5092488
0
POINT
8
20
62
2
10
1.0974237
20
2.1408145
30
8.8262612
0
POINT
8
20
62
2
10
2.6988366
20
6.1727081
30
4.3743855
0
POINT
8
20
62
2
10
5.2463735
20
6.7519115
30
8.349568
0
POINT
8
20
62
2
10
9.7265108
20
6.0102348
30
3.251434
0
POINT
8
20
62
2
10
7.1040869
20
3.463095
30
3.676393
0
POINT
8
20
62
2
10
3.1185995
20
3.6440137
30
7.9483947
0
POINT
8
20
62
2
10
2.9145713
20
1.7148108
30
0.99308716
0
POINT
8
20
62
2
10
8.5035734
20
7.9536157
30
9.5178156
0
POINT
8
20
62
2
10
9.1164742
20
4.9266691
30
0.014739229
0
POINT
8
20
62
2
10
6.3927615
20
3.5462285
30
2.9539585
0
POINT
8
20
62
2
10
2.553703
20
7.750612
30
0.48454552
0
POINT
8
20
62
2
10
0.8866584
20
2.3680481
30
4.4274038
0
POINT
8
20
62
2
10
8.3825559
20
8.4483345
30
7.8984637
0
POINT
8
20
62
2
10
5.8471862
20
8.1652697
30
9.1352062
0
POINT
8
20
62
2
10
9.4810874
20
8.4622836
30
5.3325436
0
POINT
8
20
62
2
10
0.61028929
20
3.7018685
30
8.0407644
0
POINT
8
20
62
2
10
5.846413
20
3.8322953
30
5.6266036
0
POINT
8
20
62
2
10
2.8510809
20
8.6133475
30
7.5087645
0
POINT
8
20
62
2
10
8.2773217
20
4.6390919
30
0.092303544
0
POINT
8
20
62
2
10
1.9098644
20
5.7054822
30
4.7678485
0
POINT
8
20
62
2
10
4.4252996
20
6.9530681
30
2.5032953
0
POINT
8
20
62
2
10
3.9341151
20
9.6091727
30
3.0791826
0
POINT
8
20
62
2
10
8.2657398
20
5.4631298
30
9.669491
0
POINT
8
20
62
2
10
6.7687109
20
6.3657657
30
2.0880436
0
POINT
8
20
62
2
10
2.0760303
20
5.7089249
30
5.2047625
0
POINT
8
20
62
2
10
3.1810473
20
9.2711215
30
2.2554613
0
POINT
8
20
62
2
10
1.3381099
20
8.6376557
30
5.6719787
0
POINT
8
20
62
2
10
6.7146289
20
1.6983925
30
9.9816353
0
POINT
8
20
62
2
10
5.7099108
20
1.7869903
30
1.3186534
0
POINT
8
20
62
2
10
1.6976707
20
2.4350437
30
9.5467658
0
POINT
8
20
62
2
10
1.4765578
20
7.5177936
30
1.2387751
0
POINT
8
20
62
2
10
4.7607972
20
1.9913438
30
1.8623821
0
POINT
8
20
62
2
10
9.0810242
20
9.8294051
30
6.4650271
0
POINT
8
20
62
2
10
5.5217503
20
7.096387
30
1.2816908
0
POINT
8
20
62
2
10
0.32939893
20
1.7543615
30
0.81320503
0
POINT
8
20
62
2
10
0.53862926
20
8.5829739
30
6.5922705
0
POINT
8
20
62
2
10
8.0506323
20
9.0941148
30
0.27398851
0
POINT
8
20
62
2
10
4.5137485
20
9.6166308
30
9.851798
0
POINT
8
20
62
2
10
3.8264623
20
5.705997
30
5.3933095
0
POINT
8
20
62
2
10
7.896437
20
5.6287923
30
3.7383492
0
POINT
8
20
62
2
10
3.6428687
20
1.766612
30
7.0673489
0
POINT
8
20
62
2
10
5.3234993
20
5.1367906
30
9.4741137
0
POINT
8
20
62
2
10
7.1165671
20
5.4847192
30
3.8227735
0
POINT
8
20
62
2
10
8.7147652
20
1.6527744
30
6.9290855
0
POINT
8
20
62
2
10
3.2868961
20
4.9389304
30
6.0207131
0
POINT
8
20
62
2
10
6.5011803
20
5.3511727
30
7.7525771
0
POINT
8
20
62
2
10
9.7483615
20
1.9880716
30
5.9183421
0
POINT
8
20
62
2
10
0.75967361
20
6.2316891
30
3.7617981
0
POINT
8
20
62
2
10
5.8701917
20
0.26315394
30
8.506492
0
POINT
8
20
62
2
10
4.138865
20
3.1879096
30
2.2573519
0
POINT
8
20
62
2
10
3.0913643
20
5.3299953
30
7.9695828
0
POINT
8
20
62
2
10
2.6383404
20
3.2677374
30
9.9688101
0
POINT
8
20
62
2
10
7.5876627
20
6.0219044
30
2.8131082
0
POINT
8
20
62
2
10
9.9521598
20
3.6193273
30
7.1038098
0
POINT
8
20
62
2
10
1.8657144
20
1.3492064
30
6.6464207
0
POINT
8
20
62
2
10
7.8114527
20
9.138135
30
4.1483553
0
POINT
8
20
62
2
10
1.9579798
20
6.4055884
30
4.982699
0
POINT
8
20
62
2
10
9.9235897
20
6.5877414
30
9.4912303
0
POINT
8
20
62
2
10
8.0226157
20
6.7533033
30
9.5318168
0
POINT
8
20
62
2
10
4.2422671
20
7.4455771
30
7.3292331
0
POINT
8
20
62
2
10
7.2886387
20
8.4217757
30
3.8468
0
POINT
8
20
62
2
10
4.9835358
20
5.1665717
30
0.40082729
0
POINT
8
20
62
2
10
8.0899027
20
1.518687
30
5.8293359
0
POINT
8
20
62
2
10
3.5650893
20
3.8066427
30
5.6471264
0
POINT
8
20
62
2
10
0.73243434
20
8.210194
30
3.5518262
0
POINT
8
20
62
2
10
5.9099146
20
1.7136438
30
8.8020082
0
POINT
8
20
62
2
10
9.1018783
20
3.2997528
30
6.2453013
0
POINT
8
20
62
2
10
1.9376594
20
9.6647199
30
6.2401555
0
POINT
8
20
62
2
10
4.3236779
20
8.062926
30
2.9574141
0
POINT
8
20
62
2
10
7.4915973
20
2.2218793
30
0.74679927
0
POINT
8
20
62
2
10
0.39184487
20
9.9977312
30
2.9370599
0
POINT
8
20
62
2
10
9.4632499
20
0.63738697
30
2.3473981
0
POINT
8
20
62
2
10
7.6367332
20
4.2548312
30
3.4589738
0
POINT
8
20
62
2
10
5.5882055
20
4.0433815
30
8.4849036
0
POINT
8
20
62
2
10
1.8384294
20
4.0029288
30
1.6036438
0
POINT
8
20
62
2
10
4.9794882
20
1.1192264
30
1.5786438
0
POINT
8
20
62
2
10
5.178456
20
4.2431077
30
5.0865927
0
POINT
8
20
62
2
10
9.9424301
20
6.1354588
30
6.03301
0
POINT
8
20
62
2
10
8.5485168
20
9.8806129
30
1.6139697
0
POINT
8
20
62
2
10
9.6240394
20
2.1990078
30
6.3545432
0
POINT
8
20
62
2
10
6.7894101
20
3.5408108
30
8.4394058
0
POINT
8
20
62
2
10
4.0350139
20
2.6624188
30
7.8226921
0
POINT
8
20
62
2
10
9.3497909
20
2.9149803
30
2.6456635
0
POINT
8
20
62
2
10
4.7948455
20
1.8838954
30
3.1469896
0
POINT
8
20
62
2
10
2.3179161
20
0.22859624
30
1.8319557
0
POINT
8
20
62
2
10
3.9629025
20
4.4940418
30
4.4747327
0
POINT
8
20
62
2
10
7.0507748
20
2.4364019
30
3.2667862
0
POINT
8
20
62
2
10
5.5855903
20
8.6872654
30
2.7981629
0
POINT
8
20
62
2
10
7.566307
20
5.2861077
30
9.3176391
0
POINT
8
20
62
2
10
9.9548106
20
9.1413517
30
3.9969241
0
POINT
8
20
62
2
10
9.624314
20
9.7393018
30
3.7942316
0
POINT
8
20
62
2
10
5.3506711
20
5.8542596
30
5.9284645
0
POINT
8
20
62
2
10
9.6387013
20
1.1897538
30
0.68506686
0
POINT
8
20
62
2
10
1.1562588
20
9.2653259
30
2.0523766
0
POINT
8
20
62
2
10
0.51448293
20
5.9356077
30
7.2361828
0
POINT
8
20
62
2
10
3.0434895
20
8.836153
30
5.7514761
0
POINT
8
20
62
2
10
5.8019183
20
4.2447593
30
2.002325
0
POINT
8
20
62
2
10
5.3096445
20
6.0725739
30
8.4348035
0
POINT
8
20
62
2
10
9.0120809
20
0.70763582
30
4.2373
0
POINT
8
20
62
2
10
5.4055043
20
9.2477243
30
5.4475096
0
POINT
8
20
62
2
10
4.3198061
20
6.4207942
30
5.2796738
0
POINT
8
20
62
2
10
5.4266699
20
1.0449967
30
1.8510782
0
POINT
8
20
62
2
10
7.1241481
20
7.0022507
30
0.81689714
0
POINT
8
20
62
2
10
0.16674713
20
3.9580433
30
4.6409362
0
POINT
8
20
62
2
10
8.0092088
20
0.84904751
30
0.30554776
0
POINT
8
20
62
2
10
1.4250932
20
2.1447887
30
4.3498416
0
POINT
8
20
62
2
10
4.7847447
20
2.487989
30
5.5786496
0
POINT
8
20
62
2
10
2.5683535
20
2.2665314
30
6.3878213
0
POINT
8
20
62
2
10
3.6909169
20
7.0300439
30
0.34217413
0
POINT
8
20
62
2
10
6.6176491
20
7.5415259
30
7.0990045
0
POINT
8
20
62
2
10
1.6960881
20
5.4728663
30
1.6932395
0
POINT
8
20
62
2
10
2.7878402
20
5.5348342
30
5.9338247
0
POINT
8
20
62
2
10
1.9822179
20
6.3057279
30
6.0806492
0
POINT
8
20
62
2
10
1.9507153
20
9.8545695
30
7.7235959
0
POINT
8
20
62
2
10
3.2683965
20
6.342782
30
0.56273616
0
POINT
8
20
62
2
10
8.8033786
20
6.0045561
30
8.5472515
0
POINT
8
20
62
2
10
4.7110187
20
9.0918696
30
3.8428433
0
POINT
8
20
62
2
10
4.0396937
20
5.7083663
30
3.9961896
0
POINT
8
20
62
2
10
1.7923148
20
3.3541992
30
3.2541749
0
POINT
8
20
62
2
10
9.68925
20
9.5713916
30
5.5539011
0
POINT
8
20
62
2
10
4.0745574
20
4.3992312
30
2.954201
0
POINT
8
20
62
2
10
8.444874
20
6.0154259
30
3.6612
0
POINT
8
20
62
2
10
6.153251
20
7.2026236
30
3.4904833
0
POINT
8
20
62
2
10
3.7661108
20
6.7877834
30
6.3022406
0
POINT
8
20
62
2
10
8.7718175
20
2.1275901
30
6.6444208
0
POINT
8
20
62
2
10
7.8485243
20
0.81623375
30
9.9209634
0
POINT
8
20
62
2
10
4.6495428
20
2.7447941
30
9.4436126
0
POINT
8
20
62
2
10
8.1397693
20
8.6751839
30
3.5034786
0
POINT
8
20
62
2
10
8.9844414
20
5.5935707
30
1.9299794
0
POINT
8
20
62
2
10
4.2923854
20
4.6462777
30
9.1957614
0
POINT
8
20
62
2
10
3.3432942
20
4.303009
30
2.8869205
0
POINT
8
20
62
2
10
5.966471
20
7.7398592
30
5.5085943
0
POINT
8
20
62
2
10
9.0199081
20
6.5392042
30
9.1932415
0
POINT
8
20
62
2
10
7.0206645
20
6.5772927
30
0.90048522
0
POINT
8
20
62
2
10
3.774551
20
1.610209
30
2.576963
0
POINT
8
20
62
2
10
7.3495593
20
4.3237683
30
4.2704796
0
POINT
8
20
62
2
10
9.5410279
20
5.0508608
30
5.7772329
0
POINT
8
20
62
2
10
5.4281311
20
3.7533228
30
8.9952139
0
POINT
8
20
62
2
10
5.4010583
20
4.8037223
30
2.1822562
0
POINT
8
20
62
2
10
3.1110964
20
3.424214
30
9.6703188
0
POINT
8
20
62
2
10
0.71234572
20
7.7714644
30
4.3398138
0
POINT
8
20
62
2
10
1.8198047
20
3.8394386
30
7.8482242
0
POINT
8
20
62
2
10
0.92988927
20
7.1155643
30
5.2523384
0
POINT
8
20
62
2
10
4.6348925
20
4.8093341
30
3.3127685
0
POINT
8
20
62
2
10
0.09332512
20
7.2918022
30
4.3159365
0
POINT
8
20
62
2
10
9.1502591
20
9.3755924
30
7.179016
0
POINT
8
20
62
2
10
6.4274174
20
5.172544
30
9.1621208
0
POINT
8
20
62
2
10
0.014190582
20
9.0306875
30
8.9002799
0
POINT
8
20
62
2
10
0.30385272
20
2.1819264
30
1.3470606
0
POINT
8
20
62
2
10
2.0847022
20
8.7321934
30
1.1991276
0
POINT
8
20
62
2
10
4.5496615
20
0.82692932
30
8.9345242
0
POINT
8
20
62
2
10
1.2726603
20
4.6540342
30
6.5308554
0
POINT
8
20
62
2
10
0.086476879
20
0.21929823
30
0.40278077
0
POINT
8
20
62
2
10
7.270796
20
8.0828055
30
5.0471596
0
POINT
8
20
62
2
10
3.5411647
20
1.792095
30
8.9445347
0
POINT
8
20
62
2
10
7.8044595
20
1.6539225
30
3.8572846
0
POINT
8
20
62
2
10
4.3665664
20
1.8160347
30
2.9205188
0
POINT
8
20
62
2
10
4.3655478
20
6.9143656
30
2.3403657
0
POINT
8
20
62
2
10
0.4921318
20
2.1376352
30
2.0094836
0
POINT
8
20
62
2
10
0.49631902
20
2.9810486
30
3.8030606
0
POINT
8
20
62
2
10
0.91100175
20
7.6833515
30
5.9479014
0
POINT
8
20
62
2
10
5.9403703
20
5.0115009
30
2.6838597
0
POINT
8
20
62
2
10
2.4108406
20
9.0946481
30
6.2244264
0
POINT
8
20
62
2
10
8.413691
20
0.57852903
30
8.0456731
0
POINT
8
20
62
2
10
8.5721276
20
4.3675193
30
1.0397126
0
POINT
8
20
62
2
10
9.636122
20
5.7225475
30
7.2924031
0
POINT
8
20
62
2
10
4.8889979
20
5.6506716
30
6.4859026
0
POINT
8
20
62
2
10
2.203101
20
8.2381657
30
4.7465462
0
POINT
8
20
62
2
10
2.2620864
20
1.2609883
30
9.3291211
0
POINT
8
20
62
2
10
5.367878
20
3.0011678
30
0.96443679
0
POINT
8
20
62
2
10
7.6210971
20
0.021220248
30
5.9910692
0
POINT
8
20
62
2
10
3.4756715
20
9.5110736
30
2.3356471
0
POINT
8
20
62
2
10
4.6123176
20
7.6629936
30
0.32328338
0
POINT
8
20
62
2
10
6.3932376
20
7.5130416
30
5.7985926
0
POINT
8
20
62
2
10
9.1733604
20
1.3886484
30
8.4219815
0
POINT
8
20
62
2
10
1.6157257
20
3.4931954
30
5.5689699
0
POINT
8
20
62
2
10
7.156354
20
1.5134056
30
8.3988299
0
POINT
8
20
62
2
10
5.7773888
20
4.9672068
30
2.0495227
0
POINT
8
20
62
2
10
4.3329898
20
8.0865225
30
6.2125489
0
POINT
8
20
62
2
10
8.8424278
20
6.3286879
30
1.7402089
0
POINT
8
20
62
2
10
3.9305176
20
6.884015
30
2.8953982
0
POINT
8
20
62
2
10
1.7897515
20
6.3957022
30
0.18502935
0
POINT
8
20
62
2
10
6.3333358
20
7.2932173
30
7.0149639
0
POINT
8
20
62
2
10
6.2400055
20
8.5984571
30
9.5209137
0
POINT
8
20
62
2
10
3.279416
20
6.2695538
30
7.4900934
0
POINT
8
20
62
2
10
8.0296532
20
1.8059137
30
7.5672739
0
POINT
8
20
62
2
10
9.9947786
20
5.7330655
30
5.4208908
0
POINT
8
20
62
2
10
9.8097816
20
1.6356616
30
2.8206287
0
POINT
8
20
62
2
10
1.2703694
20
9.0605174
30
2.4487485
0
POINT
8
20
62
2
10
2.3224015
20
0.77342785
30
2.8631822
0
POINT
8
20
62
2
10
0.23632467
20
3.3853465
30
9.6313441
0
POINT
8
20
62
2
10
6.0743261
20
5.8061755
30
2.3069535
0
POINT
8
20
62
2
10
1.1080932
20
4.7523516
30
5.3732141
0
POINT
8
20
62
2
10
4.0745951
20
8.0532049
30
2.0500825
0
POINT
8
20
62
2
10
8.8407681
20
5.3077814
30
4.3404129
0
POINT
8
20
62
2
10
5.4813278
20
2.2731033
30
1.4221197
0
POINT
8
20
62
2
10
3.6900308
20
7.0948498
30
3.7558377
0
POINT
8
20
62
2
10
2.0834598
20
1.4863255
30
7.9356063
0
POINT
8
20
62
2
10
4.4094328
20
6.5811618
30
8.1281565
0
POINT
8
20
62
2
10
9.5619615
20
6.3398255
30
9.0379091
0
POINT
8
20
62
2
10
1.2402592
20
2.2930625
30
5.4037573
0
POINT
8
20
62
2
10
4.7076325
20
1.8222802
30
8.1786331
0
POINT
8
20
62
2
10
8.5689633
20
1.6635251
30
7.0841665
0
POINT
8
20
62
2
10
0.43390472
20
1.4960709
30
0.43208852
0
POINT
8
20
62
2
10
6.9162515
20
2.027474
30
1.4594598
0
POINT
8
20
62
2
10
9.7898547
20
9.549589
30
2.3333566
0
POINT
8
20
62
2
10
2.832679
20
0.15908339
30
2.4670108
0
POINT
8
20
62
2
10
1.337805
20
9.5751435
30
1.7028274
0
POINT
8
20
62
2
10
6.8527968
20
0.25692285
30
2.3505684
0
POINT
8
20
62
2
10
9.0945456
20
9.7111066
30
2.7546108
0
POINT
8
20
62
2
10
6.1086898
20
2.9759568
30
9.5160663
0
POINT
8
20
62
2
10
8.999828
20
5.2507308
30
3.4667098
0
POINT
8
20
62
2
10
1.9343375
20
8.6233921
30
2.9732194
0
POINT
8
20
62
2
10
7.5442458
20
8.964049
30
4.0442621
0
POINT
8
20
62
2
10
3.4626072
20
1.8901056
30
3.0223743
0
POINT
8
20
62
2
10
4.1862541
20
6.6071956
30
7.5731108
0
POINT
8
20
62
2
10
1.5571983
20
9.4123094
30
3.5974389
0
POINT
8
20
62
2
10
8.1900058
20
9.7570713
30
1.2489957
0
POINT
8
20
62
2
10
6.2492353
20
1.0793525
30
6.1718256
0
POINT
8
20
62
2
10
7.3856042
20
1.7889923
30
3.5551945
0
POINT
8
20
62
2
10
8.0511242
20
7.4655143
30
3.6293819
0
POINT
8
20
62
2
10
0.67222658
20
0.49468523
30
0.68488286
0
POINT
8
20
62
2
10
9.5079032
20
0.71284882
30
8.6716187
0
POINT
8
20
62
2
10
4.9757701
20
4.8912552
30
4.578962
0
POINT
8
20
62
2
10
7.551459
20
8.4989382
30
0.77615385
0
POINT
8
20
62
2
10
7.4240507
20
9.9704144
30
9.049212
0
POINT
8
20
62
2
10
8.3112958
20
0.043926126
30
2.8169588
0
POINT
8
20
62
2
10
1.5650185
20
5.4260746
30
6.1387784
0
POINT
8
20
62
2
10
4.5730872
20
8.6134818
30
6.6185794
0
POINT
8
20
62
2
10
6.181005
20
9.0913902
30
2.000246
0
POINT
8
20
62
2
10
9.3218336
20
8.4535056
30
9.5998623
0
POINT
8
20
62
2
10
8.3508824
20
8.7887288
30
6.6510598
0
POINT
8
20
62
2
10
8.9542352
20
7.4618224
30
5.4129984
0
POINT
8
20
62
2
10
5.8251852
20
1.1748938
30
8.6896887
0
POINT
8
20
62
2
10
5.8274681
20
5.0902226
30
5.5704747
0
POINT
8
20
62
2
10
8.5492594
20
1.6883176
30
0.21398117
0
POINT
8
20
62
2
10
0.348657
20
8.311115
30
4.8268055
0
POINT
8
20
62
2
10
8.854201
20
9.2801086
30
8.0798558
0
POINT
8
20
62
2
10
4.0773081
20
1.6948443
30
7.3600937
0
POINT
8
20
62
2
10
0.3638203
20
8.8373732
30
5.723044
0
POINT
8
20
62
2
10
7.4614794
20
3.8786289
30
0.089848534
0
POINT
8
20
62
2
10
1.5482877
20
3.8256946
30
7.1828046
0
POINT
8
20
62
2
10
1.4390833
20
2.7145292
30
4.4942659
0
POINT
8
20
62
2
10
6.0595905
20
8.6788314
30
6.5961677
0
POINT
8
20
62
2
10
2.5448084
20
7.4150246
30
7.5320835
0
POINT
8
20
62
2
10
3.2415421
20
4.4787273
30
8.0473901
0
POINT
8
20
62
2
10
4.0179092
20
7.0963886
30
0.29155582
0
POINT
8
20
62
2
10
4.0637332
20
9.4433128
30
7.7981727
0
POINT
8
20
62
2
10
3.8619114
20
1.7411787
30
5.673505
0
POINT
8
20
62
2
10
6.0980182
20
2.4459628
30
0.76116627
0
POINT
8
20
62
2
10
1.6689072
20
6.4092912
30
2.5162182
0
POINT
8
20
62
2
10
1.8809207
20
8.0861251
30
1.3345453
0
POINT
8
20
62
2
10
0.9462887
20
8.5337101
30
5.6447392
0
POINT
8
20
62
2
10
3.2318627
20
3.9811765
30
5.4098128
0
POINT
8
20
62
2
10
7.6959693
20
1.1549381
30
0.68921448
0
POINT
8
20
62
2
10
2.34118
20
0.80280952
30
9.8843087
0
POINT
8
20
62
2
10
7.4036547
20
3.6046762
30
2.5109544
0
POINT
8
20
62
2
10
6.9281841
20
8.2890555
30
3.1547299
0
POINT
8
20
62
2
10
8.2407821
20
2.1460971
30
3.0065695
0
POINT
8
20
62
2
10
8.2797755
20
7.9104032
30
0.42039038
0
POINT
8
20
62
2
10
2.9336793
20
6.5468831
30
5.279013
0
POINT
8
20
62
2
10
3.0936924
20
0.26146448
30
2.5602233
0
POINT
8
20
62
2
10
5.230298
20
7.8577629
30
4.0870999
0
POINT
8
20
62
2
10
3.2529899
20
9.2256305
30
9.4751264
0
POINT
8
20
62
2
10
8.3184251
20
4.9231313
30
9.1928097
0
POINT
8
20
62
2
10
8.1029479
20
8.3401166
30
1.2124368
0
POINT
8
20
62
2
10
5.5699826
20
1.3135369
30
5.9194483
0
POINT
8
20
62
2
10
2.6296403
20
7.5978347
30
3.5965217
0
POINT
8
20
62
2
10
6.805662
20
9.2573618
30
7.1930693
0
POINT
8
20
62
2
10
2.3365315
20
8.3270757
30
5.2355109
0
POINT
8
20
62
2
10
4.5642536
20
2.5940116
30
2.6084335
0
POINT
8
20
62
2
10
3.8456689
20
2.1302177
30
4.9307931
0
POINT
8
20
62
2
10
5.3860144
20
5.2231478
30
8.558359
0
POINT
8
20
62
2
10
9.9170372
20
3.973571
30
7.2440628
0
POINT
8
20
62
2
10
7.552204
20
4.7910978
30
1.991103
0
POINT
8
20
62
2
10
9.8045485
20
9.9390364
30
1.5728587
0
POINT
8
20
62
2
10
2.3478264
20
6.0447846
30
3.7047552
0
POINT
8
20
62
2
10
5.2855909
20
9.4490865
30
8.62272
0
POINT
8
20
62
2
10
0.51436054
20
4.9044222
30
6.8476263
0
POINT
8
20
62
2
10
7.5687547
20
4.3794656
30
6.3419788
0
POINT
8
20
62
2
10
6.0197977
20
7.7265557
30
1.4132329
0
POINT
8
20
62
2
10
8.5716871
20
7.4406657
30
0.79302245
0
POINT
8
20
62
2
10
9.8827714
20
4.4290407
30
8.7614535
0
POINT
8
20
62
2
10
9.2948447
20
0.53000053
30
4.204287
0
POINT
8
20
62
2
10
4.0951493
20
0.87821844
30
4.8766361
0
POINT
8
20
62
2
10
0.0034146222
20
7.9798596
30
4.6032549
0
POINT
8
20
62
2
10
5.4087832
20
6.5558237
30
5.1567725
0
POINT
8
20
62
2
10
2.0773062
20
0.32335553
30
2.7199439
0
POINT
8
20
62
2
10
2.1928359
20
5.5706683
30
2.3157984
0
POINT
8
20
62
2
10
3.2580626
20
7.1980155
30
8.9953408
0
POINT
8
20
62
2
10
0.95949417
20
1.1040805
30
9.0869733
0
POINT
8
20
62
2
10
7.4753366
20
2.1664738
30
6.0364285
0
POINT
8
20
62
2
10
7.4850896
20
8.1102022
30
3.6523648
0
POINT
8
20
62
2
10
5.4329943
20
1.3866188
30
5.985905
0
POINT
8
20
62
2
10
3.3813232
20
8.818992
30
6.6848715
0
POINT
8
20
62
2
10
8.3233366
20
9.2355606
30
8.9456409
0
POINT
8
20
62
2
10
5.5257218
20
0.12755563
30
0.87335524
0
POINT
8
20
62
2
10
9.5754312
20
3.7715925
30
5.3901035
0
POINT
8
20
62
2
10
8.9283332
20
1.6781169
30
4.2844994
0
POINT
8
20
62
2
10
3.5650362
20
5.402228
30
6.1715349
0
POINT
8
20
62
2
10
5.4640189
20
1.0166243
30
5.5887588
0
POINT
8
20
62
2
10
3.4668175
20
0.39267746
30
2.2585069
0
POINT
8
20
62
2
10
6.2280279
20
9.3322911
30
1.0451953
0
POINT
8
20
62
2
10
7.9662469
20
9.7159188
30
0.09977656
0
POINT
8
20
62
2
10
7.458749
20
3.6092802
30
0.59153304
0
POINT
8
20
62
2
10
1.2553623
20
6.442054
30
3.2265237
0
POINT
8
20
62
2
10
8.2239401
20
0.67947302
30
7.7947651
0
POINT
8
20
62
2
10
0.25150501
20
2.07912
30
3.3547859
0
POINT
8
20
62
2
10
4.1442888
20
0.39603847
30
6.1956861
0
POINT
8
20
62
2
10
7.3140747
20
4.6935931
30
9.9288572
0
POINT
8
20
62
2
10
7.81374
20
1.5009672
30
6.4800569
0
POINT
8
20
62
2
10
3.6728592
20
9.9130692
30
5.3977582
0
ENDSEC
0
EOF
