0
SECTION
2
HEADER
9
$ACADVER
1
AC1006
9
$INSUNITS
70
6
0
ENDSEC
0
SECTION
2
ENTITIES
0
TEXT
8
0
62
7
10
0
20
0
30
0
210
0
220
0
230
1
40
1
51
0
50
0
39
0
72
0
73
0
1
A
0
POLYLINE
8
0
62
2
66
1
10
0
20
0
30
0
70
8
0
VERTEX
8
0
62
2
10
0
20
-0.5
30
0
70
32
0
VERTEX
8
0
62
2
10
0
20
0.5
30
0
70
32
0
SEQEND
8
0
0
POLYLINE
8
0
62
2
66
1
10
0
20
0
30
0
70
8
0
VERTEX
8
0
62
2
10
0.5
20
0
30
0
70
32
0
VERTEX
8
0
62
2
10
-0.5
20
0
30
0
70
32
0
SEQEND
8
0
0
TEXT
8
0
62
7
11
4
21
0
31
0
210
0
220
0
230
1
40
1
51
0
50
0
39
0
72
1
73
0
1
A
0
POLYLINE
8
0
62
2
66
1
10
0
20
0
30
0
70
8
0
VERTEX
8
0
62
2
10
4
20
-0.5
30
0
70
32
0
VERTEX
8
0
62
2
10
4
20
0.5
30
0
70
32
0
SEQEND
8
0
0
POLYLINE
8
0
62
2
66
1
10
0
20
0
30
0
70
8
0
VERTEX
8
0
62
2
10
4.5
20
0
30
0
70
32
0
VERTEX
8
0
62
2
10
3.5
20
0
30
0
70
32
0
SEQEND
8
0
0
TEXT
8
0
62
7
11
8
21
0
31
0
210
0
220
0
230
1
40
1
51
0
50
0
39
0
72
2
73
0
1
A
0
POLYLINE
8
0
62
2
66
1
10
0
20
0
30
0
70
8
0
VERTEX
8
0
62
2
10
8
20
-0.5
30
0
70
32
0
VERTEX
8
0
62
2
10
8
20
0.5
30
0
70
32
0
SEQEND
8
0
0
POLYLINE
8
0
62
2
66
1
10
0
20
0
30
0
70
8
0
VERTEX
8
0
62
2
10
8.5
20
0
30
0
70
32
0
VERTEX
8
0
62
2
10
7.5
20
0
30
0
70
32
0
SEQEND
8
0
0
TEXT
8
0
62
7
11
0
21
4
31
0
210
0
220
0
230
1
40
1
51
0
50
0
39
0
72
0
73
1
1
A
0
POLYLINE
8
0
62
2
66
1
10
0
20
0
30
0
70
8
0
VERTEX
8
0
62
2
10
0
20
3.5
30
0
70
32
0
VERTEX
8
0
62
2
10
0
20
4.5
30
0
70
32
0
SEQEND
8
0
0
POLYLINE
8
0
62
2
66
1
10
0
20
0
30
0
70
8
0
VERTEX
8
0
62
2
10
0.5
20
4
30
0
70
32
0
VERTEX
8
0
62
2
10
-0.5
20
4
30
0
70
32
0
SEQEND
8
0
0
TEXT
8
0
62
7
11
4
21
4
31
0
210
0
220
0
230
1
40
1
51
0
50
0
39
0
72
1
73
1
1
A
0
POLYLINE
8
0
62
2
66
1
10
0
20
0
30
0
70
8
0
VERTEX
8
0
62
2
10
4
20
3.5
30
0
70
32
0
VERTEX
8
0
62
2
10
4
20
4.5
30
0
70
32
0
SEQEND
8
0
0
POLYLINE
8
0
62
2
66
1
10
0
20
0
30
0
70
8
0
VERTEX
8
0
62
2
10
4.5
20
4
30
0
70
32
0
VERTEX
8
0
62
2
10
3.5
20
4
30
0
70
32
0
SEQEND
8
0
0
TEXT
8
0
62
7
11
8
21
4
31
0
210
0
220
0
230
1
40
1
51
0
50
0
39
0
72
2
73
1
1
A
0
POLYLINE
8
0
62
2
66
1
10
0
20
0
30
0
70
8
0
VERTEX
8
0
62
2
10
8
20
3.5
30
0
70
32
0
VERTEX
8
0
62
2
10
8
20
4.5
30
0
70
32
0
SEQEND
8
0
0
POLYLINE
8
0
62
2
66
1
10
0
20
0
30
0
70
8
0
VERTEX
8
0
62
2
10
8.5
20
4
30
0
70
32
0
VERTEX
8
0
62
2
10
7.5
20
4
30
0
70
32
0
SEQEND
8
0
0
TEXT
8
0
62
7
11
0
21
8
31
0
210
0
220
0
230
1
40
1
51
0
50
0
39
0
72
0
73
2
1
A
0
POLYLINE
8
0
62
2
66
1
10
0
20
0
30
0
70
8
0
VERTEX
8
0
62
2
10
0
20
7.5
30
0
70
32
0
VERTEX
8
0
62
2
10
0
20
8.5
30
0
70
32
0
SEQEND
8
0
0
POLYLINE
8
0
62
2
66
1
10
0
20
0
30
0
70
8
0
VERTEX
8
0
62
2
10
0.5
20
8
30
0
70
32
0
VERTEX
8
0
62
2
10
-0.5
20
8
30
0
70
32
0
SEQEND
8
0
0
TEXT
8
0
62
7
11
4
21
8
31
0
210
0
220
0
230
1
40
1
51
0
50
0
39
0
72
1
73
2
1
A
0
POLYLINE
8
0
62
2
66
1
10
0
20
0
30
0
70
8
0
VERTEX
8
0
62
2
10
4
20
7.5
30
0
70
32
0
VERTEX
8
0
62
2
10
4
20
8.5
30
0
70
32
0
SEQEND
8
0
0
POLYLINE
8
0
62
2
66
1
10
0
20
0
30
0
70
8
0
VERTEX
8
0
62
2
10
4.5
20
8
30
0
70
32
0
VERTEX
8
0
62
2
10
3.5
20
8
30
0
70
32
0
SEQEND
8
0
0
TEXT
8
0
62
7
11
8
21
8
31
0
210
0
220
0
230
1
40
1
51
0
50
0
39
0
72
2
73
2
1
A
0
POLYLINE
8
0
62
2
66
1
10
0
20
0
30
0
70
8
0
VERTEX
8
0
62
2
10
8
20
7.5
30
0
70
32
0
VERTEX
8
0
62
2
10
8
20
8.5
30
0
70
32
0
SEQEND
8
0
0
POLYLINE
8
0
62
2
66
1
10
0
20
0
30
0
70
8
0
VERTEX
8
0
62
2
10
8.5
20
8
30
0
70
32
0
VERTEX
8
0
62
2
10
7.5
20
8
30
0
70
32
0
SEQEND
8
0
0
TEXT
8
0
62
7
11
0
21
12
31
0
210
0
220
0
230
1
40
1
51
0
50
0
39
0
72
0
73
3
1
A
0
POLYLINE
8
0
62
2
66
1
10
0
20
0
30
0
70
8
0
VERTEX
8
0
62
2
10
0
20
11.5
30
0
70
32
0
VERTEX
8
0
62
2
10
0
20
12.5
30
0
70
32
0
SEQEND
8
0
0
POLYLINE
8
0
62
2
66
1
10
0
20
0
30
0
70
8
0
VERTEX
8
0
62
2
10
0.5
20
12
30
0
70
32
0
VERTEX
8
0
62
2
10
-0.5
20
12
30
0
70
32
0
SEQEND
8
0
0
TEXT
8
0
62
7
11
4
21
12
31
0
210
0
220
0
230
1
40
1
51
0
50
0
39
0
72
1
73
3
1
A
0
POLYLINE
8
0
62
2
66
1
10
0
20
0
30
0
70
8
0
VERTEX
8
0
62
2
10
4
20
11.5
30
0
70
32
0
VERTEX
8
0
62
2
10
4
20
12.5
30
0
70
32
0
SEQEND
8
0
0
POLYLINE
8
0
62
2
66
1
10
0
20
0
30
0
70
8
0
VERTEX
8
0
62
2
10
4.5
20
12
30
0
70
32
0
VERTEX
8
0
62
2
10
3.5
20
12
30
0
70
32
0
SEQEND
8
0
0
TEXT
8
0
62
7
11
8
21
12
31
0
210
0
220
0
230
1
40
1
51
0
50
0
39
0
72
2
73
3
1
A
0
POLYLINE
8
0
62
2
66
1
10
0
20
0
30
0
70
8
0
VERTEX
8
0
62
2
10
8
20
11.5
30
0
70
32
0
VERTEX
8
0
62
2
10
8
20
12.5
30
0
70
32
0
SEQEND
8
0
0
POLYLINE
8
0
62
2
66
1
10
0
20
0
30
0
70
8
0
VERTEX
8
0
62
2
10
8.5
20
12
30
0
70
32
0
VERTEX
8
0
62
2
10
7.5
20
12
30
0
70
32
0
SEQEND
8
0
0
ENDSEC
0
EOF
