0
SECTION
2
HEADER
9
$ACADVER
1
AC1006
9
$INSUNITS
70
6
0
ENDSEC
0
SECTION
2
ENTITIES
0
POLYLINE
8
1
62
174
66
1
10
0
20
0
30
0
70
64
0
VERTEX
8
1
62
174
10
-25
20
0
30
0
70
192
0
VERTEX
8
1
62
174
10
-24.1
20
0
30
0
70
192
0
VERTEX
8
1
62
174
10
-24.1
20
0.9
30
0
70
192
0
VERTEX
8
1
62
174
10
-25
20
0.9
30
0
70
192
0
VERTEX
8
1
62
174
10
0
20
0
30
0
70
128
71
1
72
2
73
3
74
0
0
VERTEX
8
1
62
174
10
0
20
0
30
0
70
128
71
1
72
3
73
4
74
0
0
SEQEND
8
1
0
POLYLINE
8
2
62
18
66
1
10
0
20
0
30
0
70
64
0
VERTEX
8
2
62
18
10
-25
20
1
30
0
70
192
0
VERTEX
8
2
62
18
10
-24.1
20
1
30
0
70
192
0
VERTEX
8
2
62
18
10
-24.1
20
1.9
30
0
70
192
0
VERTEX
8
2
62
18
10
-25
20
1.9
30
0
70
192
0
VERTEX
8
2
62
18
10
0
20
0
30
0
70
128
71
1
72
2
73
3
74
0
0
VERTEX
8
2
62
18
10
0
20
0
30
0
70
128
71
1
72
3
73
4
74
0
0
SEQEND
8
2
0
POLYLINE
8
3
62
1
66
1
10
0
20
0
30
0
70
64
0
VERTEX
8
3
62
1
10
-25
20
2
30
0
70
192
0
VERTEX
8
3
62
1
10
-24.1
20
2
30
0
70
192
0
VERTEX
8
3
62
1
10
-24.1
20
2.9
30
0
70
192
0
VERTEX
8
3
62
1
10
-25
20
2.9
30
0
70
192
0
VERTEX
8
3
62
1
10
0
20
0
30
0
70
128
71
1
72
2
73
3
74
0
0
VERTEX
8
3
62
1
10
0
20
0
30
0
70
128
71
1
72
3
73
4
74
0
0
SEQEND
8
3
0
POLYLINE
8
4
62
18
66
1
10
0
20
0
30
0
70
64
0
VERTEX
8
4
62
18
10
-25
20
3
30
0
70
192
0
VERTEX
8
4
62
18
10
-24.1
20
3
30
0
70
192
0
VERTEX
8
4
62
18
10
-24.1
20
3.9
30
0
70
192
0
VERTEX
8
4
62
18
10
-25
20
3.9
30
0
70
192
0
VERTEX
8
4
62
18
10
0
20
0
30
0
70
128
71
1
72
2
73
3
74
0
0
VERTEX
8
4
62
18
10
0
20
0
30
0
70
128
71
1
72
3
73
4
74
0
0
SEQEND
8
4
0
POLYLINE
8
1
62
172
66
1
10
0
20
0
30
0
70
64
0
VERTEX
8
1
62
172
10
-24
20
0
30
0
70
192
0
VERTEX
8
1
62
172
10
-23.1
20
0
30
0
70
192
0
VERTEX
8
1
62
172
10
-23.1
20
0.9
30
0
70
192
0
VERTEX
8
1
62
172
10
-24
20
0.9
30
0
70
192
0
VERTEX
8
1
62
172
10
0
20
0
30
0
70
128
71
1
72
2
73
3
74
0
0
VERTEX
8
1
62
172
10
0
20
0
30
0
70
128
71
1
72
3
73
4
74
0
0
SEQEND
8
1
0
POLYLINE
8
2
62
18
66
1
10
0
20
0
30
0
70
64
0
VERTEX
8
2
62
18
10
-24
20
1
30
0
70
192
0
VERTEX
8
2
62
18
10
-23.1
20
1
30
0
70
192
0
VERTEX
8
2
62
18
10
-23.1
20
1.9
30
0
70
192
0
VERTEX
8
2
62
18
10
-24
20
1.9
30
0
70
192
0
VERTEX
8
2
62
18
10
0
20
0
30
0
70
128
71
1
72
2
73
3
74
0
0
VERTEX
8
2
62
18
10
0
20
0
30
0
70
128
71
1
72
3
73
4
74
0
0
SEQEND
8
2
0
POLYLINE
8
3
62
1
66
1
10
0
20
0
30
0
70
64
0
VERTEX
8
3
62
1
10
-24
20
2
30
0
70
192
0
VERTEX
8
3
62
1
10
-23.1
20
2
30
0
70
192
0
VERTEX
8
3
62
1
10
-23.1
20
2.9
30
0
70
192
0
VERTEX
8
3
62
1
10
-24
20
2.9
30
0
70
192
0
VERTEX
8
3
62
1
10
0
20
0
30
0
70
128
71
1
72
2
73
3
74
0
0
VERTEX
8
3
62
1
10
0
20
0
30
0
70
128
71
1
72
3
73
4
74
0
0
SEQEND
8
3
0
POLYLINE
8
4
62
18
66
1
10
0
20
0
30
0
70
64
0
VERTEX
8
4
62
18
10
-24
20
3
30
0
70
192
0
VERTEX
8
4
62
18
10
-23.1
20
3
30
0
70
192
0
VERTEX
8
4
62
18
10
-23.1
20
3.9
30
0
70
192
0
VERTEX
8
4
62
18
10
-24
20
3.9
30
0
70
192
0
VERTEX
8
4
62
18
10
0
20
0
30
0
70
128
71
1
72
2
73
3
74
0
0
VERTEX
8
4
62
18
10
0
20
0
30
0
70
128
71
1
72
3
73
4
74
0
0
SEQEND
8
4
0
POLYLINE
8
1
62
172
66
1
10
0
20
0
30
0
70
64
0
VERTEX
8
1
62
172
10
-23
20
0
30
0
70
192
0
VERTEX
8
1
62
172
10
-22.1
20
0
30
0
70
192
0
VERTEX
8
1
62
172
10
-22.1
20
0.9
30
0
70
192
0
VERTEX
8
1
62
172
10
-23
20
0.9
30
0
70
192
0
VERTEX
8
1
62
172
10
0
20
0
30
0
70
128
71
1
72
2
73
3
74
0
0
VERTEX
8
1
62
172
10
0
20
0
30
0
70
128
71
1
72
3
73
4
74
0
0
SEQEND
8
1
0
POLYLINE
8
2
62
18
66
1
10
0
20
0
30
0
70
64
0
VERTEX
8
2
62
18
10
-23
20
1
30
0
70
192
0
VERTEX
8
2
62
18
10
-22.1
20
1
30
0
70
192
0
VERTEX
8
2
62
18
10
-22.1
20
1.9
30
0
70
192
0
VERTEX
8
2
62
18
10
-23
20
1.9
30
0
70
192
0
VERTEX
8
2
62
18
10
0
20
0
30
0
70
128
71
1
72
2
73
3
74
0
0
VERTEX
8
2
62
18
10
0
20
0
30
0
70
128
71
1
72
3
73
4
74
0
0
SEQEND
8
2
0
POLYLINE
8
3
62
20
66
1
10
0
20
0
30
0
70
64
0
VERTEX
8
3
62
20
10
-23
20
2
30
0
70
192
0
VERTEX
8
3
62
20
10
-22.1
20
2
30
0
70
192
0
VERTEX
8
3
62
20
10
-22.1
20
2.9
30
0
70
192
0
VERTEX
8
3
62
20
10
-23
20
2.9
30
0
70
192
0
VERTEX
8
3
62
20
10
0
20
0
30
0
70
128
71
1
72
2
73
3
74
0
0
VERTEX
8
3
62
20
10
0
20
0
30
0
70
128
71
1
72
3
73
4
74
0
0
SEQEND
8
3
0
POLYLINE
8
4
62
28
66
1
10
0
20
0
30
0
70
64
0
VERTEX
8
4
62
28
10
-23
20
3
30
0
70
192
0
VERTEX
8
4
62
28
10
-22.1
20
3
30
0
70
192
0
VERTEX
8
4
62
28
10
-22.1
20
3.9
30
0
70
192
0
VERTEX
8
4
62
28
10
-23
20
3.9
30
0
70
192
0
VERTEX
8
4
62
28
10
0
20
0
30
0
70
128
71
1
72
2
73
3
74
0
0
VERTEX
8
4
62
28
10
0
20
0
30
0
70
128
71
1
72
3
73
4
74
0
0
SEQEND
8
4
0
POLYLINE
8
1
62
172
66
1
10
0
20
0
30
0
70
64
0
VERTEX
8
1
62
172
10
-22
20
0
30
0
70
192
0
VERTEX
8
1
62
172
10
-21.1
20
0
30
0
70
192
0
VERTEX
8
1
62
172
10
-21.1
20
0.9
30
0
70
192
0
VERTEX
8
1
62
172
10
-22
20
0.9
30
0
70
192
0
VERTEX
8
1
62
172
10
0
20
0
30
0
70
128
71
1
72
2
73
3
74
0
0
VERTEX
8
1
62
172
10
0
20
0
30
0
70
128
71
1
72
3
73
4
74
0
0
SEQEND
8
1
0
POLYLINE
8
2
62
18
66
1
10
0
20
0
30
0
70
64
0
VERTEX
8
2
62
18
10
-22
20
1
30
0
70
192
0
VERTEX
8
2
62
18
10
-21.1
20
1
30
0
70
192
0
VERTEX
8
2
62
18
10
-21.1
20
1.9
30
0
70
192
0
VERTEX
8
2
62
18
10
-22
20
1.9
30
0
70
192
0
VERTEX
8
2
62
18
10
0
20
0
30
0
70
128
71
1
72
2
73
3
74
0
0
VERTEX
8
2
62
18
10
0
20
0
30
0
70
128
71
1
72
3
73
4
74
0
0
SEQEND
8
2
0
POLYLINE
8
3
62
20
66
1
10
0
20
0
30
0
70
64
0
VERTEX
8
3
62
20
10
-22
20
2
30
0
70
192
0
VERTEX
8
3
62
20
10
-21.1
20
2
30
0
70
192
0
VERTEX
8
3
62
20
10
-21.1
20
2.9
30
0
70
192
0
VERTEX
8
3
62
20
10
-22
20
2.9
30
0
70
192
0
VERTEX
8
3
62
20
10
0
20
0
30
0
70
128
71
1
72
2
73
3
74
0
0
VERTEX
8
3
62
20
10
0
20
0
30
0
70
128
71
1
72
3
73
4
74
0
0
SEQEND
8
3
0
POLYLINE
8
4
62
28
66
1
10
0
20
0
30
0
70
64
0
VERTEX
8
4
62
28
10
-22
20
3
30
0
70
192
0
VERTEX
8
4
62
28
10
-21.1
20
3
30
0
70
192
0
VERTEX
8
4
62
28
10
-21.1
20
3.9
30
0
70
192
0
VERTEX
8
4
62
28
10
-22
20
3.9
30
0
70
192
0
VERTEX
8
4
62
28
10
0
20
0
30
0
70
128
71
1
72
2
73
3
74
0
0
VERTEX
8
4
62
28
10
0
20
0
30
0
70
128
71
1
72
3
73
4
74
0
0
SEQEND
8
4
0
POLYLINE
8
1
62
5
66
1
10
0
20
0
30
0
70
64
0
VERTEX
8
1
62
5
10
-21
20
0
30
0
70
192
0
VERTEX
8
1
62
5
10
-20.1
20
0
30
0
70
192
0
VERTEX
8
1
62
5
10
-20.1
20
0.9
30
0
70
192
0
VERTEX
8
1
62
5
10
-21
20
0.9
30
0
70
192
0
VERTEX
8
1
62
5
10
0
20
0
30
0
70
128
71
1
72
2
73
3
74
0
0
VERTEX
8
1
62
5
10
0
20
0
30
0
70
128
71
1
72
3
73
4
74
0
0
SEQEND
8
1
0
POLYLINE
8
2
62
16
66
1
10
0
20
0
30
0
70
64
0
VERTEX
8
2
62
16
10
-21
20
1
30
0
70
192
0
VERTEX
8
2
62
16
10
-20.1
20
1
30
0
70
192
0
VERTEX
8
2
62
16
10
-20.1
20
1.9
30
0
70
192
0
VERTEX
8
2
62
16
10
-21
20
1.9
30
0
70
192
0
VERTEX
8
2
62
16
10
0
20
0
30
0
70
128
71
1
72
2
73
3
74
0
0
VERTEX
8
2
62
16
10
0
20
0
30
0
70
128
71
1
72
3
73
4
74
0
0
SEQEND
8
2
0
POLYLINE
8
3
62
30
66
1
10
0
20
0
30
0
70
64
0
VERTEX
8
3
62
30
10
-21
20
2
30
0
70
192
0
VERTEX
8
3
62
30
10
-20.1
20
2
30
0
70
192
0
VERTEX
8
3
62
30
10
-20.1
20
2.9
30
0
70
192
0
VERTEX
8
3
62
30
10
-21
20
2.9
30
0
70
192
0
VERTEX
8
3
62
30
10
0
20
0
30
0
70
128
71
1
72
2
73
3
74
0
0
VERTEX
8
3
62
30
10
0
20
0
30
0
70
128
71
1
72
3
73
4
74
0
0
SEQEND
8
3
0
POLYLINE
8
4
62
19
66
1
10
0
20
0
30
0
70
64
0
VERTEX
8
4
62
19
10
-21
20
3
30
0
70
192
0
VERTEX
8
4
62
19
10
-20.1
20
3
30
0
70
192
0
VERTEX
8
4
62
19
10
-20.1
20
3.9
30
0
70
192
0
VERTEX
8
4
62
19
10
-21
20
3.9
30
0
70
192
0
VERTEX
8
4
62
19
10
0
20
0
30
0
70
128
71
1
72
2
73
3
74
0
0
VERTEX
8
4
62
19
10
0
20
0
30
0
70
128
71
1
72
3
73
4
74
0
0
SEQEND
8
4
0
POLYLINE
8
1
62
5
66
1
10
0
20
0
30
0
70
64
0
VERTEX
8
1
62
5
10
-20
20
0
30
0
70
192
0
VERTEX
8
1
62
5
10
-19.1
20
0
30
0
70
192
0
VERTEX
8
1
62
5
10
-19.1
20
0.9
30
0
70
192
0
VERTEX
8
1
62
5
10
-20
20
0.9
30
0
70
192
0
VERTEX
8
1
62
5
10
0
20
0
30
0
70
128
71
1
72
2
73
3
74
0
0
VERTEX
8
1
62
5
10
0
20
0
30
0
70
128
71
1
72
3
73
4
74
0
0
SEQEND
8
1
0
POLYLINE
8
2
62
16
66
1
10
0
20
0
30
0
70
64
0
VERTEX
8
2
62
16
10
-20
20
1
30
0
70
192
0
VERTEX
8
2
62
16
10
-19.1
20
1
30
0
70
192
0
VERTEX
8
2
62
16
10
-19.1
20
1.9
30
0
70
192
0
VERTEX
8
2
62
16
10
-20
20
1.9
30
0
70
192
0
VERTEX
8
2
62
16
10
0
20
0
30
0
70
128
71
1
72
2
73
3
74
0
0
VERTEX
8
2
62
16
10
0
20
0
30
0
70
128
71
1
72
3
73
4
74
0
0
SEQEND
8
2
0
POLYLINE
8
3
62
30
66
1
10
0
20
0
30
0
70
64
0
VERTEX
8
3
62
30
10
-20
20
2
30
0
70
192
0
VERTEX
8
3
62
30
10
-19.1
20
2
30
0
70
192
0
VERTEX
8
3
62
30
10
-19.1
20
2.9
30
0
70
192
0
VERTEX
8
3
62
30
10
-20
20
2.9
30
0
70
192
0
VERTEX
8
3
62
30
10
0
20
0
30
0
70
128
71
1
72
2
73
3
74
0
0
VERTEX
8
3
62
30
10
0
20
0
30
0
70
128
71
1
72
3
73
4
74
0
0
SEQEND
8
3
0
POLYLINE
8
4
62
19
66
1
10
0
20
0
30
0
70
64
0
VERTEX
8
4
62
19
10
-20
20
3
30
0
70
192
0
VERTEX
8
4
62
19
10
-19.1
20
3
30
0
70
192
0
VERTEX
8
4
62
19
10
-19.1
20
3.9
30
0
70
192
0
VERTEX
8
4
62
19
10
-20
20
3.9
30
0
70
192
0
VERTEX
8
4
62
19
10
0
20
0
30
0
70
128
71
1
72
2
73
3
74
0
0
VERTEX
8
4
62
19
10
0
20
0
30
0
70
128
71
1
72
3
73
4
74
0
0
SEQEND
8
4
0
POLYLINE
8
1
62
5
66
1
10
0
20
0
30
0
70
64
0
VERTEX
8
1
62
5
10
-19
20
0
30
0
70
192
0
VERTEX
8
1
62
5
10
-18.1
20
0
30
0
70
192
0
VERTEX
8
1
62
5
10
-18.1
20
0.9
30
0
70
192
0
VERTEX
8
1
62
5
10
-19
20
0.9
30
0
70
192
0
VERTEX
8
1
62
5
10
0
20
0
30
0
70
128
71
1
72
2
73
3
74
0
0
VERTEX
8
1
62
5
10
0
20
0
30
0
70
128
71
1
72
3
73
4
74
0
0
SEQEND
8
1
0
POLYLINE
8
2
62
16
66
1
10
0
20
0
30
0
70
64
0
VERTEX
8
2
62
16
10
-19
20
1
30
0
70
192
0
VERTEX
8
2
62
16
10
-18.1
20
1
30
0
70
192
0
VERTEX
8
2
62
16
10
-18.1
20
1.9
30
0
70
192
0
VERTEX
8
2
62
16
10
-19
20
1.9
30
0
70
192
0
VERTEX
8
2
62
16
10
0
20
0
30
0
70
128
71
1
72
2
73
3
74
0
0
VERTEX
8
2
62
16
10
0
20
0
30
0
70
128
71
1
72
3
73
4
74
0
0
SEQEND
8
2
0
POLYLINE
8
3
62
40
66
1
10
0
20
0
30
0
70
64
0
VERTEX
8
3
62
40
10
-19
20
2
30
0
70
192
0
VERTEX
8
3
62
40
10
-18.1
20
2
30
0
70
192
0
VERTEX
8
3
62
40
10
-18.1
20
2.9
30
0
70
192
0
VERTEX
8
3
62
40
10
-19
20
2.9
30
0
70
192
0
VERTEX
8
3
62
40
10
0
20
0
30
0
70
128
71
1
72
2
73
3
74
0
0
VERTEX
8
3
62
40
10
0
20
0
30
0
70
128
71
1
72
3
73
4
74
0
0
SEQEND
8
3
0
POLYLINE
8
4
62
29
66
1
10
0
20
0
30
0
70
64
0
VERTEX
8
4
62
29
10
-19
20
3
30
0
70
192
0
VERTEX
8
4
62
29
10
-18.1
20
3
30
0
70
192
0
VERTEX
8
4
62
29
10
-18.1
20
3.9
30
0
70
192
0
VERTEX
8
4
62
29
10
-19
20
3.9
30
0
70
192
0
VERTEX
8
4
62
29
10
0
20
0
30
0
70
128
71
1
72
2
73
3
74
0
0
VERTEX
8
4
62
29
10
0
20
0
30
0
70
128
71
1
72
3
73
4
74
0
0
SEQEND
8
4
0
POLYLINE
8
1
62
5
66
1
10
0
20
0
30
0
70
64
0
VERTEX
8
1
62
5
10
-18
20
0
30
0
70
192
0
VERTEX
8
1
62
5
10
-17.1
20
0
30
0
70
192
0
VERTEX
8
1
62
5
10
-17.1
20
0.9
30
0
70
192
0
VERTEX
8
1
62
5
10
-18
20
0.9
30
0
70
192
0
VERTEX
8
1
62
5
10
0
20
0
30
0
70
128
71
1
72
2
73
3
74
0
0
VERTEX
8
1
62
5
10
0
20
0
30
0
70
128
71
1
72
3
73
4
74
0
0
SEQEND
8
1
0
POLYLINE
8
2
62
14
66
1
10
0
20
0
30
0
70
64
0
VERTEX
8
2
62
14
10
-18
20
1
30
0
70
192
0
VERTEX
8
2
62
14
10
-17.1
20
1
30
0
70
192
0
VERTEX
8
2
62
14
10
-17.1
20
1.9
30
0
70
192
0
VERTEX
8
2
62
14
10
-18
20
1.9
30
0
70
192
0
VERTEX
8
2
62
14
10
0
20
0
30
0
70
128
71
1
72
2
73
3
74
0
0
VERTEX
8
2
62
14
10
0
20
0
30
0
70
128
71
1
72
3
73
4
74
0
0
SEQEND
8
2
0
POLYLINE
8
3
62
40
66
1
10
0
20
0
30
0
70
64
0
VERTEX
8
3
62
40
10
-18
20
2
30
0
70
192
0
VERTEX
8
3
62
40
10
-17.1
20
2
30
0
70
192
0
VERTEX
8
3
62
40
10
-17.1
20
2.9
30
0
70
192
0
VERTEX
8
3
62
40
10
-18
20
2.9
30
0
70
192
0
VERTEX
8
3
62
40
10
0
20
0
30
0
70
128
71
1
72
2
73
3
74
0
0
VERTEX
8
3
62
40
10
0
20
0
30
0
70
128
71
1
72
3
73
4
74
0
0
SEQEND
8
3
0
POLYLINE
8
4
62
39
66
1
10
0
20
0
30
0
70
64
0
VERTEX
8
4
62
39
10
-18
20
3
30
0
70
192
0
VERTEX
8
4
62
39
10
-17.1
20
3
30
0
70
192
0
VERTEX
8
4
62
39
10
-17.1
20
3.9
30
0
70
192
0
VERTEX
8
4
62
39
10
-18
20
3.9
30
0
70
192
0
VERTEX
8
4
62
39
10
0
20
0
30
0
70
128
71
1
72
2
73
3
74
0
0
VERTEX
8
4
62
39
10
0
20
0
30
0
70
128
71
1
72
3
73
4
74
0
0
SEQEND
8
4
0
POLYLINE
8
1
62
160
66
1
10
0
20
0
30
0
70
64
0
VERTEX
8
1
62
160
10
-17
20
0
30
0
70
192
0
VERTEX
8
1
62
160
10
-16.1
20
0
30
0
70
192
0
VERTEX
8
1
62
160
10
-16.1
20
0.9
30
0
70
192
0
VERTEX
8
1
62
160
10
-17
20
0.9
30
0
70
192
0
VERTEX
8
1
62
160
10
0
20
0
30
0
70
128
71
1
72
2
73
3
74
0
0
VERTEX
8
1
62
160
10
0
20
0
30
0
70
128
71
1
72
3
73
4
74
0
0
SEQEND
8
1
0
POLYLINE
8
2
62
14
66
1
10
0
20
0
30
0
70
64
0
VERTEX
8
2
62
14
10
-17
20
1
30
0
70
192
0
VERTEX
8
2
62
14
10
-16.1
20
1
30
0
70
192
0
VERTEX
8
2
62
14
10
-16.1
20
1.9
30
0
70
192
0
VERTEX
8
2
62
14
10
-17
20
1.9
30
0
70
192
0
VERTEX
8
2
62
14
10
0
20
0
30
0
70
128
71
1
72
2
73
3
74
0
0
VERTEX
8
2
62
14
10
0
20
0
30
0
70
128
71
1
72
3
73
4
74
0
0
SEQEND
8
2
0
POLYLINE
8
3
62
2
66
1
10
0
20
0
30
0
70
64
0
VERTEX
8
3
62
2
10
-17
20
2
30
0
70
192
0
VERTEX
8
3
62
2
10
-16.1
20
2
30
0
70
192
0
VERTEX
8
3
62
2
10
-16.1
20
2.9
30
0
70
192
0
VERTEX
8
3
62
2
10
-17
20
2.9
30
0
70
192
0
VERTEX
8
3
62
2
10
0
20
0
30
0
70
128
71
1
72
2
73
3
74
0
0
VERTEX
8
3
62
2
10
0
20
0
30
0
70
128
71
1
72
3
73
4
74
0
0
SEQEND
8
3
0
POLYLINE
8
4
62
49
66
1
10
0
20
0
30
0
70
64
0
VERTEX
8
4
62
49
10
-17
20
3
30
0
70
192
0
VERTEX
8
4
62
49
10
-16.1
20
3
30
0
70
192
0
VERTEX
8
4
62
49
10
-16.1
20
3.9
30
0
70
192
0
VERTEX
8
4
62
49
10
-17
20
3.9
30
0
70
192
0
VERTEX
8
4
62
49
10
0
20
0
30
0
70
128
71
1
72
2
73
3
74
0
0
VERTEX
8
4
62
49
10
0
20
0
30
0
70
128
71
1
72
3
73
4
74
0
0
SEQEND
8
4
0
POLYLINE
8
1
62
160
66
1
10
0
20
0
30
0
70
64
0
VERTEX
8
1
62
160
10
-16
20
0
30
0
70
192
0
VERTEX
8
1
62
160
10
-15.1
20
0
30
0
70
192
0
VERTEX
8
1
62
160
10
-15.1
20
0.9
30
0
70
192
0
VERTEX
8
1
62
160
10
-16
20
0.9
30
0
70
192
0
VERTEX
8
1
62
160
10
0
20
0
30
0
70
128
71
1
72
2
73
3
74
0
0
VERTEX
8
1
62
160
10
0
20
0
30
0
70
128
71
1
72
3
73
4
74
0
0
SEQEND
8
1
0
POLYLINE
8
2
62
14
66
1
10
0
20
0
30
0
70
64
0
VERTEX
8
2
62
14
10
-16
20
1
30
0
70
192
0
VERTEX
8
2
62
14
10
-15.1
20
1
30
0
70
192
0
VERTEX
8
2
62
14
10
-15.1
20
1.9
30
0
70
192
0
VERTEX
8
2
62
14
10
-16
20
1.9
30
0
70
192
0
VERTEX
8
2
62
14
10
0
20
0
30
0
70
128
71
1
72
2
73
3
74
0
0
VERTEX
8
2
62
14
10
0
20
0
30
0
70
128
71
1
72
3
73
4
74
0
0
SEQEND
8
2
0
POLYLINE
8
3
62
2
66
1
10
0
20
0
30
0
70
64
0
VERTEX
8
3
62
2
10
-16
20
2
30
0
70
192
0
VERTEX
8
3
62
2
10
-15.1
20
2
30
0
70
192
0
VERTEX
8
3
62
2
10
-15.1
20
2.9
30
0
70
192
0
VERTEX
8
3
62
2
10
-16
20
2.9
30
0
70
192
0
VERTEX
8
3
62
2
10
0
20
0
30
0
70
128
71
1
72
2
73
3
74
0
0
VERTEX
8
3
62
2
10
0
20
0
30
0
70
128
71
1
72
3
73
4
74
0
0
SEQEND
8
3
0
POLYLINE
8
4
62
59
66
1
10
0
20
0
30
0
70
64
0
VERTEX
8
4
62
59
10
-16
20
3
30
0
70
192
0
VERTEX
8
4
62
59
10
-15.1
20
3
30
0
70
192
0
VERTEX
8
4
62
59
10
-15.1
20
3.9
30
0
70
192
0
VERTEX
8
4
62
59
10
-16
20
3.9
30
0
70
192
0
VERTEX
8
4
62
59
10
0
20
0
30
0
70
128
71
1
72
2
73
3
74
0
0
VERTEX
8
4
62
59
10
0
20
0
30
0
70
128
71
1
72
3
73
4
74
0
0
SEQEND
8
4
0
POLYLINE
8
1
62
160
66
1
10
0
20
0
30
0
70
64
0
VERTEX
8
1
62
160
10
-15
20
0
30
0
70
192
0
VERTEX
8
1
62
160
10
-14.1
20
0
30
0
70
192
0
VERTEX
8
1
62
160
10
-14.1
20
0.9
30
0
70
192
0
VERTEX
8
1
62
160
10
-15
20
0.9
30
0
70
192
0
VERTEX
8
1
62
160
10
0
20
0
30
0
70
128
71
1
72
2
73
3
74
0
0
VERTEX
8
1
62
160
10
0
20
0
30
0
70
128
71
1
72
3
73
4
74
0
0
SEQEND
8
1
0
POLYLINE
8
2
62
12
66
1
10
0
20
0
30
0
70
64
0
VERTEX
8
2
62
12
10
-15
20
1
30
0
70
192
0
VERTEX
8
2
62
12
10
-14.1
20
1
30
0
70
192
0
VERTEX
8
2
62
12
10
-14.1
20
1.9
30
0
70
192
0
VERTEX
8
2
62
12
10
-15
20
1.9
30
0
70
192
0
VERTEX
8
2
62
12
10
0
20
0
30
0
70
128
71
1
72
2
73
3
74
0
0
VERTEX
8
2
62
12
10
0
20
0
30
0
70
128
71
1
72
3
73
4
74
0
0
SEQEND
8
2
0
POLYLINE
8
3
62
60
66
1
10
0
20
0
30
0
70
64
0
VERTEX
8
3
62
60
10
-15
20
2
30
0
70
192
0
VERTEX
8
3
62
60
10
-14.1
20
2
30
0
70
192
0
VERTEX
8
3
62
60
10
-14.1
20
2.9
30
0
70
192
0
VERTEX
8
3
62
60
10
-15
20
2.9
30
0
70
192
0
VERTEX
8
3
62
60
10
0
20
0
30
0
70
128
71
1
72
2
73
3
74
0
0
VERTEX
8
3
62
60
10
0
20
0
30
0
70
128
71
1
72
3
73
4
74
0
0
SEQEND
8
3
0
POLYLINE
8
4
62
17
66
1
10
0
20
0
30
0
70
64
0
VERTEX
8
4
62
17
10
-15
20
3
30
0
70
192
0
VERTEX
8
4
62
17
10
-14.1
20
3
30
0
70
192
0
VERTEX
8
4
62
17
10
-14.1
20
3.9
30
0
70
192
0
VERTEX
8
4
62
17
10
-15
20
3.9
30
0
70
192
0
VERTEX
8
4
62
17
10
0
20
0
30
0
70
128
71
1
72
2
73
3
74
0
0
VERTEX
8
4
62
17
10
0
20
0
30
0
70
128
71
1
72
3
73
4
74
0
0
SEQEND
8
4
0
POLYLINE
8
1
62
150
66
1
10
0
20
0
30
0
70
64
0
VERTEX
8
1
62
150
10
-14
20
0
30
0
70
192
0
VERTEX
8
1
62
150
10
-13.1
20
0
30
0
70
192
0
VERTEX
8
1
62
150
10
-13.1
20
0.9
30
0
70
192
0
VERTEX
8
1
62
150
10
-14
20
0.9
30
0
70
192
0
VERTEX
8
1
62
150
10
0
20
0
30
0
70
128
71
1
72
2
73
3
74
0
0
VERTEX
8
1
62
150
10
0
20
0
30
0
70
128
71
1
72
3
73
4
74
0
0
SEQEND
8
1
0
POLYLINE
8
2
62
12
66
1
10
0
20
0
30
0
70
64
0
VERTEX
8
2
62
12
10
-14
20
1
30
0
70
192
0
VERTEX
8
2
62
12
10
-13.1
20
1
30
0
70
192
0
VERTEX
8
2
62
12
10
-13.1
20
1.9
30
0
70
192
0
VERTEX
8
2
62
12
10
-14
20
1.9
30
0
70
192
0
VERTEX
8
2
62
12
10
0
20
0
30
0
70
128
71
1
72
2
73
3
74
0
0
VERTEX
8
2
62
12
10
0
20
0
30
0
70
128
71
1
72
3
73
4
74
0
0
SEQEND
8
2
0
POLYLINE
8
3
62
60
66
1
10
0
20
0
30
0
70
64
0
VERTEX
8
3
62
60
10
-14
20
2
30
0
70
192
0
VERTEX
8
3
62
60
10
-13.1
20
2
30
0
70
192
0
VERTEX
8
3
62
60
10
-13.1
20
2.9
30
0
70
192
0
VERTEX
8
3
62
60
10
-14
20
2.9
30
0
70
192
0
VERTEX
8
3
62
60
10
0
20
0
30
0
70
128
71
1
72
2
73
3
74
0
0
VERTEX
8
3
62
60
10
0
20
0
30
0
70
128
71
1
72
3
73
4
74
0
0
SEQEND
8
3
0
POLYLINE
8
4
62
27
66
1
10
0
20
0
30
0
70
64
0
VERTEX
8
4
62
27
10
-14
20
3
30
0
70
192
0
VERTEX
8
4
62
27
10
-13.1
20
3
30
0
70
192
0
VERTEX
8
4
62
27
10
-13.1
20
3.9
30
0
70
192
0
VERTEX
8
4
62
27
10
-14
20
3.9
30
0
70
192
0
VERTEX
8
4
62
27
10
0
20
0
30
0
70
128
71
1
72
2
73
3
74
0
0
VERTEX
8
4
62
27
10
0
20
0
30
0
70
128
71
1
72
3
73
4
74
0
0
SEQEND
8
4
0
POLYLINE
8
1
62
150
66
1
10
0
20
0
30
0
70
64
0
VERTEX
8
1
62
150
10
-13
20
0
30
0
70
192
0
VERTEX
8
1
62
150
10
-12.1
20
0
30
0
70
192
0
VERTEX
8
1
62
150
10
-12.1
20
0.9
30
0
70
192
0
VERTEX
8
1
62
150
10
-13
20
0.9
30
0
70
192
0
VERTEX
8
1
62
150
10
0
20
0
30
0
70
128
71
1
72
2
73
3
74
0
0
VERTEX
8
1
62
150
10
0
20
0
30
0
70
128
71
1
72
3
73
4
74
0
0
SEQEND
8
1
0
POLYLINE
8
2
62
12
66
1
10
0
20
0
30
0
70
64
0
VERTEX
8
2
62
12
10
-13
20
1
30
0
70
192
0
VERTEX
8
2
62
12
10
-12.1
20
1
30
0
70
192
0
VERTEX
8
2
62
12
10
-12.1
20
1.9
30
0
70
192
0
VERTEX
8
2
62
12
10
-13
20
1.9
30
0
70
192
0
VERTEX
8
2
62
12
10
0
20
0
30
0
70
128
71
1
72
2
73
3
74
0
0
VERTEX
8
2
62
12
10
0
20
0
30
0
70
128
71
1
72
3
73
4
74
0
0
SEQEND
8
2
0
POLYLINE
8
3
62
70
66
1
10
0
20
0
30
0
70
64
0
VERTEX
8
3
62
70
10
-13
20
2
30
0
70
192
0
VERTEX
8
3
62
70
10
-12.1
20
2
30
0
70
192
0
VERTEX
8
3
62
70
10
-12.1
20
2.9
30
0
70
192
0
VERTEX
8
3
62
70
10
-13
20
2.9
30
0
70
192
0
VERTEX
8
3
62
70
10
0
20
0
30
0
70
128
71
1
72
2
73
3
74
0
0
VERTEX
8
3
62
70
10
0
20
0
30
0
70
128
71
1
72
3
73
4
74
0
0
SEQEND
8
3
0
POLYLINE
8
4
62
27
66
1
10
0
20
0
30
0
70
64
0
VERTEX
8
4
62
27
10
-13
20
3
30
0
70
192
0
VERTEX
8
4
62
27
10
-12.1
20
3
30
0
70
192
0
VERTEX
8
4
62
27
10
-12.1
20
3.9
30
0
70
192
0
VERTEX
8
4
62
27
10
-13
20
3.9
30
0
70
192
0
VERTEX
8
4
62
27
10
0
20
0
30
0
70
128
71
1
72
2
73
3
74
0
0
VERTEX
8
4
62
27
10
0
20
0
30
0
70
128
71
1
72
3
73
4
74
0
0
SEQEND
8
4
0
POLYLINE
8
1
62
150
66
1
10
0
20
0
30
0
70
64
0
VERTEX
8
1
62
150
10
-12
20
0
30
0
70
192
0
VERTEX
8
1
62
150
10
-11.1
20
0
30
0
70
192
0
VERTEX
8
1
62
150
10
-11.1
20
0.9
30
0
70
192
0
VERTEX
8
1
62
150
10
-12
20
0.9
30
0
70
192
0
VERTEX
8
1
62
150
10
0
20
0
30
0
70
128
71
1
72
2
73
3
74
0
0
VERTEX
8
1
62
150
10
0
20
0
30
0
70
128
71
1
72
3
73
4
74
0
0
SEQEND
8
1
0
POLYLINE
8
2
62
12
66
1
10
0
20
0
30
0
70
64
0
VERTEX
8
2
62
12
10
-12
20
1
30
0
70
192
0
VERTEX
8
2
62
12
10
-11.1
20
1
30
0
70
192
0
VERTEX
8
2
62
12
10
-11.1
20
1.9
30
0
70
192
0
VERTEX
8
2
62
12
10
-12
20
1.9
30
0
70
192
0
VERTEX
8
2
62
12
10
0
20
0
30
0
70
128
71
1
72
2
73
3
74
0
0
VERTEX
8
2
62
12
10
0
20
0
30
0
70
128
71
1
72
3
73
4
74
0
0
SEQEND
8
2
0
POLYLINE
8
3
62
70
66
1
10
0
20
0
30
0
70
64
0
VERTEX
8
3
62
70
10
-12
20
2
30
0
70
192
0
VERTEX
8
3
62
70
10
-11.1
20
2
30
0
70
192
0
VERTEX
8
3
62
70
10
-11.1
20
2.9
30
0
70
192
0
VERTEX
8
3
62
70
10
-12
20
2.9
30
0
70
192
0
VERTEX
8
3
62
70
10
0
20
0
30
0
70
128
71
1
72
2
73
3
74
0
0
VERTEX
8
3
62
70
10
0
20
0
30
0
70
128
71
1
72
3
73
4
74
0
0
SEQEND
8
3
0
POLYLINE
8
4
62
37
66
1
10
0
20
0
30
0
70
64
0
VERTEX
8
4
62
37
10
-12
20
3
30
0
70
192
0
VERTEX
8
4
62
37
10
-11.1
20
3
30
0
70
192
0
VERTEX
8
4
62
37
10
-11.1
20
3.9
30
0
70
192
0
VERTEX
8
4
62
37
10
-12
20
3.9
30
0
70
192
0
VERTEX
8
4
62
37
10
0
20
0
30
0
70
128
71
1
72
2
73
3
74
0
0
VERTEX
8
4
62
37
10
0
20
0
30
0
70
128
71
1
72
3
73
4
74
0
0
SEQEND
8
4
0
POLYLINE
8
1
62
150
66
1
10
0
20
0
30
0
70
64
0
VERTEX
8
1
62
150
10
-11
20
0
30
0
70
192
0
VERTEX
8
1
62
150
10
-10.1
20
0
30
0
70
192
0
VERTEX
8
1
62
150
10
-10.1
20
0.9
30
0
70
192
0
VERTEX
8
1
62
150
10
-11
20
0.9
30
0
70
192
0
VERTEX
8
1
62
150
10
0
20
0
30
0
70
128
71
1
72
2
73
3
74
0
0
VERTEX
8
1
62
150
10
0
20
0
30
0
70
128
71
1
72
3
73
4
74
0
0
SEQEND
8
1
0
POLYLINE
8
2
62
1
66
1
10
0
20
0
30
0
70
64
0
VERTEX
8
2
62
1
10
-11
20
1
30
0
70
192
0
VERTEX
8
2
62
1
10
-10.1
20
1
30
0
70
192
0
VERTEX
8
2
62
1
10
-10.1
20
1.9
30
0
70
192
0
VERTEX
8
2
62
1
10
-11
20
1.9
30
0
70
192
0
VERTEX
8
2
62
1
10
0
20
0
30
0
70
128
71
1
72
2
73
3
74
0
0
VERTEX
8
2
62
1
10
0
20
0
30
0
70
128
71
1
72
3
73
4
74
0
0
SEQEND
8
2
0
POLYLINE
8
3
62
80
66
1
10
0
20
0
30
0
70
64
0
VERTEX
8
3
62
80
10
-11
20
2
30
0
70
192
0
VERTEX
8
3
62
80
10
-10.1
20
2
30
0
70
192
0
VERTEX
8
3
62
80
10
-10.1
20
2.9
30
0
70
192
0
VERTEX
8
3
62
80
10
-11
20
2.9
30
0
70
192
0
VERTEX
8
3
62
80
10
0
20
0
30
0
70
128
71
1
72
2
73
3
74
0
0
VERTEX
8
3
62
80
10
0
20
0
30
0
70
128
71
1
72
3
73
4
74
0
0
SEQEND
8
3
0
POLYLINE
8
4
62
37
66
1
10
0
20
0
30
0
70
64
0
VERTEX
8
4
62
37
10
-11
20
3
30
0
70
192
0
VERTEX
8
4
62
37
10
-10.1
20
3
30
0
70
192
0
VERTEX
8
4
62
37
10
-10.1
20
3.9
30
0
70
192
0
VERTEX
8
4
62
37
10
-11
20
3.9
30
0
70
192
0
VERTEX
8
4
62
37
10
0
20
0
30
0
70
128
71
1
72
2
73
3
74
0
0
VERTEX
8
4
62
37
10
0
20
0
30
0
70
128
71
1
72
3
73
4
74
0
0
SEQEND
8
4
0
POLYLINE
8
1
62
140
66
1
10
0
20
0
30
0
70
64
0
VERTEX
8
1
62
140
10
-10
20
0
30
0
70
192
0
VERTEX
8
1
62
140
10
-9.1
20
0
30
0
70
192
0
VERTEX
8
1
62
140
10
-9.1
20
0.9
30
0
70
192
0
VERTEX
8
1
62
140
10
-10
20
0.9
30
0
70
192
0
VERTEX
8
1
62
140
10
0
20
0
30
0
70
128
71
1
72
2
73
3
74
0
0
VERTEX
8
1
62
140
10
0
20
0
30
0
70
128
71
1
72
3
73
4
74
0
0
SEQEND
8
1
0
POLYLINE
8
2
62
1
66
1
10
0
20
0
30
0
70
64
0
VERTEX
8
2
62
1
10
-10
20
1
30
0
70
192
0
VERTEX
8
2
62
1
10
-9.1
20
1
30
0
70
192
0
VERTEX
8
2
62
1
10
-9.1
20
1.9
30
0
70
192
0
VERTEX
8
2
62
1
10
-10
20
1.9
30
0
70
192
0
VERTEX
8
2
62
1
10
0
20
0
30
0
70
128
71
1
72
2
73
3
74
0
0
VERTEX
8
2
62
1
10
0
20
0
30
0
70
128
71
1
72
3
73
4
74
0
0
SEQEND
8
2
0
POLYLINE
8
3
62
80
66
1
10
0
20
0
30
0
70
64
0
VERTEX
8
3
62
80
10
-10
20
2
30
0
70
192
0
VERTEX
8
3
62
80
10
-9.1
20
2
30
0
70
192
0
VERTEX
8
3
62
80
10
-9.1
20
2.9
30
0
70
192
0
VERTEX
8
3
62
80
10
-10
20
2.9
30
0
70
192
0
VERTEX
8
3
62
80
10
0
20
0
30
0
70
128
71
1
72
2
73
3
74
0
0
VERTEX
8
3
62
80
10
0
20
0
30
0
70
128
71
1
72
3
73
4
74
0
0
SEQEND
8
3
0
POLYLINE
8
4
62
37
66
1
10
0
20
0
30
0
70
64
0
VERTEX
8
4
62
37
10
-10
20
3
30
0
70
192
0
VERTEX
8
4
62
37
10
-9.1
20
3
30
0
70
192
0
VERTEX
8
4
62
37
10
-9.1
20
3.9
30
0
70
192
0
VERTEX
8
4
62
37
10
-10
20
3.9
30
0
70
192
0
VERTEX
8
4
62
37
10
0
20
0
30
0
70
128
71
1
72
2
73
3
74
0
0
VERTEX
8
4
62
37
10
0
20
0
30
0
70
128
71
1
72
3
73
4
74
0
0
SEQEND
8
4
0
POLYLINE
8
1
62
140
66
1
10
0
20
0
30
0
70
64
0
VERTEX
8
1
62
140
10
-9
20
0
30
0
70
192
0
VERTEX
8
1
62
140
10
-8.1
20
0
30
0
70
192
0
VERTEX
8
1
62
140
10
-8.1
20
0.9
30
0
70
192
0
VERTEX
8
1
62
140
10
-9
20
0.9
30
0
70
192
0
VERTEX
8
1
62
140
10
0
20
0
30
0
70
128
71
1
72
2
73
3
74
0
0
VERTEX
8
1
62
140
10
0
20
0
30
0
70
128
71
1
72
3
73
4
74
0
0
SEQEND
8
1
0
POLYLINE
8
2
62
1
66
1
10
0
20
0
30
0
70
64
0
VERTEX
8
2
62
1
10
-9
20
1
30
0
70
192
0
VERTEX
8
2
62
1
10
-8.1
20
1
30
0
70
192
0
VERTEX
8
2
62
1
10
-8.1
20
1.9
30
0
70
192
0
VERTEX
8
2
62
1
10
-9
20
1.9
30
0
70
192
0
VERTEX
8
2
62
1
10
0
20
0
30
0
70
128
71
1
72
2
73
3
74
0
0
VERTEX
8
2
62
1
10
0
20
0
30
0
70
128
71
1
72
3
73
4
74
0
0
SEQEND
8
2
0
POLYLINE
8
3
62
3
66
1
10
0
20
0
30
0
70
64
0
VERTEX
8
3
62
3
10
-9
20
2
30
0
70
192
0
VERTEX
8
3
62
3
10
-8.1
20
2
30
0
70
192
0
VERTEX
8
3
62
3
10
-8.1
20
2.9
30
0
70
192
0
VERTEX
8
3
62
3
10
-9
20
2.9
30
0
70
192
0
VERTEX
8
3
62
3
10
0
20
0
30
0
70
128
71
1
72
2
73
3
74
0
0
VERTEX
8
3
62
3
10
0
20
0
30
0
70
128
71
1
72
3
73
4
74
0
0
SEQEND
8
3
0
POLYLINE
8
4
62
47
66
1
10
0
20
0
30
0
70
64
0
VERTEX
8
4
62
47
10
-9
20
3
30
0
70
192
0
VERTEX
8
4
62
47
10
-8.1
20
3
30
0
70
192
0
VERTEX
8
4
62
47
10
-8.1
20
3.9
30
0
70
192
0
VERTEX
8
4
62
47
10
-9
20
3.9
30
0
70
192
0
VERTEX
8
4
62
47
10
0
20
0
30
0
70
128
71
1
72
2
73
3
74
0
0
VERTEX
8
4
62
47
10
0
20
0
30
0
70
128
71
1
72
3
73
4
74
0
0
SEQEND
8
4
0
POLYLINE
8
1
62
140
66
1
10
0
20
0
30
0
70
64
0
VERTEX
8
1
62
140
10
-8
20
0
30
0
70
192
0
VERTEX
8
1
62
140
10
-7.1
20
0
30
0
70
192
0
VERTEX
8
1
62
140
10
-7.1
20
0.9
30
0
70
192
0
VERTEX
8
1
62
140
10
-8
20
0.9
30
0
70
192
0
VERTEX
8
1
62
140
10
0
20
0
30
0
70
128
71
1
72
2
73
3
74
0
0
VERTEX
8
1
62
140
10
0
20
0
30
0
70
128
71
1
72
3
73
4
74
0
0
SEQEND
8
1
0
POLYLINE
8
2
62
1
66
1
10
0
20
0
30
0
70
64
0
VERTEX
8
2
62
1
10
-8
20
1
30
0
70
192
0
VERTEX
8
2
62
1
10
-7.1
20
1
30
0
70
192
0
VERTEX
8
2
62
1
10
-7.1
20
1.9
30
0
70
192
0
VERTEX
8
2
62
1
10
-8
20
1.9
30
0
70
192
0
VERTEX
8
2
62
1
10
0
20
0
30
0
70
128
71
1
72
2
73
3
74
0
0
VERTEX
8
2
62
1
10
0
20
0
30
0
70
128
71
1
72
3
73
4
74
0
0
SEQEND
8
2
0
POLYLINE
8
3
62
3
66
1
10
0
20
0
30
0
70
64
0
VERTEX
8
3
62
3
10
-8
20
2
30
0
70
192
0
VERTEX
8
3
62
3
10
-7.1
20
2
30
0
70
192
0
VERTEX
8
3
62
3
10
-7.1
20
2.9
30
0
70
192
0
VERTEX
8
3
62
3
10
-8
20
2.9
30
0
70
192
0
VERTEX
8
3
62
3
10
0
20
0
30
0
70
128
71
1
72
2
73
3
74
0
0
VERTEX
8
3
62
3
10
0
20
0
30
0
70
128
71
1
72
3
73
4
74
0
0
SEQEND
8
3
0
POLYLINE
8
4
62
15
66
1
10
0
20
0
30
0
70
64
0
VERTEX
8
4
62
15
10
-8
20
3
30
0
70
192
0
VERTEX
8
4
62
15
10
-7.1
20
3
30
0
70
192
0
VERTEX
8
4
62
15
10
-7.1
20
3.9
30
0
70
192
0
VERTEX
8
4
62
15
10
-8
20
3.9
30
0
70
192
0
VERTEX
8
4
62
15
10
0
20
0
30
0
70
128
71
1
72
2
73
3
74
0
0
VERTEX
8
4
62
15
10
0
20
0
30
0
70
128
71
1
72
3
73
4
74
0
0
SEQEND
8
4
0
POLYLINE
8
1
62
4
66
1
10
0
20
0
30
0
70
64
0
VERTEX
8
1
62
4
10
-7
20
0
30
0
70
192
0
VERTEX
8
1
62
4
10
-6.1
20
0
30
0
70
192
0
VERTEX
8
1
62
4
10
-6.1
20
0.9
30
0
70
192
0
VERTEX
8
1
62
4
10
-7
20
0.9
30
0
70
192
0
VERTEX
8
1
62
4
10
0
20
0
30
0
70
128
71
1
72
2
73
3
74
0
0
VERTEX
8
1
62
4
10
0
20
0
30
0
70
128
71
1
72
3
73
4
74
0
0
SEQEND
8
1
0
POLYLINE
8
2
62
1
66
1
10
0
20
0
30
0
70
64
0
VERTEX
8
2
62
1
10
-7
20
1
30
0
70
192
0
VERTEX
8
2
62
1
10
-6.1
20
1
30
0
70
192
0
VERTEX
8
2
62
1
10
-6.1
20
1.9
30
0
70
192
0
VERTEX
8
2
62
1
10
-7
20
1.9
30
0
70
192
0
VERTEX
8
2
62
1
10
0
20
0
30
0
70
128
71
1
72
2
73
3
74
0
0
VERTEX
8
2
62
1
10
0
20
0
30
0
70
128
71
1
72
3
73
4
74
0
0
SEQEND
8
2
0
POLYLINE
8
3
62
100
66
1
10
0
20
0
30
0
70
64
0
VERTEX
8
3
62
100
10
-7
20
2
30
0
70
192
0
VERTEX
8
3
62
100
10
-6.1
20
2
30
0
70
192
0
VERTEX
8
3
62
100
10
-6.1
20
2.9
30
0
70
192
0
VERTEX
8
3
62
100
10
-7
20
2.9
30
0
70
192
0
VERTEX
8
3
62
100
10
0
20
0
30
0
70
128
71
1
72
2
73
3
74
0
0
VERTEX
8
3
62
100
10
0
20
0
30
0
70
128
71
1
72
3
73
4
74
0
0
SEQEND
8
3
0
POLYLINE
8
4
62
25
66
1
10
0
20
0
30
0
70
64
0
VERTEX
8
4
62
25
10
-7
20
3
30
0
70
192
0
VERTEX
8
4
62
25
10
-6.1
20
3
30
0
70
192
0
VERTEX
8
4
62
25
10
-6.1
20
3.9
30
0
70
192
0
VERTEX
8
4
62
25
10
-7
20
3.9
30
0
70
192
0
VERTEX
8
4
62
25
10
0
20
0
30
0
70
128
71
1
72
2
73
3
74
0
0
VERTEX
8
4
62
25
10
0
20
0
30
0
70
128
71
1
72
3
73
4
74
0
0
SEQEND
8
4
0
POLYLINE
8
1
62
4
66
1
10
0
20
0
30
0
70
64
0
VERTEX
8
1
62
4
10
-6
20
0
30
0
70
192
0
VERTEX
8
1
62
4
10
-5.1
20
0
30
0
70
192
0
VERTEX
8
1
62
4
10
-5.1
20
0.9
30
0
70
192
0
VERTEX
8
1
62
4
10
-6
20
0.9
30
0
70
192
0
VERTEX
8
1
62
4
10
0
20
0
30
0
70
128
71
1
72
2
73
3
74
0
0
VERTEX
8
1
62
4
10
0
20
0
30
0
70
128
71
1
72
3
73
4
74
0
0
SEQEND
8
1
0
POLYLINE
8
2
62
1
66
1
10
0
20
0
30
0
70
64
0
VERTEX
8
2
62
1
10
-6
20
1
30
0
70
192
0
VERTEX
8
2
62
1
10
-5.1
20
1
30
0
70
192
0
VERTEX
8
2
62
1
10
-5.1
20
1.9
30
0
70
192
0
VERTEX
8
2
62
1
10
-6
20
1.9
30
0
70
192
0
VERTEX
8
2
62
1
10
0
20
0
30
0
70
128
71
1
72
2
73
3
74
0
0
VERTEX
8
2
62
1
10
0
20
0
30
0
70
128
71
1
72
3
73
4
74
0
0
SEQEND
8
2
0
POLYLINE
8
3
62
100
66
1
10
0
20
0
30
0
70
64
0
VERTEX
8
3
62
100
10
-6
20
2
30
0
70
192
0
VERTEX
8
3
62
100
10
-5.1
20
2
30
0
70
192
0
VERTEX
8
3
62
100
10
-5.1
20
2.9
30
0
70
192
0
VERTEX
8
3
62
100
10
-6
20
2.9
30
0
70
192
0
VERTEX
8
3
62
100
10
0
20
0
30
0
70
128
71
1
72
2
73
3
74
0
0
VERTEX
8
3
62
100
10
0
20
0
30
0
70
128
71
1
72
3
73
4
74
0
0
SEQEND
8
3
0
POLYLINE
8
4
62
25
66
1
10
0
20
0
30
0
70
64
0
VERTEX
8
4
62
25
10
-6
20
3
30
0
70
192
0
VERTEX
8
4
62
25
10
-5.1
20
3
30
0
70
192
0
VERTEX
8
4
62
25
10
-5.1
20
3.9
30
0
70
192
0
VERTEX
8
4
62
25
10
-6
20
3.9
30
0
70
192
0
VERTEX
8
4
62
25
10
0
20
0
30
0
70
128
71
1
72
2
73
3
74
0
0
VERTEX
8
4
62
25
10
0
20
0
30
0
70
128
71
1
72
3
73
4
74
0
0
SEQEND
8
4
0
POLYLINE
8
1
62
4
66
1
10
0
20
0
30
0
70
64
0
VERTEX
8
1
62
4
10
-5
20
0
30
0
70
192
0
VERTEX
8
1
62
4
10
-4.1
20
0
30
0
70
192
0
VERTEX
8
1
62
4
10
-4.1
20
0.9
30
0
70
192
0
VERTEX
8
1
62
4
10
-5
20
0.9
30
0
70
192
0
VERTEX
8
1
62
4
10
0
20
0
30
0
70
128
71
1
72
2
73
3
74
0
0
VERTEX
8
1
62
4
10
0
20
0
30
0
70
128
71
1
72
3
73
4
74
0
0
SEQEND
8
1
0
POLYLINE
8
2
62
20
66
1
10
0
20
0
30
0
70
64
0
VERTEX
8
2
62
20
10
-5
20
1
30
0
70
192
0
VERTEX
8
2
62
20
10
-4.1
20
1
30
0
70
192
0
VERTEX
8
2
62
20
10
-4.1
20
1.9
30
0
70
192
0
VERTEX
8
2
62
20
10
-5
20
1.9
30
0
70
192
0
VERTEX
8
2
62
20
10
0
20
0
30
0
70
128
71
1
72
2
73
3
74
0
0
VERTEX
8
2
62
20
10
0
20
0
30
0
70
128
71
1
72
3
73
4
74
0
0
SEQEND
8
2
0
POLYLINE
8
3
62
110
66
1
10
0
20
0
30
0
70
64
0
VERTEX
8
3
62
110
10
-5
20
2
30
0
70
192
0
VERTEX
8
3
62
110
10
-4.1
20
2
30
0
70
192
0
VERTEX
8
3
62
110
10
-4.1
20
2.9
30
0
70
192
0
VERTEX
8
3
62
110
10
-5
20
2.9
30
0
70
192
0
VERTEX
8
3
62
110
10
0
20
0
30
0
70
128
71
1
72
2
73
3
74
0
0
VERTEX
8
3
62
110
10
0
20
0
30
0
70
128
71
1
72
3
73
4
74
0
0
SEQEND
8
3
0
POLYLINE
8
4
62
25
66
1
10
0
20
0
30
0
70
64
0
VERTEX
8
4
62
25
10
-5
20
3
30
0
70
192
0
VERTEX
8
4
62
25
10
-4.1
20
3
30
0
70
192
0
VERTEX
8
4
62
25
10
-4.1
20
3.9
30
0
70
192
0
VERTEX
8
4
62
25
10
-5
20
3.9
30
0
70
192
0
VERTEX
8
4
62
25
10
0
20
0
30
0
70
128
71
1
72
2
73
3
74
0
0
VERTEX
8
4
62
25
10
0
20
0
30
0
70
128
71
1
72
3
73
4
74
0
0
SEQEND
8
4
0
POLYLINE
8
1
62
120
66
1
10
0
20
0
30
0
70
64
0
VERTEX
8
1
62
120
10
-4
20
0
30
0
70
192
0
VERTEX
8
1
62
120
10
-3.1
20
0
30
0
70
192
0
VERTEX
8
1
62
120
10
-3.1
20
0.9
30
0
70
192
0
VERTEX
8
1
62
120
10
-4
20
0.9
30
0
70
192
0
VERTEX
8
1
62
120
10
0
20
0
30
0
70
128
71
1
72
2
73
3
74
0
0
VERTEX
8
1
62
120
10
0
20
0
30
0
70
128
71
1
72
3
73
4
74
0
0
SEQEND
8
1
0
POLYLINE
8
2
62
20
66
1
10
0
20
0
30
0
70
64
0
VERTEX
8
2
62
20
10
-4
20
1
30
0
70
192
0
VERTEX
8
2
62
20
10
-3.1
20
1
30
0
70
192
0
VERTEX
8
2
62
20
10
-3.1
20
1.9
30
0
70
192
0
VERTEX
8
2
62
20
10
-4
20
1.9
30
0
70
192
0
VERTEX
8
2
62
20
10
0
20
0
30
0
70
128
71
1
72
2
73
3
74
0
0
VERTEX
8
2
62
20
10
0
20
0
30
0
70
128
71
1
72
3
73
4
74
0
0
SEQEND
8
2
0
POLYLINE
8
3
62
110
66
1
10
0
20
0
30
0
70
64
0
VERTEX
8
3
62
110
10
-4
20
2
30
0
70
192
0
VERTEX
8
3
62
110
10
-3.1
20
2
30
0
70
192
0
VERTEX
8
3
62
110
10
-3.1
20
2.9
30
0
70
192
0
VERTEX
8
3
62
110
10
-4
20
2.9
30
0
70
192
0
VERTEX
8
3
62
110
10
0
20
0
30
0
70
128
71
1
72
2
73
3
74
0
0
VERTEX
8
3
62
110
10
0
20
0
30
0
70
128
71
1
72
3
73
4
74
0
0
SEQEND
8
3
0
POLYLINE
8
4
62
25
66
1
10
0
20
0
30
0
70
64
0
VERTEX
8
4
62
25
10
-4
20
3
30
0
70
192
0
VERTEX
8
4
62
25
10
-3.1
20
3
30
0
70
192
0
VERTEX
8
4
62
25
10
-3.1
20
3.9
30
0
70
192
0
VERTEX
8
4
62
25
10
-4
20
3.9
30
0
70
192
0
VERTEX
8
4
62
25
10
0
20
0
30
0
70
128
71
1
72
2
73
3
74
0
0
VERTEX
8
4
62
25
10
0
20
0
30
0
70
128
71
1
72
3
73
4
74
0
0
SEQEND
8
4
0
POLYLINE
8
1
62
120
66
1
10
0
20
0
30
0
70
64
0
VERTEX
8
1
62
120
10
-3
20
0
30
0
70
192
0
VERTEX
8
1
62
120
10
-2.1
20
0
30
0
70
192
0
VERTEX
8
1
62
120
10
-2.1
20
0.9
30
0
70
192
0
VERTEX
8
1
62
120
10
-3
20
0.9
30
0
70
192
0
VERTEX
8
1
62
120
10
0
20
0
30
0
70
128
71
1
72
2
73
3
74
0
0
VERTEX
8
1
62
120
10
0
20
0
30
0
70
128
71
1
72
3
73
4
74
0
0
SEQEND
8
1
0
POLYLINE
8
2
62
20
66
1
10
0
20
0
30
0
70
64
0
VERTEX
8
2
62
20
10
-3
20
1
30
0
70
192
0
VERTEX
8
2
62
20
10
-2.1
20
1
30
0
70
192
0
VERTEX
8
2
62
20
10
-2.1
20
1.9
30
0
70
192
0
VERTEX
8
2
62
20
10
-3
20
1.9
30
0
70
192
0
VERTEX
8
2
62
20
10
0
20
0
30
0
70
128
71
1
72
2
73
3
74
0
0
VERTEX
8
2
62
20
10
0
20
0
30
0
70
128
71
1
72
3
73
4
74
0
0
SEQEND
8
2
0
POLYLINE
8
3
62
120
66
1
10
0
20
0
30
0
70
64
0
VERTEX
8
3
62
120
10
-3
20
2
30
0
70
192
0
VERTEX
8
3
62
120
10
-2.1
20
2
30
0
70
192
0
VERTEX
8
3
62
120
10
-2.1
20
2.9
30
0
70
192
0
VERTEX
8
3
62
120
10
-3
20
2.9
30
0
70
192
0
VERTEX
8
3
62
120
10
0
20
0
30
0
70
128
71
1
72
2
73
3
74
0
0
VERTEX
8
3
62
120
10
0
20
0
30
0
70
128
71
1
72
3
73
4
74
0
0
SEQEND
8
3
0
POLYLINE
8
4
62
35
66
1
10
0
20
0
30
0
70
64
0
VERTEX
8
4
62
35
10
-3
20
3
30
0
70
192
0
VERTEX
8
4
62
35
10
-2.1
20
3
30
0
70
192
0
VERTEX
8
4
62
35
10
-2.1
20
3.9
30
0
70
192
0
VERTEX
8
4
62
35
10
-3
20
3.9
30
0
70
192
0
VERTEX
8
4
62
35
10
0
20
0
30
0
70
128
71
1
72
2
73
3
74
0
0
VERTEX
8
4
62
35
10
0
20
0
30
0
70
128
71
1
72
3
73
4
74
0
0
SEQEND
8
4
0
POLYLINE
8
1
62
111
66
1
10
0
20
0
30
0
70
64
0
VERTEX
8
1
62
111
10
-2
20
0
30
0
70
192
0
VERTEX
8
1
62
111
10
-1.1
20
0
30
0
70
192
0
VERTEX
8
1
62
111
10
-1.1
20
0.9
30
0
70
192
0
VERTEX
8
1
62
111
10
-2
20
0.9
30
0
70
192
0
VERTEX
8
1
62
111
10
0
20
0
30
0
70
128
71
1
72
2
73
3
74
0
0
VERTEX
8
1
62
111
10
0
20
0
30
0
70
128
71
1
72
3
73
4
74
0
0
SEQEND
8
1
0
POLYLINE
8
2
62
20
66
1
10
0
20
0
30
0
70
64
0
VERTEX
8
2
62
20
10
-2
20
1
30
0
70
192
0
VERTEX
8
2
62
20
10
-1.1
20
1
30
0
70
192
0
VERTEX
8
2
62
20
10
-1.1
20
1.9
30
0
70
192
0
VERTEX
8
2
62
20
10
-2
20
1.9
30
0
70
192
0
VERTEX
8
2
62
20
10
0
20
0
30
0
70
128
71
1
72
2
73
3
74
0
0
VERTEX
8
2
62
20
10
0
20
0
30
0
70
128
71
1
72
3
73
4
74
0
0
SEQEND
8
2
0
POLYLINE
8
3
62
120
66
1
10
0
20
0
30
0
70
64
0
VERTEX
8
3
62
120
10
-2
20
2
30
0
70
192
0
VERTEX
8
3
62
120
10
-1.1
20
2
30
0
70
192
0
VERTEX
8
3
62
120
10
-1.1
20
2.9
30
0
70
192
0
VERTEX
8
3
62
120
10
-2
20
2.9
30
0
70
192
0
VERTEX
8
3
62
120
10
0
20
0
30
0
70
128
71
1
72
2
73
3
74
0
0
VERTEX
8
3
62
120
10
0
20
0
30
0
70
128
71
1
72
3
73
4
74
0
0
SEQEND
8
3
0
POLYLINE
8
4
62
35
66
1
10
0
20
0
30
0
70
64
0
VERTEX
8
4
62
35
10
-2
20
3
30
0
70
192
0
VERTEX
8
4
62
35
10
-1.1
20
3
30
0
70
192
0
VERTEX
8
4
62
35
10
-1.1
20
3.9
30
0
70
192
0
VERTEX
8
4
62
35
10
-2
20
3.9
30
0
70
192
0
VERTEX
8
4
62
35
10
0
20
0
30
0
70
128
71
1
72
2
73
3
74
0
0
VERTEX
8
4
62
35
10
0
20
0
30
0
70
128
71
1
72
3
73
4
74
0
0
SEQEND
8
4
0
POLYLINE
8
1
62
101
66
1
10
0
20
0
30
0
70
64
0
VERTEX
8
1
62
101
10
-1
20
0
30
0
70
192
0
VERTEX
8
1
62
101
10
-0.1
20
0
30
0
70
192
0
VERTEX
8
1
62
101
10
-0.1
20
0.9
30
0
70
192
0
VERTEX
8
1
62
101
10
-1
20
0.9
30
0
70
192
0
VERTEX
8
1
62
101
10
0
20
0
30
0
70
128
71
1
72
2
73
3
74
0
0
VERTEX
8
1
62
101
10
0
20
0
30
0
70
128
71
1
72
3
73
4
74
0
0
SEQEND
8
1
0
POLYLINE
8
2
62
30
66
1
10
0
20
0
30
0
70
64
0
VERTEX
8
2
62
30
10
-1
20
1
30
0
70
192
0
VERTEX
8
2
62
30
10
-0.1
20
1
30
0
70
192
0
VERTEX
8
2
62
30
10
-0.1
20
1.9
30
0
70
192
0
VERTEX
8
2
62
30
10
-1
20
1.9
30
0
70
192
0
VERTEX
8
2
62
30
10
0
20
0
30
0
70
128
71
1
72
2
73
3
74
0
0
VERTEX
8
2
62
30
10
0
20
0
30
0
70
128
71
1
72
3
73
4
74
0
0
SEQEND
8
2
0
POLYLINE
8
3
62
4
66
1
10
0
20
0
30
0
70
64
0
VERTEX
8
3
62
4
10
-1
20
2
30
0
70
192
0
VERTEX
8
3
62
4
10
-0.1
20
2
30
0
70
192
0
VERTEX
8
3
62
4
10
-0.1
20
2.9
30
0
70
192
0
VERTEX
8
3
62
4
10
-1
20
2.9
30
0
70
192
0
VERTEX
8
3
62
4
10
0
20
0
30
0
70
128
71
1
72
2
73
3
74
0
0
VERTEX
8
3
62
4
10
0
20
0
30
0
70
128
71
1
72
3
73
4
74
0
0
SEQEND
8
3
0
POLYLINE
8
4
62
23
66
1
10
0
20
0
30
0
70
64
0
VERTEX
8
4
62
23
10
-1
20
3
30
0
70
192
0
VERTEX
8
4
62
23
10
-0.1
20
3
30
0
70
192
0
VERTEX
8
4
62
23
10
-0.1
20
3.9
30
0
70
192
0
VERTEX
8
4
62
23
10
-1
20
3.9
30
0
70
192
0
VERTEX
8
4
62
23
10
0
20
0
30
0
70
128
71
1
72
2
73
3
74
0
0
VERTEX
8
4
62
23
10
0
20
0
30
0
70
128
71
1
72
3
73
4
74
0
0
SEQEND
8
4
0
POLYLINE
8
1
62
91
66
1
10
0
20
0
30
0
70
64
0
VERTEX
8
1
62
91
10
0
20
0
30
0
70
192
0
VERTEX
8
1
62
91
10
0.9
20
0
30
0
70
192
0
VERTEX
8
1
62
91
10
0.9
20
0.9
30
0
70
192
0
VERTEX
8
1
62
91
10
0
20
0.9
30
0
70
192
0
VERTEX
8
1
62
91
10
0
20
0
30
0
70
128
71
1
72
2
73
3
74
0
0
VERTEX
8
1
62
91
10
0
20
0
30
0
70
128
71
1
72
3
73
4
74
0
0
SEQEND
8
1
0
POLYLINE
8
2
62
30
66
1
10
0
20
0
30
0
70
64
0
VERTEX
8
2
62
30
10
0
20
1
30
0
70
192
0
VERTEX
8
2
62
30
10
0.9
20
1
30
0
70
192
0
VERTEX
8
2
62
30
10
0.9
20
1.9
30
0
70
192
0
VERTEX
8
2
62
30
10
0
20
1.9
30
0
70
192
0
VERTEX
8
2
62
30
10
0
20
0
30
0
70
128
71
1
72
2
73
3
74
0
0
VERTEX
8
2
62
30
10
0
20
0
30
0
70
128
71
1
72
3
73
4
74
0
0
SEQEND
8
2
0
POLYLINE
8
3
62
4
66
1
10
0
20
0
30
0
70
64
0
VERTEX
8
3
62
4
10
0
20
2
30
0
70
192
0
VERTEX
8
3
62
4
10
0.9
20
2
30
0
70
192
0
VERTEX
8
3
62
4
10
0.9
20
2.9
30
0
70
192
0
VERTEX
8
3
62
4
10
0
20
2.9
30
0
70
192
0
VERTEX
8
3
62
4
10
0
20
0
30
0
70
128
71
1
72
2
73
3
74
0
0
VERTEX
8
3
62
4
10
0
20
0
30
0
70
128
71
1
72
3
73
4
74
0
0
SEQEND
8
3
0
POLYLINE
8
4
62
23
66
1
10
0
20
0
30
0
70
64
0
VERTEX
8
4
62
23
10
0
20
3
30
0
70
192
0
VERTEX
8
4
62
23
10
0.9
20
3
30
0
70
192
0
VERTEX
8
4
62
23
10
0.9
20
3.9
30
0
70
192
0
VERTEX
8
4
62
23
10
0
20
3.9
30
0
70
192
0
VERTEX
8
4
62
23
10
0
20
0
30
0
70
128
71
1
72
2
73
3
74
0
0
VERTEX
8
4
62
23
10
0
20
0
30
0
70
128
71
1
72
3
73
4
74
0
0
SEQEND
8
4
0
POLYLINE
8
1
62
91
66
1
10
0
20
0
30
0
70
64
0
VERTEX
8
1
62
91
10
1
20
0
30
0
70
192
0
VERTEX
8
1
62
91
10
1.9
20
0
30
0
70
192
0
VERTEX
8
1
62
91
10
1.9
20
0.9
30
0
70
192
0
VERTEX
8
1
62
91
10
1
20
0.9
30
0
70
192
0
VERTEX
8
1
62
91
10
0
20
0
30
0
70
128
71
1
72
2
73
3
74
0
0
VERTEX
8
1
62
91
10
0
20
0
30
0
70
128
71
1
72
3
73
4
74
0
0
SEQEND
8
1
0
POLYLINE
8
2
62
30
66
1
10
0
20
0
30
0
70
64
0
VERTEX
8
2
62
30
10
1
20
1
30
0
70
192
0
VERTEX
8
2
62
30
10
1.9
20
1
30
0
70
192
0
VERTEX
8
2
62
30
10
1.9
20
1.9
30
0
70
192
0
VERTEX
8
2
62
30
10
1
20
1.9
30
0
70
192
0
VERTEX
8
2
62
30
10
0
20
0
30
0
70
128
71
1
72
2
73
3
74
0
0
VERTEX
8
2
62
30
10
0
20
0
30
0
70
128
71
1
72
3
73
4
74
0
0
SEQEND
8
2
0
POLYLINE
8
3
62
4
66
1
10
0
20
0
30
0
70
64
0
VERTEX
8
3
62
4
10
1
20
2
30
0
70
192
0
VERTEX
8
3
62
4
10
1.9
20
2
30
0
70
192
0
VERTEX
8
3
62
4
10
1.9
20
2.9
30
0
70
192
0
VERTEX
8
3
62
4
10
1
20
2.9
30
0
70
192
0
VERTEX
8
3
62
4
10
0
20
0
30
0
70
128
71
1
72
2
73
3
74
0
0
VERTEX
8
3
62
4
10
0
20
0
30
0
70
128
71
1
72
3
73
4
74
0
0
SEQEND
8
3
0
POLYLINE
8
4
62
23
66
1
10
0
20
0
30
0
70
64
0
VERTEX
8
4
62
23
10
1
20
3
30
0
70
192
0
VERTEX
8
4
62
23
10
1.9
20
3
30
0
70
192
0
VERTEX
8
4
62
23
10
1.9
20
3.9
30
0
70
192
0
VERTEX
8
4
62
23
10
1
20
3.9
30
0
70
192
0
VERTEX
8
4
62
23
10
0
20
0
30
0
70
128
71
1
72
2
73
3
74
0
0
VERTEX
8
4
62
23
10
0
20
0
30
0
70
128
71
1
72
3
73
4
74
0
0
SEQEND
8
4
0
POLYLINE
8
1
62
81
66
1
10
0
20
0
30
0
70
64
0
VERTEX
8
1
62
81
10
2
20
0
30
0
70
192
0
VERTEX
8
1
62
81
10
2.9
20
0
30
0
70
192
0
VERTEX
8
1
62
81
10
2.9
20
0.9
30
0
70
192
0
VERTEX
8
1
62
81
10
2
20
0.9
30
0
70
192
0
VERTEX
8
1
62
81
10
0
20
0
30
0
70
128
71
1
72
2
73
3
74
0
0
VERTEX
8
1
62
81
10
0
20
0
30
0
70
128
71
1
72
3
73
4
74
0
0
SEQEND
8
1
0
POLYLINE
8
2
62
30
66
1
10
0
20
0
30
0
70
64
0
VERTEX
8
2
62
30
10
2
20
1
30
0
70
192
0
VERTEX
8
2
62
30
10
2.9
20
1
30
0
70
192
0
VERTEX
8
2
62
30
10
2.9
20
1.9
30
0
70
192
0
VERTEX
8
2
62
30
10
2
20
1.9
30
0
70
192
0
VERTEX
8
2
62
30
10
0
20
0
30
0
70
128
71
1
72
2
73
3
74
0
0
VERTEX
8
2
62
30
10
0
20
0
30
0
70
128
71
1
72
3
73
4
74
0
0
SEQEND
8
2
0
POLYLINE
8
3
62
140
66
1
10
0
20
0
30
0
70
64
0
VERTEX
8
3
62
140
10
2
20
2
30
0
70
192
0
VERTEX
8
3
62
140
10
2.9
20
2
30
0
70
192
0
VERTEX
8
3
62
140
10
2.9
20
2.9
30
0
70
192
0
VERTEX
8
3
62
140
10
2
20
2.9
30
0
70
192
0
VERTEX
8
3
62
140
10
0
20
0
30
0
70
128
71
1
72
2
73
3
74
0
0
VERTEX
8
3
62
140
10
0
20
0
30
0
70
128
71
1
72
3
73
4
74
0
0
SEQEND
8
3
0
POLYLINE
8
4
62
23
66
1
10
0
20
0
30
0
70
64
0
VERTEX
8
4
62
23
10
2
20
3
30
0
70
192
0
VERTEX
8
4
62
23
10
2.9
20
3
30
0
70
192
0
VERTEX
8
4
62
23
10
2.9
20
3.9
30
0
70
192
0
VERTEX
8
4
62
23
10
2
20
3.9
30
0
70
192
0
VERTEX
8
4
62
23
10
0
20
0
30
0
70
128
71
1
72
2
73
3
74
0
0
VERTEX
8
4
62
23
10
0
20
0
30
0
70
128
71
1
72
3
73
4
74
0
0
SEQEND
8
4
0
POLYLINE
8
1
62
71
66
1
10
0
20
0
30
0
70
64
0
VERTEX
8
1
62
71
10
3
20
0
30
0
70
192
0
VERTEX
8
1
62
71
10
3.9
20
0
30
0
70
192
0
VERTEX
8
1
62
71
10
3.9
20
0.9
30
0
70
192
0
VERTEX
8
1
62
71
10
3
20
0.9
30
0
70
192
0
VERTEX
8
1
62
71
10
0
20
0
30
0
70
128
71
1
72
2
73
3
74
0
0
VERTEX
8
1
62
71
10
0
20
0
30
0
70
128
71
1
72
3
73
4
74
0
0
SEQEND
8
1
0
POLYLINE
8
2
62
30
66
1
10
0
20
0
30
0
70
64
0
VERTEX
8
2
62
30
10
3
20
1
30
0
70
192
0
VERTEX
8
2
62
30
10
3.9
20
1
30
0
70
192
0
VERTEX
8
2
62
30
10
3.9
20
1.9
30
0
70
192
0
VERTEX
8
2
62
30
10
3
20
1.9
30
0
70
192
0
VERTEX
8
2
62
30
10
0
20
0
30
0
70
128
71
1
72
2
73
3
74
0
0
VERTEX
8
2
62
30
10
0
20
0
30
0
70
128
71
1
72
3
73
4
74
0
0
SEQEND
8
2
0
POLYLINE
8
3
62
140
66
1
10
0
20
0
30
0
70
64
0
VERTEX
8
3
62
140
10
3
20
2
30
0
70
192
0
VERTEX
8
3
62
140
10
3.9
20
2
30
0
70
192
0
VERTEX
8
3
62
140
10
3.9
20
2.9
30
0
70
192
0
VERTEX
8
3
62
140
10
3
20
2.9
30
0
70
192
0
VERTEX
8
3
62
140
10
0
20
0
30
0
70
128
71
1
72
2
73
3
74
0
0
VERTEX
8
3
62
140
10
0
20
0
30
0
70
128
71
1
72
3
73
4
74
0
0
SEQEND
8
3
0
POLYLINE
8
4
62
23
66
1
10
0
20
0
30
0
70
64
0
VERTEX
8
4
62
23
10
3
20
3
30
0
70
192
0
VERTEX
8
4
62
23
10
3.9
20
3
30
0
70
192
0
VERTEX
8
4
62
23
10
3.9
20
3.9
30
0
70
192
0
VERTEX
8
4
62
23
10
3
20
3.9
30
0
70
192
0
VERTEX
8
4
62
23
10
0
20
0
30
0
70
128
71
1
72
2
73
3
74
0
0
VERTEX
8
4
62
23
10
0
20
0
30
0
70
128
71
1
72
3
73
4
74
0
0
SEQEND
8
4
0
POLYLINE
8
1
62
60
66
1
10
0
20
0
30
0
70
64
0
VERTEX
8
1
62
60
10
4
20
0
30
0
70
192
0
VERTEX
8
1
62
60
10
4.9
20
0
30
0
70
192
0
VERTEX
8
1
62
60
10
4.9
20
0.9
30
0
70
192
0
VERTEX
8
1
62
60
10
4
20
0.9
30
0
70
192
0
VERTEX
8
1
62
60
10
0
20
0
30
0
70
128
71
1
72
2
73
3
74
0
0
VERTEX
8
1
62
60
10
0
20
0
30
0
70
128
71
1
72
3
73
4
74
0
0
SEQEND
8
1
0
POLYLINE
8
2
62
40
66
1
10
0
20
0
30
0
70
64
0
VERTEX
8
2
62
40
10
4
20
1
30
0
70
192
0
VERTEX
8
2
62
40
10
4.9
20
1
30
0
70
192
0
VERTEX
8
2
62
40
10
4.9
20
1.9
30
0
70
192
0
VERTEX
8
2
62
40
10
4
20
1.9
30
0
70
192
0
VERTEX
8
2
62
40
10
0
20
0
30
0
70
128
71
1
72
2
73
3
74
0
0
VERTEX
8
2
62
40
10
0
20
0
30
0
70
128
71
1
72
3
73
4
74
0
0
SEQEND
8
2
0
POLYLINE
8
3
62
150
66
1
10
0
20
0
30
0
70
64
0
VERTEX
8
3
62
150
10
4
20
2
30
0
70
192
0
VERTEX
8
3
62
150
10
4.9
20
2
30
0
70
192
0
VERTEX
8
3
62
150
10
4.9
20
2.9
30
0
70
192
0
VERTEX
8
3
62
150
10
4
20
2.9
30
0
70
192
0
VERTEX
8
3
62
150
10
0
20
0
30
0
70
128
71
1
72
2
73
3
74
0
0
VERTEX
8
3
62
150
10
0
20
0
30
0
70
128
71
1
72
3
73
4
74
0
0
SEQEND
8
3
0
POLYLINE
8
4
62
33
66
1
10
0
20
0
30
0
70
64
0
VERTEX
8
4
62
33
10
4
20
3
30
0
70
192
0
VERTEX
8
4
62
33
10
4.9
20
3
30
0
70
192
0
VERTEX
8
4
62
33
10
4.9
20
3.9
30
0
70
192
0
VERTEX
8
4
62
33
10
4
20
3.9
30
0
70
192
0
VERTEX
8
4
62
33
10
0
20
0
30
0
70
128
71
1
72
2
73
3
74
0
0
VERTEX
8
4
62
33
10
0
20
0
30
0
70
128
71
1
72
3
73
4
74
0
0
SEQEND
8
4
0
POLYLINE
8
1
62
60
66
1
10
0
20
0
30
0
70
64
0
VERTEX
8
1
62
60
10
5
20
0
30
0
70
192
0
VERTEX
8
1
62
60
10
5.9
20
0
30
0
70
192
0
VERTEX
8
1
62
60
10
5.9
20
0.9
30
0
70
192
0
VERTEX
8
1
62
60
10
5
20
0.9
30
0
70
192
0
VERTEX
8
1
62
60
10
0
20
0
30
0
70
128
71
1
72
2
73
3
74
0
0
VERTEX
8
1
62
60
10
0
20
0
30
0
70
128
71
1
72
3
73
4
74
0
0
SEQEND
8
1
0
POLYLINE
8
2
62
40
66
1
10
0
20
0
30
0
70
64
0
VERTEX
8
2
62
40
10
5
20
1
30
0
70
192
0
VERTEX
8
2
62
40
10
5.9
20
1
30
0
70
192
0
VERTEX
8
2
62
40
10
5.9
20
1.9
30
0
70
192
0
VERTEX
8
2
62
40
10
5
20
1.9
30
0
70
192
0
VERTEX
8
2
62
40
10
0
20
0
30
0
70
128
71
1
72
2
73
3
74
0
0
VERTEX
8
2
62
40
10
0
20
0
30
0
70
128
71
1
72
3
73
4
74
0
0
SEQEND
8
2
0
POLYLINE
8
3
62
150
66
1
10
0
20
0
30
0
70
64
0
VERTEX
8
3
62
150
10
5
20
2
30
0
70
192
0
VERTEX
8
3
62
150
10
5.9
20
2
30
0
70
192
0
VERTEX
8
3
62
150
10
5.9
20
2.9
30
0
70
192
0
VERTEX
8
3
62
150
10
5
20
2.9
30
0
70
192
0
VERTEX
8
3
62
150
10
0
20
0
30
0
70
128
71
1
72
2
73
3
74
0
0
VERTEX
8
3
62
150
10
0
20
0
30
0
70
128
71
1
72
3
73
4
74
0
0
SEQEND
8
3
0
POLYLINE
8
4
62
33
66
1
10
0
20
0
30
0
70
64
0
VERTEX
8
4
62
33
10
5
20
3
30
0
70
192
0
VERTEX
8
4
62
33
10
5.9
20
3
30
0
70
192
0
VERTEX
8
4
62
33
10
5.9
20
3.9
30
0
70
192
0
VERTEX
8
4
62
33
10
5
20
3.9
30
0
70
192
0
VERTEX
8
4
62
33
10
0
20
0
30
0
70
128
71
1
72
2
73
3
74
0
0
VERTEX
8
4
62
33
10
0
20
0
30
0
70
128
71
1
72
3
73
4
74
0
0
SEQEND
8
4
0
POLYLINE
8
1
62
2
66
1
10
0
20
0
30
0
70
64
0
VERTEX
8
1
62
2
10
6
20
0
30
0
70
192
0
VERTEX
8
1
62
2
10
6.9
20
0
30
0
70
192
0
VERTEX
8
1
62
2
10
6.9
20
0.9
30
0
70
192
0
VERTEX
8
1
62
2
10
6
20
0.9
30
0
70
192
0
VERTEX
8
1
62
2
10
0
20
0
30
0
70
128
71
1
72
2
73
3
74
0
0
VERTEX
8
1
62
2
10
0
20
0
30
0
70
128
71
1
72
3
73
4
74
0
0
SEQEND
8
1
0
POLYLINE
8
2
62
40
66
1
10
0
20
0
30
0
70
64
0
VERTEX
8
2
62
40
10
6
20
1
30
0
70
192
0
VERTEX
8
2
62
40
10
6.9
20
1
30
0
70
192
0
VERTEX
8
2
62
40
10
6.9
20
1.9
30
0
70
192
0
VERTEX
8
2
62
40
10
6
20
1.9
30
0
70
192
0
VERTEX
8
2
62
40
10
0
20
0
30
0
70
128
71
1
72
2
73
3
74
0
0
VERTEX
8
2
62
40
10
0
20
0
30
0
70
128
71
1
72
3
73
4
74
0
0
SEQEND
8
2
0
POLYLINE
8
3
62
160
66
1
10
0
20
0
30
0
70
64
0
VERTEX
8
3
62
160
10
6
20
2
30
0
70
192
0
VERTEX
8
3
62
160
10
6.9
20
2
30
0
70
192
0
VERTEX
8
3
62
160
10
6.9
20
2.9
30
0
70
192
0
VERTEX
8
3
62
160
10
6
20
2.9
30
0
70
192
0
VERTEX
8
3
62
160
10
0
20
0
30
0
70
128
71
1
72
2
73
3
74
0
0
VERTEX
8
3
62
160
10
0
20
0
30
0
70
128
71
1
72
3
73
4
74
0
0
SEQEND
8
3
0
POLYLINE
8
4
62
33
66
1
10
0
20
0
30
0
70
64
0
VERTEX
8
4
62
33
10
6
20
3
30
0
70
192
0
VERTEX
8
4
62
33
10
6.9
20
3
30
0
70
192
0
VERTEX
8
4
62
33
10
6.9
20
3.9
30
0
70
192
0
VERTEX
8
4
62
33
10
6
20
3.9
30
0
70
192
0
VERTEX
8
4
62
33
10
0
20
0
30
0
70
128
71
1
72
2
73
3
74
0
0
VERTEX
8
4
62
33
10
0
20
0
30
0
70
128
71
1
72
3
73
4
74
0
0
SEQEND
8
4
0
POLYLINE
8
1
62
2
66
1
10
0
20
0
30
0
70
64
0
VERTEX
8
1
62
2
10
7
20
0
30
0
70
192
0
VERTEX
8
1
62
2
10
7.9
20
0
30
0
70
192
0
VERTEX
8
1
62
2
10
7.9
20
0.9
30
0
70
192
0
VERTEX
8
1
62
2
10
7
20
0.9
30
0
70
192
0
VERTEX
8
1
62
2
10
0
20
0
30
0
70
128
71
1
72
2
73
3
74
0
0
VERTEX
8
1
62
2
10
0
20
0
30
0
70
128
71
1
72
3
73
4
74
0
0
SEQEND
8
1
0
POLYLINE
8
2
62
40
66
1
10
0
20
0
30
0
70
64
0
VERTEX
8
2
62
40
10
7
20
1
30
0
70
192
0
VERTEX
8
2
62
40
10
7.9
20
1
30
0
70
192
0
VERTEX
8
2
62
40
10
7.9
20
1.9
30
0
70
192
0
VERTEX
8
2
62
40
10
7
20
1.9
30
0
70
192
0
VERTEX
8
2
62
40
10
0
20
0
30
0
70
128
71
1
72
2
73
3
74
0
0
VERTEX
8
2
62
40
10
0
20
0
30
0
70
128
71
1
72
3
73
4
74
0
0
SEQEND
8
2
0
POLYLINE
8
3
62
160
66
1
10
0
20
0
30
0
70
64
0
VERTEX
8
3
62
160
10
7
20
2
30
0
70
192
0
VERTEX
8
3
62
160
10
7.9
20
2
30
0
70
192
0
VERTEX
8
3
62
160
10
7.9
20
2.9
30
0
70
192
0
VERTEX
8
3
62
160
10
7
20
2.9
30
0
70
192
0
VERTEX
8
3
62
160
10
0
20
0
30
0
70
128
71
1
72
2
73
3
74
0
0
VERTEX
8
3
62
160
10
0
20
0
30
0
70
128
71
1
72
3
73
4
74
0
0
SEQEND
8
3
0
POLYLINE
8
4
62
33
66
1
10
0
20
0
30
0
70
64
0
VERTEX
8
4
62
33
10
7
20
3
30
0
70
192
0
VERTEX
8
4
62
33
10
7.9
20
3
30
0
70
192
0
VERTEX
8
4
62
33
10
7.9
20
3.9
30
0
70
192
0
VERTEX
8
4
62
33
10
7
20
3.9
30
0
70
192
0
VERTEX
8
4
62
33
10
0
20
0
30
0
70
128
71
1
72
2
73
3
74
0
0
VERTEX
8
4
62
33
10
0
20
0
30
0
70
128
71
1
72
3
73
4
74
0
0
SEQEND
8
4
0
POLYLINE
8
1
62
2
66
1
10
0
20
0
30
0
70
64
0
VERTEX
8
1
62
2
10
8
20
0
30
0
70
192
0
VERTEX
8
1
62
2
10
8.9
20
0
30
0
70
192
0
VERTEX
8
1
62
2
10
8.9
20
0.9
30
0
70
192
0
VERTEX
8
1
62
2
10
8
20
0.9
30
0
70
192
0
VERTEX
8
1
62
2
10
0
20
0
30
0
70
128
71
1
72
2
73
3
74
0
0
VERTEX
8
1
62
2
10
0
20
0
30
0
70
128
71
1
72
3
73
4
74
0
0
SEQEND
8
1
0
POLYLINE
8
2
62
2
66
1
10
0
20
0
30
0
70
64
0
VERTEX
8
2
62
2
10
8
20
1
30
0
70
192
0
VERTEX
8
2
62
2
10
8.9
20
1
30
0
70
192
0
VERTEX
8
2
62
2
10
8.9
20
1.9
30
0
70
192
0
VERTEX
8
2
62
2
10
8
20
1.9
30
0
70
192
0
VERTEX
8
2
62
2
10
0
20
0
30
0
70
128
71
1
72
2
73
3
74
0
0
VERTEX
8
2
62
2
10
0
20
0
30
0
70
128
71
1
72
3
73
4
74
0
0
SEQEND
8
2
0
POLYLINE
8
3
62
5
66
1
10
0
20
0
30
0
70
64
0
VERTEX
8
3
62
5
10
8
20
2
30
0
70
192
0
VERTEX
8
3
62
5
10
8.9
20
2
30
0
70
192
0
VERTEX
8
3
62
5
10
8.9
20
2.9
30
0
70
192
0
VERTEX
8
3
62
5
10
8
20
2.9
30
0
70
192
0
VERTEX
8
3
62
5
10
0
20
0
30
0
70
128
71
1
72
2
73
3
74
0
0
VERTEX
8
3
62
5
10
0
20
0
30
0
70
128
71
1
72
3
73
4
74
0
0
SEQEND
8
3
0
POLYLINE
8
4
62
33
66
1
10
0
20
0
30
0
70
64
0
VERTEX
8
4
62
33
10
8
20
3
30
0
70
192
0
VERTEX
8
4
62
33
10
8.9
20
3
30
0
70
192
0
VERTEX
8
4
62
33
10
8.9
20
3.9
30
0
70
192
0
VERTEX
8
4
62
33
10
8
20
3.9
30
0
70
192
0
VERTEX
8
4
62
33
10
0
20
0
30
0
70
128
71
1
72
2
73
3
74
0
0
VERTEX
8
4
62
33
10
0
20
0
30
0
70
128
71
1
72
3
73
4
74
0
0
SEQEND
8
4
0
POLYLINE
8
1
62
40
66
1
10
0
20
0
30
0
70
64
0
VERTEX
8
1
62
40
10
9
20
0
30
0
70
192
0
VERTEX
8
1
62
40
10
9.9
20
0
30
0
70
192
0
VERTEX
8
1
62
40
10
9.9
20
0.9
30
0
70
192
0
VERTEX
8
1
62
40
10
9
20
0.9
30
0
70
192
0
VERTEX
8
1
62
40
10
0
20
0
30
0
70
128
71
1
72
2
73
3
74
0
0
VERTEX
8
1
62
40
10
0
20
0
30
0
70
128
71
1
72
3
73
4
74
0
0
SEQEND
8
1
0
POLYLINE
8
2
62
2
66
1
10
0
20
0
30
0
70
64
0
VERTEX
8
2
62
2
10
9
20
1
30
0
70
192
0
VERTEX
8
2
62
2
10
9.9
20
1
30
0
70
192
0
VERTEX
8
2
62
2
10
9.9
20
1.9
30
0
70
192
0
VERTEX
8
2
62
2
10
9
20
1.9
30
0
70
192
0
VERTEX
8
2
62
2
10
0
20
0
30
0
70
128
71
1
72
2
73
3
74
0
0
VERTEX
8
2
62
2
10
0
20
0
30
0
70
128
71
1
72
3
73
4
74
0
0
SEQEND
8
2
0
POLYLINE
8
3
62
5
66
1
10
0
20
0
30
0
70
64
0
VERTEX
8
3
62
5
10
9
20
2
30
0
70
192
0
VERTEX
8
3
62
5
10
9.9
20
2
30
0
70
192
0
VERTEX
8
3
62
5
10
9.9
20
2.9
30
0
70
192
0
VERTEX
8
3
62
5
10
9
20
2.9
30
0
70
192
0
VERTEX
8
3
62
5
10
0
20
0
30
0
70
128
71
1
72
2
73
3
74
0
0
VERTEX
8
3
62
5
10
0
20
0
30
0
70
128
71
1
72
3
73
4
74
0
0
SEQEND
8
3
0
POLYLINE
8
4
62
11
66
1
10
0
20
0
30
0
70
64
0
VERTEX
8
4
62
11
10
9
20
3
30
0
70
192
0
VERTEX
8
4
62
11
10
9.9
20
3
30
0
70
192
0
VERTEX
8
4
62
11
10
9.9
20
3.9
30
0
70
192
0
VERTEX
8
4
62
11
10
9
20
3.9
30
0
70
192
0
VERTEX
8
4
62
11
10
0
20
0
30
0
70
128
71
1
72
2
73
3
74
0
0
VERTEX
8
4
62
11
10
0
20
0
30
0
70
128
71
1
72
3
73
4
74
0
0
SEQEND
8
4
0
POLYLINE
8
1
62
40
66
1
10
0
20
0
30
0
70
64
0
VERTEX
8
1
62
40
10
10
20
0
30
0
70
192
0
VERTEX
8
1
62
40
10
10.9
20
0
30
0
70
192
0
VERTEX
8
1
62
40
10
10.9
20
0.9
30
0
70
192
0
VERTEX
8
1
62
40
10
10
20
0.9
30
0
70
192
0
VERTEX
8
1
62
40
10
0
20
0
30
0
70
128
71
1
72
2
73
3
74
0
0
VERTEX
8
1
62
40
10
0
20
0
30
0
70
128
71
1
72
3
73
4
74
0
0
SEQEND
8
1
0
POLYLINE
8
2
62
2
66
1
10
0
20
0
30
0
70
64
0
VERTEX
8
2
62
2
10
10
20
1
30
0
70
192
0
VERTEX
8
2
62
2
10
10.9
20
1
30
0
70
192
0
VERTEX
8
2
62
2
10
10.9
20
1.9
30
0
70
192
0
VERTEX
8
2
62
2
10
10
20
1.9
30
0
70
192
0
VERTEX
8
2
62
2
10
0
20
0
30
0
70
128
71
1
72
2
73
3
74
0
0
VERTEX
8
2
62
2
10
0
20
0
30
0
70
128
71
1
72
3
73
4
74
0
0
SEQEND
8
2
0
POLYLINE
8
3
62
180
66
1
10
0
20
0
30
0
70
64
0
VERTEX
8
3
62
180
10
10
20
2
30
0
70
192
0
VERTEX
8
3
62
180
10
10.9
20
2
30
0
70
192
0
VERTEX
8
3
62
180
10
10.9
20
2.9
30
0
70
192
0
VERTEX
8
3
62
180
10
10
20
2.9
30
0
70
192
0
VERTEX
8
3
62
180
10
0
20
0
30
0
70
128
71
1
72
2
73
3
74
0
0
VERTEX
8
3
62
180
10
0
20
0
30
0
70
128
71
1
72
3
73
4
74
0
0
SEQEND
8
3
0
POLYLINE
8
4
62
11
66
1
10
0
20
0
30
0
70
64
0
VERTEX
8
4
62
11
10
10
20
3
30
0
70
192
0
VERTEX
8
4
62
11
10
10.9
20
3
30
0
70
192
0
VERTEX
8
4
62
11
10
10.9
20
3.9
30
0
70
192
0
VERTEX
8
4
62
11
10
10
20
3.9
30
0
70
192
0
VERTEX
8
4
62
11
10
0
20
0
30
0
70
128
71
1
72
2
73
3
74
0
0
VERTEX
8
4
62
11
10
0
20
0
30
0
70
128
71
1
72
3
73
4
74
0
0
SEQEND
8
4
0
POLYLINE
8
1
62
40
66
1
10
0
20
0
30
0
70
64
0
VERTEX
8
1
62
40
10
11
20
0
30
0
70
192
0
VERTEX
8
1
62
40
10
11.9
20
0
30
0
70
192
0
VERTEX
8
1
62
40
10
11.9
20
0.9
30
0
70
192
0
VERTEX
8
1
62
40
10
11
20
0.9
30
0
70
192
0
VERTEX
8
1
62
40
10
0
20
0
30
0
70
128
71
1
72
2
73
3
74
0
0
VERTEX
8
1
62
40
10
0
20
0
30
0
70
128
71
1
72
3
73
4
74
0
0
SEQEND
8
1
0
POLYLINE
8
2
62
2
66
1
10
0
20
0
30
0
70
64
0
VERTEX
8
2
62
2
10
11
20
1
30
0
70
192
0
VERTEX
8
2
62
2
10
11.9
20
1
30
0
70
192
0
VERTEX
8
2
62
2
10
11.9
20
1.9
30
0
70
192
0
VERTEX
8
2
62
2
10
11
20
1.9
30
0
70
192
0
VERTEX
8
2
62
2
10
0
20
0
30
0
70
128
71
1
72
2
73
3
74
0
0
VERTEX
8
2
62
2
10
0
20
0
30
0
70
128
71
1
72
3
73
4
74
0
0
SEQEND
8
2
0
POLYLINE
8
3
62
180
66
1
10
0
20
0
30
0
70
64
0
VERTEX
8
3
62
180
10
11
20
2
30
0
70
192
0
VERTEX
8
3
62
180
10
11.9
20
2
30
0
70
192
0
VERTEX
8
3
62
180
10
11.9
20
2.9
30
0
70
192
0
VERTEX
8
3
62
180
10
11
20
2.9
30
0
70
192
0
VERTEX
8
3
62
180
10
0
20
0
30
0
70
128
71
1
72
2
73
3
74
0
0
VERTEX
8
3
62
180
10
0
20
0
30
0
70
128
71
1
72
3
73
4
74
0
0
SEQEND
8
3
0
POLYLINE
8
4
62
21
66
1
10
0
20
0
30
0
70
64
0
VERTEX
8
4
62
21
10
11
20
3
30
0
70
192
0
VERTEX
8
4
62
21
10
11.9
20
3
30
0
70
192
0
VERTEX
8
4
62
21
10
11.9
20
3.9
30
0
70
192
0
VERTEX
8
4
62
21
10
11
20
3.9
30
0
70
192
0
VERTEX
8
4
62
21
10
0
20
0
30
0
70
128
71
1
72
2
73
3
74
0
0
VERTEX
8
4
62
21
10
0
20
0
30
0
70
128
71
1
72
3
73
4
74
0
0
SEQEND
8
4
0
POLYLINE
8
1
62
30
66
1
10
0
20
0
30
0
70
64
0
VERTEX
8
1
62
30
10
12
20
0
30
0
70
192
0
VERTEX
8
1
62
30
10
12.9
20
0
30
0
70
192
0
VERTEX
8
1
62
30
10
12.9
20
0.9
30
0
70
192
0
VERTEX
8
1
62
30
10
12
20
0.9
30
0
70
192
0
VERTEX
8
1
62
30
10
0
20
0
30
0
70
128
71
1
72
2
73
3
74
0
0
VERTEX
8
1
62
30
10
0
20
0
30
0
70
128
71
1
72
3
73
4
74
0
0
SEQEND
8
1
0
POLYLINE
8
2
62
2
66
1
10
0
20
0
30
0
70
64
0
VERTEX
8
2
62
2
10
12
20
1
30
0
70
192
0
VERTEX
8
2
62
2
10
12.9
20
1
30
0
70
192
0
VERTEX
8
2
62
2
10
12.9
20
1.9
30
0
70
192
0
VERTEX
8
2
62
2
10
12
20
1.9
30
0
70
192
0
VERTEX
8
2
62
2
10
0
20
0
30
0
70
128
71
1
72
2
73
3
74
0
0
VERTEX
8
2
62
2
10
0
20
0
30
0
70
128
71
1
72
3
73
4
74
0
0
SEQEND
8
2
0
POLYLINE
8
3
62
190
66
1
10
0
20
0
30
0
70
64
0
VERTEX
8
3
62
190
10
12
20
2
30
0
70
192
0
VERTEX
8
3
62
190
10
12.9
20
2
30
0
70
192
0
VERTEX
8
3
62
190
10
12.9
20
2.9
30
0
70
192
0
VERTEX
8
3
62
190
10
12
20
2.9
30
0
70
192
0
VERTEX
8
3
62
190
10
0
20
0
30
0
70
128
71
1
72
2
73
3
74
0
0
VERTEX
8
3
62
190
10
0
20
0
30
0
70
128
71
1
72
3
73
4
74
0
0
SEQEND
8
3
0
POLYLINE
8
4
62
21
66
1
10
0
20
0
30
0
70
64
0
VERTEX
8
4
62
21
10
12
20
3
30
0
70
192
0
VERTEX
8
4
62
21
10
12.9
20
3
30
0
70
192
0
VERTEX
8
4
62
21
10
12.9
20
3.9
30
0
70
192
0
VERTEX
8
4
62
21
10
12
20
3.9
30
0
70
192
0
VERTEX
8
4
62
21
10
0
20
0
30
0
70
128
71
1
72
2
73
3
74
0
0
VERTEX
8
4
62
21
10
0
20
0
30
0
70
128
71
1
72
3
73
4
74
0
0
SEQEND
8
4
0
POLYLINE
8
1
62
30
66
1
10
0
20
0
30
0
70
64
0
VERTEX
8
1
62
30
10
13
20
0
30
0
70
192
0
VERTEX
8
1
62
30
10
13.9
20
0
30
0
70
192
0
VERTEX
8
1
62
30
10
13.9
20
0.9
30
0
70
192
0
VERTEX
8
1
62
30
10
13
20
0.9
30
0
70
192
0
VERTEX
8
1
62
30
10
0
20
0
30
0
70
128
71
1
72
2
73
3
74
0
0
VERTEX
8
1
62
30
10
0
20
0
30
0
70
128
71
1
72
3
73
4
74
0
0
SEQEND
8
1
0
POLYLINE
8
2
62
2
66
1
10
0
20
0
30
0
70
64
0
VERTEX
8
2
62
2
10
13
20
1
30
0
70
192
0
VERTEX
8
2
62
2
10
13.9
20
1
30
0
70
192
0
VERTEX
8
2
62
2
10
13.9
20
1.9
30
0
70
192
0
VERTEX
8
2
62
2
10
13
20
1.9
30
0
70
192
0
VERTEX
8
2
62
2
10
0
20
0
30
0
70
128
71
1
72
2
73
3
74
0
0
VERTEX
8
2
62
2
10
0
20
0
30
0
70
128
71
1
72
3
73
4
74
0
0
SEQEND
8
2
0
POLYLINE
8
3
62
190
66
1
10
0
20
0
30
0
70
64
0
VERTEX
8
3
62
190
10
13
20
2
30
0
70
192
0
VERTEX
8
3
62
190
10
13.9
20
2
30
0
70
192
0
VERTEX
8
3
62
190
10
13.9
20
2.9
30
0
70
192
0
VERTEX
8
3
62
190
10
13
20
2.9
30
0
70
192
0
VERTEX
8
3
62
190
10
0
20
0
30
0
70
128
71
1
72
2
73
3
74
0
0
VERTEX
8
3
62
190
10
0
20
0
30
0
70
128
71
1
72
3
73
4
74
0
0
SEQEND
8
3
0
POLYLINE
8
4
62
21
66
1
10
0
20
0
30
0
70
64
0
VERTEX
8
4
62
21
10
13
20
3
30
0
70
192
0
VERTEX
8
4
62
21
10
13.9
20
3
30
0
70
192
0
VERTEX
8
4
62
21
10
13.9
20
3.9
30
0
70
192
0
VERTEX
8
4
62
21
10
13
20
3.9
30
0
70
192
0
VERTEX
8
4
62
21
10
0
20
0
30
0
70
128
71
1
72
2
73
3
74
0
0
VERTEX
8
4
62
21
10
0
20
0
30
0
70
128
71
1
72
3
73
4
74
0
0
SEQEND
8
4
0
POLYLINE
8
1
62
30
66
1
10
0
20
0
30
0
70
64
0
VERTEX
8
1
62
30
10
14
20
0
30
0
70
192
0
VERTEX
8
1
62
30
10
14.9
20
0
30
0
70
192
0
VERTEX
8
1
62
30
10
14.9
20
0.9
30
0
70
192
0
VERTEX
8
1
62
30
10
14
20
0.9
30
0
70
192
0
VERTEX
8
1
62
30
10
0
20
0
30
0
70
128
71
1
72
2
73
3
74
0
0
VERTEX
8
1
62
30
10
0
20
0
30
0
70
128
71
1
72
3
73
4
74
0
0
SEQEND
8
1
0
POLYLINE
8
2
62
51
66
1
10
0
20
0
30
0
70
64
0
VERTEX
8
2
62
51
10
14
20
1
30
0
70
192
0
VERTEX
8
2
62
51
10
14.9
20
1
30
0
70
192
0
VERTEX
8
2
62
51
10
14.9
20
1.9
30
0
70
192
0
VERTEX
8
2
62
51
10
14
20
1.9
30
0
70
192
0
VERTEX
8
2
62
51
10
0
20
0
30
0
70
128
71
1
72
2
73
3
74
0
0
VERTEX
8
2
62
51
10
0
20
0
30
0
70
128
71
1
72
3
73
4
74
0
0
SEQEND
8
2
0
POLYLINE
8
3
62
200
66
1
10
0
20
0
30
0
70
64
0
VERTEX
8
3
62
200
10
14
20
2
30
0
70
192
0
VERTEX
8
3
62
200
10
14.9
20
2
30
0
70
192
0
VERTEX
8
3
62
200
10
14.9
20
2.9
30
0
70
192
0
VERTEX
8
3
62
200
10
14
20
2.9
30
0
70
192
0
VERTEX
8
3
62
200
10
0
20
0
30
0
70
128
71
1
72
2
73
3
74
0
0
VERTEX
8
3
62
200
10
0
20
0
30
0
70
128
71
1
72
3
73
4
74
0
0
SEQEND
8
3
0
POLYLINE
8
4
62
21
66
1
10
0
20
0
30
0
70
64
0
VERTEX
8
4
62
21
10
14
20
3
30
0
70
192
0
VERTEX
8
4
62
21
10
14.9
20
3
30
0
70
192
0
VERTEX
8
4
62
21
10
14.9
20
3.9
30
0
70
192
0
VERTEX
8
4
62
21
10
14
20
3.9
30
0
70
192
0
VERTEX
8
4
62
21
10
0
20
0
30
0
70
128
71
1
72
2
73
3
74
0
0
VERTEX
8
4
62
21
10
0
20
0
30
0
70
128
71
1
72
3
73
4
74
0
0
SEQEND
8
4
0
POLYLINE
8
1
62
30
66
1
10
0
20
0
30
0
70
64
0
VERTEX
8
1
62
30
10
15
20
0
30
0
70
192
0
VERTEX
8
1
62
30
10
15.9
20
0
30
0
70
192
0
VERTEX
8
1
62
30
10
15.9
20
0.9
30
0
70
192
0
VERTEX
8
1
62
30
10
15
20
0.9
30
0
70
192
0
VERTEX
8
1
62
30
10
0
20
0
30
0
70
128
71
1
72
2
73
3
74
0
0
VERTEX
8
1
62
30
10
0
20
0
30
0
70
128
71
1
72
3
73
4
74
0
0
SEQEND
8
1
0
POLYLINE
8
2
62
51
66
1
10
0
20
0
30
0
70
64
0
VERTEX
8
2
62
51
10
15
20
1
30
0
70
192
0
VERTEX
8
2
62
51
10
15.9
20
1
30
0
70
192
0
VERTEX
8
2
62
51
10
15.9
20
1.9
30
0
70
192
0
VERTEX
8
2
62
51
10
15
20
1.9
30
0
70
192
0
VERTEX
8
2
62
51
10
0
20
0
30
0
70
128
71
1
72
2
73
3
74
0
0
VERTEX
8
2
62
51
10
0
20
0
30
0
70
128
71
1
72
3
73
4
74
0
0
SEQEND
8
2
0
POLYLINE
8
3
62
200
66
1
10
0
20
0
30
0
70
64
0
VERTEX
8
3
62
200
10
15
20
2
30
0
70
192
0
VERTEX
8
3
62
200
10
15.9
20
2
30
0
70
192
0
VERTEX
8
3
62
200
10
15.9
20
2.9
30
0
70
192
0
VERTEX
8
3
62
200
10
15
20
2.9
30
0
70
192
0
VERTEX
8
3
62
200
10
0
20
0
30
0
70
128
71
1
72
2
73
3
74
0
0
VERTEX
8
3
62
200
10
0
20
0
30
0
70
128
71
1
72
3
73
4
74
0
0
SEQEND
8
3
0
POLYLINE
8
4
62
21
66
1
10
0
20
0
30
0
70
64
0
VERTEX
8
4
62
21
10
15
20
3
30
0
70
192
0
VERTEX
8
4
62
21
10
15.9
20
3
30
0
70
192
0
VERTEX
8
4
62
21
10
15.9
20
3.9
30
0
70
192
0
VERTEX
8
4
62
21
10
15
20
3.9
30
0
70
192
0
VERTEX
8
4
62
21
10
0
20
0
30
0
70
128
71
1
72
2
73
3
74
0
0
VERTEX
8
4
62
21
10
0
20
0
30
0
70
128
71
1
72
3
73
4
74
0
0
SEQEND
8
4
0
POLYLINE
8
1
62
20
66
1
10
0
20
0
30
0
70
64
0
VERTEX
8
1
62
20
10
16
20
0
30
0
70
192
0
VERTEX
8
1
62
20
10
16.9
20
0
30
0
70
192
0
VERTEX
8
1
62
20
10
16.9
20
0.9
30
0
70
192
0
VERTEX
8
1
62
20
10
16
20
0.9
30
0
70
192
0
VERTEX
8
1
62
20
10
0
20
0
30
0
70
128
71
1
72
2
73
3
74
0
0
VERTEX
8
1
62
20
10
0
20
0
30
0
70
128
71
1
72
3
73
4
74
0
0
SEQEND
8
1
0
POLYLINE
8
2
62
51
66
1
10
0
20
0
30
0
70
64
0
VERTEX
8
2
62
51
10
16
20
1
30
0
70
192
0
VERTEX
8
2
62
51
10
16.9
20
1
30
0
70
192
0
VERTEX
8
2
62
51
10
16.9
20
1.9
30
0
70
192
0
VERTEX
8
2
62
51
10
16
20
1.9
30
0
70
192
0
VERTEX
8
2
62
51
10
0
20
0
30
0
70
128
71
1
72
2
73
3
74
0
0
VERTEX
8
2
62
51
10
0
20
0
30
0
70
128
71
1
72
3
73
4
74
0
0
SEQEND
8
2
0
POLYLINE
8
3
62
6
66
1
10
0
20
0
30
0
70
64
0
VERTEX
8
3
62
6
10
16
20
2
30
0
70
192
0
VERTEX
8
3
62
6
10
16.9
20
2
30
0
70
192
0
VERTEX
8
3
62
6
10
16.9
20
2.9
30
0
70
192
0
VERTEX
8
3
62
6
10
16
20
2.9
30
0
70
192
0
VERTEX
8
3
62
6
10
0
20
0
30
0
70
128
71
1
72
2
73
3
74
0
0
VERTEX
8
3
62
6
10
0
20
0
30
0
70
128
71
1
72
3
73
4
74
0
0
SEQEND
8
3
0
POLYLINE
8
4
62
21
66
1
10
0
20
0
30
0
70
64
0
VERTEX
8
4
62
21
10
16
20
3
30
0
70
192
0
VERTEX
8
4
62
21
10
16.9
20
3
30
0
70
192
0
VERTEX
8
4
62
21
10
16.9
20
3.9
30
0
70
192
0
VERTEX
8
4
62
21
10
16
20
3.9
30
0
70
192
0
VERTEX
8
4
62
21
10
0
20
0
30
0
70
128
71
1
72
2
73
3
74
0
0
VERTEX
8
4
62
21
10
0
20
0
30
0
70
128
71
1
72
3
73
4
74
0
0
SEQEND
8
4
0
POLYLINE
8
1
62
20
66
1
10
0
20
0
30
0
70
64
0
VERTEX
8
1
62
20
10
17
20
0
30
0
70
192
0
VERTEX
8
1
62
20
10
17.9
20
0
30
0
70
192
0
VERTEX
8
1
62
20
10
17.9
20
0.9
30
0
70
192
0
VERTEX
8
1
62
20
10
17
20
0.9
30
0
70
192
0
VERTEX
8
1
62
20
10
0
20
0
30
0
70
128
71
1
72
2
73
3
74
0
0
VERTEX
8
1
62
20
10
0
20
0
30
0
70
128
71
1
72
3
73
4
74
0
0
SEQEND
8
1
0
POLYLINE
8
2
62
51
66
1
10
0
20
0
30
0
70
64
0
VERTEX
8
2
62
51
10
17
20
1
30
0
70
192
0
VERTEX
8
2
62
51
10
17.9
20
1
30
0
70
192
0
VERTEX
8
2
62
51
10
17.9
20
1.9
30
0
70
192
0
VERTEX
8
2
62
51
10
17
20
1.9
30
0
70
192
0
VERTEX
8
2
62
51
10
0
20
0
30
0
70
128
71
1
72
2
73
3
74
0
0
VERTEX
8
2
62
51
10
0
20
0
30
0
70
128
71
1
72
3
73
4
74
0
0
SEQEND
8
2
0
POLYLINE
8
3
62
6
66
1
10
0
20
0
30
0
70
64
0
VERTEX
8
3
62
6
10
17
20
2
30
0
70
192
0
VERTEX
8
3
62
6
10
17.9
20
2
30
0
70
192
0
VERTEX
8
3
62
6
10
17.9
20
2.9
30
0
70
192
0
VERTEX
8
3
62
6
10
17
20
2.9
30
0
70
192
0
VERTEX
8
3
62
6
10
0
20
0
30
0
70
128
71
1
72
2
73
3
74
0
0
VERTEX
8
3
62
6
10
0
20
0
30
0
70
128
71
1
72
3
73
4
74
0
0
SEQEND
8
3
0
POLYLINE
8
4
62
21
66
1
10
0
20
0
30
0
70
64
0
VERTEX
8
4
62
21
10
17
20
3
30
0
70
192
0
VERTEX
8
4
62
21
10
17.9
20
3
30
0
70
192
0
VERTEX
8
4
62
21
10
17.9
20
3.9
30
0
70
192
0
VERTEX
8
4
62
21
10
17
20
3.9
30
0
70
192
0
VERTEX
8
4
62
21
10
0
20
0
30
0
70
128
71
1
72
2
73
3
74
0
0
VERTEX
8
4
62
21
10
0
20
0
30
0
70
128
71
1
72
3
73
4
74
0
0
SEQEND
8
4
0
POLYLINE
8
1
62
20
66
1
10
0
20
0
30
0
70
64
0
VERTEX
8
1
62
20
10
18
20
0
30
0
70
192
0
VERTEX
8
1
62
20
10
18.9
20
0
30
0
70
192
0
VERTEX
8
1
62
20
10
18.9
20
0.9
30
0
70
192
0
VERTEX
8
1
62
20
10
18
20
0.9
30
0
70
192
0
VERTEX
8
1
62
20
10
0
20
0
30
0
70
128
71
1
72
2
73
3
74
0
0
VERTEX
8
1
62
20
10
0
20
0
30
0
70
128
71
1
72
3
73
4
74
0
0
SEQEND
8
1
0
POLYLINE
8
2
62
51
66
1
10
0
20
0
30
0
70
64
0
VERTEX
8
2
62
51
10
18
20
1
30
0
70
192
0
VERTEX
8
2
62
51
10
18.9
20
1
30
0
70
192
0
VERTEX
8
2
62
51
10
18.9
20
1.9
30
0
70
192
0
VERTEX
8
2
62
51
10
18
20
1.9
30
0
70
192
0
VERTEX
8
2
62
51
10
0
20
0
30
0
70
128
71
1
72
2
73
3
74
0
0
VERTEX
8
2
62
51
10
0
20
0
30
0
70
128
71
1
72
3
73
4
74
0
0
SEQEND
8
2
0
POLYLINE
8
3
62
220
66
1
10
0
20
0
30
0
70
64
0
VERTEX
8
3
62
220
10
18
20
2
30
0
70
192
0
VERTEX
8
3
62
220
10
18.9
20
2
30
0
70
192
0
VERTEX
8
3
62
220
10
18.9
20
2.9
30
0
70
192
0
VERTEX
8
3
62
220
10
18
20
2.9
30
0
70
192
0
VERTEX
8
3
62
220
10
0
20
0
30
0
70
128
71
1
72
2
73
3
74
0
0
VERTEX
8
3
62
220
10
0
20
0
30
0
70
128
71
1
72
3
73
4
74
0
0
SEQEND
8
3
0
POLYLINE
8
4
62
21
66
1
10
0
20
0
30
0
70
64
0
VERTEX
8
4
62
21
10
18
20
3
30
0
70
192
0
VERTEX
8
4
62
21
10
18.9
20
3
30
0
70
192
0
VERTEX
8
4
62
21
10
18.9
20
3.9
30
0
70
192
0
VERTEX
8
4
62
21
10
18
20
3.9
30
0
70
192
0
VERTEX
8
4
62
21
10
0
20
0
30
0
70
128
71
1
72
2
73
3
74
0
0
VERTEX
8
4
62
21
10
0
20
0
30
0
70
128
71
1
72
3
73
4
74
0
0
SEQEND
8
4
0
POLYLINE
8
1
62
1
66
1
10
0
20
0
30
0
70
64
0
VERTEX
8
1
62
1
10
19
20
0
30
0
70
192
0
VERTEX
8
1
62
1
10
19.9
20
0
30
0
70
192
0
VERTEX
8
1
62
1
10
19.9
20
0.9
30
0
70
192
0
VERTEX
8
1
62
1
10
19
20
0.9
30
0
70
192
0
VERTEX
8
1
62
1
10
0
20
0
30
0
70
128
71
1
72
2
73
3
74
0
0
VERTEX
8
1
62
1
10
0
20
0
30
0
70
128
71
1
72
3
73
4
74
0
0
SEQEND
8
1
0
POLYLINE
8
2
62
51
66
1
10
0
20
0
30
0
70
64
0
VERTEX
8
2
62
51
10
19
20
1
30
0
70
192
0
VERTEX
8
2
62
51
10
19.9
20
1
30
0
70
192
0
VERTEX
8
2
62
51
10
19.9
20
1.9
30
0
70
192
0
VERTEX
8
2
62
51
10
19
20
1.9
30
0
70
192
0
VERTEX
8
2
62
51
10
0
20
0
30
0
70
128
71
1
72
2
73
3
74
0
0
VERTEX
8
2
62
51
10
0
20
0
30
0
70
128
71
1
72
3
73
4
74
0
0
SEQEND
8
2
0
POLYLINE
8
3
62
220
66
1
10
0
20
0
30
0
70
64
0
VERTEX
8
3
62
220
10
19
20
2
30
0
70
192
0
VERTEX
8
3
62
220
10
19.9
20
2
30
0
70
192
0
VERTEX
8
3
62
220
10
19.9
20
2.9
30
0
70
192
0
VERTEX
8
3
62
220
10
19
20
2.9
30
0
70
192
0
VERTEX
8
3
62
220
10
0
20
0
30
0
70
128
71
1
72
2
73
3
74
0
0
VERTEX
8
3
62
220
10
0
20
0
30
0
70
128
71
1
72
3
73
4
74
0
0
SEQEND
8
3
0
POLYLINE
8
4
62
31
66
1
10
0
20
0
30
0
70
64
0
VERTEX
8
4
62
31
10
19
20
3
30
0
70
192
0
VERTEX
8
4
62
31
10
19.9
20
3
30
0
70
192
0
VERTEX
8
4
62
31
10
19.9
20
3.9
30
0
70
192
0
VERTEX
8
4
62
31
10
19
20
3.9
30
0
70
192
0
VERTEX
8
4
62
31
10
0
20
0
30
0
70
128
71
1
72
2
73
3
74
0
0
VERTEX
8
4
62
31
10
0
20
0
30
0
70
128
71
1
72
3
73
4
74
0
0
SEQEND
8
4
0
POLYLINE
8
1
62
1
66
1
10
0
20
0
30
0
70
64
0
VERTEX
8
1
62
1
10
20
20
0
30
0
70
192
0
VERTEX
8
1
62
1
10
20.9
20
0
30
0
70
192
0
VERTEX
8
1
62
1
10
20.9
20
0.9
30
0
70
192
0
VERTEX
8
1
62
1
10
20
20
0.9
30
0
70
192
0
VERTEX
8
1
62
1
10
0
20
0
30
0
70
128
71
1
72
2
73
3
74
0
0
VERTEX
8
1
62
1
10
0
20
0
30
0
70
128
71
1
72
3
73
4
74
0
0
SEQEND
8
1
0
POLYLINE
8
2
62
51
66
1
10
0
20
0
30
0
70
64
0
VERTEX
8
2
62
51
10
20
20
1
30
0
70
192
0
VERTEX
8
2
62
51
10
20.9
20
1
30
0
70
192
0
VERTEX
8
2
62
51
10
20.9
20
1.9
30
0
70
192
0
VERTEX
8
2
62
51
10
20
20
1.9
30
0
70
192
0
VERTEX
8
2
62
51
10
0
20
0
30
0
70
128
71
1
72
2
73
3
74
0
0
VERTEX
8
2
62
51
10
0
20
0
30
0
70
128
71
1
72
3
73
4
74
0
0
SEQEND
8
2
0
POLYLINE
8
3
62
230
66
1
10
0
20
0
30
0
70
64
0
VERTEX
8
3
62
230
10
20
20
2
30
0
70
192
0
VERTEX
8
3
62
230
10
20.9
20
2
30
0
70
192
0
VERTEX
8
3
62
230
10
20.9
20
2.9
30
0
70
192
0
VERTEX
8
3
62
230
10
20
20
2.9
30
0
70
192
0
VERTEX
8
3
62
230
10
0
20
0
30
0
70
128
71
1
72
2
73
3
74
0
0
VERTEX
8
3
62
230
10
0
20
0
30
0
70
128
71
1
72
3
73
4
74
0
0
SEQEND
8
3
0
POLYLINE
8
4
62
31
66
1
10
0
20
0
30
0
70
64
0
VERTEX
8
4
62
31
10
20
20
3
30
0
70
192
0
VERTEX
8
4
62
31
10
20.9
20
3
30
0
70
192
0
VERTEX
8
4
62
31
10
20.9
20
3.9
30
0
70
192
0
VERTEX
8
4
62
31
10
20
20
3.9
30
0
70
192
0
VERTEX
8
4
62
31
10
0
20
0
30
0
70
128
71
1
72
2
73
3
74
0
0
VERTEX
8
4
62
31
10
0
20
0
30
0
70
128
71
1
72
3
73
4
74
0
0
SEQEND
8
4
0
POLYLINE
8
1
62
1
66
1
10
0
20
0
30
0
70
64
0
VERTEX
8
1
62
1
10
21
20
0
30
0
70
192
0
VERTEX
8
1
62
1
10
21.9
20
0
30
0
70
192
0
VERTEX
8
1
62
1
10
21.9
20
0.9
30
0
70
192
0
VERTEX
8
1
62
1
10
21
20
0.9
30
0
70
192
0
VERTEX
8
1
62
1
10
0
20
0
30
0
70
128
71
1
72
2
73
3
74
0
0
VERTEX
8
1
62
1
10
0
20
0
30
0
70
128
71
1
72
3
73
4
74
0
0
SEQEND
8
1
0
POLYLINE
8
2
62
254
66
1
10
0
20
0
30
0
70
64
0
VERTEX
8
2
62
254
10
21
20
1
30
0
70
192
0
VERTEX
8
2
62
254
10
21.9
20
1
30
0
70
192
0
VERTEX
8
2
62
254
10
21.9
20
1.9
30
0
70
192
0
VERTEX
8
2
62
254
10
21
20
1.9
30
0
70
192
0
VERTEX
8
2
62
254
10
0
20
0
30
0
70
128
71
1
72
2
73
3
74
0
0
VERTEX
8
2
62
254
10
0
20
0
30
0
70
128
71
1
72
3
73
4
74
0
0
SEQEND
8
2
0
POLYLINE
8
3
62
230
66
1
10
0
20
0
30
0
70
64
0
VERTEX
8
3
62
230
10
21
20
2
30
0
70
192
0
VERTEX
8
3
62
230
10
21.9
20
2
30
0
70
192
0
VERTEX
8
3
62
230
10
21.9
20
2.9
30
0
70
192
0
VERTEX
8
3
62
230
10
21
20
2.9
30
0
70
192
0
VERTEX
8
3
62
230
10
0
20
0
30
0
70
128
71
1
72
2
73
3
74
0
0
VERTEX
8
3
62
230
10
0
20
0
30
0
70
128
71
1
72
3
73
4
74
0
0
SEQEND
8
3
0
POLYLINE
8
4
62
31
66
1
10
0
20
0
30
0
70
64
0
VERTEX
8
4
62
31
10
21
20
3
30
0
70
192
0
VERTEX
8
4
62
31
10
21.9
20
3
30
0
70
192
0
VERTEX
8
4
62
31
10
21.9
20
3.9
30
0
70
192
0
VERTEX
8
4
62
31
10
21
20
3.9
30
0
70
192
0
VERTEX
8
4
62
31
10
0
20
0
30
0
70
128
71
1
72
2
73
3
74
0
0
VERTEX
8
4
62
31
10
0
20
0
30
0
70
128
71
1
72
3
73
4
74
0
0
SEQEND
8
4
0
POLYLINE
8
1
62
1
66
1
10
0
20
0
30
0
70
64
0
VERTEX
8
1
62
1
10
22
20
0
30
0
70
192
0
VERTEX
8
1
62
1
10
22.9
20
0
30
0
70
192
0
VERTEX
8
1
62
1
10
22.9
20
0.9
30
0
70
192
0
VERTEX
8
1
62
1
10
22
20
0.9
30
0
70
192
0
VERTEX
8
1
62
1
10
0
20
0
30
0
70
128
71
1
72
2
73
3
74
0
0
VERTEX
8
1
62
1
10
0
20
0
30
0
70
128
71
1
72
3
73
4
74
0
0
SEQEND
8
1
0
POLYLINE
8
2
62
7
66
1
10
0
20
0
30
0
70
64
0
VERTEX
8
2
62
7
10
22
20
1
30
0
70
192
0
VERTEX
8
2
62
7
10
22.9
20
1
30
0
70
192
0
VERTEX
8
2
62
7
10
22.9
20
1.9
30
0
70
192
0
VERTEX
8
2
62
7
10
22
20
1.9
30
0
70
192
0
VERTEX
8
2
62
7
10
0
20
0
30
0
70
128
71
1
72
2
73
3
74
0
0
VERTEX
8
2
62
7
10
0
20
0
30
0
70
128
71
1
72
3
73
4
74
0
0
SEQEND
8
2
0
POLYLINE
8
3
62
240
66
1
10
0
20
0
30
0
70
64
0
VERTEX
8
3
62
240
10
22
20
2
30
0
70
192
0
VERTEX
8
3
62
240
10
22.9
20
2
30
0
70
192
0
VERTEX
8
3
62
240
10
22.9
20
2.9
30
0
70
192
0
VERTEX
8
3
62
240
10
22
20
2.9
30
0
70
192
0
VERTEX
8
3
62
240
10
0
20
0
30
0
70
128
71
1
72
2
73
3
74
0
0
VERTEX
8
3
62
240
10
0
20
0
30
0
70
128
71
1
72
3
73
4
74
0
0
SEQEND
8
3
0
POLYLINE
8
4
62
31
66
1
10
0
20
0
30
0
70
64
0
VERTEX
8
4
62
31
10
22
20
3
30
0
70
192
0
VERTEX
8
4
62
31
10
22.9
20
3
30
0
70
192
0
VERTEX
8
4
62
31
10
22.9
20
3.9
30
0
70
192
0
VERTEX
8
4
62
31
10
22
20
3.9
30
0
70
192
0
VERTEX
8
4
62
31
10
0
20
0
30
0
70
128
71
1
72
2
73
3
74
0
0
VERTEX
8
4
62
31
10
0
20
0
30
0
70
128
71
1
72
3
73
4
74
0
0
SEQEND
8
4
0
POLYLINE
8
1
62
12
66
1
10
0
20
0
30
0
70
64
0
VERTEX
8
1
62
12
10
23
20
0
30
0
70
192
0
VERTEX
8
1
62
12
10
23.9
20
0
30
0
70
192
0
VERTEX
8
1
62
12
10
23.9
20
0.9
30
0
70
192
0
VERTEX
8
1
62
12
10
23
20
0.9
30
0
70
192
0
VERTEX
8
1
62
12
10
0
20
0
30
0
70
128
71
1
72
2
73
3
74
0
0
VERTEX
8
1
62
12
10
0
20
0
30
0
70
128
71
1
72
3
73
4
74
0
0
SEQEND
8
1
0
POLYLINE
8
2
62
7
66
1
10
0
20
0
30
0
70
64
0
VERTEX
8
2
62
7
10
23
20
1
30
0
70
192
0
VERTEX
8
2
62
7
10
23.9
20
1
30
0
70
192
0
VERTEX
8
2
62
7
10
23.9
20
1.9
30
0
70
192
0
VERTEX
8
2
62
7
10
23
20
1.9
30
0
70
192
0
VERTEX
8
2
62
7
10
0
20
0
30
0
70
128
71
1
72
2
73
3
74
0
0
VERTEX
8
2
62
7
10
0
20
0
30
0
70
128
71
1
72
3
73
4
74
0
0
SEQEND
8
2
0
POLYLINE
8
3
62
240
66
1
10
0
20
0
30
0
70
64
0
VERTEX
8
3
62
240
10
23
20
2
30
0
70
192
0
VERTEX
8
3
62
240
10
23.9
20
2
30
0
70
192
0
VERTEX
8
3
62
240
10
23.9
20
2.9
30
0
70
192
0
VERTEX
8
3
62
240
10
23
20
2.9
30
0
70
192
0
VERTEX
8
3
62
240
10
0
20
0
30
0
70
128
71
1
72
2
73
3
74
0
0
VERTEX
8
3
62
240
10
0
20
0
30
0
70
128
71
1
72
3
73
4
74
0
0
SEQEND
8
3
0
POLYLINE
8
4
62
31
66
1
10
0
20
0
30
0
70
64
0
VERTEX
8
4
62
31
10
23
20
3
30
0
70
192
0
VERTEX
8
4
62
31
10
23.9
20
3
30
0
70
192
0
VERTEX
8
4
62
31
10
23.9
20
3.9
30
0
70
192
0
VERTEX
8
4
62
31
10
23
20
3.9
30
0
70
192
0
VERTEX
8
4
62
31
10
0
20
0
30
0
70
128
71
1
72
2
73
3
74
0
0
VERTEX
8
4
62
31
10
0
20
0
30
0
70
128
71
1
72
3
73
4
74
0
0
SEQEND
8
4
0
POLYLINE
8
1
62
12
66
1
10
0
20
0
30
0
70
64
0
VERTEX
8
1
62
12
10
24
20
0
30
0
70
192
0
VERTEX
8
1
62
12
10
24.9
20
0
30
0
70
192
0
VERTEX
8
1
62
12
10
24.9
20
0.9
30
0
70
192
0
VERTEX
8
1
62
12
10
24
20
0.9
30
0
70
192
0
VERTEX
8
1
62
12
10
0
20
0
30
0
70
128
71
1
72
2
73
3
74
0
0
VERTEX
8
1
62
12
10
0
20
0
30
0
70
128
71
1
72
3
73
4
74
0
0
SEQEND
8
1
0
POLYLINE
8
2
62
7
66
1
10
0
20
0
30
0
70
64
0
VERTEX
8
2
62
7
10
24
20
1
30
0
70
192
0
VERTEX
8
2
62
7
10
24.9
20
1
30
0
70
192
0
VERTEX
8
2
62
7
10
24.9
20
1.9
30
0
70
192
0
VERTEX
8
2
62
7
10
24
20
1.9
30
0
70
192
0
VERTEX
8
2
62
7
10
0
20
0
30
0
70
128
71
1
72
2
73
3
74
0
0
VERTEX
8
2
62
7
10
0
20
0
30
0
70
128
71
1
72
3
73
4
74
0
0
SEQEND
8
2
0
POLYLINE
8
3
62
1
66
1
10
0
20
0
30
0
70
64
0
VERTEX
8
3
62
1
10
24
20
2
30
0
70
192
0
VERTEX
8
3
62
1
10
24.9
20
2
30
0
70
192
0
VERTEX
8
3
62
1
10
24.9
20
2.9
30
0
70
192
0
VERTEX
8
3
62
1
10
24
20
2.9
30
0
70
192
0
VERTEX
8
3
62
1
10
0
20
0
30
0
70
128
71
1
72
2
73
3
74
0
0
VERTEX
8
3
62
1
10
0
20
0
30
0
70
128
71
1
72
3
73
4
74
0
0
SEQEND
8
3
0
POLYLINE
8
4
62
31
66
1
10
0
20
0
30
0
70
64
0
VERTEX
8
4
62
31
10
24
20
3
30
0
70
192
0
VERTEX
8
4
62
31
10
24.9
20
3
30
0
70
192
0
VERTEX
8
4
62
31
10
24.9
20
3.9
30
0
70
192
0
VERTEX
8
4
62
31
10
24
20
3.9
30
0
70
192
0
VERTEX
8
4
62
31
10
0
20
0
30
0
70
128
71
1
72
2
73
3
74
0
0
VERTEX
8
4
62
31
10
0
20
0
30
0
70
128
71
1
72
3
73
4
74
0
0
SEQEND
8
4
0
ENDSEC
0
EOF
