0
SECTION
2
HEADER
9
$ACADVER
1
AC1006
9
$INSUNITS
70
6
0
ENDSEC
0
SECTION
2
ENTITIES
0
POLYLINE
8
0
62
1
66
1
10
0
20
0
30
0
70
64
0
VERTEX
8
0
62
1
10
1
20
2
30
0
70
192
0
VERTEX
8
0
62
1
10
1.9
20
2
30
0
70
192
0
VERTEX
8
0
62
1
10
1.9
20
2.9
30
0
70
192
0
VERTEX
8
0
62
1
10
1
20
2.9
30
0
70
192
0
VERTEX
8
0
62
1
10
0
20
0
30
0
70
128
71
1
72
2
73
3
74
0
0
VERTEX
8
0
62
1
10
0
20
0
30
0
70
128
71
1
72
3
73
4
74
0
0
SEQEND
8
0
0
TEXT
8
0
62
255
10
1
20
3
30
0
210
0
220
0
230
1
40
3.000000e-001
51
0
50
0
39
0
72
0
73
0
1
1
0
POLYLINE
8
0
62
2
66
1
10
0
20
0
30
0
70
64
0
VERTEX
8
0
62
2
10
1
20
4
30
0
70
192
0
VERTEX
8
0
62
2
10
1.9
20
4
30
0
70
192
0
VERTEX
8
0
62
2
10
1.9
20
4.9
30
0
70
192
0
VERTEX
8
0
62
2
10
1
20
4.9
30
0
70
192
0
VERTEX
8
0
62
2
10
0
20
0
30
0
70
128
71
1
72
2
73
3
74
0
0
VERTEX
8
0
62
2
10
0
20
0
30
0
70
128
71
1
72
3
73
4
74
0
0
SEQEND
8
0
0
TEXT
8
0
62
255
10
1
20
5
30
0
210
0
220
0
230
1
40
3.000000e-001
51
0
50
0
39
0
72
0
73
0
1
2
0
POLYLINE
8
0
62
3
66
1
10
0
20
0
30
0
70
64
0
VERTEX
8
0
62
3
10
1
20
6
30
0
70
192
0
VERTEX
8
0
62
3
10
1.9
20
6
30
0
70
192
0
VERTEX
8
0
62
3
10
1.9
20
6.9
30
0
70
192
0
VERTEX
8
0
62
3
10
1
20
6.9
30
0
70
192
0
VERTEX
8
0
62
3
10
0
20
0
30
0
70
128
71
1
72
2
73
3
74
0
0
VERTEX
8
0
62
3
10
0
20
0
30
0
70
128
71
1
72
3
73
4
74
0
0
SEQEND
8
0
0
TEXT
8
0
62
255
10
1
20
7
30
0
210
0
220
0
230
1
40
3.000000e-001
51
0
50
0
39
0
72
0
73
0
1
3
0
POLYLINE
8
0
62
4
66
1
10
0
20
0
30
0
70
64
0
VERTEX
8
0
62
4
10
1
20
8
30
0
70
192
0
VERTEX
8
0
62
4
10
1.9
20
8
30
0
70
192
0
VERTEX
8
0
62
4
10
1.9
20
8.9
30
0
70
192
0
VERTEX
8
0
62
4
10
1
20
8.9
30
0
70
192
0
VERTEX
8
0
62
4
10
0
20
0
30
0
70
128
71
1
72
2
73
3
74
0
0
VERTEX
8
0
62
4
10
0
20
0
30
0
70
128
71
1
72
3
73
4
74
0
0
SEQEND
8
0
0
TEXT
8
0
62
255
10
1
20
9
30
0
210
0
220
0
230
1
40
3.000000e-001
51
0
50
0
39
0
72
0
73
0
1
4
0
POLYLINE
8
0
62
5
66
1
10
0
20
0
30
0
70
64
0
VERTEX
8
0
62
5
10
1
20
10
30
0
70
192
0
VERTEX
8
0
62
5
10
1.9
20
10
30
0
70
192
0
VERTEX
8
0
62
5
10
1.9
20
10.9
30
0
70
192
0
VERTEX
8
0
62
5
10
1
20
10.9
30
0
70
192
0
VERTEX
8
0
62
5
10
0
20
0
30
0
70
128
71
1
72
2
73
3
74
0
0
VERTEX
8
0
62
5
10
0
20
0
30
0
70
128
71
1
72
3
73
4
74
0
0
SEQEND
8
0
0
TEXT
8
0
62
255
10
1
20
11
30
0
210
0
220
0
230
1
40
3.000000e-001
51
0
50
0
39
0
72
0
73
0
1
5
0
POLYLINE
8
0
62
6
66
1
10
0
20
0
30
0
70
64
0
VERTEX
8
0
62
6
10
1
20
12
30
0
70
192
0
VERTEX
8
0
62
6
10
1.9
20
12
30
0
70
192
0
VERTEX
8
0
62
6
10
1.9
20
12.9
30
0
70
192
0
VERTEX
8
0
62
6
10
1
20
12.9
30
0
70
192
0
VERTEX
8
0
62
6
10
0
20
0
30
0
70
128
71
1
72
2
73
3
74
0
0
VERTEX
8
0
62
6
10
0
20
0
30
0
70
128
71
1
72
3
73
4
74
0
0
SEQEND
8
0
0
TEXT
8
0
62
255
10
1
20
13
30
0
210
0
220
0
230
1
40
3.000000e-001
51
0
50
0
39
0
72
0
73
0
1
6
0
POLYLINE
8
0
62
7
66
1
10
0
20
0
30
0
70
64
0
VERTEX
8
0
62
7
10
1
20
14
30
0
70
192
0
VERTEX
8
0
62
7
10
1.9
20
14
30
0
70
192
0
VERTEX
8
0
62
7
10
1.9
20
14.9
30
0
70
192
0
VERTEX
8
0
62
7
10
1
20
14.9
30
0
70
192
0
VERTEX
8
0
62
7
10
0
20
0
30
0
70
128
71
1
72
2
73
3
74
0
0
VERTEX
8
0
62
7
10
0
20
0
30
0
70
128
71
1
72
3
73
4
74
0
0
SEQEND
8
0
0
TEXT
8
0
62
255
10
1
20
15
30
0
210
0
220
0
230
1
40
3.000000e-001
51
0
50
0
39
0
72
0
73
0
1
7
0
POLYLINE
8
0
62
8
66
1
10
0
20
0
30
0
70
64
0
VERTEX
8
0
62
8
10
1
20
16
30
0
70
192
0
VERTEX
8
0
62
8
10
1.9
20
16
30
0
70
192
0
VERTEX
8
0
62
8
10
1.9
20
16.9
30
0
70
192
0
VERTEX
8
0
62
8
10
1
20
16.9
30
0
70
192
0
VERTEX
8
0
62
8
10
0
20
0
30
0
70
128
71
1
72
2
73
3
74
0
0
VERTEX
8
0
62
8
10
0
20
0
30
0
70
128
71
1
72
3
73
4
74
0
0
SEQEND
8
0
0
TEXT
8
0
62
255
10
1
20
17
30
0
210
0
220
0
230
1
40
3.000000e-001
51
0
50
0
39
0
72
0
73
0
1
8
0
POLYLINE
8
0
62
9
66
1
10
0
20
0
30
0
70
64
0
VERTEX
8
0
62
9
10
1
20
18
30
0
70
192
0
VERTEX
8
0
62
9
10
1.9
20
18
30
0
70
192
0
VERTEX
8
0
62
9
10
1.9
20
18.9
30
0
70
192
0
VERTEX
8
0
62
9
10
1
20
18.9
30
0
70
192
0
VERTEX
8
0
62
9
10
0
20
0
30
0
70
128
71
1
72
2
73
3
74
0
0
VERTEX
8
0
62
9
10
0
20
0
30
0
70
128
71
1
72
3
73
4
74
0
0
SEQEND
8
0
0
TEXT
8
0
62
255
10
1
20
19
30
0
210
0
220
0
230
1
40
3.000000e-001
51
0
50
0
39
0
72
0
73
0
1
9
0
POLYLINE
8
0
62
10
66
1
10
0
20
0
30
0
70
64
0
VERTEX
8
0
62
10
10
1
20
20
30
0
70
192
0
VERTEX
8
0
62
10
10
1.9
20
20
30
0
70
192
0
VERTEX
8
0
62
10
10
1.9
20
20.9
30
0
70
192
0
VERTEX
8
0
62
10
10
1
20
20.9
30
0
70
192
0
VERTEX
8
0
62
10
10
0
20
0
30
0
70
128
71
1
72
2
73
3
74
0
0
VERTEX
8
0
62
10
10
0
20
0
30
0
70
128
71
1
72
3
73
4
74
0
0
SEQEND
8
0
0
TEXT
8
0
62
255
10
1
20
21
30
0
210
0
220
0
230
1
40
3.000000e-001
51
0
50
0
39
0
72
0
73
0
1
10
0
POLYLINE
8
0
62
11
66
1
10
0
20
0
30
0
70
64
0
VERTEX
8
0
62
11
10
1
20
22
30
0
70
192
0
VERTEX
8
0
62
11
10
1.9
20
22
30
0
70
192
0
VERTEX
8
0
62
11
10
1.9
20
22.9
30
0
70
192
0
VERTEX
8
0
62
11
10
1
20
22.9
30
0
70
192
0
VERTEX
8
0
62
11
10
0
20
0
30
0
70
128
71
1
72
2
73
3
74
0
0
VERTEX
8
0
62
11
10
0
20
0
30
0
70
128
71
1
72
3
73
4
74
0
0
SEQEND
8
0
0
TEXT
8
0
62
255
10
1
20
23
30
0
210
0
220
0
230
1
40
3.000000e-001
51
0
50
0
39
0
72
0
73
0
1
11
0
POLYLINE
8
0
62
12
66
1
10
0
20
0
30
0
70
64
0
VERTEX
8
0
62
12
10
1
20
24
30
0
70
192
0
VERTEX
8
0
62
12
10
1.9
20
24
30
0
70
192
0
VERTEX
8
0
62
12
10
1.9
20
24.9
30
0
70
192
0
VERTEX
8
0
62
12
10
1
20
24.9
30
0
70
192
0
VERTEX
8
0
62
12
10
0
20
0
30
0
70
128
71
1
72
2
73
3
74
0
0
VERTEX
8
0
62
12
10
0
20
0
30
0
70
128
71
1
72
3
73
4
74
0
0
SEQEND
8
0
0
TEXT
8
0
62
255
10
1
20
25
30
0
210
0
220
0
230
1
40
3.000000e-001
51
0
50
0
39
0
72
0
73
0
1
12
0
POLYLINE
8
0
62
13
66
1
10
0
20
0
30
0
70
64
0
VERTEX
8
0
62
13
10
1
20
26
30
0
70
192
0
VERTEX
8
0
62
13
10
1.9
20
26
30
0
70
192
0
VERTEX
8
0
62
13
10
1.9
20
26.9
30
0
70
192
0
VERTEX
8
0
62
13
10
1
20
26.9
30
0
70
192
0
VERTEX
8
0
62
13
10
0
20
0
30
0
70
128
71
1
72
2
73
3
74
0
0
VERTEX
8
0
62
13
10
0
20
0
30
0
70
128
71
1
72
3
73
4
74
0
0
SEQEND
8
0
0
TEXT
8
0
62
255
10
1
20
27
30
0
210
0
220
0
230
1
40
3.000000e-001
51
0
50
0
39
0
72
0
73
0
1
13
0
POLYLINE
8
0
62
14
66
1
10
0
20
0
30
0
70
64
0
VERTEX
8
0
62
14
10
1
20
28
30
0
70
192
0
VERTEX
8
0
62
14
10
1.9
20
28
30
0
70
192
0
VERTEX
8
0
62
14
10
1.9
20
28.9
30
0
70
192
0
VERTEX
8
0
62
14
10
1
20
28.9
30
0
70
192
0
VERTEX
8
0
62
14
10
0
20
0
30
0
70
128
71
1
72
2
73
3
74
0
0
VERTEX
8
0
62
14
10
0
20
0
30
0
70
128
71
1
72
3
73
4
74
0
0
SEQEND
8
0
0
TEXT
8
0
62
255
10
1
20
29
30
0
210
0
220
0
230
1
40
3.000000e-001
51
0
50
0
39
0
72
0
73
0
1
14
0
POLYLINE
8
0
62
15
66
1
10
0
20
0
30
0
70
64
0
VERTEX
8
0
62
15
10
1
20
30
30
0
70
192
0
VERTEX
8
0
62
15
10
1.9
20
30
30
0
70
192
0
VERTEX
8
0
62
15
10
1.9
20
30.9
30
0
70
192
0
VERTEX
8
0
62
15
10
1
20
30.9
30
0
70
192
0
VERTEX
8
0
62
15
10
0
20
0
30
0
70
128
71
1
72
2
73
3
74
0
0
VERTEX
8
0
62
15
10
0
20
0
30
0
70
128
71
1
72
3
73
4
74
0
0
SEQEND
8
0
0
TEXT
8
0
62
255
10
1
20
31
30
0
210
0
220
0
230
1
40
3.000000e-001
51
0
50
0
39
0
72
0
73
0
1
15
0
POLYLINE
8
0
62
16
66
1
10
0
20
0
30
0
70
64
0
VERTEX
8
0
62
16
10
1
20
32
30
0
70
192
0
VERTEX
8
0
62
16
10
1.9
20
32
30
0
70
192
0
VERTEX
8
0
62
16
10
1.9
20
32.9
30
0
70
192
0
VERTEX
8
0
62
16
10
1
20
32.9
30
0
70
192
0
VERTEX
8
0
62
16
10
0
20
0
30
0
70
128
71
1
72
2
73
3
74
0
0
VERTEX
8
0
62
16
10
0
20
0
30
0
70
128
71
1
72
3
73
4
74
0
0
SEQEND
8
0
0
TEXT
8
0
62
255
10
1
20
33
30
0
210
0
220
0
230
1
40
3.000000e-001
51
0
50
0
39
0
72
0
73
0
1
16
0
POLYLINE
8
0
62
17
66
1
10
0
20
0
30
0
70
64
0
VERTEX
8
0
62
17
10
2
20
2
30
0
70
192
0
VERTEX
8
0
62
17
10
2.9
20
2
30
0
70
192
0
VERTEX
8
0
62
17
10
2.9
20
2.9
30
0
70
192
0
VERTEX
8
0
62
17
10
2
20
2.9
30
0
70
192
0
VERTEX
8
0
62
17
10
0
20
0
30
0
70
128
71
1
72
2
73
3
74
0
0
VERTEX
8
0
62
17
10
0
20
0
30
0
70
128
71
1
72
3
73
4
74
0
0
SEQEND
8
0
0
TEXT
8
0
62
255
10
2
20
3
30
0
210
0
220
0
230
1
40
3.000000e-001
51
0
50
0
39
0
72
0
73
0
1
17
0
POLYLINE
8
0
62
18
66
1
10
0
20
0
30
0
70
64
0
VERTEX
8
0
62
18
10
2
20
4
30
0
70
192
0
VERTEX
8
0
62
18
10
2.9
20
4
30
0
70
192
0
VERTEX
8
0
62
18
10
2.9
20
4.9
30
0
70
192
0
VERTEX
8
0
62
18
10
2
20
4.9
30
0
70
192
0
VERTEX
8
0
62
18
10
0
20
0
30
0
70
128
71
1
72
2
73
3
74
0
0
VERTEX
8
0
62
18
10
0
20
0
30
0
70
128
71
1
72
3
73
4
74
0
0
SEQEND
8
0
0
TEXT
8
0
62
255
10
2
20
5
30
0
210
0
220
0
230
1
40
3.000000e-001
51
0
50
0
39
0
72
0
73
0
1
18
0
POLYLINE
8
0
62
19
66
1
10
0
20
0
30
0
70
64
0
VERTEX
8
0
62
19
10
2
20
6
30
0
70
192
0
VERTEX
8
0
62
19
10
2.9
20
6
30
0
70
192
0
VERTEX
8
0
62
19
10
2.9
20
6.9
30
0
70
192
0
VERTEX
8
0
62
19
10
2
20
6.9
30
0
70
192
0
VERTEX
8
0
62
19
10
0
20
0
30
0
70
128
71
1
72
2
73
3
74
0
0
VERTEX
8
0
62
19
10
0
20
0
30
0
70
128
71
1
72
3
73
4
74
0
0
SEQEND
8
0
0
TEXT
8
0
62
255
10
2
20
7
30
0
210
0
220
0
230
1
40
3.000000e-001
51
0
50
0
39
0
72
0
73
0
1
19
0
POLYLINE
8
0
62
20
66
1
10
0
20
0
30
0
70
64
0
VERTEX
8
0
62
20
10
2
20
8
30
0
70
192
0
VERTEX
8
0
62
20
10
2.9
20
8
30
0
70
192
0
VERTEX
8
0
62
20
10
2.9
20
8.9
30
0
70
192
0
VERTEX
8
0
62
20
10
2
20
8.9
30
0
70
192
0
VERTEX
8
0
62
20
10
0
20
0
30
0
70
128
71
1
72
2
73
3
74
0
0
VERTEX
8
0
62
20
10
0
20
0
30
0
70
128
71
1
72
3
73
4
74
0
0
SEQEND
8
0
0
TEXT
8
0
62
255
10
2
20
9
30
0
210
0
220
0
230
1
40
3.000000e-001
51
0
50
0
39
0
72
0
73
0
1
20
0
POLYLINE
8
0
62
21
66
1
10
0
20
0
30
0
70
64
0
VERTEX
8
0
62
21
10
2
20
10
30
0
70
192
0
VERTEX
8
0
62
21
10
2.9
20
10
30
0
70
192
0
VERTEX
8
0
62
21
10
2.9
20
10.9
30
0
70
192
0
VERTEX
8
0
62
21
10
2
20
10.9
30
0
70
192
0
VERTEX
8
0
62
21
10
0
20
0
30
0
70
128
71
1
72
2
73
3
74
0
0
VERTEX
8
0
62
21
10
0
20
0
30
0
70
128
71
1
72
3
73
4
74
0
0
SEQEND
8
0
0
TEXT
8
0
62
255
10
2
20
11
30
0
210
0
220
0
230
1
40
3.000000e-001
51
0
50
0
39
0
72
0
73
0
1
21
0
POLYLINE
8
0
62
22
66
1
10
0
20
0
30
0
70
64
0
VERTEX
8
0
62
22
10
2
20
12
30
0
70
192
0
VERTEX
8
0
62
22
10
2.9
20
12
30
0
70
192
0
VERTEX
8
0
62
22
10
2.9
20
12.9
30
0
70
192
0
VERTEX
8
0
62
22
10
2
20
12.9
30
0
70
192
0
VERTEX
8
0
62
22
10
0
20
0
30
0
70
128
71
1
72
2
73
3
74
0
0
VERTEX
8
0
62
22
10
0
20
0
30
0
70
128
71
1
72
3
73
4
74
0
0
SEQEND
8
0
0
TEXT
8
0
62
255
10
2
20
13
30
0
210
0
220
0
230
1
40
3.000000e-001
51
0
50
0
39
0
72
0
73
0
1
22
0
POLYLINE
8
0
62
23
66
1
10
0
20
0
30
0
70
64
0
VERTEX
8
0
62
23
10
2
20
14
30
0
70
192
0
VERTEX
8
0
62
23
10
2.9
20
14
30
0
70
192
0
VERTEX
8
0
62
23
10
2.9
20
14.9
30
0
70
192
0
VERTEX
8
0
62
23
10
2
20
14.9
30
0
70
192
0
VERTEX
8
0
62
23
10
0
20
0
30
0
70
128
71
1
72
2
73
3
74
0
0
VERTEX
8
0
62
23
10
0
20
0
30
0
70
128
71
1
72
3
73
4
74
0
0
SEQEND
8
0
0
TEXT
8
0
62
255
10
2
20
15
30
0
210
0
220
0
230
1
40
3.000000e-001
51
0
50
0
39
0
72
0
73
0
1
23
0
POLYLINE
8
0
62
24
66
1
10
0
20
0
30
0
70
64
0
VERTEX
8
0
62
24
10
2
20
16
30
0
70
192
0
VERTEX
8
0
62
24
10
2.9
20
16
30
0
70
192
0
VERTEX
8
0
62
24
10
2.9
20
16.9
30
0
70
192
0
VERTEX
8
0
62
24
10
2
20
16.9
30
0
70
192
0
VERTEX
8
0
62
24
10
0
20
0
30
0
70
128
71
1
72
2
73
3
74
0
0
VERTEX
8
0
62
24
10
0
20
0
30
0
70
128
71
1
72
3
73
4
74
0
0
SEQEND
8
0
0
TEXT
8
0
62
255
10
2
20
17
30
0
210
0
220
0
230
1
40
3.000000e-001
51
0
50
0
39
0
72
0
73
0
1
24
0
POLYLINE
8
0
62
25
66
1
10
0
20
0
30
0
70
64
0
VERTEX
8
0
62
25
10
2
20
18
30
0
70
192
0
VERTEX
8
0
62
25
10
2.9
20
18
30
0
70
192
0
VERTEX
8
0
62
25
10
2.9
20
18.9
30
0
70
192
0
VERTEX
8
0
62
25
10
2
20
18.9
30
0
70
192
0
VERTEX
8
0
62
25
10
0
20
0
30
0
70
128
71
1
72
2
73
3
74
0
0
VERTEX
8
0
62
25
10
0
20
0
30
0
70
128
71
1
72
3
73
4
74
0
0
SEQEND
8
0
0
TEXT
8
0
62
255
10
2
20
19
30
0
210
0
220
0
230
1
40
3.000000e-001
51
0
50
0
39
0
72
0
73
0
1
25
0
POLYLINE
8
0
62
26
66
1
10
0
20
0
30
0
70
64
0
VERTEX
8
0
62
26
10
2
20
20
30
0
70
192
0
VERTEX
8
0
62
26
10
2.9
20
20
30
0
70
192
0
VERTEX
8
0
62
26
10
2.9
20
20.9
30
0
70
192
0
VERTEX
8
0
62
26
10
2
20
20.9
30
0
70
192
0
VERTEX
8
0
62
26
10
0
20
0
30
0
70
128
71
1
72
2
73
3
74
0
0
VERTEX
8
0
62
26
10
0
20
0
30
0
70
128
71
1
72
3
73
4
74
0
0
SEQEND
8
0
0
TEXT
8
0
62
255
10
2
20
21
30
0
210
0
220
0
230
1
40
3.000000e-001
51
0
50
0
39
0
72
0
73
0
1
26
0
POLYLINE
8
0
62
27
66
1
10
0
20
0
30
0
70
64
0
VERTEX
8
0
62
27
10
2
20
22
30
0
70
192
0
VERTEX
8
0
62
27
10
2.9
20
22
30
0
70
192
0
VERTEX
8
0
62
27
10
2.9
20
22.9
30
0
70
192
0
VERTEX
8
0
62
27
10
2
20
22.9
30
0
70
192
0
VERTEX
8
0
62
27
10
0
20
0
30
0
70
128
71
1
72
2
73
3
74
0
0
VERTEX
8
0
62
27
10
0
20
0
30
0
70
128
71
1
72
3
73
4
74
0
0
SEQEND
8
0
0
TEXT
8
0
62
255
10
2
20
23
30
0
210
0
220
0
230
1
40
3.000000e-001
51
0
50
0
39
0
72
0
73
0
1
27
0
POLYLINE
8
0
62
28
66
1
10
0
20
0
30
0
70
64
0
VERTEX
8
0
62
28
10
2
20
24
30
0
70
192
0
VERTEX
8
0
62
28
10
2.9
20
24
30
0
70
192
0
VERTEX
8
0
62
28
10
2.9
20
24.9
30
0
70
192
0
VERTEX
8
0
62
28
10
2
20
24.9
30
0
70
192
0
VERTEX
8
0
62
28
10
0
20
0
30
0
70
128
71
1
72
2
73
3
74
0
0
VERTEX
8
0
62
28
10
0
20
0
30
0
70
128
71
1
72
3
73
4
74
0
0
SEQEND
8
0
0
TEXT
8
0
62
255
10
2
20
25
30
0
210
0
220
0
230
1
40
3.000000e-001
51
0
50
0
39
0
72
0
73
0
1
28
0
POLYLINE
8
0
62
29
66
1
10
0
20
0
30
0
70
64
0
VERTEX
8
0
62
29
10
2
20
26
30
0
70
192
0
VERTEX
8
0
62
29
10
2.9
20
26
30
0
70
192
0
VERTEX
8
0
62
29
10
2.9
20
26.9
30
0
70
192
0
VERTEX
8
0
62
29
10
2
20
26.9
30
0
70
192
0
VERTEX
8
0
62
29
10
0
20
0
30
0
70
128
71
1
72
2
73
3
74
0
0
VERTEX
8
0
62
29
10
0
20
0
30
0
70
128
71
1
72
3
73
4
74
0
0
SEQEND
8
0
0
TEXT
8
0
62
255
10
2
20
27
30
0
210
0
220
0
230
1
40
3.000000e-001
51
0
50
0
39
0
72
0
73
0
1
29
0
POLYLINE
8
0
62
30
66
1
10
0
20
0
30
0
70
64
0
VERTEX
8
0
62
30
10
2
20
28
30
0
70
192
0
VERTEX
8
0
62
30
10
2.9
20
28
30
0
70
192
0
VERTEX
8
0
62
30
10
2.9
20
28.9
30
0
70
192
0
VERTEX
8
0
62
30
10
2
20
28.9
30
0
70
192
0
VERTEX
8
0
62
30
10
0
20
0
30
0
70
128
71
1
72
2
73
3
74
0
0
VERTEX
8
0
62
30
10
0
20
0
30
0
70
128
71
1
72
3
73
4
74
0
0
SEQEND
8
0
0
TEXT
8
0
62
255
10
2
20
29
30
0
210
0
220
0
230
1
40
3.000000e-001
51
0
50
0
39
0
72
0
73
0
1
30
0
POLYLINE
8
0
62
31
66
1
10
0
20
0
30
0
70
64
0
VERTEX
8
0
62
31
10
2
20
30
30
0
70
192
0
VERTEX
8
0
62
31
10
2.9
20
30
30
0
70
192
0
VERTEX
8
0
62
31
10
2.9
20
30.9
30
0
70
192
0
VERTEX
8
0
62
31
10
2
20
30.9
30
0
70
192
0
VERTEX
8
0
62
31
10
0
20
0
30
0
70
128
71
1
72
2
73
3
74
0
0
VERTEX
8
0
62
31
10
0
20
0
30
0
70
128
71
1
72
3
73
4
74
0
0
SEQEND
8
0
0
TEXT
8
0
62
255
10
2
20
31
30
0
210
0
220
0
230
1
40
3.000000e-001
51
0
50
0
39
0
72
0
73
0
1
31
0
POLYLINE
8
0
62
32
66
1
10
0
20
0
30
0
70
64
0
VERTEX
8
0
62
32
10
2
20
32
30
0
70
192
0
VERTEX
8
0
62
32
10
2.9
20
32
30
0
70
192
0
VERTEX
8
0
62
32
10
2.9
20
32.9
30
0
70
192
0
VERTEX
8
0
62
32
10
2
20
32.9
30
0
70
192
0
VERTEX
8
0
62
32
10
0
20
0
30
0
70
128
71
1
72
2
73
3
74
0
0
VERTEX
8
0
62
32
10
0
20
0
30
0
70
128
71
1
72
3
73
4
74
0
0
SEQEND
8
0
0
TEXT
8
0
62
255
10
2
20
33
30
0
210
0
220
0
230
1
40
3.000000e-001
51
0
50
0
39
0
72
0
73
0
1
32
0
POLYLINE
8
0
62
33
66
1
10
0
20
0
30
0
70
64
0
VERTEX
8
0
62
33
10
3
20
2
30
0
70
192
0
VERTEX
8
0
62
33
10
3.9
20
2
30
0
70
192
0
VERTEX
8
0
62
33
10
3.9
20
2.9
30
0
70
192
0
VERTEX
8
0
62
33
10
3
20
2.9
30
0
70
192
0
VERTEX
8
0
62
33
10
0
20
0
30
0
70
128
71
1
72
2
73
3
74
0
0
VERTEX
8
0
62
33
10
0
20
0
30
0
70
128
71
1
72
3
73
4
74
0
0
SEQEND
8
0
0
TEXT
8
0
62
255
10
3
20
3
30
0
210
0
220
0
230
1
40
3.000000e-001
51
0
50
0
39
0
72
0
73
0
1
33
0
POLYLINE
8
0
62
34
66
1
10
0
20
0
30
0
70
64
0
VERTEX
8
0
62
34
10
3
20
4
30
0
70
192
0
VERTEX
8
0
62
34
10
3.9
20
4
30
0
70
192
0
VERTEX
8
0
62
34
10
3.9
20
4.9
30
0
70
192
0
VERTEX
8
0
62
34
10
3
20
4.9
30
0
70
192
0
VERTEX
8
0
62
34
10
0
20
0
30
0
70
128
71
1
72
2
73
3
74
0
0
VERTEX
8
0
62
34
10
0
20
0
30
0
70
128
71
1
72
3
73
4
74
0
0
SEQEND
8
0
0
TEXT
8
0
62
255
10
3
20
5
30
0
210
0
220
0
230
1
40
3.000000e-001
51
0
50
0
39
0
72
0
73
0
1
34
0
POLYLINE
8
0
62
35
66
1
10
0
20
0
30
0
70
64
0
VERTEX
8
0
62
35
10
3
20
6
30
0
70
192
0
VERTEX
8
0
62
35
10
3.9
20
6
30
0
70
192
0
VERTEX
8
0
62
35
10
3.9
20
6.9
30
0
70
192
0
VERTEX
8
0
62
35
10
3
20
6.9
30
0
70
192
0
VERTEX
8
0
62
35
10
0
20
0
30
0
70
128
71
1
72
2
73
3
74
0
0
VERTEX
8
0
62
35
10
0
20
0
30
0
70
128
71
1
72
3
73
4
74
0
0
SEQEND
8
0
0
TEXT
8
0
62
255
10
3
20
7
30
0
210
0
220
0
230
1
40
3.000000e-001
51
0
50
0
39
0
72
0
73
0
1
35
0
POLYLINE
8
0
62
36
66
1
10
0
20
0
30
0
70
64
0
VERTEX
8
0
62
36
10
3
20
8
30
0
70
192
0
VERTEX
8
0
62
36
10
3.9
20
8
30
0
70
192
0
VERTEX
8
0
62
36
10
3.9
20
8.9
30
0
70
192
0
VERTEX
8
0
62
36
10
3
20
8.9
30
0
70
192
0
VERTEX
8
0
62
36
10
0
20
0
30
0
70
128
71
1
72
2
73
3
74
0
0
VERTEX
8
0
62
36
10
0
20
0
30
0
70
128
71
1
72
3
73
4
74
0
0
SEQEND
8
0
0
TEXT
8
0
62
255
10
3
20
9
30
0
210
0
220
0
230
1
40
3.000000e-001
51
0
50
0
39
0
72
0
73
0
1
36
0
POLYLINE
8
0
62
37
66
1
10
0
20
0
30
0
70
64
0
VERTEX
8
0
62
37
10
3
20
10
30
0
70
192
0
VERTEX
8
0
62
37
10
3.9
20
10
30
0
70
192
0
VERTEX
8
0
62
37
10
3.9
20
10.9
30
0
70
192
0
VERTEX
8
0
62
37
10
3
20
10.9
30
0
70
192
0
VERTEX
8
0
62
37
10
0
20
0
30
0
70
128
71
1
72
2
73
3
74
0
0
VERTEX
8
0
62
37
10
0
20
0
30
0
70
128
71
1
72
3
73
4
74
0
0
SEQEND
8
0
0
TEXT
8
0
62
255
10
3
20
11
30
0
210
0
220
0
230
1
40
3.000000e-001
51
0
50
0
39
0
72
0
73
0
1
37
0
POLYLINE
8
0
62
38
66
1
10
0
20
0
30
0
70
64
0
VERTEX
8
0
62
38
10
3
20
12
30
0
70
192
0
VERTEX
8
0
62
38
10
3.9
20
12
30
0
70
192
0
VERTEX
8
0
62
38
10
3.9
20
12.9
30
0
70
192
0
VERTEX
8
0
62
38
10
3
20
12.9
30
0
70
192
0
VERTEX
8
0
62
38
10
0
20
0
30
0
70
128
71
1
72
2
73
3
74
0
0
VERTEX
8
0
62
38
10
0
20
0
30
0
70
128
71
1
72
3
73
4
74
0
0
SEQEND
8
0
0
TEXT
8
0
62
255
10
3
20
13
30
0
210
0
220
0
230
1
40
3.000000e-001
51
0
50
0
39
0
72
0
73
0
1
38
0
POLYLINE
8
0
62
39
66
1
10
0
20
0
30
0
70
64
0
VERTEX
8
0
62
39
10
3
20
14
30
0
70
192
0
VERTEX
8
0
62
39
10
3.9
20
14
30
0
70
192
0
VERTEX
8
0
62
39
10
3.9
20
14.9
30
0
70
192
0
VERTEX
8
0
62
39
10
3
20
14.9
30
0
70
192
0
VERTEX
8
0
62
39
10
0
20
0
30
0
70
128
71
1
72
2
73
3
74
0
0
VERTEX
8
0
62
39
10
0
20
0
30
0
70
128
71
1
72
3
73
4
74
0
0
SEQEND
8
0
0
TEXT
8
0
62
255
10
3
20
15
30
0
210
0
220
0
230
1
40
3.000000e-001
51
0
50
0
39
0
72
0
73
0
1
39
0
POLYLINE
8
0
62
40
66
1
10
0
20
0
30
0
70
64
0
VERTEX
8
0
62
40
10
3
20
16
30
0
70
192
0
VERTEX
8
0
62
40
10
3.9
20
16
30
0
70
192
0
VERTEX
8
0
62
40
10
3.9
20
16.9
30
0
70
192
0
VERTEX
8
0
62
40
10
3
20
16.9
30
0
70
192
0
VERTEX
8
0
62
40
10
0
20
0
30
0
70
128
71
1
72
2
73
3
74
0
0
VERTEX
8
0
62
40
10
0
20
0
30
0
70
128
71
1
72
3
73
4
74
0
0
SEQEND
8
0
0
TEXT
8
0
62
255
10
3
20
17
30
0
210
0
220
0
230
1
40
3.000000e-001
51
0
50
0
39
0
72
0
73
0
1
40
0
POLYLINE
8
0
62
41
66
1
10
0
20
0
30
0
70
64
0
VERTEX
8
0
62
41
10
3
20
18
30
0
70
192
0
VERTEX
8
0
62
41
10
3.9
20
18
30
0
70
192
0
VERTEX
8
0
62
41
10
3.9
20
18.9
30
0
70
192
0
VERTEX
8
0
62
41
10
3
20
18.9
30
0
70
192
0
VERTEX
8
0
62
41
10
0
20
0
30
0
70
128
71
1
72
2
73
3
74
0
0
VERTEX
8
0
62
41
10
0
20
0
30
0
70
128
71
1
72
3
73
4
74
0
0
SEQEND
8
0
0
TEXT
8
0
62
255
10
3
20
19
30
0
210
0
220
0
230
1
40
3.000000e-001
51
0
50
0
39
0
72
0
73
0
1
41
0
POLYLINE
8
0
62
42
66
1
10
0
20
0
30
0
70
64
0
VERTEX
8
0
62
42
10
3
20
20
30
0
70
192
0
VERTEX
8
0
62
42
10
3.9
20
20
30
0
70
192
0
VERTEX
8
0
62
42
10
3.9
20
20.9
30
0
70
192
0
VERTEX
8
0
62
42
10
3
20
20.9
30
0
70
192
0
VERTEX
8
0
62
42
10
0
20
0
30
0
70
128
71
1
72
2
73
3
74
0
0
VERTEX
8
0
62
42
10
0
20
0
30
0
70
128
71
1
72
3
73
4
74
0
0
SEQEND
8
0
0
TEXT
8
0
62
255
10
3
20
21
30
0
210
0
220
0
230
1
40
3.000000e-001
51
0
50
0
39
0
72
0
73
0
1
42
0
POLYLINE
8
0
62
43
66
1
10
0
20
0
30
0
70
64
0
VERTEX
8
0
62
43
10
3
20
22
30
0
70
192
0
VERTEX
8
0
62
43
10
3.9
20
22
30
0
70
192
0
VERTEX
8
0
62
43
10
3.9
20
22.9
30
0
70
192
0
VERTEX
8
0
62
43
10
3
20
22.9
30
0
70
192
0
VERTEX
8
0
62
43
10
0
20
0
30
0
70
128
71
1
72
2
73
3
74
0
0
VERTEX
8
0
62
43
10
0
20
0
30
0
70
128
71
1
72
3
73
4
74
0
0
SEQEND
8
0
0
TEXT
8
0
62
255
10
3
20
23
30
0
210
0
220
0
230
1
40
3.000000e-001
51
0
50
0
39
0
72
0
73
0
1
43
0
POLYLINE
8
0
62
44
66
1
10
0
20
0
30
0
70
64
0
VERTEX
8
0
62
44
10
3
20
24
30
0
70
192
0
VERTEX
8
0
62
44
10
3.9
20
24
30
0
70
192
0
VERTEX
8
0
62
44
10
3.9
20
24.9
30
0
70
192
0
VERTEX
8
0
62
44
10
3
20
24.9
30
0
70
192
0
VERTEX
8
0
62
44
10
0
20
0
30
0
70
128
71
1
72
2
73
3
74
0
0
VERTEX
8
0
62
44
10
0
20
0
30
0
70
128
71
1
72
3
73
4
74
0
0
SEQEND
8
0
0
TEXT
8
0
62
255
10
3
20
25
30
0
210
0
220
0
230
1
40
3.000000e-001
51
0
50
0
39
0
72
0
73
0
1
44
0
POLYLINE
8
0
62
45
66
1
10
0
20
0
30
0
70
64
0
VERTEX
8
0
62
45
10
3
20
26
30
0
70
192
0
VERTEX
8
0
62
45
10
3.9
20
26
30
0
70
192
0
VERTEX
8
0
62
45
10
3.9
20
26.9
30
0
70
192
0
VERTEX
8
0
62
45
10
3
20
26.9
30
0
70
192
0
VERTEX
8
0
62
45
10
0
20
0
30
0
70
128
71
1
72
2
73
3
74
0
0
VERTEX
8
0
62
45
10
0
20
0
30
0
70
128
71
1
72
3
73
4
74
0
0
SEQEND
8
0
0
TEXT
8
0
62
255
10
3
20
27
30
0
210
0
220
0
230
1
40
3.000000e-001
51
0
50
0
39
0
72
0
73
0
1
45
0
POLYLINE
8
0
62
46
66
1
10
0
20
0
30
0
70
64
0
VERTEX
8
0
62
46
10
3
20
28
30
0
70
192
0
VERTEX
8
0
62
46
10
3.9
20
28
30
0
70
192
0
VERTEX
8
0
62
46
10
3.9
20
28.9
30
0
70
192
0
VERTEX
8
0
62
46
10
3
20
28.9
30
0
70
192
0
VERTEX
8
0
62
46
10
0
20
0
30
0
70
128
71
1
72
2
73
3
74
0
0
VERTEX
8
0
62
46
10
0
20
0
30
0
70
128
71
1
72
3
73
4
74
0
0
SEQEND
8
0
0
TEXT
8
0
62
255
10
3
20
29
30
0
210
0
220
0
230
1
40
3.000000e-001
51
0
50
0
39
0
72
0
73
0
1
46
0
POLYLINE
8
0
62
47
66
1
10
0
20
0
30
0
70
64
0
VERTEX
8
0
62
47
10
3
20
30
30
0
70
192
0
VERTEX
8
0
62
47
10
3.9
20
30
30
0
70
192
0
VERTEX
8
0
62
47
10
3.9
20
30.9
30
0
70
192
0
VERTEX
8
0
62
47
10
3
20
30.9
30
0
70
192
0
VERTEX
8
0
62
47
10
0
20
0
30
0
70
128
71
1
72
2
73
3
74
0
0
VERTEX
8
0
62
47
10
0
20
0
30
0
70
128
71
1
72
3
73
4
74
0
0
SEQEND
8
0
0
TEXT
8
0
62
255
10
3
20
31
30
0
210
0
220
0
230
1
40
3.000000e-001
51
0
50
0
39
0
72
0
73
0
1
47
0
POLYLINE
8
0
62
48
66
1
10
0
20
0
30
0
70
64
0
VERTEX
8
0
62
48
10
3
20
32
30
0
70
192
0
VERTEX
8
0
62
48
10
3.9
20
32
30
0
70
192
0
VERTEX
8
0
62
48
10
3.9
20
32.9
30
0
70
192
0
VERTEX
8
0
62
48
10
3
20
32.9
30
0
70
192
0
VERTEX
8
0
62
48
10
0
20
0
30
0
70
128
71
1
72
2
73
3
74
0
0
VERTEX
8
0
62
48
10
0
20
0
30
0
70
128
71
1
72
3
73
4
74
0
0
SEQEND
8
0
0
TEXT
8
0
62
255
10
3
20
33
30
0
210
0
220
0
230
1
40
3.000000e-001
51
0
50
0
39
0
72
0
73
0
1
48
0
POLYLINE
8
0
62
49
66
1
10
0
20
0
30
0
70
64
0
VERTEX
8
0
62
49
10
4
20
2
30
0
70
192
0
VERTEX
8
0
62
49
10
4.9
20
2
30
0
70
192
0
VERTEX
8
0
62
49
10
4.9
20
2.9
30
0
70
192
0
VERTEX
8
0
62
49
10
4
20
2.9
30
0
70
192
0
VERTEX
8
0
62
49
10
0
20
0
30
0
70
128
71
1
72
2
73
3
74
0
0
VERTEX
8
0
62
49
10
0
20
0
30
0
70
128
71
1
72
3
73
4
74
0
0
SEQEND
8
0
0
TEXT
8
0
62
255
10
4
20
3
30
0
210
0
220
0
230
1
40
3.000000e-001
51
0
50
0
39
0
72
0
73
0
1
49
0
POLYLINE
8
0
62
50
66
1
10
0
20
0
30
0
70
64
0
VERTEX
8
0
62
50
10
4
20
4
30
0
70
192
0
VERTEX
8
0
62
50
10
4.9
20
4
30
0
70
192
0
VERTEX
8
0
62
50
10
4.9
20
4.9
30
0
70
192
0
VERTEX
8
0
62
50
10
4
20
4.9
30
0
70
192
0
VERTEX
8
0
62
50
10
0
20
0
30
0
70
128
71
1
72
2
73
3
74
0
0
VERTEX
8
0
62
50
10
0
20
0
30
0
70
128
71
1
72
3
73
4
74
0
0
SEQEND
8
0
0
TEXT
8
0
62
255
10
4
20
5
30
0
210
0
220
0
230
1
40
3.000000e-001
51
0
50
0
39
0
72
0
73
0
1
50
0
POLYLINE
8
0
62
51
66
1
10
0
20
0
30
0
70
64
0
VERTEX
8
0
62
51
10
4
20
6
30
0
70
192
0
VERTEX
8
0
62
51
10
4.9
20
6
30
0
70
192
0
VERTEX
8
0
62
51
10
4.9
20
6.9
30
0
70
192
0
VERTEX
8
0
62
51
10
4
20
6.9
30
0
70
192
0
VERTEX
8
0
62
51
10
0
20
0
30
0
70
128
71
1
72
2
73
3
74
0
0
VERTEX
8
0
62
51
10
0
20
0
30
0
70
128
71
1
72
3
73
4
74
0
0
SEQEND
8
0
0
TEXT
8
0
62
255
10
4
20
7
30
0
210
0
220
0
230
1
40
3.000000e-001
51
0
50
0
39
0
72
0
73
0
1
51
0
POLYLINE
8
0
62
52
66
1
10
0
20
0
30
0
70
64
0
VERTEX
8
0
62
52
10
4
20
8
30
0
70
192
0
VERTEX
8
0
62
52
10
4.9
20
8
30
0
70
192
0
VERTEX
8
0
62
52
10
4.9
20
8.9
30
0
70
192
0
VERTEX
8
0
62
52
10
4
20
8.9
30
0
70
192
0
VERTEX
8
0
62
52
10
0
20
0
30
0
70
128
71
1
72
2
73
3
74
0
0
VERTEX
8
0
62
52
10
0
20
0
30
0
70
128
71
1
72
3
73
4
74
0
0
SEQEND
8
0
0
TEXT
8
0
62
255
10
4
20
9
30
0
210
0
220
0
230
1
40
3.000000e-001
51
0
50
0
39
0
72
0
73
0
1
52
0
POLYLINE
8
0
62
53
66
1
10
0
20
0
30
0
70
64
0
VERTEX
8
0
62
53
10
4
20
10
30
0
70
192
0
VERTEX
8
0
62
53
10
4.9
20
10
30
0
70
192
0
VERTEX
8
0
62
53
10
4.9
20
10.9
30
0
70
192
0
VERTEX
8
0
62
53
10
4
20
10.9
30
0
70
192
0
VERTEX
8
0
62
53
10
0
20
0
30
0
70
128
71
1
72
2
73
3
74
0
0
VERTEX
8
0
62
53
10
0
20
0
30
0
70
128
71
1
72
3
73
4
74
0
0
SEQEND
8
0
0
TEXT
8
0
62
255
10
4
20
11
30
0
210
0
220
0
230
1
40
3.000000e-001
51
0
50
0
39
0
72
0
73
0
1
53
0
POLYLINE
8
0
62
54
66
1
10
0
20
0
30
0
70
64
0
VERTEX
8
0
62
54
10
4
20
12
30
0
70
192
0
VERTEX
8
0
62
54
10
4.9
20
12
30
0
70
192
0
VERTEX
8
0
62
54
10
4.9
20
12.9
30
0
70
192
0
VERTEX
8
0
62
54
10
4
20
12.9
30
0
70
192
0
VERTEX
8
0
62
54
10
0
20
0
30
0
70
128
71
1
72
2
73
3
74
0
0
VERTEX
8
0
62
54
10
0
20
0
30
0
70
128
71
1
72
3
73
4
74
0
0
SEQEND
8
0
0
TEXT
8
0
62
255
10
4
20
13
30
0
210
0
220
0
230
1
40
3.000000e-001
51
0
50
0
39
0
72
0
73
0
1
54
0
POLYLINE
8
0
62
55
66
1
10
0
20
0
30
0
70
64
0
VERTEX
8
0
62
55
10
4
20
14
30
0
70
192
0
VERTEX
8
0
62
55
10
4.9
20
14
30
0
70
192
0
VERTEX
8
0
62
55
10
4.9
20
14.9
30
0
70
192
0
VERTEX
8
0
62
55
10
4
20
14.9
30
0
70
192
0
VERTEX
8
0
62
55
10
0
20
0
30
0
70
128
71
1
72
2
73
3
74
0
0
VERTEX
8
0
62
55
10
0
20
0
30
0
70
128
71
1
72
3
73
4
74
0
0
SEQEND
8
0
0
TEXT
8
0
62
255
10
4
20
15
30
0
210
0
220
0
230
1
40
3.000000e-001
51
0
50
0
39
0
72
0
73
0
1
55
0
POLYLINE
8
0
62
56
66
1
10
0
20
0
30
0
70
64
0
VERTEX
8
0
62
56
10
4
20
16
30
0
70
192
0
VERTEX
8
0
62
56
10
4.9
20
16
30
0
70
192
0
VERTEX
8
0
62
56
10
4.9
20
16.9
30
0
70
192
0
VERTEX
8
0
62
56
10
4
20
16.9
30
0
70
192
0
VERTEX
8
0
62
56
10
0
20
0
30
0
70
128
71
1
72
2
73
3
74
0
0
VERTEX
8
0
62
56
10
0
20
0
30
0
70
128
71
1
72
3
73
4
74
0
0
SEQEND
8
0
0
TEXT
8
0
62
255
10
4
20
17
30
0
210
0
220
0
230
1
40
3.000000e-001
51
0
50
0
39
0
72
0
73
0
1
56
0
POLYLINE
8
0
62
57
66
1
10
0
20
0
30
0
70
64
0
VERTEX
8
0
62
57
10
4
20
18
30
0
70
192
0
VERTEX
8
0
62
57
10
4.9
20
18
30
0
70
192
0
VERTEX
8
0
62
57
10
4.9
20
18.9
30
0
70
192
0
VERTEX
8
0
62
57
10
4
20
18.9
30
0
70
192
0
VERTEX
8
0
62
57
10
0
20
0
30
0
70
128
71
1
72
2
73
3
74
0
0
VERTEX
8
0
62
57
10
0
20
0
30
0
70
128
71
1
72
3
73
4
74
0
0
SEQEND
8
0
0
TEXT
8
0
62
255
10
4
20
19
30
0
210
0
220
0
230
1
40
3.000000e-001
51
0
50
0
39
0
72
0
73
0
1
57
0
POLYLINE
8
0
62
58
66
1
10
0
20
0
30
0
70
64
0
VERTEX
8
0
62
58
10
4
20
20
30
0
70
192
0
VERTEX
8
0
62
58
10
4.9
20
20
30
0
70
192
0
VERTEX
8
0
62
58
10
4.9
20
20.9
30
0
70
192
0
VERTEX
8
0
62
58
10
4
20
20.9
30
0
70
192
0
VERTEX
8
0
62
58
10
0
20
0
30
0
70
128
71
1
72
2
73
3
74
0
0
VERTEX
8
0
62
58
10
0
20
0
30
0
70
128
71
1
72
3
73
4
74
0
0
SEQEND
8
0
0
TEXT
8
0
62
255
10
4
20
21
30
0
210
0
220
0
230
1
40
3.000000e-001
51
0
50
0
39
0
72
0
73
0
1
58
0
POLYLINE
8
0
62
59
66
1
10
0
20
0
30
0
70
64
0
VERTEX
8
0
62
59
10
4
20
22
30
0
70
192
0
VERTEX
8
0
62
59
10
4.9
20
22
30
0
70
192
0
VERTEX
8
0
62
59
10
4.9
20
22.9
30
0
70
192
0
VERTEX
8
0
62
59
10
4
20
22.9
30
0
70
192
0
VERTEX
8
0
62
59
10
0
20
0
30
0
70
128
71
1
72
2
73
3
74
0
0
VERTEX
8
0
62
59
10
0
20
0
30
0
70
128
71
1
72
3
73
4
74
0
0
SEQEND
8
0
0
TEXT
8
0
62
255
10
4
20
23
30
0
210
0
220
0
230
1
40
3.000000e-001
51
0
50
0
39
0
72
0
73
0
1
59
0
POLYLINE
8
0
62
60
66
1
10
0
20
0
30
0
70
64
0
VERTEX
8
0
62
60
10
4
20
24
30
0
70
192
0
VERTEX
8
0
62
60
10
4.9
20
24
30
0
70
192
0
VERTEX
8
0
62
60
10
4.9
20
24.9
30
0
70
192
0
VERTEX
8
0
62
60
10
4
20
24.9
30
0
70
192
0
VERTEX
8
0
62
60
10
0
20
0
30
0
70
128
71
1
72
2
73
3
74
0
0
VERTEX
8
0
62
60
10
0
20
0
30
0
70
128
71
1
72
3
73
4
74
0
0
SEQEND
8
0
0
TEXT
8
0
62
255
10
4
20
25
30
0
210
0
220
0
230
1
40
3.000000e-001
51
0
50
0
39
0
72
0
73
0
1
60
0
POLYLINE
8
0
62
61
66
1
10
0
20
0
30
0
70
64
0
VERTEX
8
0
62
61
10
4
20
26
30
0
70
192
0
VERTEX
8
0
62
61
10
4.9
20
26
30
0
70
192
0
VERTEX
8
0
62
61
10
4.9
20
26.9
30
0
70
192
0
VERTEX
8
0
62
61
10
4
20
26.9
30
0
70
192
0
VERTEX
8
0
62
61
10
0
20
0
30
0
70
128
71
1
72
2
73
3
74
0
0
VERTEX
8
0
62
61
10
0
20
0
30
0
70
128
71
1
72
3
73
4
74
0
0
SEQEND
8
0
0
TEXT
8
0
62
255
10
4
20
27
30
0
210
0
220
0
230
1
40
3.000000e-001
51
0
50
0
39
0
72
0
73
0
1
61
0
POLYLINE
8
0
62
62
66
1
10
0
20
0
30
0
70
64
0
VERTEX
8
0
62
62
10
4
20
28
30
0
70
192
0
VERTEX
8
0
62
62
10
4.9
20
28
30
0
70
192
0
VERTEX
8
0
62
62
10
4.9
20
28.9
30
0
70
192
0
VERTEX
8
0
62
62
10
4
20
28.9
30
0
70
192
0
VERTEX
8
0
62
62
10
0
20
0
30
0
70
128
71
1
72
2
73
3
74
0
0
VERTEX
8
0
62
62
10
0
20
0
30
0
70
128
71
1
72
3
73
4
74
0
0
SEQEND
8
0
0
TEXT
8
0
62
255
10
4
20
29
30
0
210
0
220
0
230
1
40
3.000000e-001
51
0
50
0
39
0
72
0
73
0
1
62
0
POLYLINE
8
0
62
63
66
1
10
0
20
0
30
0
70
64
0
VERTEX
8
0
62
63
10
4
20
30
30
0
70
192
0
VERTEX
8
0
62
63
10
4.9
20
30
30
0
70
192
0
VERTEX
8
0
62
63
10
4.9
20
30.9
30
0
70
192
0
VERTEX
8
0
62
63
10
4
20
30.9
30
0
70
192
0
VERTEX
8
0
62
63
10
0
20
0
30
0
70
128
71
1
72
2
73
3
74
0
0
VERTEX
8
0
62
63
10
0
20
0
30
0
70
128
71
1
72
3
73
4
74
0
0
SEQEND
8
0
0
TEXT
8
0
62
255
10
4
20
31
30
0
210
0
220
0
230
1
40
3.000000e-001
51
0
50
0
39
0
72
0
73
0
1
63
0
POLYLINE
8
0
62
64
66
1
10
0
20
0
30
0
70
64
0
VERTEX
8
0
62
64
10
4
20
32
30
0
70
192
0
VERTEX
8
0
62
64
10
4.9
20
32
30
0
70
192
0
VERTEX
8
0
62
64
10
4.9
20
32.9
30
0
70
192
0
VERTEX
8
0
62
64
10
4
20
32.9
30
0
70
192
0
VERTEX
8
0
62
64
10
0
20
0
30
0
70
128
71
1
72
2
73
3
74
0
0
VERTEX
8
0
62
64
10
0
20
0
30
0
70
128
71
1
72
3
73
4
74
0
0
SEQEND
8
0
0
TEXT
8
0
62
255
10
4
20
33
30
0
210
0
220
0
230
1
40
3.000000e-001
51
0
50
0
39
0
72
0
73
0
1
64
0
POLYLINE
8
0
62
65
66
1
10
0
20
0
30
0
70
64
0
VERTEX
8
0
62
65
10
5
20
2
30
0
70
192
0
VERTEX
8
0
62
65
10
5.9
20
2
30
0
70
192
0
VERTEX
8
0
62
65
10
5.9
20
2.9
30
0
70
192
0
VERTEX
8
0
62
65
10
5
20
2.9
30
0
70
192
0
VERTEX
8
0
62
65
10
0
20
0
30
0
70
128
71
1
72
2
73
3
74
0
0
VERTEX
8
0
62
65
10
0
20
0
30
0
70
128
71
1
72
3
73
4
74
0
0
SEQEND
8
0
0
TEXT
8
0
62
255
10
5
20
3
30
0
210
0
220
0
230
1
40
3.000000e-001
51
0
50
0
39
0
72
0
73
0
1
65
0
POLYLINE
8
0
62
66
66
1
10
0
20
0
30
0
70
64
0
VERTEX
8
0
62
66
10
5
20
4
30
0
70
192
0
VERTEX
8
0
62
66
10
5.9
20
4
30
0
70
192
0
VERTEX
8
0
62
66
10
5.9
20
4.9
30
0
70
192
0
VERTEX
8
0
62
66
10
5
20
4.9
30
0
70
192
0
VERTEX
8
0
62
66
10
0
20
0
30
0
70
128
71
1
72
2
73
3
74
0
0
VERTEX
8
0
62
66
10
0
20
0
30
0
70
128
71
1
72
3
73
4
74
0
0
SEQEND
8
0
0
TEXT
8
0
62
255
10
5
20
5
30
0
210
0
220
0
230
1
40
3.000000e-001
51
0
50
0
39
0
72
0
73
0
1
66
0
POLYLINE
8
0
62
67
66
1
10
0
20
0
30
0
70
64
0
VERTEX
8
0
62
67
10
5
20
6
30
0
70
192
0
VERTEX
8
0
62
67
10
5.9
20
6
30
0
70
192
0
VERTEX
8
0
62
67
10
5.9
20
6.9
30
0
70
192
0
VERTEX
8
0
62
67
10
5
20
6.9
30
0
70
192
0
VERTEX
8
0
62
67
10
0
20
0
30
0
70
128
71
1
72
2
73
3
74
0
0
VERTEX
8
0
62
67
10
0
20
0
30
0
70
128
71
1
72
3
73
4
74
0
0
SEQEND
8
0
0
TEXT
8
0
62
255
10
5
20
7
30
0
210
0
220
0
230
1
40
3.000000e-001
51
0
50
0
39
0
72
0
73
0
1
67
0
POLYLINE
8
0
62
68
66
1
10
0
20
0
30
0
70
64
0
VERTEX
8
0
62
68
10
5
20
8
30
0
70
192
0
VERTEX
8
0
62
68
10
5.9
20
8
30
0
70
192
0
VERTEX
8
0
62
68
10
5.9
20
8.9
30
0
70
192
0
VERTEX
8
0
62
68
10
5
20
8.9
30
0
70
192
0
VERTEX
8
0
62
68
10
0
20
0
30
0
70
128
71
1
72
2
73
3
74
0
0
VERTEX
8
0
62
68
10
0
20
0
30
0
70
128
71
1
72
3
73
4
74
0
0
SEQEND
8
0
0
TEXT
8
0
62
255
10
5
20
9
30
0
210
0
220
0
230
1
40
3.000000e-001
51
0
50
0
39
0
72
0
73
0
1
68
0
POLYLINE
8
0
62
69
66
1
10
0
20
0
30
0
70
64
0
VERTEX
8
0
62
69
10
5
20
10
30
0
70
192
0
VERTEX
8
0
62
69
10
5.9
20
10
30
0
70
192
0
VERTEX
8
0
62
69
10
5.9
20
10.9
30
0
70
192
0
VERTEX
8
0
62
69
10
5
20
10.9
30
0
70
192
0
VERTEX
8
0
62
69
10
0
20
0
30
0
70
128
71
1
72
2
73
3
74
0
0
VERTEX
8
0
62
69
10
0
20
0
30
0
70
128
71
1
72
3
73
4
74
0
0
SEQEND
8
0
0
TEXT
8
0
62
255
10
5
20
11
30
0
210
0
220
0
230
1
40
3.000000e-001
51
0
50
0
39
0
72
0
73
0
1
69
0
POLYLINE
8
0
62
70
66
1
10
0
20
0
30
0
70
64
0
VERTEX
8
0
62
70
10
5
20
12
30
0
70
192
0
VERTEX
8
0
62
70
10
5.9
20
12
30
0
70
192
0
VERTEX
8
0
62
70
10
5.9
20
12.9
30
0
70
192
0
VERTEX
8
0
62
70
10
5
20
12.9
30
0
70
192
0
VERTEX
8
0
62
70
10
0
20
0
30
0
70
128
71
1
72
2
73
3
74
0
0
VERTEX
8
0
62
70
10
0
20
0
30
0
70
128
71
1
72
3
73
4
74
0
0
SEQEND
8
0
0
TEXT
8
0
62
255
10
5
20
13
30
0
210
0
220
0
230
1
40
3.000000e-001
51
0
50
0
39
0
72
0
73
0
1
70
0
POLYLINE
8
0
62
71
66
1
10
0
20
0
30
0
70
64
0
VERTEX
8
0
62
71
10
5
20
14
30
0
70
192
0
VERTEX
8
0
62
71
10
5.9
20
14
30
0
70
192
0
VERTEX
8
0
62
71
10
5.9
20
14.9
30
0
70
192
0
VERTEX
8
0
62
71
10
5
20
14.9
30
0
70
192
0
VERTEX
8
0
62
71
10
0
20
0
30
0
70
128
71
1
72
2
73
3
74
0
0
VERTEX
8
0
62
71
10
0
20
0
30
0
70
128
71
1
72
3
73
4
74
0
0
SEQEND
8
0
0
TEXT
8
0
62
255
10
5
20
15
30
0
210
0
220
0
230
1
40
3.000000e-001
51
0
50
0
39
0
72
0
73
0
1
71
0
POLYLINE
8
0
62
72
66
1
10
0
20
0
30
0
70
64
0
VERTEX
8
0
62
72
10
5
20
16
30
0
70
192
0
VERTEX
8
0
62
72
10
5.9
20
16
30
0
70
192
0
VERTEX
8
0
62
72
10
5.9
20
16.9
30
0
70
192
0
VERTEX
8
0
62
72
10
5
20
16.9
30
0
70
192
0
VERTEX
8
0
62
72
10
0
20
0
30
0
70
128
71
1
72
2
73
3
74
0
0
VERTEX
8
0
62
72
10
0
20
0
30
0
70
128
71
1
72
3
73
4
74
0
0
SEQEND
8
0
0
TEXT
8
0
62
255
10
5
20
17
30
0
210
0
220
0
230
1
40
3.000000e-001
51
0
50
0
39
0
72
0
73
0
1
72
0
POLYLINE
8
0
62
73
66
1
10
0
20
0
30
0
70
64
0
VERTEX
8
0
62
73
10
5
20
18
30
0
70
192
0
VERTEX
8
0
62
73
10
5.9
20
18
30
0
70
192
0
VERTEX
8
0
62
73
10
5.9
20
18.9
30
0
70
192
0
VERTEX
8
0
62
73
10
5
20
18.9
30
0
70
192
0
VERTEX
8
0
62
73
10
0
20
0
30
0
70
128
71
1
72
2
73
3
74
0
0
VERTEX
8
0
62
73
10
0
20
0
30
0
70
128
71
1
72
3
73
4
74
0
0
SEQEND
8
0
0
TEXT
8
0
62
255
10
5
20
19
30
0
210
0
220
0
230
1
40
3.000000e-001
51
0
50
0
39
0
72
0
73
0
1
73
0
POLYLINE
8
0
62
74
66
1
10
0
20
0
30
0
70
64
0
VERTEX
8
0
62
74
10
5
20
20
30
0
70
192
0
VERTEX
8
0
62
74
10
5.9
20
20
30
0
70
192
0
VERTEX
8
0
62
74
10
5.9
20
20.9
30
0
70
192
0
VERTEX
8
0
62
74
10
5
20
20.9
30
0
70
192
0
VERTEX
8
0
62
74
10
0
20
0
30
0
70
128
71
1
72
2
73
3
74
0
0
VERTEX
8
0
62
74
10
0
20
0
30
0
70
128
71
1
72
3
73
4
74
0
0
SEQEND
8
0
0
TEXT
8
0
62
255
10
5
20
21
30
0
210
0
220
0
230
1
40
3.000000e-001
51
0
50
0
39
0
72
0
73
0
1
74
0
POLYLINE
8
0
62
75
66
1
10
0
20
0
30
0
70
64
0
VERTEX
8
0
62
75
10
5
20
22
30
0
70
192
0
VERTEX
8
0
62
75
10
5.9
20
22
30
0
70
192
0
VERTEX
8
0
62
75
10
5.9
20
22.9
30
0
70
192
0
VERTEX
8
0
62
75
10
5
20
22.9
30
0
70
192
0
VERTEX
8
0
62
75
10
0
20
0
30
0
70
128
71
1
72
2
73
3
74
0
0
VERTEX
8
0
62
75
10
0
20
0
30
0
70
128
71
1
72
3
73
4
74
0
0
SEQEND
8
0
0
TEXT
8
0
62
255
10
5
20
23
30
0
210
0
220
0
230
1
40
3.000000e-001
51
0
50
0
39
0
72
0
73
0
1
75
0
POLYLINE
8
0
62
76
66
1
10
0
20
0
30
0
70
64
0
VERTEX
8
0
62
76
10
5
20
24
30
0
70
192
0
VERTEX
8
0
62
76
10
5.9
20
24
30
0
70
192
0
VERTEX
8
0
62
76
10
5.9
20
24.9
30
0
70
192
0
VERTEX
8
0
62
76
10
5
20
24.9
30
0
70
192
0
VERTEX
8
0
62
76
10
0
20
0
30
0
70
128
71
1
72
2
73
3
74
0
0
VERTEX
8
0
62
76
10
0
20
0
30
0
70
128
71
1
72
3
73
4
74
0
0
SEQEND
8
0
0
TEXT
8
0
62
255
10
5
20
25
30
0
210
0
220
0
230
1
40
3.000000e-001
51
0
50
0
39
0
72
0
73
0
1
76
0
POLYLINE
8
0
62
77
66
1
10
0
20
0
30
0
70
64
0
VERTEX
8
0
62
77
10
5
20
26
30
0
70
192
0
VERTEX
8
0
62
77
10
5.9
20
26
30
0
70
192
0
VERTEX
8
0
62
77
10
5.9
20
26.9
30
0
70
192
0
VERTEX
8
0
62
77
10
5
20
26.9
30
0
70
192
0
VERTEX
8
0
62
77
10
0
20
0
30
0
70
128
71
1
72
2
73
3
74
0
0
VERTEX
8
0
62
77
10
0
20
0
30
0
70
128
71
1
72
3
73
4
74
0
0
SEQEND
8
0
0
TEXT
8
0
62
255
10
5
20
27
30
0
210
0
220
0
230
1
40
3.000000e-001
51
0
50
0
39
0
72
0
73
0
1
77
0
POLYLINE
8
0
62
78
66
1
10
0
20
0
30
0
70
64
0
VERTEX
8
0
62
78
10
5
20
28
30
0
70
192
0
VERTEX
8
0
62
78
10
5.9
20
28
30
0
70
192
0
VERTEX
8
0
62
78
10
5.9
20
28.9
30
0
70
192
0
VERTEX
8
0
62
78
10
5
20
28.9
30
0
70
192
0
VERTEX
8
0
62
78
10
0
20
0
30
0
70
128
71
1
72
2
73
3
74
0
0
VERTEX
8
0
62
78
10
0
20
0
30
0
70
128
71
1
72
3
73
4
74
0
0
SEQEND
8
0
0
TEXT
8
0
62
255
10
5
20
29
30
0
210
0
220
0
230
1
40
3.000000e-001
51
0
50
0
39
0
72
0
73
0
1
78
0
POLYLINE
8
0
62
79
66
1
10
0
20
0
30
0
70
64
0
VERTEX
8
0
62
79
10
5
20
30
30
0
70
192
0
VERTEX
8
0
62
79
10
5.9
20
30
30
0
70
192
0
VERTEX
8
0
62
79
10
5.9
20
30.9
30
0
70
192
0
VERTEX
8
0
62
79
10
5
20
30.9
30
0
70
192
0
VERTEX
8
0
62
79
10
0
20
0
30
0
70
128
71
1
72
2
73
3
74
0
0
VERTEX
8
0
62
79
10
0
20
0
30
0
70
128
71
1
72
3
73
4
74
0
0
SEQEND
8
0
0
TEXT
8
0
62
255
10
5
20
31
30
0
210
0
220
0
230
1
40
3.000000e-001
51
0
50
0
39
0
72
0
73
0
1
79
0
POLYLINE
8
0
62
80
66
1
10
0
20
0
30
0
70
64
0
VERTEX
8
0
62
80
10
5
20
32
30
0
70
192
0
VERTEX
8
0
62
80
10
5.9
20
32
30
0
70
192
0
VERTEX
8
0
62
80
10
5.9
20
32.9
30
0
70
192
0
VERTEX
8
0
62
80
10
5
20
32.9
30
0
70
192
0
VERTEX
8
0
62
80
10
0
20
0
30
0
70
128
71
1
72
2
73
3
74
0
0
VERTEX
8
0
62
80
10
0
20
0
30
0
70
128
71
1
72
3
73
4
74
0
0
SEQEND
8
0
0
TEXT
8
0
62
255
10
5
20
33
30
0
210
0
220
0
230
1
40
3.000000e-001
51
0
50
0
39
0
72
0
73
0
1
80
0
POLYLINE
8
0
62
81
66
1
10
0
20
0
30
0
70
64
0
VERTEX
8
0
62
81
10
6
20
2
30
0
70
192
0
VERTEX
8
0
62
81
10
6.9
20
2
30
0
70
192
0
VERTEX
8
0
62
81
10
6.9
20
2.9
30
0
70
192
0
VERTEX
8
0
62
81
10
6
20
2.9
30
0
70
192
0
VERTEX
8
0
62
81
10
0
20
0
30
0
70
128
71
1
72
2
73
3
74
0
0
VERTEX
8
0
62
81
10
0
20
0
30
0
70
128
71
1
72
3
73
4
74
0
0
SEQEND
8
0
0
TEXT
8
0
62
255
10
6
20
3
30
0
210
0
220
0
230
1
40
3.000000e-001
51
0
50
0
39
0
72
0
73
0
1
81
0
POLYLINE
8
0
62
82
66
1
10
0
20
0
30
0
70
64
0
VERTEX
8
0
62
82
10
6
20
4
30
0
70
192
0
VERTEX
8
0
62
82
10
6.9
20
4
30
0
70
192
0
VERTEX
8
0
62
82
10
6.9
20
4.9
30
0
70
192
0
VERTEX
8
0
62
82
10
6
20
4.9
30
0
70
192
0
VERTEX
8
0
62
82
10
0
20
0
30
0
70
128
71
1
72
2
73
3
74
0
0
VERTEX
8
0
62
82
10
0
20
0
30
0
70
128
71
1
72
3
73
4
74
0
0
SEQEND
8
0
0
TEXT
8
0
62
255
10
6
20
5
30
0
210
0
220
0
230
1
40
3.000000e-001
51
0
50
0
39
0
72
0
73
0
1
82
0
POLYLINE
8
0
62
83
66
1
10
0
20
0
30
0
70
64
0
VERTEX
8
0
62
83
10
6
20
6
30
0
70
192
0
VERTEX
8
0
62
83
10
6.9
20
6
30
0
70
192
0
VERTEX
8
0
62
83
10
6.9
20
6.9
30
0
70
192
0
VERTEX
8
0
62
83
10
6
20
6.9
30
0
70
192
0
VERTEX
8
0
62
83
10
0
20
0
30
0
70
128
71
1
72
2
73
3
74
0
0
VERTEX
8
0
62
83
10
0
20
0
30
0
70
128
71
1
72
3
73
4
74
0
0
SEQEND
8
0
0
TEXT
8
0
62
255
10
6
20
7
30
0
210
0
220
0
230
1
40
3.000000e-001
51
0
50
0
39
0
72
0
73
0
1
83
0
POLYLINE
8
0
62
84
66
1
10
0
20
0
30
0
70
64
0
VERTEX
8
0
62
84
10
6
20
8
30
0
70
192
0
VERTEX
8
0
62
84
10
6.9
20
8
30
0
70
192
0
VERTEX
8
0
62
84
10
6.9
20
8.9
30
0
70
192
0
VERTEX
8
0
62
84
10
6
20
8.9
30
0
70
192
0
VERTEX
8
0
62
84
10
0
20
0
30
0
70
128
71
1
72
2
73
3
74
0
0
VERTEX
8
0
62
84
10
0
20
0
30
0
70
128
71
1
72
3
73
4
74
0
0
SEQEND
8
0
0
TEXT
8
0
62
255
10
6
20
9
30
0
210
0
220
0
230
1
40
3.000000e-001
51
0
50
0
39
0
72
0
73
0
1
84
0
POLYLINE
8
0
62
85
66
1
10
0
20
0
30
0
70
64
0
VERTEX
8
0
62
85
10
6
20
10
30
0
70
192
0
VERTEX
8
0
62
85
10
6.9
20
10
30
0
70
192
0
VERTEX
8
0
62
85
10
6.9
20
10.9
30
0
70
192
0
VERTEX
8
0
62
85
10
6
20
10.9
30
0
70
192
0
VERTEX
8
0
62
85
10
0
20
0
30
0
70
128
71
1
72
2
73
3
74
0
0
VERTEX
8
0
62
85
10
0
20
0
30
0
70
128
71
1
72
3
73
4
74
0
0
SEQEND
8
0
0
TEXT
8
0
62
255
10
6
20
11
30
0
210
0
220
0
230
1
40
3.000000e-001
51
0
50
0
39
0
72
0
73
0
1
85
0
POLYLINE
8
0
62
86
66
1
10
0
20
0
30
0
70
64
0
VERTEX
8
0
62
86
10
6
20
12
30
0
70
192
0
VERTEX
8
0
62
86
10
6.9
20
12
30
0
70
192
0
VERTEX
8
0
62
86
10
6.9
20
12.9
30
0
70
192
0
VERTEX
8
0
62
86
10
6
20
12.9
30
0
70
192
0
VERTEX
8
0
62
86
10
0
20
0
30
0
70
128
71
1
72
2
73
3
74
0
0
VERTEX
8
0
62
86
10
0
20
0
30
0
70
128
71
1
72
3
73
4
74
0
0
SEQEND
8
0
0
TEXT
8
0
62
255
10
6
20
13
30
0
210
0
220
0
230
1
40
3.000000e-001
51
0
50
0
39
0
72
0
73
0
1
86
0
POLYLINE
8
0
62
87
66
1
10
0
20
0
30
0
70
64
0
VERTEX
8
0
62
87
10
6
20
14
30
0
70
192
0
VERTEX
8
0
62
87
10
6.9
20
14
30
0
70
192
0
VERTEX
8
0
62
87
10
6.9
20
14.9
30
0
70
192
0
VERTEX
8
0
62
87
10
6
20
14.9
30
0
70
192
0
VERTEX
8
0
62
87
10
0
20
0
30
0
70
128
71
1
72
2
73
3
74
0
0
VERTEX
8
0
62
87
10
0
20
0
30
0
70
128
71
1
72
3
73
4
74
0
0
SEQEND
8
0
0
TEXT
8
0
62
255
10
6
20
15
30
0
210
0
220
0
230
1
40
3.000000e-001
51
0
50
0
39
0
72
0
73
0
1
87
0
POLYLINE
8
0
62
88
66
1
10
0
20
0
30
0
70
64
0
VERTEX
8
0
62
88
10
6
20
16
30
0
70
192
0
VERTEX
8
0
62
88
10
6.9
20
16
30
0
70
192
0
VERTEX
8
0
62
88
10
6.9
20
16.9
30
0
70
192
0
VERTEX
8
0
62
88
10
6
20
16.9
30
0
70
192
0
VERTEX
8
0
62
88
10
0
20
0
30
0
70
128
71
1
72
2
73
3
74
0
0
VERTEX
8
0
62
88
10
0
20
0
30
0
70
128
71
1
72
3
73
4
74
0
0
SEQEND
8
0
0
TEXT
8
0
62
255
10
6
20
17
30
0
210
0
220
0
230
1
40
3.000000e-001
51
0
50
0
39
0
72
0
73
0
1
88
0
POLYLINE
8
0
62
89
66
1
10
0
20
0
30
0
70
64
0
VERTEX
8
0
62
89
10
6
20
18
30
0
70
192
0
VERTEX
8
0
62
89
10
6.9
20
18
30
0
70
192
0
VERTEX
8
0
62
89
10
6.9
20
18.9
30
0
70
192
0
VERTEX
8
0
62
89
10
6
20
18.9
30
0
70
192
0
VERTEX
8
0
62
89
10
0
20
0
30
0
70
128
71
1
72
2
73
3
74
0
0
VERTEX
8
0
62
89
10
0
20
0
30
0
70
128
71
1
72
3
73
4
74
0
0
SEQEND
8
0
0
TEXT
8
0
62
255
10
6
20
19
30
0
210
0
220
0
230
1
40
3.000000e-001
51
0
50
0
39
0
72
0
73
0
1
89
0
POLYLINE
8
0
62
90
66
1
10
0
20
0
30
0
70
64
0
VERTEX
8
0
62
90
10
6
20
20
30
0
70
192
0
VERTEX
8
0
62
90
10
6.9
20
20
30
0
70
192
0
VERTEX
8
0
62
90
10
6.9
20
20.9
30
0
70
192
0
VERTEX
8
0
62
90
10
6
20
20.9
30
0
70
192
0
VERTEX
8
0
62
90
10
0
20
0
30
0
70
128
71
1
72
2
73
3
74
0
0
VERTEX
8
0
62
90
10
0
20
0
30
0
70
128
71
1
72
3
73
4
74
0
0
SEQEND
8
0
0
TEXT
8
0
62
255
10
6
20
21
30
0
210
0
220
0
230
1
40
3.000000e-001
51
0
50
0
39
0
72
0
73
0
1
90
0
POLYLINE
8
0
62
91
66
1
10
0
20
0
30
0
70
64
0
VERTEX
8
0
62
91
10
6
20
22
30
0
70
192
0
VERTEX
8
0
62
91
10
6.9
20
22
30
0
70
192
0
VERTEX
8
0
62
91
10
6.9
20
22.9
30
0
70
192
0
VERTEX
8
0
62
91
10
6
20
22.9
30
0
70
192
0
VERTEX
8
0
62
91
10
0
20
0
30
0
70
128
71
1
72
2
73
3
74
0
0
VERTEX
8
0
62
91
10
0
20
0
30
0
70
128
71
1
72
3
73
4
74
0
0
SEQEND
8
0
0
TEXT
8
0
62
255
10
6
20
23
30
0
210
0
220
0
230
1
40
3.000000e-001
51
0
50
0
39
0
72
0
73
0
1
91
0
POLYLINE
8
0
62
92
66
1
10
0
20
0
30
0
70
64
0
VERTEX
8
0
62
92
10
6
20
24
30
0
70
192
0
VERTEX
8
0
62
92
10
6.9
20
24
30
0
70
192
0
VERTEX
8
0
62
92
10
6.9
20
24.9
30
0
70
192
0
VERTEX
8
0
62
92
10
6
20
24.9
30
0
70
192
0
VERTEX
8
0
62
92
10
0
20
0
30
0
70
128
71
1
72
2
73
3
74
0
0
VERTEX
8
0
62
92
10
0
20
0
30
0
70
128
71
1
72
3
73
4
74
0
0
SEQEND
8
0
0
TEXT
8
0
62
255
10
6
20
25
30
0
210
0
220
0
230
1
40
3.000000e-001
51
0
50
0
39
0
72
0
73
0
1
92
0
POLYLINE
8
0
62
93
66
1
10
0
20
0
30
0
70
64
0
VERTEX
8
0
62
93
10
6
20
26
30
0
70
192
0
VERTEX
8
0
62
93
10
6.9
20
26
30
0
70
192
0
VERTEX
8
0
62
93
10
6.9
20
26.9
30
0
70
192
0
VERTEX
8
0
62
93
10
6
20
26.9
30
0
70
192
0
VERTEX
8
0
62
93
10
0
20
0
30
0
70
128
71
1
72
2
73
3
74
0
0
VERTEX
8
0
62
93
10
0
20
0
30
0
70
128
71
1
72
3
73
4
74
0
0
SEQEND
8
0
0
TEXT
8
0
62
255
10
6
20
27
30
0
210
0
220
0
230
1
40
3.000000e-001
51
0
50
0
39
0
72
0
73
0
1
93
0
POLYLINE
8
0
62
94
66
1
10
0
20
0
30
0
70
64
0
VERTEX
8
0
62
94
10
6
20
28
30
0
70
192
0
VERTEX
8
0
62
94
10
6.9
20
28
30
0
70
192
0
VERTEX
8
0
62
94
10
6.9
20
28.9
30
0
70
192
0
VERTEX
8
0
62
94
10
6
20
28.9
30
0
70
192
0
VERTEX
8
0
62
94
10
0
20
0
30
0
70
128
71
1
72
2
73
3
74
0
0
VERTEX
8
0
62
94
10
0
20
0
30
0
70
128
71
1
72
3
73
4
74
0
0
SEQEND
8
0
0
TEXT
8
0
62
255
10
6
20
29
30
0
210
0
220
0
230
1
40
3.000000e-001
51
0
50
0
39
0
72
0
73
0
1
94
0
POLYLINE
8
0
62
95
66
1
10
0
20
0
30
0
70
64
0
VERTEX
8
0
62
95
10
6
20
30
30
0
70
192
0
VERTEX
8
0
62
95
10
6.9
20
30
30
0
70
192
0
VERTEX
8
0
62
95
10
6.9
20
30.9
30
0
70
192
0
VERTEX
8
0
62
95
10
6
20
30.9
30
0
70
192
0
VERTEX
8
0
62
95
10
0
20
0
30
0
70
128
71
1
72
2
73
3
74
0
0
VERTEX
8
0
62
95
10
0
20
0
30
0
70
128
71
1
72
3
73
4
74
0
0
SEQEND
8
0
0
TEXT
8
0
62
255
10
6
20
31
30
0
210
0
220
0
230
1
40
3.000000e-001
51
0
50
0
39
0
72
0
73
0
1
95
0
POLYLINE
8
0
62
96
66
1
10
0
20
0
30
0
70
64
0
VERTEX
8
0
62
96
10
6
20
32
30
0
70
192
0
VERTEX
8
0
62
96
10
6.9
20
32
30
0
70
192
0
VERTEX
8
0
62
96
10
6.9
20
32.9
30
0
70
192
0
VERTEX
8
0
62
96
10
6
20
32.9
30
0
70
192
0
VERTEX
8
0
62
96
10
0
20
0
30
0
70
128
71
1
72
2
73
3
74
0
0
VERTEX
8
0
62
96
10
0
20
0
30
0
70
128
71
1
72
3
73
4
74
0
0
SEQEND
8
0
0
TEXT
8
0
62
255
10
6
20
33
30
0
210
0
220
0
230
1
40
3.000000e-001
51
0
50
0
39
0
72
0
73
0
1
96
0
POLYLINE
8
0
62
97
66
1
10
0
20
0
30
0
70
64
0
VERTEX
8
0
62
97
10
7
20
2
30
0
70
192
0
VERTEX
8
0
62
97
10
7.9
20
2
30
0
70
192
0
VERTEX
8
0
62
97
10
7.9
20
2.9
30
0
70
192
0
VERTEX
8
0
62
97
10
7
20
2.9
30
0
70
192
0
VERTEX
8
0
62
97
10
0
20
0
30
0
70
128
71
1
72
2
73
3
74
0
0
VERTEX
8
0
62
97
10
0
20
0
30
0
70
128
71
1
72
3
73
4
74
0
0
SEQEND
8
0
0
TEXT
8
0
62
255
10
7
20
3
30
0
210
0
220
0
230
1
40
3.000000e-001
51
0
50
0
39
0
72
0
73
0
1
97
0
POLYLINE
8
0
62
98
66
1
10
0
20
0
30
0
70
64
0
VERTEX
8
0
62
98
10
7
20
4
30
0
70
192
0
VERTEX
8
0
62
98
10
7.9
20
4
30
0
70
192
0
VERTEX
8
0
62
98
10
7.9
20
4.9
30
0
70
192
0
VERTEX
8
0
62
98
10
7
20
4.9
30
0
70
192
0
VERTEX
8
0
62
98
10
0
20
0
30
0
70
128
71
1
72
2
73
3
74
0
0
VERTEX
8
0
62
98
10
0
20
0
30
0
70
128
71
1
72
3
73
4
74
0
0
SEQEND
8
0
0
TEXT
8
0
62
255
10
7
20
5
30
0
210
0
220
0
230
1
40
3.000000e-001
51
0
50
0
39
0
72
0
73
0
1
98
0
POLYLINE
8
0
62
99
66
1
10
0
20
0
30
0
70
64
0
VERTEX
8
0
62
99
10
7
20
6
30
0
70
192
0
VERTEX
8
0
62
99
10
7.9
20
6
30
0
70
192
0
VERTEX
8
0
62
99
10
7.9
20
6.9
30
0
70
192
0
VERTEX
8
0
62
99
10
7
20
6.9
30
0
70
192
0
VERTEX
8
0
62
99
10
0
20
0
30
0
70
128
71
1
72
2
73
3
74
0
0
VERTEX
8
0
62
99
10
0
20
0
30
0
70
128
71
1
72
3
73
4
74
0
0
SEQEND
8
0
0
TEXT
8
0
62
255
10
7
20
7
30
0
210
0
220
0
230
1
40
3.000000e-001
51
0
50
0
39
0
72
0
73
0
1
99
0
POLYLINE
8
0
62
100
66
1
10
0
20
0
30
0
70
64
0
VERTEX
8
0
62
100
10
7
20
8
30
0
70
192
0
VERTEX
8
0
62
100
10
7.9
20
8
30
0
70
192
0
VERTEX
8
0
62
100
10
7.9
20
8.9
30
0
70
192
0
VERTEX
8
0
62
100
10
7
20
8.9
30
0
70
192
0
VERTEX
8
0
62
100
10
0
20
0
30
0
70
128
71
1
72
2
73
3
74
0
0
VERTEX
8
0
62
100
10
0
20
0
30
0
70
128
71
1
72
3
73
4
74
0
0
SEQEND
8
0
0
TEXT
8
0
62
255
10
7
20
9
30
0
210
0
220
0
230
1
40
3.000000e-001
51
0
50
0
39
0
72
0
73
0
1
100
0
POLYLINE
8
0
62
101
66
1
10
0
20
0
30
0
70
64
0
VERTEX
8
0
62
101
10
7
20
10
30
0
70
192
0
VERTEX
8
0
62
101
10
7.9
20
10
30
0
70
192
0
VERTEX
8
0
62
101
10
7.9
20
10.9
30
0
70
192
0
VERTEX
8
0
62
101
10
7
20
10.9
30
0
70
192
0
VERTEX
8
0
62
101
10
0
20
0
30
0
70
128
71
1
72
2
73
3
74
0
0
VERTEX
8
0
62
101
10
0
20
0
30
0
70
128
71
1
72
3
73
4
74
0
0
SEQEND
8
0
0
TEXT
8
0
62
255
10
7
20
11
30
0
210
0
220
0
230
1
40
3.000000e-001
51
0
50
0
39
0
72
0
73
0
1
101
0
POLYLINE
8
0
62
102
66
1
10
0
20
0
30
0
70
64
0
VERTEX
8
0
62
102
10
7
20
12
30
0
70
192
0
VERTEX
8
0
62
102
10
7.9
20
12
30
0
70
192
0
VERTEX
8
0
62
102
10
7.9
20
12.9
30
0
70
192
0
VERTEX
8
0
62
102
10
7
20
12.9
30
0
70
192
0
VERTEX
8
0
62
102
10
0
20
0
30
0
70
128
71
1
72
2
73
3
74
0
0
VERTEX
8
0
62
102
10
0
20
0
30
0
70
128
71
1
72
3
73
4
74
0
0
SEQEND
8
0
0
TEXT
8
0
62
255
10
7
20
13
30
0
210
0
220
0
230
1
40
3.000000e-001
51
0
50
0
39
0
72
0
73
0
1
102
0
POLYLINE
8
0
62
103
66
1
10
0
20
0
30
0
70
64
0
VERTEX
8
0
62
103
10
7
20
14
30
0
70
192
0
VERTEX
8
0
62
103
10
7.9
20
14
30
0
70
192
0
VERTEX
8
0
62
103
10
7.9
20
14.9
30
0
70
192
0
VERTEX
8
0
62
103
10
7
20
14.9
30
0
70
192
0
VERTEX
8
0
62
103
10
0
20
0
30
0
70
128
71
1
72
2
73
3
74
0
0
VERTEX
8
0
62
103
10
0
20
0
30
0
70
128
71
1
72
3
73
4
74
0
0
SEQEND
8
0
0
TEXT
8
0
62
255
10
7
20
15
30
0
210
0
220
0
230
1
40
3.000000e-001
51
0
50
0
39
0
72
0
73
0
1
103
0
POLYLINE
8
0
62
104
66
1
10
0
20
0
30
0
70
64
0
VERTEX
8
0
62
104
10
7
20
16
30
0
70
192
0
VERTEX
8
0
62
104
10
7.9
20
16
30
0
70
192
0
VERTEX
8
0
62
104
10
7.9
20
16.9
30
0
70
192
0
VERTEX
8
0
62
104
10
7
20
16.9
30
0
70
192
0
VERTEX
8
0
62
104
10
0
20
0
30
0
70
128
71
1
72
2
73
3
74
0
0
VERTEX
8
0
62
104
10
0
20
0
30
0
70
128
71
1
72
3
73
4
74
0
0
SEQEND
8
0
0
TEXT
8
0
62
255
10
7
20
17
30
0
210
0
220
0
230
1
40
3.000000e-001
51
0
50
0
39
0
72
0
73
0
1
104
0
POLYLINE
8
0
62
105
66
1
10
0
20
0
30
0
70
64
0
VERTEX
8
0
62
105
10
7
20
18
30
0
70
192
0
VERTEX
8
0
62
105
10
7.9
20
18
30
0
70
192
0
VERTEX
8
0
62
105
10
7.9
20
18.9
30
0
70
192
0
VERTEX
8
0
62
105
10
7
20
18.9
30
0
70
192
0
VERTEX
8
0
62
105
10
0
20
0
30
0
70
128
71
1
72
2
73
3
74
0
0
VERTEX
8
0
62
105
10
0
20
0
30
0
70
128
71
1
72
3
73
4
74
0
0
SEQEND
8
0
0
TEXT
8
0
62
255
10
7
20
19
30
0
210
0
220
0
230
1
40
3.000000e-001
51
0
50
0
39
0
72
0
73
0
1
105
0
POLYLINE
8
0
62
106
66
1
10
0
20
0
30
0
70
64
0
VERTEX
8
0
62
106
10
7
20
20
30
0
70
192
0
VERTEX
8
0
62
106
10
7.9
20
20
30
0
70
192
0
VERTEX
8
0
62
106
10
7.9
20
20.9
30
0
70
192
0
VERTEX
8
0
62
106
10
7
20
20.9
30
0
70
192
0
VERTEX
8
0
62
106
10
0
20
0
30
0
70
128
71
1
72
2
73
3
74
0
0
VERTEX
8
0
62
106
10
0
20
0
30
0
70
128
71
1
72
3
73
4
74
0
0
SEQEND
8
0
0
TEXT
8
0
62
255
10
7
20
21
30
0
210
0
220
0
230
1
40
3.000000e-001
51
0
50
0
39
0
72
0
73
0
1
106
0
POLYLINE
8
0
62
107
66
1
10
0
20
0
30
0
70
64
0
VERTEX
8
0
62
107
10
7
20
22
30
0
70
192
0
VERTEX
8
0
62
107
10
7.9
20
22
30
0
70
192
0
VERTEX
8
0
62
107
10
7.9
20
22.9
30
0
70
192
0
VERTEX
8
0
62
107
10
7
20
22.9
30
0
70
192
0
VERTEX
8
0
62
107
10
0
20
0
30
0
70
128
71
1
72
2
73
3
74
0
0
VERTEX
8
0
62
107
10
0
20
0
30
0
70
128
71
1
72
3
73
4
74
0
0
SEQEND
8
0
0
TEXT
8
0
62
255
10
7
20
23
30
0
210
0
220
0
230
1
40
3.000000e-001
51
0
50
0
39
0
72
0
73
0
1
107
0
POLYLINE
8
0
62
108
66
1
10
0
20
0
30
0
70
64
0
VERTEX
8
0
62
108
10
7
20
24
30
0
70
192
0
VERTEX
8
0
62
108
10
7.9
20
24
30
0
70
192
0
VERTEX
8
0
62
108
10
7.9
20
24.9
30
0
70
192
0
VERTEX
8
0
62
108
10
7
20
24.9
30
0
70
192
0
VERTEX
8
0
62
108
10
0
20
0
30
0
70
128
71
1
72
2
73
3
74
0
0
VERTEX
8
0
62
108
10
0
20
0
30
0
70
128
71
1
72
3
73
4
74
0
0
SEQEND
8
0
0
TEXT
8
0
62
255
10
7
20
25
30
0
210
0
220
0
230
1
40
3.000000e-001
51
0
50
0
39
0
72
0
73
0
1
108
0
POLYLINE
8
0
62
109
66
1
10
0
20
0
30
0
70
64
0
VERTEX
8
0
62
109
10
7
20
26
30
0
70
192
0
VERTEX
8
0
62
109
10
7.9
20
26
30
0
70
192
0
VERTEX
8
0
62
109
10
7.9
20
26.9
30
0
70
192
0
VERTEX
8
0
62
109
10
7
20
26.9
30
0
70
192
0
VERTEX
8
0
62
109
10
0
20
0
30
0
70
128
71
1
72
2
73
3
74
0
0
VERTEX
8
0
62
109
10
0
20
0
30
0
70
128
71
1
72
3
73
4
74
0
0
SEQEND
8
0
0
TEXT
8
0
62
255
10
7
20
27
30
0
210
0
220
0
230
1
40
3.000000e-001
51
0
50
0
39
0
72
0
73
0
1
109
0
POLYLINE
8
0
62
110
66
1
10
0
20
0
30
0
70
64
0
VERTEX
8
0
62
110
10
7
20
28
30
0
70
192
0
VERTEX
8
0
62
110
10
7.9
20
28
30
0
70
192
0
VERTEX
8
0
62
110
10
7.9
20
28.9
30
0
70
192
0
VERTEX
8
0
62
110
10
7
20
28.9
30
0
70
192
0
VERTEX
8
0
62
110
10
0
20
0
30
0
70
128
71
1
72
2
73
3
74
0
0
VERTEX
8
0
62
110
10
0
20
0
30
0
70
128
71
1
72
3
73
4
74
0
0
SEQEND
8
0
0
TEXT
8
0
62
255
10
7
20
29
30
0
210
0
220
0
230
1
40
3.000000e-001
51
0
50
0
39
0
72
0
73
0
1
110
0
POLYLINE
8
0
62
111
66
1
10
0
20
0
30
0
70
64
0
VERTEX
8
0
62
111
10
7
20
30
30
0
70
192
0
VERTEX
8
0
62
111
10
7.9
20
30
30
0
70
192
0
VERTEX
8
0
62
111
10
7.9
20
30.9
30
0
70
192
0
VERTEX
8
0
62
111
10
7
20
30.9
30
0
70
192
0
VERTEX
8
0
62
111
10
0
20
0
30
0
70
128
71
1
72
2
73
3
74
0
0
VERTEX
8
0
62
111
10
0
20
0
30
0
70
128
71
1
72
3
73
4
74
0
0
SEQEND
8
0
0
TEXT
8
0
62
255
10
7
20
31
30
0
210
0
220
0
230
1
40
3.000000e-001
51
0
50
0
39
0
72
0
73
0
1
111
0
POLYLINE
8
0
62
112
66
1
10
0
20
0
30
0
70
64
0
VERTEX
8
0
62
112
10
7
20
32
30
0
70
192
0
VERTEX
8
0
62
112
10
7.9
20
32
30
0
70
192
0
VERTEX
8
0
62
112
10
7.9
20
32.9
30
0
70
192
0
VERTEX
8
0
62
112
10
7
20
32.9
30
0
70
192
0
VERTEX
8
0
62
112
10
0
20
0
30
0
70
128
71
1
72
2
73
3
74
0
0
VERTEX
8
0
62
112
10
0
20
0
30
0
70
128
71
1
72
3
73
4
74
0
0
SEQEND
8
0
0
TEXT
8
0
62
255
10
7
20
33
30
0
210
0
220
0
230
1
40
3.000000e-001
51
0
50
0
39
0
72
0
73
0
1
112
0
POLYLINE
8
0
62
113
66
1
10
0
20
0
30
0
70
64
0
VERTEX
8
0
62
113
10
8
20
2
30
0
70
192
0
VERTEX
8
0
62
113
10
8.9
20
2
30
0
70
192
0
VERTEX
8
0
62
113
10
8.9
20
2.9
30
0
70
192
0
VERTEX
8
0
62
113
10
8
20
2.9
30
0
70
192
0
VERTEX
8
0
62
113
10
0
20
0
30
0
70
128
71
1
72
2
73
3
74
0
0
VERTEX
8
0
62
113
10
0
20
0
30
0
70
128
71
1
72
3
73
4
74
0
0
SEQEND
8
0
0
TEXT
8
0
62
255
10
8
20
3
30
0
210
0
220
0
230
1
40
3.000000e-001
51
0
50
0
39
0
72
0
73
0
1
113
0
POLYLINE
8
0
62
114
66
1
10
0
20
0
30
0
70
64
0
VERTEX
8
0
62
114
10
8
20
4
30
0
70
192
0
VERTEX
8
0
62
114
10
8.9
20
4
30
0
70
192
0
VERTEX
8
0
62
114
10
8.9
20
4.9
30
0
70
192
0
VERTEX
8
0
62
114
10
8
20
4.9
30
0
70
192
0
VERTEX
8
0
62
114
10
0
20
0
30
0
70
128
71
1
72
2
73
3
74
0
0
VERTEX
8
0
62
114
10
0
20
0
30
0
70
128
71
1
72
3
73
4
74
0
0
SEQEND
8
0
0
TEXT
8
0
62
255
10
8
20
5
30
0
210
0
220
0
230
1
40
3.000000e-001
51
0
50
0
39
0
72
0
73
0
1
114
0
POLYLINE
8
0
62
115
66
1
10
0
20
0
30
0
70
64
0
VERTEX
8
0
62
115
10
8
20
6
30
0
70
192
0
VERTEX
8
0
62
115
10
8.9
20
6
30
0
70
192
0
VERTEX
8
0
62
115
10
8.9
20
6.9
30
0
70
192
0
VERTEX
8
0
62
115
10
8
20
6.9
30
0
70
192
0
VERTEX
8
0
62
115
10
0
20
0
30
0
70
128
71
1
72
2
73
3
74
0
0
VERTEX
8
0
62
115
10
0
20
0
30
0
70
128
71
1
72
3
73
4
74
0
0
SEQEND
8
0
0
TEXT
8
0
62
255
10
8
20
7
30
0
210
0
220
0
230
1
40
3.000000e-001
51
0
50
0
39
0
72
0
73
0
1
115
0
POLYLINE
8
0
62
116
66
1
10
0
20
0
30
0
70
64
0
VERTEX
8
0
62
116
10
8
20
8
30
0
70
192
0
VERTEX
8
0
62
116
10
8.9
20
8
30
0
70
192
0
VERTEX
8
0
62
116
10
8.9
20
8.9
30
0
70
192
0
VERTEX
8
0
62
116
10
8
20
8.9
30
0
70
192
0
VERTEX
8
0
62
116
10
0
20
0
30
0
70
128
71
1
72
2
73
3
74
0
0
VERTEX
8
0
62
116
10
0
20
0
30
0
70
128
71
1
72
3
73
4
74
0
0
SEQEND
8
0
0
TEXT
8
0
62
255
10
8
20
9
30
0
210
0
220
0
230
1
40
3.000000e-001
51
0
50
0
39
0
72
0
73
0
1
116
0
POLYLINE
8
0
62
117
66
1
10
0
20
0
30
0
70
64
0
VERTEX
8
0
62
117
10
8
20
10
30
0
70
192
0
VERTEX
8
0
62
117
10
8.9
20
10
30
0
70
192
0
VERTEX
8
0
62
117
10
8.9
20
10.9
30
0
70
192
0
VERTEX
8
0
62
117
10
8
20
10.9
30
0
70
192
0
VERTEX
8
0
62
117
10
0
20
0
30
0
70
128
71
1
72
2
73
3
74
0
0
VERTEX
8
0
62
117
10
0
20
0
30
0
70
128
71
1
72
3
73
4
74
0
0
SEQEND
8
0
0
TEXT
8
0
62
255
10
8
20
11
30
0
210
0
220
0
230
1
40
3.000000e-001
51
0
50
0
39
0
72
0
73
0
1
117
0
POLYLINE
8
0
62
118
66
1
10
0
20
0
30
0
70
64
0
VERTEX
8
0
62
118
10
8
20
12
30
0
70
192
0
VERTEX
8
0
62
118
10
8.9
20
12
30
0
70
192
0
VERTEX
8
0
62
118
10
8.9
20
12.9
30
0
70
192
0
VERTEX
8
0
62
118
10
8
20
12.9
30
0
70
192
0
VERTEX
8
0
62
118
10
0
20
0
30
0
70
128
71
1
72
2
73
3
74
0
0
VERTEX
8
0
62
118
10
0
20
0
30
0
70
128
71
1
72
3
73
4
74
0
0
SEQEND
8
0
0
TEXT
8
0
62
255
10
8
20
13
30
0
210
0
220
0
230
1
40
3.000000e-001
51
0
50
0
39
0
72
0
73
0
1
118
0
POLYLINE
8
0
62
119
66
1
10
0
20
0
30
0
70
64
0
VERTEX
8
0
62
119
10
8
20
14
30
0
70
192
0
VERTEX
8
0
62
119
10
8.9
20
14
30
0
70
192
0
VERTEX
8
0
62
119
10
8.9
20
14.9
30
0
70
192
0
VERTEX
8
0
62
119
10
8
20
14.9
30
0
70
192
0
VERTEX
8
0
62
119
10
0
20
0
30
0
70
128
71
1
72
2
73
3
74
0
0
VERTEX
8
0
62
119
10
0
20
0
30
0
70
128
71
1
72
3
73
4
74
0
0
SEQEND
8
0
0
TEXT
8
0
62
255
10
8
20
15
30
0
210
0
220
0
230
1
40
3.000000e-001
51
0
50
0
39
0
72
0
73
0
1
119
0
POLYLINE
8
0
62
120
66
1
10
0
20
0
30
0
70
64
0
VERTEX
8
0
62
120
10
8
20
16
30
0
70
192
0
VERTEX
8
0
62
120
10
8.9
20
16
30
0
70
192
0
VERTEX
8
0
62
120
10
8.9
20
16.9
30
0
70
192
0
VERTEX
8
0
62
120
10
8
20
16.9
30
0
70
192
0
VERTEX
8
0
62
120
10
0
20
0
30
0
70
128
71
1
72
2
73
3
74
0
0
VERTEX
8
0
62
120
10
0
20
0
30
0
70
128
71
1
72
3
73
4
74
0
0
SEQEND
8
0
0
TEXT
8
0
62
255
10
8
20
17
30
0
210
0
220
0
230
1
40
3.000000e-001
51
0
50
0
39
0
72
0
73
0
1
120
0
POLYLINE
8
0
62
121
66
1
10
0
20
0
30
0
70
64
0
VERTEX
8
0
62
121
10
8
20
18
30
0
70
192
0
VERTEX
8
0
62
121
10
8.9
20
18
30
0
70
192
0
VERTEX
8
0
62
121
10
8.9
20
18.9
30
0
70
192
0
VERTEX
8
0
62
121
10
8
20
18.9
30
0
70
192
0
VERTEX
8
0
62
121
10
0
20
0
30
0
70
128
71
1
72
2
73
3
74
0
0
VERTEX
8
0
62
121
10
0
20
0
30
0
70
128
71
1
72
3
73
4
74
0
0
SEQEND
8
0
0
TEXT
8
0
62
255
10
8
20
19
30
0
210
0
220
0
230
1
40
3.000000e-001
51
0
50
0
39
0
72
0
73
0
1
121
0
POLYLINE
8
0
62
122
66
1
10
0
20
0
30
0
70
64
0
VERTEX
8
0
62
122
10
8
20
20
30
0
70
192
0
VERTEX
8
0
62
122
10
8.9
20
20
30
0
70
192
0
VERTEX
8
0
62
122
10
8.9
20
20.9
30
0
70
192
0
VERTEX
8
0
62
122
10
8
20
20.9
30
0
70
192
0
VERTEX
8
0
62
122
10
0
20
0
30
0
70
128
71
1
72
2
73
3
74
0
0
VERTEX
8
0
62
122
10
0
20
0
30
0
70
128
71
1
72
3
73
4
74
0
0
SEQEND
8
0
0
TEXT
8
0
62
255
10
8
20
21
30
0
210
0
220
0
230
1
40
3.000000e-001
51
0
50
0
39
0
72
0
73
0
1
122
0
POLYLINE
8
0
62
123
66
1
10
0
20
0
30
0
70
64
0
VERTEX
8
0
62
123
10
8
20
22
30
0
70
192
0
VERTEX
8
0
62
123
10
8.9
20
22
30
0
70
192
0
VERTEX
8
0
62
123
10
8.9
20
22.9
30
0
70
192
0
VERTEX
8
0
62
123
10
8
20
22.9
30
0
70
192
0
VERTEX
8
0
62
123
10
0
20
0
30
0
70
128
71
1
72
2
73
3
74
0
0
VERTEX
8
0
62
123
10
0
20
0
30
0
70
128
71
1
72
3
73
4
74
0
0
SEQEND
8
0
0
TEXT
8
0
62
255
10
8
20
23
30
0
210
0
220
0
230
1
40
3.000000e-001
51
0
50
0
39
0
72
0
73
0
1
123
0
POLYLINE
8
0
62
124
66
1
10
0
20
0
30
0
70
64
0
VERTEX
8
0
62
124
10
8
20
24
30
0
70
192
0
VERTEX
8
0
62
124
10
8.9
20
24
30
0
70
192
0
VERTEX
8
0
62
124
10
8.9
20
24.9
30
0
70
192
0
VERTEX
8
0
62
124
10
8
20
24.9
30
0
70
192
0
VERTEX
8
0
62
124
10
0
20
0
30
0
70
128
71
1
72
2
73
3
74
0
0
VERTEX
8
0
62
124
10
0
20
0
30
0
70
128
71
1
72
3
73
4
74
0
0
SEQEND
8
0
0
TEXT
8
0
62
255
10
8
20
25
30
0
210
0
220
0
230
1
40
3.000000e-001
51
0
50
0
39
0
72
0
73
0
1
124
0
POLYLINE
8
0
62
125
66
1
10
0
20
0
30
0
70
64
0
VERTEX
8
0
62
125
10
8
20
26
30
0
70
192
0
VERTEX
8
0
62
125
10
8.9
20
26
30
0
70
192
0
VERTEX
8
0
62
125
10
8.9
20
26.9
30
0
70
192
0
VERTEX
8
0
62
125
10
8
20
26.9
30
0
70
192
0
VERTEX
8
0
62
125
10
0
20
0
30
0
70
128
71
1
72
2
73
3
74
0
0
VERTEX
8
0
62
125
10
0
20
0
30
0
70
128
71
1
72
3
73
4
74
0
0
SEQEND
8
0
0
TEXT
8
0
62
255
10
8
20
27
30
0
210
0
220
0
230
1
40
3.000000e-001
51
0
50
0
39
0
72
0
73
0
1
125
0
POLYLINE
8
0
62
126
66
1
10
0
20
0
30
0
70
64
0
VERTEX
8
0
62
126
10
8
20
28
30
0
70
192
0
VERTEX
8
0
62
126
10
8.9
20
28
30
0
70
192
0
VERTEX
8
0
62
126
10
8.9
20
28.9
30
0
70
192
0
VERTEX
8
0
62
126
10
8
20
28.9
30
0
70
192
0
VERTEX
8
0
62
126
10
0
20
0
30
0
70
128
71
1
72
2
73
3
74
0
0
VERTEX
8
0
62
126
10
0
20
0
30
0
70
128
71
1
72
3
73
4
74
0
0
SEQEND
8
0
0
TEXT
8
0
62
255
10
8
20
29
30
0
210
0
220
0
230
1
40
3.000000e-001
51
0
50
0
39
0
72
0
73
0
1
126
0
POLYLINE
8
0
62
127
66
1
10
0
20
0
30
0
70
64
0
VERTEX
8
0
62
127
10
8
20
30
30
0
70
192
0
VERTEX
8
0
62
127
10
8.9
20
30
30
0
70
192
0
VERTEX
8
0
62
127
10
8.9
20
30.9
30
0
70
192
0
VERTEX
8
0
62
127
10
8
20
30.9
30
0
70
192
0
VERTEX
8
0
62
127
10
0
20
0
30
0
70
128
71
1
72
2
73
3
74
0
0
VERTEX
8
0
62
127
10
0
20
0
30
0
70
128
71
1
72
3
73
4
74
0
0
SEQEND
8
0
0
TEXT
8
0
62
255
10
8
20
31
30
0
210
0
220
0
230
1
40
3.000000e-001
51
0
50
0
39
0
72
0
73
0
1
127
0
POLYLINE
8
0
62
128
66
1
10
0
20
0
30
0
70
64
0
VERTEX
8
0
62
128
10
8
20
32
30
0
70
192
0
VERTEX
8
0
62
128
10
8.9
20
32
30
0
70
192
0
VERTEX
8
0
62
128
10
8.9
20
32.9
30
0
70
192
0
VERTEX
8
0
62
128
10
8
20
32.9
30
0
70
192
0
VERTEX
8
0
62
128
10
0
20
0
30
0
70
128
71
1
72
2
73
3
74
0
0
VERTEX
8
0
62
128
10
0
20
0
30
0
70
128
71
1
72
3
73
4
74
0
0
SEQEND
8
0
0
TEXT
8
0
62
255
10
8
20
33
30
0
210
0
220
0
230
1
40
3.000000e-001
51
0
50
0
39
0
72
0
73
0
1
128
0
POLYLINE
8
0
62
129
66
1
10
0
20
0
30
0
70
64
0
VERTEX
8
0
62
129
10
9
20
2
30
0
70
192
0
VERTEX
8
0
62
129
10
9.9
20
2
30
0
70
192
0
VERTEX
8
0
62
129
10
9.9
20
2.9
30
0
70
192
0
VERTEX
8
0
62
129
10
9
20
2.9
30
0
70
192
0
VERTEX
8
0
62
129
10
0
20
0
30
0
70
128
71
1
72
2
73
3
74
0
0
VERTEX
8
0
62
129
10
0
20
0
30
0
70
128
71
1
72
3
73
4
74
0
0
SEQEND
8
0
0
TEXT
8
0
62
255
10
9
20
3
30
0
210
0
220
0
230
1
40
3.000000e-001
51
0
50
0
39
0
72
0
73
0
1
129
0
POLYLINE
8
0
62
130
66
1
10
0
20
0
30
0
70
64
0
VERTEX
8
0
62
130
10
9
20
4
30
0
70
192
0
VERTEX
8
0
62
130
10
9.9
20
4
30
0
70
192
0
VERTEX
8
0
62
130
10
9.9
20
4.9
30
0
70
192
0
VERTEX
8
0
62
130
10
9
20
4.9
30
0
70
192
0
VERTEX
8
0
62
130
10
0
20
0
30
0
70
128
71
1
72
2
73
3
74
0
0
VERTEX
8
0
62
130
10
0
20
0
30
0
70
128
71
1
72
3
73
4
74
0
0
SEQEND
8
0
0
TEXT
8
0
62
255
10
9
20
5
30
0
210
0
220
0
230
1
40
3.000000e-001
51
0
50
0
39
0
72
0
73
0
1
130
0
POLYLINE
8
0
62
131
66
1
10
0
20
0
30
0
70
64
0
VERTEX
8
0
62
131
10
9
20
6
30
0
70
192
0
VERTEX
8
0
62
131
10
9.9
20
6
30
0
70
192
0
VERTEX
8
0
62
131
10
9.9
20
6.9
30
0
70
192
0
VERTEX
8
0
62
131
10
9
20
6.9
30
0
70
192
0
VERTEX
8
0
62
131
10
0
20
0
30
0
70
128
71
1
72
2
73
3
74
0
0
VERTEX
8
0
62
131
10
0
20
0
30
0
70
128
71
1
72
3
73
4
74
0
0
SEQEND
8
0
0
TEXT
8
0
62
255
10
9
20
7
30
0
210
0
220
0
230
1
40
3.000000e-001
51
0
50
0
39
0
72
0
73
0
1
131
0
POLYLINE
8
0
62
132
66
1
10
0
20
0
30
0
70
64
0
VERTEX
8
0
62
132
10
9
20
8
30
0
70
192
0
VERTEX
8
0
62
132
10
9.9
20
8
30
0
70
192
0
VERTEX
8
0
62
132
10
9.9
20
8.9
30
0
70
192
0
VERTEX
8
0
62
132
10
9
20
8.9
30
0
70
192
0
VERTEX
8
0
62
132
10
0
20
0
30
0
70
128
71
1
72
2
73
3
74
0
0
VERTEX
8
0
62
132
10
0
20
0
30
0
70
128
71
1
72
3
73
4
74
0
0
SEQEND
8
0
0
TEXT
8
0
62
255
10
9
20
9
30
0
210
0
220
0
230
1
40
3.000000e-001
51
0
50
0
39
0
72
0
73
0
1
132
0
POLYLINE
8
0
62
133
66
1
10
0
20
0
30
0
70
64
0
VERTEX
8
0
62
133
10
9
20
10
30
0
70
192
0
VERTEX
8
0
62
133
10
9.9
20
10
30
0
70
192
0
VERTEX
8
0
62
133
10
9.9
20
10.9
30
0
70
192
0
VERTEX
8
0
62
133
10
9
20
10.9
30
0
70
192
0
VERTEX
8
0
62
133
10
0
20
0
30
0
70
128
71
1
72
2
73
3
74
0
0
VERTEX
8
0
62
133
10
0
20
0
30
0
70
128
71
1
72
3
73
4
74
0
0
SEQEND
8
0
0
TEXT
8
0
62
255
10
9
20
11
30
0
210
0
220
0
230
1
40
3.000000e-001
51
0
50
0
39
0
72
0
73
0
1
133
0
POLYLINE
8
0
62
134
66
1
10
0
20
0
30
0
70
64
0
VERTEX
8
0
62
134
10
9
20
12
30
0
70
192
0
VERTEX
8
0
62
134
10
9.9
20
12
30
0
70
192
0
VERTEX
8
0
62
134
10
9.9
20
12.9
30
0
70
192
0
VERTEX
8
0
62
134
10
9
20
12.9
30
0
70
192
0
VERTEX
8
0
62
134
10
0
20
0
30
0
70
128
71
1
72
2
73
3
74
0
0
VERTEX
8
0
62
134
10
0
20
0
30
0
70
128
71
1
72
3
73
4
74
0
0
SEQEND
8
0
0
TEXT
8
0
62
255
10
9
20
13
30
0
210
0
220
0
230
1
40
3.000000e-001
51
0
50
0
39
0
72
0
73
0
1
134
0
POLYLINE
8
0
62
135
66
1
10
0
20
0
30
0
70
64
0
VERTEX
8
0
62
135
10
9
20
14
30
0
70
192
0
VERTEX
8
0
62
135
10
9.9
20
14
30
0
70
192
0
VERTEX
8
0
62
135
10
9.9
20
14.9
30
0
70
192
0
VERTEX
8
0
62
135
10
9
20
14.9
30
0
70
192
0
VERTEX
8
0
62
135
10
0
20
0
30
0
70
128
71
1
72
2
73
3
74
0
0
VERTEX
8
0
62
135
10
0
20
0
30
0
70
128
71
1
72
3
73
4
74
0
0
SEQEND
8
0
0
TEXT
8
0
62
255
10
9
20
15
30
0
210
0
220
0
230
1
40
3.000000e-001
51
0
50
0
39
0
72
0
73
0
1
135
0
POLYLINE
8
0
62
136
66
1
10
0
20
0
30
0
70
64
0
VERTEX
8
0
62
136
10
9
20
16
30
0
70
192
0
VERTEX
8
0
62
136
10
9.9
20
16
30
0
70
192
0
VERTEX
8
0
62
136
10
9.9
20
16.9
30
0
70
192
0
VERTEX
8
0
62
136
10
9
20
16.9
30
0
70
192
0
VERTEX
8
0
62
136
10
0
20
0
30
0
70
128
71
1
72
2
73
3
74
0
0
VERTEX
8
0
62
136
10
0
20
0
30
0
70
128
71
1
72
3
73
4
74
0
0
SEQEND
8
0
0
TEXT
8
0
62
255
10
9
20
17
30
0
210
0
220
0
230
1
40
3.000000e-001
51
0
50
0
39
0
72
0
73
0
1
136
0
POLYLINE
8
0
62
137
66
1
10
0
20
0
30
0
70
64
0
VERTEX
8
0
62
137
10
9
20
18
30
0
70
192
0
VERTEX
8
0
62
137
10
9.9
20
18
30
0
70
192
0
VERTEX
8
0
62
137
10
9.9
20
18.9
30
0
70
192
0
VERTEX
8
0
62
137
10
9
20
18.9
30
0
70
192
0
VERTEX
8
0
62
137
10
0
20
0
30
0
70
128
71
1
72
2
73
3
74
0
0
VERTEX
8
0
62
137
10
0
20
0
30
0
70
128
71
1
72
3
73
4
74
0
0
SEQEND
8
0
0
TEXT
8
0
62
255
10
9
20
19
30
0
210
0
220
0
230
1
40
3.000000e-001
51
0
50
0
39
0
72
0
73
0
1
137
0
POLYLINE
8
0
62
138
66
1
10
0
20
0
30
0
70
64
0
VERTEX
8
0
62
138
10
9
20
20
30
0
70
192
0
VERTEX
8
0
62
138
10
9.9
20
20
30
0
70
192
0
VERTEX
8
0
62
138
10
9.9
20
20.9
30
0
70
192
0
VERTEX
8
0
62
138
10
9
20
20.9
30
0
70
192
0
VERTEX
8
0
62
138
10
0
20
0
30
0
70
128
71
1
72
2
73
3
74
0
0
VERTEX
8
0
62
138
10
0
20
0
30
0
70
128
71
1
72
3
73
4
74
0
0
SEQEND
8
0
0
TEXT
8
0
62
255
10
9
20
21
30
0
210
0
220
0
230
1
40
3.000000e-001
51
0
50
0
39
0
72
0
73
0
1
138
0
POLYLINE
8
0
62
139
66
1
10
0
20
0
30
0
70
64
0
VERTEX
8
0
62
139
10
9
20
22
30
0
70
192
0
VERTEX
8
0
62
139
10
9.9
20
22
30
0
70
192
0
VERTEX
8
0
62
139
10
9.9
20
22.9
30
0
70
192
0
VERTEX
8
0
62
139
10
9
20
22.9
30
0
70
192
0
VERTEX
8
0
62
139
10
0
20
0
30
0
70
128
71
1
72
2
73
3
74
0
0
VERTEX
8
0
62
139
10
0
20
0
30
0
70
128
71
1
72
3
73
4
74
0
0
SEQEND
8
0
0
TEXT
8
0
62
255
10
9
20
23
30
0
210
0
220
0
230
1
40
3.000000e-001
51
0
50
0
39
0
72
0
73
0
1
139
0
POLYLINE
8
0
62
140
66
1
10
0
20
0
30
0
70
64
0
VERTEX
8
0
62
140
10
9
20
24
30
0
70
192
0
VERTEX
8
0
62
140
10
9.9
20
24
30
0
70
192
0
VERTEX
8
0
62
140
10
9.9
20
24.9
30
0
70
192
0
VERTEX
8
0
62
140
10
9
20
24.9
30
0
70
192
0
VERTEX
8
0
62
140
10
0
20
0
30
0
70
128
71
1
72
2
73
3
74
0
0
VERTEX
8
0
62
140
10
0
20
0
30
0
70
128
71
1
72
3
73
4
74
0
0
SEQEND
8
0
0
TEXT
8
0
62
255
10
9
20
25
30
0
210
0
220
0
230
1
40
3.000000e-001
51
0
50
0
39
0
72
0
73
0
1
140
0
POLYLINE
8
0
62
141
66
1
10
0
20
0
30
0
70
64
0
VERTEX
8
0
62
141
10
9
20
26
30
0
70
192
0
VERTEX
8
0
62
141
10
9.9
20
26
30
0
70
192
0
VERTEX
8
0
62
141
10
9.9
20
26.9
30
0
70
192
0
VERTEX
8
0
62
141
10
9
20
26.9
30
0
70
192
0
VERTEX
8
0
62
141
10
0
20
0
30
0
70
128
71
1
72
2
73
3
74
0
0
VERTEX
8
0
62
141
10
0
20
0
30
0
70
128
71
1
72
3
73
4
74
0
0
SEQEND
8
0
0
TEXT
8
0
62
255
10
9
20
27
30
0
210
0
220
0
230
1
40
3.000000e-001
51
0
50
0
39
0
72
0
73
0
1
141
0
POLYLINE
8
0
62
142
66
1
10
0
20
0
30
0
70
64
0
VERTEX
8
0
62
142
10
9
20
28
30
0
70
192
0
VERTEX
8
0
62
142
10
9.9
20
28
30
0
70
192
0
VERTEX
8
0
62
142
10
9.9
20
28.9
30
0
70
192
0
VERTEX
8
0
62
142
10
9
20
28.9
30
0
70
192
0
VERTEX
8
0
62
142
10
0
20
0
30
0
70
128
71
1
72
2
73
3
74
0
0
VERTEX
8
0
62
142
10
0
20
0
30
0
70
128
71
1
72
3
73
4
74
0
0
SEQEND
8
0
0
TEXT
8
0
62
255
10
9
20
29
30
0
210
0
220
0
230
1
40
3.000000e-001
51
0
50
0
39
0
72
0
73
0
1
142
0
POLYLINE
8
0
62
143
66
1
10
0
20
0
30
0
70
64
0
VERTEX
8
0
62
143
10
9
20
30
30
0
70
192
0
VERTEX
8
0
62
143
10
9.9
20
30
30
0
70
192
0
VERTEX
8
0
62
143
10
9.9
20
30.9
30
0
70
192
0
VERTEX
8
0
62
143
10
9
20
30.9
30
0
70
192
0
VERTEX
8
0
62
143
10
0
20
0
30
0
70
128
71
1
72
2
73
3
74
0
0
VERTEX
8
0
62
143
10
0
20
0
30
0
70
128
71
1
72
3
73
4
74
0
0
SEQEND
8
0
0
TEXT
8
0
62
255
10
9
20
31
30
0
210
0
220
0
230
1
40
3.000000e-001
51
0
50
0
39
0
72
0
73
0
1
143
0
POLYLINE
8
0
62
144
66
1
10
0
20
0
30
0
70
64
0
VERTEX
8
0
62
144
10
9
20
32
30
0
70
192
0
VERTEX
8
0
62
144
10
9.9
20
32
30
0
70
192
0
VERTEX
8
0
62
144
10
9.9
20
32.9
30
0
70
192
0
VERTEX
8
0
62
144
10
9
20
32.9
30
0
70
192
0
VERTEX
8
0
62
144
10
0
20
0
30
0
70
128
71
1
72
2
73
3
74
0
0
VERTEX
8
0
62
144
10
0
20
0
30
0
70
128
71
1
72
3
73
4
74
0
0
SEQEND
8
0
0
TEXT
8
0
62
255
10
9
20
33
30
0
210
0
220
0
230
1
40
3.000000e-001
51
0
50
0
39
0
72
0
73
0
1
144
0
POLYLINE
8
0
62
145
66
1
10
0
20
0
30
0
70
64
0
VERTEX
8
0
62
145
10
10
20
2
30
0
70
192
0
VERTEX
8
0
62
145
10
10.9
20
2
30
0
70
192
0
VERTEX
8
0
62
145
10
10.9
20
2.9
30
0
70
192
0
VERTEX
8
0
62
145
10
10
20
2.9
30
0
70
192
0
VERTEX
8
0
62
145
10
0
20
0
30
0
70
128
71
1
72
2
73
3
74
0
0
VERTEX
8
0
62
145
10
0
20
0
30
0
70
128
71
1
72
3
73
4
74
0
0
SEQEND
8
0
0
TEXT
8
0
62
255
10
10
20
3
30
0
210
0
220
0
230
1
40
3.000000e-001
51
0
50
0
39
0
72
0
73
0
1
145
0
POLYLINE
8
0
62
146
66
1
10
0
20
0
30
0
70
64
0
VERTEX
8
0
62
146
10
10
20
4
30
0
70
192
0
VERTEX
8
0
62
146
10
10.9
20
4
30
0
70
192
0
VERTEX
8
0
62
146
10
10.9
20
4.9
30
0
70
192
0
VERTEX
8
0
62
146
10
10
20
4.9
30
0
70
192
0
VERTEX
8
0
62
146
10
0
20
0
30
0
70
128
71
1
72
2
73
3
74
0
0
VERTEX
8
0
62
146
10
0
20
0
30
0
70
128
71
1
72
3
73
4
74
0
0
SEQEND
8
0
0
TEXT
8
0
62
255
10
10
20
5
30
0
210
0
220
0
230
1
40
3.000000e-001
51
0
50
0
39
0
72
0
73
0
1
146
0
POLYLINE
8
0
62
147
66
1
10
0
20
0
30
0
70
64
0
VERTEX
8
0
62
147
10
10
20
6
30
0
70
192
0
VERTEX
8
0
62
147
10
10.9
20
6
30
0
70
192
0
VERTEX
8
0
62
147
10
10.9
20
6.9
30
0
70
192
0
VERTEX
8
0
62
147
10
10
20
6.9
30
0
70
192
0
VERTEX
8
0
62
147
10
0
20
0
30
0
70
128
71
1
72
2
73
3
74
0
0
VERTEX
8
0
62
147
10
0
20
0
30
0
70
128
71
1
72
3
73
4
74
0
0
SEQEND
8
0
0
TEXT
8
0
62
255
10
10
20
7
30
0
210
0
220
0
230
1
40
3.000000e-001
51
0
50
0
39
0
72
0
73
0
1
147
0
POLYLINE
8
0
62
148
66
1
10
0
20
0
30
0
70
64
0
VERTEX
8
0
62
148
10
10
20
8
30
0
70
192
0
VERTEX
8
0
62
148
10
10.9
20
8
30
0
70
192
0
VERTEX
8
0
62
148
10
10.9
20
8.9
30
0
70
192
0
VERTEX
8
0
62
148
10
10
20
8.9
30
0
70
192
0
VERTEX
8
0
62
148
10
0
20
0
30
0
70
128
71
1
72
2
73
3
74
0
0
VERTEX
8
0
62
148
10
0
20
0
30
0
70
128
71
1
72
3
73
4
74
0
0
SEQEND
8
0
0
TEXT
8
0
62
255
10
10
20
9
30
0
210
0
220
0
230
1
40
3.000000e-001
51
0
50
0
39
0
72
0
73
0
1
148
0
POLYLINE
8
0
62
149
66
1
10
0
20
0
30
0
70
64
0
VERTEX
8
0
62
149
10
10
20
10
30
0
70
192
0
VERTEX
8
0
62
149
10
10.9
20
10
30
0
70
192
0
VERTEX
8
0
62
149
10
10.9
20
10.9
30
0
70
192
0
VERTEX
8
0
62
149
10
10
20
10.9
30
0
70
192
0
VERTEX
8
0
62
149
10
0
20
0
30
0
70
128
71
1
72
2
73
3
74
0
0
VERTEX
8
0
62
149
10
0
20
0
30
0
70
128
71
1
72
3
73
4
74
0
0
SEQEND
8
0
0
TEXT
8
0
62
255
10
10
20
11
30
0
210
0
220
0
230
1
40
3.000000e-001
51
0
50
0
39
0
72
0
73
0
1
149
0
POLYLINE
8
0
62
150
66
1
10
0
20
0
30
0
70
64
0
VERTEX
8
0
62
150
10
10
20
12
30
0
70
192
0
VERTEX
8
0
62
150
10
10.9
20
12
30
0
70
192
0
VERTEX
8
0
62
150
10
10.9
20
12.9
30
0
70
192
0
VERTEX
8
0
62
150
10
10
20
12.9
30
0
70
192
0
VERTEX
8
0
62
150
10
0
20
0
30
0
70
128
71
1
72
2
73
3
74
0
0
VERTEX
8
0
62
150
10
0
20
0
30
0
70
128
71
1
72
3
73
4
74
0
0
SEQEND
8
0
0
TEXT
8
0
62
255
10
10
20
13
30
0
210
0
220
0
230
1
40
3.000000e-001
51
0
50
0
39
0
72
0
73
0
1
150
0
POLYLINE
8
0
62
151
66
1
10
0
20
0
30
0
70
64
0
VERTEX
8
0
62
151
10
10
20
14
30
0
70
192
0
VERTEX
8
0
62
151
10
10.9
20
14
30
0
70
192
0
VERTEX
8
0
62
151
10
10.9
20
14.9
30
0
70
192
0
VERTEX
8
0
62
151
10
10
20
14.9
30
0
70
192
0
VERTEX
8
0
62
151
10
0
20
0
30
0
70
128
71
1
72
2
73
3
74
0
0
VERTEX
8
0
62
151
10
0
20
0
30
0
70
128
71
1
72
3
73
4
74
0
0
SEQEND
8
0
0
TEXT
8
0
62
255
10
10
20
15
30
0
210
0
220
0
230
1
40
3.000000e-001
51
0
50
0
39
0
72
0
73
0
1
151
0
POLYLINE
8
0
62
152
66
1
10
0
20
0
30
0
70
64
0
VERTEX
8
0
62
152
10
10
20
16
30
0
70
192
0
VERTEX
8
0
62
152
10
10.9
20
16
30
0
70
192
0
VERTEX
8
0
62
152
10
10.9
20
16.9
30
0
70
192
0
VERTEX
8
0
62
152
10
10
20
16.9
30
0
70
192
0
VERTEX
8
0
62
152
10
0
20
0
30
0
70
128
71
1
72
2
73
3
74
0
0
VERTEX
8
0
62
152
10
0
20
0
30
0
70
128
71
1
72
3
73
4
74
0
0
SEQEND
8
0
0
TEXT
8
0
62
255
10
10
20
17
30
0
210
0
220
0
230
1
40
3.000000e-001
51
0
50
0
39
0
72
0
73
0
1
152
0
POLYLINE
8
0
62
153
66
1
10
0
20
0
30
0
70
64
0
VERTEX
8
0
62
153
10
10
20
18
30
0
70
192
0
VERTEX
8
0
62
153
10
10.9
20
18
30
0
70
192
0
VERTEX
8
0
62
153
10
10.9
20
18.9
30
0
70
192
0
VERTEX
8
0
62
153
10
10
20
18.9
30
0
70
192
0
VERTEX
8
0
62
153
10
0
20
0
30
0
70
128
71
1
72
2
73
3
74
0
0
VERTEX
8
0
62
153
10
0
20
0
30
0
70
128
71
1
72
3
73
4
74
0
0
SEQEND
8
0
0
TEXT
8
0
62
255
10
10
20
19
30
0
210
0
220
0
230
1
40
3.000000e-001
51
0
50
0
39
0
72
0
73
0
1
153
0
POLYLINE
8
0
62
154
66
1
10
0
20
0
30
0
70
64
0
VERTEX
8
0
62
154
10
10
20
20
30
0
70
192
0
VERTEX
8
0
62
154
10
10.9
20
20
30
0
70
192
0
VERTEX
8
0
62
154
10
10.9
20
20.9
30
0
70
192
0
VERTEX
8
0
62
154
10
10
20
20.9
30
0
70
192
0
VERTEX
8
0
62
154
10
0
20
0
30
0
70
128
71
1
72
2
73
3
74
0
0
VERTEX
8
0
62
154
10
0
20
0
30
0
70
128
71
1
72
3
73
4
74
0
0
SEQEND
8
0
0
TEXT
8
0
62
255
10
10
20
21
30
0
210
0
220
0
230
1
40
3.000000e-001
51
0
50
0
39
0
72
0
73
0
1
154
0
POLYLINE
8
0
62
155
66
1
10
0
20
0
30
0
70
64
0
VERTEX
8
0
62
155
10
10
20
22
30
0
70
192
0
VERTEX
8
0
62
155
10
10.9
20
22
30
0
70
192
0
VERTEX
8
0
62
155
10
10.9
20
22.9
30
0
70
192
0
VERTEX
8
0
62
155
10
10
20
22.9
30
0
70
192
0
VERTEX
8
0
62
155
10
0
20
0
30
0
70
128
71
1
72
2
73
3
74
0
0
VERTEX
8
0
62
155
10
0
20
0
30
0
70
128
71
1
72
3
73
4
74
0
0
SEQEND
8
0
0
TEXT
8
0
62
255
10
10
20
23
30
0
210
0
220
0
230
1
40
3.000000e-001
51
0
50
0
39
0
72
0
73
0
1
155
0
POLYLINE
8
0
62
156
66
1
10
0
20
0
30
0
70
64
0
VERTEX
8
0
62
156
10
10
20
24
30
0
70
192
0
VERTEX
8
0
62
156
10
10.9
20
24
30
0
70
192
0
VERTEX
8
0
62
156
10
10.9
20
24.9
30
0
70
192
0
VERTEX
8
0
62
156
10
10
20
24.9
30
0
70
192
0
VERTEX
8
0
62
156
10
0
20
0
30
0
70
128
71
1
72
2
73
3
74
0
0
VERTEX
8
0
62
156
10
0
20
0
30
0
70
128
71
1
72
3
73
4
74
0
0
SEQEND
8
0
0
TEXT
8
0
62
255
10
10
20
25
30
0
210
0
220
0
230
1
40
3.000000e-001
51
0
50
0
39
0
72
0
73
0
1
156
0
POLYLINE
8
0
62
157
66
1
10
0
20
0
30
0
70
64
0
VERTEX
8
0
62
157
10
10
20
26
30
0
70
192
0
VERTEX
8
0
62
157
10
10.9
20
26
30
0
70
192
0
VERTEX
8
0
62
157
10
10.9
20
26.9
30
0
70
192
0
VERTEX
8
0
62
157
10
10
20
26.9
30
0
70
192
0
VERTEX
8
0
62
157
10
0
20
0
30
0
70
128
71
1
72
2
73
3
74
0
0
VERTEX
8
0
62
157
10
0
20
0
30
0
70
128
71
1
72
3
73
4
74
0
0
SEQEND
8
0
0
TEXT
8
0
62
255
10
10
20
27
30
0
210
0
220
0
230
1
40
3.000000e-001
51
0
50
0
39
0
72
0
73
0
1
157
0
POLYLINE
8
0
62
158
66
1
10
0
20
0
30
0
70
64
0
VERTEX
8
0
62
158
10
10
20
28
30
0
70
192
0
VERTEX
8
0
62
158
10
10.9
20
28
30
0
70
192
0
VERTEX
8
0
62
158
10
10.9
20
28.9
30
0
70
192
0
VERTEX
8
0
62
158
10
10
20
28.9
30
0
70
192
0
VERTEX
8
0
62
158
10
0
20
0
30
0
70
128
71
1
72
2
73
3
74
0
0
VERTEX
8
0
62
158
10
0
20
0
30
0
70
128
71
1
72
3
73
4
74
0
0
SEQEND
8
0
0
TEXT
8
0
62
255
10
10
20
29
30
0
210
0
220
0
230
1
40
3.000000e-001
51
0
50
0
39
0
72
0
73
0
1
158
0
POLYLINE
8
0
62
159
66
1
10
0
20
0
30
0
70
64
0
VERTEX
8
0
62
159
10
10
20
30
30
0
70
192
0
VERTEX
8
0
62
159
10
10.9
20
30
30
0
70
192
0
VERTEX
8
0
62
159
10
10.9
20
30.9
30
0
70
192
0
VERTEX
8
0
62
159
10
10
20
30.9
30
0
70
192
0
VERTEX
8
0
62
159
10
0
20
0
30
0
70
128
71
1
72
2
73
3
74
0
0
VERTEX
8
0
62
159
10
0
20
0
30
0
70
128
71
1
72
3
73
4
74
0
0
SEQEND
8
0
0
TEXT
8
0
62
255
10
10
20
31
30
0
210
0
220
0
230
1
40
3.000000e-001
51
0
50
0
39
0
72
0
73
0
1
159
0
POLYLINE
8
0
62
160
66
1
10
0
20
0
30
0
70
64
0
VERTEX
8
0
62
160
10
10
20
32
30
0
70
192
0
VERTEX
8
0
62
160
10
10.9
20
32
30
0
70
192
0
VERTEX
8
0
62
160
10
10.9
20
32.9
30
0
70
192
0
VERTEX
8
0
62
160
10
10
20
32.9
30
0
70
192
0
VERTEX
8
0
62
160
10
0
20
0
30
0
70
128
71
1
72
2
73
3
74
0
0
VERTEX
8
0
62
160
10
0
20
0
30
0
70
128
71
1
72
3
73
4
74
0
0
SEQEND
8
0
0
TEXT
8
0
62
255
10
10
20
33
30
0
210
0
220
0
230
1
40
3.000000e-001
51
0
50
0
39
0
72
0
73
0
1
160
0
POLYLINE
8
0
62
161
66
1
10
0
20
0
30
0
70
64
0
VERTEX
8
0
62
161
10
11
20
2
30
0
70
192
0
VERTEX
8
0
62
161
10
11.9
20
2
30
0
70
192
0
VERTEX
8
0
62
161
10
11.9
20
2.9
30
0
70
192
0
VERTEX
8
0
62
161
10
11
20
2.9
30
0
70
192
0
VERTEX
8
0
62
161
10
0
20
0
30
0
70
128
71
1
72
2
73
3
74
0
0
VERTEX
8
0
62
161
10
0
20
0
30
0
70
128
71
1
72
3
73
4
74
0
0
SEQEND
8
0
0
TEXT
8
0
62
255
10
11
20
3
30
0
210
0
220
0
230
1
40
3.000000e-001
51
0
50
0
39
0
72
0
73
0
1
161
0
POLYLINE
8
0
62
162
66
1
10
0
20
0
30
0
70
64
0
VERTEX
8
0
62
162
10
11
20
4
30
0
70
192
0
VERTEX
8
0
62
162
10
11.9
20
4
30
0
70
192
0
VERTEX
8
0
62
162
10
11.9
20
4.9
30
0
70
192
0
VERTEX
8
0
62
162
10
11
20
4.9
30
0
70
192
0
VERTEX
8
0
62
162
10
0
20
0
30
0
70
128
71
1
72
2
73
3
74
0
0
VERTEX
8
0
62
162
10
0
20
0
30
0
70
128
71
1
72
3
73
4
74
0
0
SEQEND
8
0
0
TEXT
8
0
62
255
10
11
20
5
30
0
210
0
220
0
230
1
40
3.000000e-001
51
0
50
0
39
0
72
0
73
0
1
162
0
POLYLINE
8
0
62
163
66
1
10
0
20
0
30
0
70
64
0
VERTEX
8
0
62
163
10
11
20
6
30
0
70
192
0
VERTEX
8
0
62
163
10
11.9
20
6
30
0
70
192
0
VERTEX
8
0
62
163
10
11.9
20
6.9
30
0
70
192
0
VERTEX
8
0
62
163
10
11
20
6.9
30
0
70
192
0
VERTEX
8
0
62
163
10
0
20
0
30
0
70
128
71
1
72
2
73
3
74
0
0
VERTEX
8
0
62
163
10
0
20
0
30
0
70
128
71
1
72
3
73
4
74
0
0
SEQEND
8
0
0
TEXT
8
0
62
255
10
11
20
7
30
0
210
0
220
0
230
1
40
3.000000e-001
51
0
50
0
39
0
72
0
73
0
1
163
0
POLYLINE
8
0
62
164
66
1
10
0
20
0
30
0
70
64
0
VERTEX
8
0
62
164
10
11
20
8
30
0
70
192
0
VERTEX
8
0
62
164
10
11.9
20
8
30
0
70
192
0
VERTEX
8
0
62
164
10
11.9
20
8.9
30
0
70
192
0
VERTEX
8
0
62
164
10
11
20
8.9
30
0
70
192
0
VERTEX
8
0
62
164
10
0
20
0
30
0
70
128
71
1
72
2
73
3
74
0
0
VERTEX
8
0
62
164
10
0
20
0
30
0
70
128
71
1
72
3
73
4
74
0
0
SEQEND
8
0
0
TEXT
8
0
62
255
10
11
20
9
30
0
210
0
220
0
230
1
40
3.000000e-001
51
0
50
0
39
0
72
0
73
0
1
164
0
POLYLINE
8
0
62
165
66
1
10
0
20
0
30
0
70
64
0
VERTEX
8
0
62
165
10
11
20
10
30
0
70
192
0
VERTEX
8
0
62
165
10
11.9
20
10
30
0
70
192
0
VERTEX
8
0
62
165
10
11.9
20
10.9
30
0
70
192
0
VERTEX
8
0
62
165
10
11
20
10.9
30
0
70
192
0
VERTEX
8
0
62
165
10
0
20
0
30
0
70
128
71
1
72
2
73
3
74
0
0
VERTEX
8
0
62
165
10
0
20
0
30
0
70
128
71
1
72
3
73
4
74
0
0
SEQEND
8
0
0
TEXT
8
0
62
255
10
11
20
11
30
0
210
0
220
0
230
1
40
3.000000e-001
51
0
50
0
39
0
72
0
73
0
1
165
0
POLYLINE
8
0
62
166
66
1
10
0
20
0
30
0
70
64
0
VERTEX
8
0
62
166
10
11
20
12
30
0
70
192
0
VERTEX
8
0
62
166
10
11.9
20
12
30
0
70
192
0
VERTEX
8
0
62
166
10
11.9
20
12.9
30
0
70
192
0
VERTEX
8
0
62
166
10
11
20
12.9
30
0
70
192
0
VERTEX
8
0
62
166
10
0
20
0
30
0
70
128
71
1
72
2
73
3
74
0
0
VERTEX
8
0
62
166
10
0
20
0
30
0
70
128
71
1
72
3
73
4
74
0
0
SEQEND
8
0
0
TEXT
8
0
62
255
10
11
20
13
30
0
210
0
220
0
230
1
40
3.000000e-001
51
0
50
0
39
0
72
0
73
0
1
166
0
POLYLINE
8
0
62
167
66
1
10
0
20
0
30
0
70
64
0
VERTEX
8
0
62
167
10
11
20
14
30
0
70
192
0
VERTEX
8
0
62
167
10
11.9
20
14
30
0
70
192
0
VERTEX
8
0
62
167
10
11.9
20
14.9
30
0
70
192
0
VERTEX
8
0
62
167
10
11
20
14.9
30
0
70
192
0
VERTEX
8
0
62
167
10
0
20
0
30
0
70
128
71
1
72
2
73
3
74
0
0
VERTEX
8
0
62
167
10
0
20
0
30
0
70
128
71
1
72
3
73
4
74
0
0
SEQEND
8
0
0
TEXT
8
0
62
255
10
11
20
15
30
0
210
0
220
0
230
1
40
3.000000e-001
51
0
50
0
39
0
72
0
73
0
1
167
0
POLYLINE
8
0
62
168
66
1
10
0
20
0
30
0
70
64
0
VERTEX
8
0
62
168
10
11
20
16
30
0
70
192
0
VERTEX
8
0
62
168
10
11.9
20
16
30
0
70
192
0
VERTEX
8
0
62
168
10
11.9
20
16.9
30
0
70
192
0
VERTEX
8
0
62
168
10
11
20
16.9
30
0
70
192
0
VERTEX
8
0
62
168
10
0
20
0
30
0
70
128
71
1
72
2
73
3
74
0
0
VERTEX
8
0
62
168
10
0
20
0
30
0
70
128
71
1
72
3
73
4
74
0
0
SEQEND
8
0
0
TEXT
8
0
62
255
10
11
20
17
30
0
210
0
220
0
230
1
40
3.000000e-001
51
0
50
0
39
0
72
0
73
0
1
168
0
POLYLINE
8
0
62
169
66
1
10
0
20
0
30
0
70
64
0
VERTEX
8
0
62
169
10
11
20
18
30
0
70
192
0
VERTEX
8
0
62
169
10
11.9
20
18
30
0
70
192
0
VERTEX
8
0
62
169
10
11.9
20
18.9
30
0
70
192
0
VERTEX
8
0
62
169
10
11
20
18.9
30
0
70
192
0
VERTEX
8
0
62
169
10
0
20
0
30
0
70
128
71
1
72
2
73
3
74
0
0
VERTEX
8
0
62
169
10
0
20
0
30
0
70
128
71
1
72
3
73
4
74
0
0
SEQEND
8
0
0
TEXT
8
0
62
255
10
11
20
19
30
0
210
0
220
0
230
1
40
3.000000e-001
51
0
50
0
39
0
72
0
73
0
1
169
0
POLYLINE
8
0
62
170
66
1
10
0
20
0
30
0
70
64
0
VERTEX
8
0
62
170
10
11
20
20
30
0
70
192
0
VERTEX
8
0
62
170
10
11.9
20
20
30
0
70
192
0
VERTEX
8
0
62
170
10
11.9
20
20.9
30
0
70
192
0
VERTEX
8
0
62
170
10
11
20
20.9
30
0
70
192
0
VERTEX
8
0
62
170
10
0
20
0
30
0
70
128
71
1
72
2
73
3
74
0
0
VERTEX
8
0
62
170
10
0
20
0
30
0
70
128
71
1
72
3
73
4
74
0
0
SEQEND
8
0
0
TEXT
8
0
62
255
10
11
20
21
30
0
210
0
220
0
230
1
40
3.000000e-001
51
0
50
0
39
0
72
0
73
0
1
170
0
POLYLINE
8
0
62
171
66
1
10
0
20
0
30
0
70
64
0
VERTEX
8
0
62
171
10
11
20
22
30
0
70
192
0
VERTEX
8
0
62
171
10
11.9
20
22
30
0
70
192
0
VERTEX
8
0
62
171
10
11.9
20
22.9
30
0
70
192
0
VERTEX
8
0
62
171
10
11
20
22.9
30
0
70
192
0
VERTEX
8
0
62
171
10
0
20
0
30
0
70
128
71
1
72
2
73
3
74
0
0
VERTEX
8
0
62
171
10
0
20
0
30
0
70
128
71
1
72
3
73
4
74
0
0
SEQEND
8
0
0
TEXT
8
0
62
255
10
11
20
23
30
0
210
0
220
0
230
1
40
3.000000e-001
51
0
50
0
39
0
72
0
73
0
1
171
0
POLYLINE
8
0
62
172
66
1
10
0
20
0
30
0
70
64
0
VERTEX
8
0
62
172
10
11
20
24
30
0
70
192
0
VERTEX
8
0
62
172
10
11.9
20
24
30
0
70
192
0
VERTEX
8
0
62
172
10
11.9
20
24.9
30
0
70
192
0
VERTEX
8
0
62
172
10
11
20
24.9
30
0
70
192
0
VERTEX
8
0
62
172
10
0
20
0
30
0
70
128
71
1
72
2
73
3
74
0
0
VERTEX
8
0
62
172
10
0
20
0
30
0
70
128
71
1
72
3
73
4
74
0
0
SEQEND
8
0
0
TEXT
8
0
62
255
10
11
20
25
30
0
210
0
220
0
230
1
40
3.000000e-001
51
0
50
0
39
0
72
0
73
0
1
172
0
POLYLINE
8
0
62
173
66
1
10
0
20
0
30
0
70
64
0
VERTEX
8
0
62
173
10
11
20
26
30
0
70
192
0
VERTEX
8
0
62
173
10
11.9
20
26
30
0
70
192
0
VERTEX
8
0
62
173
10
11.9
20
26.9
30
0
70
192
0
VERTEX
8
0
62
173
10
11
20
26.9
30
0
70
192
0
VERTEX
8
0
62
173
10
0
20
0
30
0
70
128
71
1
72
2
73
3
74
0
0
VERTEX
8
0
62
173
10
0
20
0
30
0
70
128
71
1
72
3
73
4
74
0
0
SEQEND
8
0
0
TEXT
8
0
62
255
10
11
20
27
30
0
210
0
220
0
230
1
40
3.000000e-001
51
0
50
0
39
0
72
0
73
0
1
173
0
POLYLINE
8
0
62
174
66
1
10
0
20
0
30
0
70
64
0
VERTEX
8
0
62
174
10
11
20
28
30
0
70
192
0
VERTEX
8
0
62
174
10
11.9
20
28
30
0
70
192
0
VERTEX
8
0
62
174
10
11.9
20
28.9
30
0
70
192
0
VERTEX
8
0
62
174
10
11
20
28.9
30
0
70
192
0
VERTEX
8
0
62
174
10
0
20
0
30
0
70
128
71
1
72
2
73
3
74
0
0
VERTEX
8
0
62
174
10
0
20
0
30
0
70
128
71
1
72
3
73
4
74
0
0
SEQEND
8
0
0
TEXT
8
0
62
255
10
11
20
29
30
0
210
0
220
0
230
1
40
3.000000e-001
51
0
50
0
39
0
72
0
73
0
1
174
0
POLYLINE
8
0
62
175
66
1
10
0
20
0
30
0
70
64
0
VERTEX
8
0
62
175
10
11
20
30
30
0
70
192
0
VERTEX
8
0
62
175
10
11.9
20
30
30
0
70
192
0
VERTEX
8
0
62
175
10
11.9
20
30.9
30
0
70
192
0
VERTEX
8
0
62
175
10
11
20
30.9
30
0
70
192
0
VERTEX
8
0
62
175
10
0
20
0
30
0
70
128
71
1
72
2
73
3
74
0
0
VERTEX
8
0
62
175
10
0
20
0
30
0
70
128
71
1
72
3
73
4
74
0
0
SEQEND
8
0
0
TEXT
8
0
62
255
10
11
20
31
30
0
210
0
220
0
230
1
40
3.000000e-001
51
0
50
0
39
0
72
0
73
0
1
175
0
POLYLINE
8
0
62
176
66
1
10
0
20
0
30
0
70
64
0
VERTEX
8
0
62
176
10
11
20
32
30
0
70
192
0
VERTEX
8
0
62
176
10
11.9
20
32
30
0
70
192
0
VERTEX
8
0
62
176
10
11.9
20
32.9
30
0
70
192
0
VERTEX
8
0
62
176
10
11
20
32.9
30
0
70
192
0
VERTEX
8
0
62
176
10
0
20
0
30
0
70
128
71
1
72
2
73
3
74
0
0
VERTEX
8
0
62
176
10
0
20
0
30
0
70
128
71
1
72
3
73
4
74
0
0
SEQEND
8
0
0
TEXT
8
0
62
255
10
11
20
33
30
0
210
0
220
0
230
1
40
3.000000e-001
51
0
50
0
39
0
72
0
73
0
1
176
0
POLYLINE
8
0
62
177
66
1
10
0
20
0
30
0
70
64
0
VERTEX
8
0
62
177
10
12
20
2
30
0
70
192
0
VERTEX
8
0
62
177
10
12.9
20
2
30
0
70
192
0
VERTEX
8
0
62
177
10
12.9
20
2.9
30
0
70
192
0
VERTEX
8
0
62
177
10
12
20
2.9
30
0
70
192
0
VERTEX
8
0
62
177
10
0
20
0
30
0
70
128
71
1
72
2
73
3
74
0
0
VERTEX
8
0
62
177
10
0
20
0
30
0
70
128
71
1
72
3
73
4
74
0
0
SEQEND
8
0
0
TEXT
8
0
62
255
10
12
20
3
30
0
210
0
220
0
230
1
40
3.000000e-001
51
0
50
0
39
0
72
0
73
0
1
177
0
POLYLINE
8
0
62
178
66
1
10
0
20
0
30
0
70
64
0
VERTEX
8
0
62
178
10
12
20
4
30
0
70
192
0
VERTEX
8
0
62
178
10
12.9
20
4
30
0
70
192
0
VERTEX
8
0
62
178
10
12.9
20
4.9
30
0
70
192
0
VERTEX
8
0
62
178
10
12
20
4.9
30
0
70
192
0
VERTEX
8
0
62
178
10
0
20
0
30
0
70
128
71
1
72
2
73
3
74
0
0
VERTEX
8
0
62
178
10
0
20
0
30
0
70
128
71
1
72
3
73
4
74
0
0
SEQEND
8
0
0
TEXT
8
0
62
255
10
12
20
5
30
0
210
0
220
0
230
1
40
3.000000e-001
51
0
50
0
39
0
72
0
73
0
1
178
0
POLYLINE
8
0
62
179
66
1
10
0
20
0
30
0
70
64
0
VERTEX
8
0
62
179
10
12
20
6
30
0
70
192
0
VERTEX
8
0
62
179
10
12.9
20
6
30
0
70
192
0
VERTEX
8
0
62
179
10
12.9
20
6.9
30
0
70
192
0
VERTEX
8
0
62
179
10
12
20
6.9
30
0
70
192
0
VERTEX
8
0
62
179
10
0
20
0
30
0
70
128
71
1
72
2
73
3
74
0
0
VERTEX
8
0
62
179
10
0
20
0
30
0
70
128
71
1
72
3
73
4
74
0
0
SEQEND
8
0
0
TEXT
8
0
62
255
10
12
20
7
30
0
210
0
220
0
230
1
40
3.000000e-001
51
0
50
0
39
0
72
0
73
0
1
179
0
POLYLINE
8
0
62
180
66
1
10
0
20
0
30
0
70
64
0
VERTEX
8
0
62
180
10
12
20
8
30
0
70
192
0
VERTEX
8
0
62
180
10
12.9
20
8
30
0
70
192
0
VERTEX
8
0
62
180
10
12.9
20
8.9
30
0
70
192
0
VERTEX
8
0
62
180
10
12
20
8.9
30
0
70
192
0
VERTEX
8
0
62
180
10
0
20
0
30
0
70
128
71
1
72
2
73
3
74
0
0
VERTEX
8
0
62
180
10
0
20
0
30
0
70
128
71
1
72
3
73
4
74
0
0
SEQEND
8
0
0
TEXT
8
0
62
255
10
12
20
9
30
0
210
0
220
0
230
1
40
3.000000e-001
51
0
50
0
39
0
72
0
73
0
1
180
0
POLYLINE
8
0
62
181
66
1
10
0
20
0
30
0
70
64
0
VERTEX
8
0
62
181
10
12
20
10
30
0
70
192
0
VERTEX
8
0
62
181
10
12.9
20
10
30
0
70
192
0
VERTEX
8
0
62
181
10
12.9
20
10.9
30
0
70
192
0
VERTEX
8
0
62
181
10
12
20
10.9
30
0
70
192
0
VERTEX
8
0
62
181
10
0
20
0
30
0
70
128
71
1
72
2
73
3
74
0
0
VERTEX
8
0
62
181
10
0
20
0
30
0
70
128
71
1
72
3
73
4
74
0
0
SEQEND
8
0
0
TEXT
8
0
62
255
10
12
20
11
30
0
210
0
220
0
230
1
40
3.000000e-001
51
0
50
0
39
0
72
0
73
0
1
181
0
POLYLINE
8
0
62
182
66
1
10
0
20
0
30
0
70
64
0
VERTEX
8
0
62
182
10
12
20
12
30
0
70
192
0
VERTEX
8
0
62
182
10
12.9
20
12
30
0
70
192
0
VERTEX
8
0
62
182
10
12.9
20
12.9
30
0
70
192
0
VERTEX
8
0
62
182
10
12
20
12.9
30
0
70
192
0
VERTEX
8
0
62
182
10
0
20
0
30
0
70
128
71
1
72
2
73
3
74
0
0
VERTEX
8
0
62
182
10
0
20
0
30
0
70
128
71
1
72
3
73
4
74
0
0
SEQEND
8
0
0
TEXT
8
0
62
255
10
12
20
13
30
0
210
0
220
0
230
1
40
3.000000e-001
51
0
50
0
39
0
72
0
73
0
1
182
0
POLYLINE
8
0
62
183
66
1
10
0
20
0
30
0
70
64
0
VERTEX
8
0
62
183
10
12
20
14
30
0
70
192
0
VERTEX
8
0
62
183
10
12.9
20
14
30
0
70
192
0
VERTEX
8
0
62
183
10
12.9
20
14.9
30
0
70
192
0
VERTEX
8
0
62
183
10
12
20
14.9
30
0
70
192
0
VERTEX
8
0
62
183
10
0
20
0
30
0
70
128
71
1
72
2
73
3
74
0
0
VERTEX
8
0
62
183
10
0
20
0
30
0
70
128
71
1
72
3
73
4
74
0
0
SEQEND
8
0
0
TEXT
8
0
62
255
10
12
20
15
30
0
210
0
220
0
230
1
40
3.000000e-001
51
0
50
0
39
0
72
0
73
0
1
183
0
POLYLINE
8
0
62
184
66
1
10
0
20
0
30
0
70
64
0
VERTEX
8
0
62
184
10
12
20
16
30
0
70
192
0
VERTEX
8
0
62
184
10
12.9
20
16
30
0
70
192
0
VERTEX
8
0
62
184
10
12.9
20
16.9
30
0
70
192
0
VERTEX
8
0
62
184
10
12
20
16.9
30
0
70
192
0
VERTEX
8
0
62
184
10
0
20
0
30
0
70
128
71
1
72
2
73
3
74
0
0
VERTEX
8
0
62
184
10
0
20
0
30
0
70
128
71
1
72
3
73
4
74
0
0
SEQEND
8
0
0
TEXT
8
0
62
255
10
12
20
17
30
0
210
0
220
0
230
1
40
3.000000e-001
51
0
50
0
39
0
72
0
73
0
1
184
0
POLYLINE
8
0
62
185
66
1
10
0
20
0
30
0
70
64
0
VERTEX
8
0
62
185
10
12
20
18
30
0
70
192
0
VERTEX
8
0
62
185
10
12.9
20
18
30
0
70
192
0
VERTEX
8
0
62
185
10
12.9
20
18.9
30
0
70
192
0
VERTEX
8
0
62
185
10
12
20
18.9
30
0
70
192
0
VERTEX
8
0
62
185
10
0
20
0
30
0
70
128
71
1
72
2
73
3
74
0
0
VERTEX
8
0
62
185
10
0
20
0
30
0
70
128
71
1
72
3
73
4
74
0
0
SEQEND
8
0
0
TEXT
8
0
62
255
10
12
20
19
30
0
210
0
220
0
230
1
40
3.000000e-001
51
0
50
0
39
0
72
0
73
0
1
185
0
POLYLINE
8
0
62
186
66
1
10
0
20
0
30
0
70
64
0
VERTEX
8
0
62
186
10
12
20
20
30
0
70
192
0
VERTEX
8
0
62
186
10
12.9
20
20
30
0
70
192
0
VERTEX
8
0
62
186
10
12.9
20
20.9
30
0
70
192
0
VERTEX
8
0
62
186
10
12
20
20.9
30
0
70
192
0
VERTEX
8
0
62
186
10
0
20
0
30
0
70
128
71
1
72
2
73
3
74
0
0
VERTEX
8
0
62
186
10
0
20
0
30
0
70
128
71
1
72
3
73
4
74
0
0
SEQEND
8
0
0
TEXT
8
0
62
255
10
12
20
21
30
0
210
0
220
0
230
1
40
3.000000e-001
51
0
50
0
39
0
72
0
73
0
1
186
0
POLYLINE
8
0
62
187
66
1
10
0
20
0
30
0
70
64
0
VERTEX
8
0
62
187
10
12
20
22
30
0
70
192
0
VERTEX
8
0
62
187
10
12.9
20
22
30
0
70
192
0
VERTEX
8
0
62
187
10
12.9
20
22.9
30
0
70
192
0
VERTEX
8
0
62
187
10
12
20
22.9
30
0
70
192
0
VERTEX
8
0
62
187
10
0
20
0
30
0
70
128
71
1
72
2
73
3
74
0
0
VERTEX
8
0
62
187
10
0
20
0
30
0
70
128
71
1
72
3
73
4
74
0
0
SEQEND
8
0
0
TEXT
8
0
62
255
10
12
20
23
30
0
210
0
220
0
230
1
40
3.000000e-001
51
0
50
0
39
0
72
0
73
0
1
187
0
POLYLINE
8
0
62
188
66
1
10
0
20
0
30
0
70
64
0
VERTEX
8
0
62
188
10
12
20
24
30
0
70
192
0
VERTEX
8
0
62
188
10
12.9
20
24
30
0
70
192
0
VERTEX
8
0
62
188
10
12.9
20
24.9
30
0
70
192
0
VERTEX
8
0
62
188
10
12
20
24.9
30
0
70
192
0
VERTEX
8
0
62
188
10
0
20
0
30
0
70
128
71
1
72
2
73
3
74
0
0
VERTEX
8
0
62
188
10
0
20
0
30
0
70
128
71
1
72
3
73
4
74
0
0
SEQEND
8
0
0
TEXT
8
0
62
255
10
12
20
25
30
0
210
0
220
0
230
1
40
3.000000e-001
51
0
50
0
39
0
72
0
73
0
1
188
0
POLYLINE
8
0
62
189
66
1
10
0
20
0
30
0
70
64
0
VERTEX
8
0
62
189
10
12
20
26
30
0
70
192
0
VERTEX
8
0
62
189
10
12.9
20
26
30
0
70
192
0
VERTEX
8
0
62
189
10
12.9
20
26.9
30
0
70
192
0
VERTEX
8
0
62
189
10
12
20
26.9
30
0
70
192
0
VERTEX
8
0
62
189
10
0
20
0
30
0
70
128
71
1
72
2
73
3
74
0
0
VERTEX
8
0
62
189
10
0
20
0
30
0
70
128
71
1
72
3
73
4
74
0
0
SEQEND
8
0
0
TEXT
8
0
62
255
10
12
20
27
30
0
210
0
220
0
230
1
40
3.000000e-001
51
0
50
0
39
0
72
0
73
0
1
189
0
POLYLINE
8
0
62
190
66
1
10
0
20
0
30
0
70
64
0
VERTEX
8
0
62
190
10
12
20
28
30
0
70
192
0
VERTEX
8
0
62
190
10
12.9
20
28
30
0
70
192
0
VERTEX
8
0
62
190
10
12.9
20
28.9
30
0
70
192
0
VERTEX
8
0
62
190
10
12
20
28.9
30
0
70
192
0
VERTEX
8
0
62
190
10
0
20
0
30
0
70
128
71
1
72
2
73
3
74
0
0
VERTEX
8
0
62
190
10
0
20
0
30
0
70
128
71
1
72
3
73
4
74
0
0
SEQEND
8
0
0
TEXT
8
0
62
255
10
12
20
29
30
0
210
0
220
0
230
1
40
3.000000e-001
51
0
50
0
39
0
72
0
73
0
1
190
0
POLYLINE
8
0
62
191
66
1
10
0
20
0
30
0
70
64
0
VERTEX
8
0
62
191
10
12
20
30
30
0
70
192
0
VERTEX
8
0
62
191
10
12.9
20
30
30
0
70
192
0
VERTEX
8
0
62
191
10
12.9
20
30.9
30
0
70
192
0
VERTEX
8
0
62
191
10
12
20
30.9
30
0
70
192
0
VERTEX
8
0
62
191
10
0
20
0
30
0
70
128
71
1
72
2
73
3
74
0
0
VERTEX
8
0
62
191
10
0
20
0
30
0
70
128
71
1
72
3
73
4
74
0
0
SEQEND
8
0
0
TEXT
8
0
62
255
10
12
20
31
30
0
210
0
220
0
230
1
40
3.000000e-001
51
0
50
0
39
0
72
0
73
0
1
191
0
POLYLINE
8
0
62
192
66
1
10
0
20
0
30
0
70
64
0
VERTEX
8
0
62
192
10
12
20
32
30
0
70
192
0
VERTEX
8
0
62
192
10
12.9
20
32
30
0
70
192
0
VERTEX
8
0
62
192
10
12.9
20
32.9
30
0
70
192
0
VERTEX
8
0
62
192
10
12
20
32.9
30
0
70
192
0
VERTEX
8
0
62
192
10
0
20
0
30
0
70
128
71
1
72
2
73
3
74
0
0
VERTEX
8
0
62
192
10
0
20
0
30
0
70
128
71
1
72
3
73
4
74
0
0
SEQEND
8
0
0
TEXT
8
0
62
255
10
12
20
33
30
0
210
0
220
0
230
1
40
3.000000e-001
51
0
50
0
39
0
72
0
73
0
1
192
0
POLYLINE
8
0
62
193
66
1
10
0
20
0
30
0
70
64
0
VERTEX
8
0
62
193
10
13
20
2
30
0
70
192
0
VERTEX
8
0
62
193
10
13.9
20
2
30
0
70
192
0
VERTEX
8
0
62
193
10
13.9
20
2.9
30
0
70
192
0
VERTEX
8
0
62
193
10
13
20
2.9
30
0
70
192
0
VERTEX
8
0
62
193
10
0
20
0
30
0
70
128
71
1
72
2
73
3
74
0
0
VERTEX
8
0
62
193
10
0
20
0
30
0
70
128
71
1
72
3
73
4
74
0
0
SEQEND
8
0
0
TEXT
8
0
62
255
10
13
20
3
30
0
210
0
220
0
230
1
40
3.000000e-001
51
0
50
0
39
0
72
0
73
0
1
193
0
POLYLINE
8
0
62
194
66
1
10
0
20
0
30
0
70
64
0
VERTEX
8
0
62
194
10
13
20
4
30
0
70
192
0
VERTEX
8
0
62
194
10
13.9
20
4
30
0
70
192
0
VERTEX
8
0
62
194
10
13.9
20
4.9
30
0
70
192
0
VERTEX
8
0
62
194
10
13
20
4.9
30
0
70
192
0
VERTEX
8
0
62
194
10
0
20
0
30
0
70
128
71
1
72
2
73
3
74
0
0
VERTEX
8
0
62
194
10
0
20
0
30
0
70
128
71
1
72
3
73
4
74
0
0
SEQEND
8
0
0
TEXT
8
0
62
255
10
13
20
5
30
0
210
0
220
0
230
1
40
3.000000e-001
51
0
50
0
39
0
72
0
73
0
1
194
0
POLYLINE
8
0
62
195
66
1
10
0
20
0
30
0
70
64
0
VERTEX
8
0
62
195
10
13
20
6
30
0
70
192
0
VERTEX
8
0
62
195
10
13.9
20
6
30
0
70
192
0
VERTEX
8
0
62
195
10
13.9
20
6.9
30
0
70
192
0
VERTEX
8
0
62
195
10
13
20
6.9
30
0
70
192
0
VERTEX
8
0
62
195
10
0
20
0
30
0
70
128
71
1
72
2
73
3
74
0
0
VERTEX
8
0
62
195
10
0
20
0
30
0
70
128
71
1
72
3
73
4
74
0
0
SEQEND
8
0
0
TEXT
8
0
62
255
10
13
20
7
30
0
210
0
220
0
230
1
40
3.000000e-001
51
0
50
0
39
0
72
0
73
0
1
195
0
POLYLINE
8
0
62
196
66
1
10
0
20
0
30
0
70
64
0
VERTEX
8
0
62
196
10
13
20
8
30
0
70
192
0
VERTEX
8
0
62
196
10
13.9
20
8
30
0
70
192
0
VERTEX
8
0
62
196
10
13.9
20
8.9
30
0
70
192
0
VERTEX
8
0
62
196
10
13
20
8.9
30
0
70
192
0
VERTEX
8
0
62
196
10
0
20
0
30
0
70
128
71
1
72
2
73
3
74
0
0
VERTEX
8
0
62
196
10
0
20
0
30
0
70
128
71
1
72
3
73
4
74
0
0
SEQEND
8
0
0
TEXT
8
0
62
255
10
13
20
9
30
0
210
0
220
0
230
1
40
3.000000e-001
51
0
50
0
39
0
72
0
73
0
1
196
0
POLYLINE
8
0
62
197
66
1
10
0
20
0
30
0
70
64
0
VERTEX
8
0
62
197
10
13
20
10
30
0
70
192
0
VERTEX
8
0
62
197
10
13.9
20
10
30
0
70
192
0
VERTEX
8
0
62
197
10
13.9
20
10.9
30
0
70
192
0
VERTEX
8
0
62
197
10
13
20
10.9
30
0
70
192
0
VERTEX
8
0
62
197
10
0
20
0
30
0
70
128
71
1
72
2
73
3
74
0
0
VERTEX
8
0
62
197
10
0
20
0
30
0
70
128
71
1
72
3
73
4
74
0
0
SEQEND
8
0
0
TEXT
8
0
62
255
10
13
20
11
30
0
210
0
220
0
230
1
40
3.000000e-001
51
0
50
0
39
0
72
0
73
0
1
197
0
POLYLINE
8
0
62
198
66
1
10
0
20
0
30
0
70
64
0
VERTEX
8
0
62
198
10
13
20
12
30
0
70
192
0
VERTEX
8
0
62
198
10
13.9
20
12
30
0
70
192
0
VERTEX
8
0
62
198
10
13.9
20
12.9
30
0
70
192
0
VERTEX
8
0
62
198
10
13
20
12.9
30
0
70
192
0
VERTEX
8
0
62
198
10
0
20
0
30
0
70
128
71
1
72
2
73
3
74
0
0
VERTEX
8
0
62
198
10
0
20
0
30
0
70
128
71
1
72
3
73
4
74
0
0
SEQEND
8
0
0
TEXT
8
0
62
255
10
13
20
13
30
0
210
0
220
0
230
1
40
3.000000e-001
51
0
50
0
39
0
72
0
73
0
1
198
0
POLYLINE
8
0
62
199
66
1
10
0
20
0
30
0
70
64
0
VERTEX
8
0
62
199
10
13
20
14
30
0
70
192
0
VERTEX
8
0
62
199
10
13.9
20
14
30
0
70
192
0
VERTEX
8
0
62
199
10
13.9
20
14.9
30
0
70
192
0
VERTEX
8
0
62
199
10
13
20
14.9
30
0
70
192
0
VERTEX
8
0
62
199
10
0
20
0
30
0
70
128
71
1
72
2
73
3
74
0
0
VERTEX
8
0
62
199
10
0
20
0
30
0
70
128
71
1
72
3
73
4
74
0
0
SEQEND
8
0
0
TEXT
8
0
62
255
10
13
20
15
30
0
210
0
220
0
230
1
40
3.000000e-001
51
0
50
0
39
0
72
0
73
0
1
199
0
POLYLINE
8
0
62
200
66
1
10
0
20
0
30
0
70
64
0
VERTEX
8
0
62
200
10
13
20
16
30
0
70
192
0
VERTEX
8
0
62
200
10
13.9
20
16
30
0
70
192
0
VERTEX
8
0
62
200
10
13.9
20
16.9
30
0
70
192
0
VERTEX
8
0
62
200
10
13
20
16.9
30
0
70
192
0
VERTEX
8
0
62
200
10
0
20
0
30
0
70
128
71
1
72
2
73
3
74
0
0
VERTEX
8
0
62
200
10
0
20
0
30
0
70
128
71
1
72
3
73
4
74
0
0
SEQEND
8
0
0
TEXT
8
0
62
255
10
13
20
17
30
0
210
0
220
0
230
1
40
3.000000e-001
51
0
50
0
39
0
72
0
73
0
1
200
0
POLYLINE
8
0
62
201
66
1
10
0
20
0
30
0
70
64
0
VERTEX
8
0
62
201
10
13
20
18
30
0
70
192
0
VERTEX
8
0
62
201
10
13.9
20
18
30
0
70
192
0
VERTEX
8
0
62
201
10
13.9
20
18.9
30
0
70
192
0
VERTEX
8
0
62
201
10
13
20
18.9
30
0
70
192
0
VERTEX
8
0
62
201
10
0
20
0
30
0
70
128
71
1
72
2
73
3
74
0
0
VERTEX
8
0
62
201
10
0
20
0
30
0
70
128
71
1
72
3
73
4
74
0
0
SEQEND
8
0
0
TEXT
8
0
62
255
10
13
20
19
30
0
210
0
220
0
230
1
40
3.000000e-001
51
0
50
0
39
0
72
0
73
0
1
201
0
POLYLINE
8
0
62
202
66
1
10
0
20
0
30
0
70
64
0
VERTEX
8
0
62
202
10
13
20
20
30
0
70
192
0
VERTEX
8
0
62
202
10
13.9
20
20
30
0
70
192
0
VERTEX
8
0
62
202
10
13.9
20
20.9
30
0
70
192
0
VERTEX
8
0
62
202
10
13
20
20.9
30
0
70
192
0
VERTEX
8
0
62
202
10
0
20
0
30
0
70
128
71
1
72
2
73
3
74
0
0
VERTEX
8
0
62
202
10
0
20
0
30
0
70
128
71
1
72
3
73
4
74
0
0
SEQEND
8
0
0
TEXT
8
0
62
255
10
13
20
21
30
0
210
0
220
0
230
1
40
3.000000e-001
51
0
50
0
39
0
72
0
73
0
1
202
0
POLYLINE
8
0
62
203
66
1
10
0
20
0
30
0
70
64
0
VERTEX
8
0
62
203
10
13
20
22
30
0
70
192
0
VERTEX
8
0
62
203
10
13.9
20
22
30
0
70
192
0
VERTEX
8
0
62
203
10
13.9
20
22.9
30
0
70
192
0
VERTEX
8
0
62
203
10
13
20
22.9
30
0
70
192
0
VERTEX
8
0
62
203
10
0
20
0
30
0
70
128
71
1
72
2
73
3
74
0
0
VERTEX
8
0
62
203
10
0
20
0
30
0
70
128
71
1
72
3
73
4
74
0
0
SEQEND
8
0
0
TEXT
8
0
62
255
10
13
20
23
30
0
210
0
220
0
230
1
40
3.000000e-001
51
0
50
0
39
0
72
0
73
0
1
203
0
POLYLINE
8
0
62
204
66
1
10
0
20
0
30
0
70
64
0
VERTEX
8
0
62
204
10
13
20
24
30
0
70
192
0
VERTEX
8
0
62
204
10
13.9
20
24
30
0
70
192
0
VERTEX
8
0
62
204
10
13.9
20
24.9
30
0
70
192
0
VERTEX
8
0
62
204
10
13
20
24.9
30
0
70
192
0
VERTEX
8
0
62
204
10
0
20
0
30
0
70
128
71
1
72
2
73
3
74
0
0
VERTEX
8
0
62
204
10
0
20
0
30
0
70
128
71
1
72
3
73
4
74
0
0
SEQEND
8
0
0
TEXT
8
0
62
255
10
13
20
25
30
0
210
0
220
0
230
1
40
3.000000e-001
51
0
50
0
39
0
72
0
73
0
1
204
0
POLYLINE
8
0
62
205
66
1
10
0
20
0
30
0
70
64
0
VERTEX
8
0
62
205
10
13
20
26
30
0
70
192
0
VERTEX
8
0
62
205
10
13.9
20
26
30
0
70
192
0
VERTEX
8
0
62
205
10
13.9
20
26.9
30
0
70
192
0
VERTEX
8
0
62
205
10
13
20
26.9
30
0
70
192
0
VERTEX
8
0
62
205
10
0
20
0
30
0
70
128
71
1
72
2
73
3
74
0
0
VERTEX
8
0
62
205
10
0
20
0
30
0
70
128
71
1
72
3
73
4
74
0
0
SEQEND
8
0
0
TEXT
8
0
62
255
10
13
20
27
30
0
210
0
220
0
230
1
40
3.000000e-001
51
0
50
0
39
0
72
0
73
0
1
205
0
POLYLINE
8
0
62
206
66
1
10
0
20
0
30
0
70
64
0
VERTEX
8
0
62
206
10
13
20
28
30
0
70
192
0
VERTEX
8
0
62
206
10
13.9
20
28
30
0
70
192
0
VERTEX
8
0
62
206
10
13.9
20
28.9
30
0
70
192
0
VERTEX
8
0
62
206
10
13
20
28.9
30
0
70
192
0
VERTEX
8
0
62
206
10
0
20
0
30
0
70
128
71
1
72
2
73
3
74
0
0
VERTEX
8
0
62
206
10
0
20
0
30
0
70
128
71
1
72
3
73
4
74
0
0
SEQEND
8
0
0
TEXT
8
0
62
255
10
13
20
29
30
0
210
0
220
0
230
1
40
3.000000e-001
51
0
50
0
39
0
72
0
73
0
1
206
0
POLYLINE
8
0
62
207
66
1
10
0
20
0
30
0
70
64
0
VERTEX
8
0
62
207
10
13
20
30
30
0
70
192
0
VERTEX
8
0
62
207
10
13.9
20
30
30
0
70
192
0
VERTEX
8
0
62
207
10
13.9
20
30.9
30
0
70
192
0
VERTEX
8
0
62
207
10
13
20
30.9
30
0
70
192
0
VERTEX
8
0
62
207
10
0
20
0
30
0
70
128
71
1
72
2
73
3
74
0
0
VERTEX
8
0
62
207
10
0
20
0
30
0
70
128
71
1
72
3
73
4
74
0
0
SEQEND
8
0
0
TEXT
8
0
62
255
10
13
20
31
30
0
210
0
220
0
230
1
40
3.000000e-001
51
0
50
0
39
0
72
0
73
0
1
207
0
POLYLINE
8
0
62
208
66
1
10
0
20
0
30
0
70
64
0
VERTEX
8
0
62
208
10
13
20
32
30
0
70
192
0
VERTEX
8
0
62
208
10
13.9
20
32
30
0
70
192
0
VERTEX
8
0
62
208
10
13.9
20
32.9
30
0
70
192
0
VERTEX
8
0
62
208
10
13
20
32.9
30
0
70
192
0
VERTEX
8
0
62
208
10
0
20
0
30
0
70
128
71
1
72
2
73
3
74
0
0
VERTEX
8
0
62
208
10
0
20
0
30
0
70
128
71
1
72
3
73
4
74
0
0
SEQEND
8
0
0
TEXT
8
0
62
255
10
13
20
33
30
0
210
0
220
0
230
1
40
3.000000e-001
51
0
50
0
39
0
72
0
73
0
1
208
0
POLYLINE
8
0
62
209
66
1
10
0
20
0
30
0
70
64
0
VERTEX
8
0
62
209
10
14
20
2
30
0
70
192
0
VERTEX
8
0
62
209
10
14.9
20
2
30
0
70
192
0
VERTEX
8
0
62
209
10
14.9
20
2.9
30
0
70
192
0
VERTEX
8
0
62
209
10
14
20
2.9
30
0
70
192
0
VERTEX
8
0
62
209
10
0
20
0
30
0
70
128
71
1
72
2
73
3
74
0
0
VERTEX
8
0
62
209
10
0
20
0
30
0
70
128
71
1
72
3
73
4
74
0
0
SEQEND
8
0
0
TEXT
8
0
62
255
10
14
20
3
30
0
210
0
220
0
230
1
40
3.000000e-001
51
0
50
0
39
0
72
0
73
0
1
209
0
POLYLINE
8
0
62
210
66
1
10
0
20
0
30
0
70
64
0
VERTEX
8
0
62
210
10
14
20
4
30
0
70
192
0
VERTEX
8
0
62
210
10
14.9
20
4
30
0
70
192
0
VERTEX
8
0
62
210
10
14.9
20
4.9
30
0
70
192
0
VERTEX
8
0
62
210
10
14
20
4.9
30
0
70
192
0
VERTEX
8
0
62
210
10
0
20
0
30
0
70
128
71
1
72
2
73
3
74
0
0
VERTEX
8
0
62
210
10
0
20
0
30
0
70
128
71
1
72
3
73
4
74
0
0
SEQEND
8
0
0
TEXT
8
0
62
255
10
14
20
5
30
0
210
0
220
0
230
1
40
3.000000e-001
51
0
50
0
39
0
72
0
73
0
1
210
0
POLYLINE
8
0
62
211
66
1
10
0
20
0
30
0
70
64
0
VERTEX
8
0
62
211
10
14
20
6
30
0
70
192
0
VERTEX
8
0
62
211
10
14.9
20
6
30
0
70
192
0
VERTEX
8
0
62
211
10
14.9
20
6.9
30
0
70
192
0
VERTEX
8
0
62
211
10
14
20
6.9
30
0
70
192
0
VERTEX
8
0
62
211
10
0
20
0
30
0
70
128
71
1
72
2
73
3
74
0
0
VERTEX
8
0
62
211
10
0
20
0
30
0
70
128
71
1
72
3
73
4
74
0
0
SEQEND
8
0
0
TEXT
8
0
62
255
10
14
20
7
30
0
210
0
220
0
230
1
40
3.000000e-001
51
0
50
0
39
0
72
0
73
0
1
211
0
POLYLINE
8
0
62
212
66
1
10
0
20
0
30
0
70
64
0
VERTEX
8
0
62
212
10
14
20
8
30
0
70
192
0
VERTEX
8
0
62
212
10
14.9
20
8
30
0
70
192
0
VERTEX
8
0
62
212
10
14.9
20
8.9
30
0
70
192
0
VERTEX
8
0
62
212
10
14
20
8.9
30
0
70
192
0
VERTEX
8
0
62
212
10
0
20
0
30
0
70
128
71
1
72
2
73
3
74
0
0
VERTEX
8
0
62
212
10
0
20
0
30
0
70
128
71
1
72
3
73
4
74
0
0
SEQEND
8
0
0
TEXT
8
0
62
255
10
14
20
9
30
0
210
0
220
0
230
1
40
3.000000e-001
51
0
50
0
39
0
72
0
73
0
1
212
0
POLYLINE
8
0
62
213
66
1
10
0
20
0
30
0
70
64
0
VERTEX
8
0
62
213
10
14
20
10
30
0
70
192
0
VERTEX
8
0
62
213
10
14.9
20
10
30
0
70
192
0
VERTEX
8
0
62
213
10
14.9
20
10.9
30
0
70
192
0
VERTEX
8
0
62
213
10
14
20
10.9
30
0
70
192
0
VERTEX
8
0
62
213
10
0
20
0
30
0
70
128
71
1
72
2
73
3
74
0
0
VERTEX
8
0
62
213
10
0
20
0
30
0
70
128
71
1
72
3
73
4
74
0
0
SEQEND
8
0
0
TEXT
8
0
62
255
10
14
20
11
30
0
210
0
220
0
230
1
40
3.000000e-001
51
0
50
0
39
0
72
0
73
0
1
213
0
POLYLINE
8
0
62
214
66
1
10
0
20
0
30
0
70
64
0
VERTEX
8
0
62
214
10
14
20
12
30
0
70
192
0
VERTEX
8
0
62
214
10
14.9
20
12
30
0
70
192
0
VERTEX
8
0
62
214
10
14.9
20
12.9
30
0
70
192
0
VERTEX
8
0
62
214
10
14
20
12.9
30
0
70
192
0
VERTEX
8
0
62
214
10
0
20
0
30
0
70
128
71
1
72
2
73
3
74
0
0
VERTEX
8
0
62
214
10
0
20
0
30
0
70
128
71
1
72
3
73
4
74
0
0
SEQEND
8
0
0
TEXT
8
0
62
255
10
14
20
13
30
0
210
0
220
0
230
1
40
3.000000e-001
51
0
50
0
39
0
72
0
73
0
1
214
0
POLYLINE
8
0
62
215
66
1
10
0
20
0
30
0
70
64
0
VERTEX
8
0
62
215
10
14
20
14
30
0
70
192
0
VERTEX
8
0
62
215
10
14.9
20
14
30
0
70
192
0
VERTEX
8
0
62
215
10
14.9
20
14.9
30
0
70
192
0
VERTEX
8
0
62
215
10
14
20
14.9
30
0
70
192
0
VERTEX
8
0
62
215
10
0
20
0
30
0
70
128
71
1
72
2
73
3
74
0
0
VERTEX
8
0
62
215
10
0
20
0
30
0
70
128
71
1
72
3
73
4
74
0
0
SEQEND
8
0
0
TEXT
8
0
62
255
10
14
20
15
30
0
210
0
220
0
230
1
40
3.000000e-001
51
0
50
0
39
0
72
0
73
0
1
215
0
POLYLINE
8
0
62
216
66
1
10
0
20
0
30
0
70
64
0
VERTEX
8
0
62
216
10
14
20
16
30
0
70
192
0
VERTEX
8
0
62
216
10
14.9
20
16
30
0
70
192
0
VERTEX
8
0
62
216
10
14.9
20
16.9
30
0
70
192
0
VERTEX
8
0
62
216
10
14
20
16.9
30
0
70
192
0
VERTEX
8
0
62
216
10
0
20
0
30
0
70
128
71
1
72
2
73
3
74
0
0
VERTEX
8
0
62
216
10
0
20
0
30
0
70
128
71
1
72
3
73
4
74
0
0
SEQEND
8
0
0
TEXT
8
0
62
255
10
14
20
17
30
0
210
0
220
0
230
1
40
3.000000e-001
51
0
50
0
39
0
72
0
73
0
1
216
0
POLYLINE
8
0
62
217
66
1
10
0
20
0
30
0
70
64
0
VERTEX
8
0
62
217
10
14
20
18
30
0
70
192
0
VERTEX
8
0
62
217
10
14.9
20
18
30
0
70
192
0
VERTEX
8
0
62
217
10
14.9
20
18.9
30
0
70
192
0
VERTEX
8
0
62
217
10
14
20
18.9
30
0
70
192
0
VERTEX
8
0
62
217
10
0
20
0
30
0
70
128
71
1
72
2
73
3
74
0
0
VERTEX
8
0
62
217
10
0
20
0
30
0
70
128
71
1
72
3
73
4
74
0
0
SEQEND
8
0
0
TEXT
8
0
62
255
10
14
20
19
30
0
210
0
220
0
230
1
40
3.000000e-001
51
0
50
0
39
0
72
0
73
0
1
217
0
POLYLINE
8
0
62
218
66
1
10
0
20
0
30
0
70
64
0
VERTEX
8
0
62
218
10
14
20
20
30
0
70
192
0
VERTEX
8
0
62
218
10
14.9
20
20
30
0
70
192
0
VERTEX
8
0
62
218
10
14.9
20
20.9
30
0
70
192
0
VERTEX
8
0
62
218
10
14
20
20.9
30
0
70
192
0
VERTEX
8
0
62
218
10
0
20
0
30
0
70
128
71
1
72
2
73
3
74
0
0
VERTEX
8
0
62
218
10
0
20
0
30
0
70
128
71
1
72
3
73
4
74
0
0
SEQEND
8
0
0
TEXT
8
0
62
255
10
14
20
21
30
0
210
0
220
0
230
1
40
3.000000e-001
51
0
50
0
39
0
72
0
73
0
1
218
0
POLYLINE
8
0
62
219
66
1
10
0
20
0
30
0
70
64
0
VERTEX
8
0
62
219
10
14
20
22
30
0
70
192
0
VERTEX
8
0
62
219
10
14.9
20
22
30
0
70
192
0
VERTEX
8
0
62
219
10
14.9
20
22.9
30
0
70
192
0
VERTEX
8
0
62
219
10
14
20
22.9
30
0
70
192
0
VERTEX
8
0
62
219
10
0
20
0
30
0
70
128
71
1
72
2
73
3
74
0
0
VERTEX
8
0
62
219
10
0
20
0
30
0
70
128
71
1
72
3
73
4
74
0
0
SEQEND
8
0
0
TEXT
8
0
62
255
10
14
20
23
30
0
210
0
220
0
230
1
40
3.000000e-001
51
0
50
0
39
0
72
0
73
0
1
219
0
POLYLINE
8
0
62
220
66
1
10
0
20
0
30
0
70
64
0
VERTEX
8
0
62
220
10
14
20
24
30
0
70
192
0
VERTEX
8
0
62
220
10
14.9
20
24
30
0
70
192
0
VERTEX
8
0
62
220
10
14.9
20
24.9
30
0
70
192
0
VERTEX
8
0
62
220
10
14
20
24.9
30
0
70
192
0
VERTEX
8
0
62
220
10
0
20
0
30
0
70
128
71
1
72
2
73
3
74
0
0
VERTEX
8
0
62
220
10
0
20
0
30
0
70
128
71
1
72
3
73
4
74
0
0
SEQEND
8
0
0
TEXT
8
0
62
255
10
14
20
25
30
0
210
0
220
0
230
1
40
3.000000e-001
51
0
50
0
39
0
72
0
73
0
1
220
0
POLYLINE
8
0
62
221
66
1
10
0
20
0
30
0
70
64
0
VERTEX
8
0
62
221
10
14
20
26
30
0
70
192
0
VERTEX
8
0
62
221
10
14.9
20
26
30
0
70
192
0
VERTEX
8
0
62
221
10
14.9
20
26.9
30
0
70
192
0
VERTEX
8
0
62
221
10
14
20
26.9
30
0
70
192
0
VERTEX
8
0
62
221
10
0
20
0
30
0
70
128
71
1
72
2
73
3
74
0
0
VERTEX
8
0
62
221
10
0
20
0
30
0
70
128
71
1
72
3
73
4
74
0
0
SEQEND
8
0
0
TEXT
8
0
62
255
10
14
20
27
30
0
210
0
220
0
230
1
40
3.000000e-001
51
0
50
0
39
0
72
0
73
0
1
221
0
POLYLINE
8
0
62
222
66
1
10
0
20
0
30
0
70
64
0
VERTEX
8
0
62
222
10
14
20
28
30
0
70
192
0
VERTEX
8
0
62
222
10
14.9
20
28
30
0
70
192
0
VERTEX
8
0
62
222
10
14.9
20
28.9
30
0
70
192
0
VERTEX
8
0
62
222
10
14
20
28.9
30
0
70
192
0
VERTEX
8
0
62
222
10
0
20
0
30
0
70
128
71
1
72
2
73
3
74
0
0
VERTEX
8
0
62
222
10
0
20
0
30
0
70
128
71
1
72
3
73
4
74
0
0
SEQEND
8
0
0
TEXT
8
0
62
255
10
14
20
29
30
0
210
0
220
0
230
1
40
3.000000e-001
51
0
50
0
39
0
72
0
73
0
1
222
0
POLYLINE
8
0
62
223
66
1
10
0
20
0
30
0
70
64
0
VERTEX
8
0
62
223
10
14
20
30
30
0
70
192
0
VERTEX
8
0
62
223
10
14.9
20
30
30
0
70
192
0
VERTEX
8
0
62
223
10
14.9
20
30.9
30
0
70
192
0
VERTEX
8
0
62
223
10
14
20
30.9
30
0
70
192
0
VERTEX
8
0
62
223
10
0
20
0
30
0
70
128
71
1
72
2
73
3
74
0
0
VERTEX
8
0
62
223
10
0
20
0
30
0
70
128
71
1
72
3
73
4
74
0
0
SEQEND
8
0
0
TEXT
8
0
62
255
10
14
20
31
30
0
210
0
220
0
230
1
40
3.000000e-001
51
0
50
0
39
0
72
0
73
0
1
223
0
POLYLINE
8
0
62
224
66
1
10
0
20
0
30
0
70
64
0
VERTEX
8
0
62
224
10
14
20
32
30
0
70
192
0
VERTEX
8
0
62
224
10
14.9
20
32
30
0
70
192
0
VERTEX
8
0
62
224
10
14.9
20
32.9
30
0
70
192
0
VERTEX
8
0
62
224
10
14
20
32.9
30
0
70
192
0
VERTEX
8
0
62
224
10
0
20
0
30
0
70
128
71
1
72
2
73
3
74
0
0
VERTEX
8
0
62
224
10
0
20
0
30
0
70
128
71
1
72
3
73
4
74
0
0
SEQEND
8
0
0
TEXT
8
0
62
255
10
14
20
33
30
0
210
0
220
0
230
1
40
3.000000e-001
51
0
50
0
39
0
72
0
73
0
1
224
0
POLYLINE
8
0
62
225
66
1
10
0
20
0
30
0
70
64
0
VERTEX
8
0
62
225
10
15
20
2
30
0
70
192
0
VERTEX
8
0
62
225
10
15.9
20
2
30
0
70
192
0
VERTEX
8
0
62
225
10
15.9
20
2.9
30
0
70
192
0
VERTEX
8
0
62
225
10
15
20
2.9
30
0
70
192
0
VERTEX
8
0
62
225
10
0
20
0
30
0
70
128
71
1
72
2
73
3
74
0
0
VERTEX
8
0
62
225
10
0
20
0
30
0
70
128
71
1
72
3
73
4
74
0
0
SEQEND
8
0
0
TEXT
8
0
62
255
10
15
20
3
30
0
210
0
220
0
230
1
40
3.000000e-001
51
0
50
0
39
0
72
0
73
0
1
225
0
POLYLINE
8
0
62
226
66
1
10
0
20
0
30
0
70
64
0
VERTEX
8
0
62
226
10
15
20
4
30
0
70
192
0
VERTEX
8
0
62
226
10
15.9
20
4
30
0
70
192
0
VERTEX
8
0
62
226
10
15.9
20
4.9
30
0
70
192
0
VERTEX
8
0
62
226
10
15
20
4.9
30
0
70
192
0
VERTEX
8
0
62
226
10
0
20
0
30
0
70
128
71
1
72
2
73
3
74
0
0
VERTEX
8
0
62
226
10
0
20
0
30
0
70
128
71
1
72
3
73
4
74
0
0
SEQEND
8
0
0
TEXT
8
0
62
255
10
15
20
5
30
0
210
0
220
0
230
1
40
3.000000e-001
51
0
50
0
39
0
72
0
73
0
1
226
0
POLYLINE
8
0
62
227
66
1
10
0
20
0
30
0
70
64
0
VERTEX
8
0
62
227
10
15
20
6
30
0
70
192
0
VERTEX
8
0
62
227
10
15.9
20
6
30
0
70
192
0
VERTEX
8
0
62
227
10
15.9
20
6.9
30
0
70
192
0
VERTEX
8
0
62
227
10
15
20
6.9
30
0
70
192
0
VERTEX
8
0
62
227
10
0
20
0
30
0
70
128
71
1
72
2
73
3
74
0
0
VERTEX
8
0
62
227
10
0
20
0
30
0
70
128
71
1
72
3
73
4
74
0
0
SEQEND
8
0
0
TEXT
8
0
62
255
10
15
20
7
30
0
210
0
220
0
230
1
40
3.000000e-001
51
0
50
0
39
0
72
0
73
0
1
227
0
POLYLINE
8
0
62
228
66
1
10
0
20
0
30
0
70
64
0
VERTEX
8
0
62
228
10
15
20
8
30
0
70
192
0
VERTEX
8
0
62
228
10
15.9
20
8
30
0
70
192
0
VERTEX
8
0
62
228
10
15.9
20
8.9
30
0
70
192
0
VERTEX
8
0
62
228
10
15
20
8.9
30
0
70
192
0
VERTEX
8
0
62
228
10
0
20
0
30
0
70
128
71
1
72
2
73
3
74
0
0
VERTEX
8
0
62
228
10
0
20
0
30
0
70
128
71
1
72
3
73
4
74
0
0
SEQEND
8
0
0
TEXT
8
0
62
255
10
15
20
9
30
0
210
0
220
0
230
1
40
3.000000e-001
51
0
50
0
39
0
72
0
73
0
1
228
0
POLYLINE
8
0
62
229
66
1
10
0
20
0
30
0
70
64
0
VERTEX
8
0
62
229
10
15
20
10
30
0
70
192
0
VERTEX
8
0
62
229
10
15.9
20
10
30
0
70
192
0
VERTEX
8
0
62
229
10
15.9
20
10.9
30
0
70
192
0
VERTEX
8
0
62
229
10
15
20
10.9
30
0
70
192
0
VERTEX
8
0
62
229
10
0
20
0
30
0
70
128
71
1
72
2
73
3
74
0
0
VERTEX
8
0
62
229
10
0
20
0
30
0
70
128
71
1
72
3
73
4
74
0
0
SEQEND
8
0
0
TEXT
8
0
62
255
10
15
20
11
30
0
210
0
220
0
230
1
40
3.000000e-001
51
0
50
0
39
0
72
0
73
0
1
229
0
POLYLINE
8
0
62
230
66
1
10
0
20
0
30
0
70
64
0
VERTEX
8
0
62
230
10
15
20
12
30
0
70
192
0
VERTEX
8
0
62
230
10
15.9
20
12
30
0
70
192
0
VERTEX
8
0
62
230
10
15.9
20
12.9
30
0
70
192
0
VERTEX
8
0
62
230
10
15
20
12.9
30
0
70
192
0
VERTEX
8
0
62
230
10
0
20
0
30
0
70
128
71
1
72
2
73
3
74
0
0
VERTEX
8
0
62
230
10
0
20
0
30
0
70
128
71
1
72
3
73
4
74
0
0
SEQEND
8
0
0
TEXT
8
0
62
255
10
15
20
13
30
0
210
0
220
0
230
1
40
3.000000e-001
51
0
50
0
39
0
72
0
73
0
1
230
0
POLYLINE
8
0
62
231
66
1
10
0
20
0
30
0
70
64
0
VERTEX
8
0
62
231
10
15
20
14
30
0
70
192
0
VERTEX
8
0
62
231
10
15.9
20
14
30
0
70
192
0
VERTEX
8
0
62
231
10
15.9
20
14.9
30
0
70
192
0
VERTEX
8
0
62
231
10
15
20
14.9
30
0
70
192
0
VERTEX
8
0
62
231
10
0
20
0
30
0
70
128
71
1
72
2
73
3
74
0
0
VERTEX
8
0
62
231
10
0
20
0
30
0
70
128
71
1
72
3
73
4
74
0
0
SEQEND
8
0
0
TEXT
8
0
62
255
10
15
20
15
30
0
210
0
220
0
230
1
40
3.000000e-001
51
0
50
0
39
0
72
0
73
0
1
231
0
POLYLINE
8
0
62
232
66
1
10
0
20
0
30
0
70
64
0
VERTEX
8
0
62
232
10
15
20
16
30
0
70
192
0
VERTEX
8
0
62
232
10
15.9
20
16
30
0
70
192
0
VERTEX
8
0
62
232
10
15.9
20
16.9
30
0
70
192
0
VERTEX
8
0
62
232
10
15
20
16.9
30
0
70
192
0
VERTEX
8
0
62
232
10
0
20
0
30
0
70
128
71
1
72
2
73
3
74
0
0
VERTEX
8
0
62
232
10
0
20
0
30
0
70
128
71
1
72
3
73
4
74
0
0
SEQEND
8
0
0
TEXT
8
0
62
255
10
15
20
17
30
0
210
0
220
0
230
1
40
3.000000e-001
51
0
50
0
39
0
72
0
73
0
1
232
0
POLYLINE
8
0
62
233
66
1
10
0
20
0
30
0
70
64
0
VERTEX
8
0
62
233
10
15
20
18
30
0
70
192
0
VERTEX
8
0
62
233
10
15.9
20
18
30
0
70
192
0
VERTEX
8
0
62
233
10
15.9
20
18.9
30
0
70
192
0
VERTEX
8
0
62
233
10
15
20
18.9
30
0
70
192
0
VERTEX
8
0
62
233
10
0
20
0
30
0
70
128
71
1
72
2
73
3
74
0
0
VERTEX
8
0
62
233
10
0
20
0
30
0
70
128
71
1
72
3
73
4
74
0
0
SEQEND
8
0
0
TEXT
8
0
62
255
10
15
20
19
30
0
210
0
220
0
230
1
40
3.000000e-001
51
0
50
0
39
0
72
0
73
0
1
233
0
POLYLINE
8
0
62
234
66
1
10
0
20
0
30
0
70
64
0
VERTEX
8
0
62
234
10
15
20
20
30
0
70
192
0
VERTEX
8
0
62
234
10
15.9
20
20
30
0
70
192
0
VERTEX
8
0
62
234
10
15.9
20
20.9
30
0
70
192
0
VERTEX
8
0
62
234
10
15
20
20.9
30
0
70
192
0
VERTEX
8
0
62
234
10
0
20
0
30
0
70
128
71
1
72
2
73
3
74
0
0
VERTEX
8
0
62
234
10
0
20
0
30
0
70
128
71
1
72
3
73
4
74
0
0
SEQEND
8
0
0
TEXT
8
0
62
255
10
15
20
21
30
0
210
0
220
0
230
1
40
3.000000e-001
51
0
50
0
39
0
72
0
73
0
1
234
0
POLYLINE
8
0
62
235
66
1
10
0
20
0
30
0
70
64
0
VERTEX
8
0
62
235
10
15
20
22
30
0
70
192
0
VERTEX
8
0
62
235
10
15.9
20
22
30
0
70
192
0
VERTEX
8
0
62
235
10
15.9
20
22.9
30
0
70
192
0
VERTEX
8
0
62
235
10
15
20
22.9
30
0
70
192
0
VERTEX
8
0
62
235
10
0
20
0
30
0
70
128
71
1
72
2
73
3
74
0
0
VERTEX
8
0
62
235
10
0
20
0
30
0
70
128
71
1
72
3
73
4
74
0
0
SEQEND
8
0
0
TEXT
8
0
62
255
10
15
20
23
30
0
210
0
220
0
230
1
40
3.000000e-001
51
0
50
0
39
0
72
0
73
0
1
235
0
POLYLINE
8
0
62
236
66
1
10
0
20
0
30
0
70
64
0
VERTEX
8
0
62
236
10
15
20
24
30
0
70
192
0
VERTEX
8
0
62
236
10
15.9
20
24
30
0
70
192
0
VERTEX
8
0
62
236
10
15.9
20
24.9
30
0
70
192
0
VERTEX
8
0
62
236
10
15
20
24.9
30
0
70
192
0
VERTEX
8
0
62
236
10
0
20
0
30
0
70
128
71
1
72
2
73
3
74
0
0
VERTEX
8
0
62
236
10
0
20
0
30
0
70
128
71
1
72
3
73
4
74
0
0
SEQEND
8
0
0
TEXT
8
0
62
255
10
15
20
25
30
0
210
0
220
0
230
1
40
3.000000e-001
51
0
50
0
39
0
72
0
73
0
1
236
0
POLYLINE
8
0
62
237
66
1
10
0
20
0
30
0
70
64
0
VERTEX
8
0
62
237
10
15
20
26
30
0
70
192
0
VERTEX
8
0
62
237
10
15.9
20
26
30
0
70
192
0
VERTEX
8
0
62
237
10
15.9
20
26.9
30
0
70
192
0
VERTEX
8
0
62
237
10
15
20
26.9
30
0
70
192
0
VERTEX
8
0
62
237
10
0
20
0
30
0
70
128
71
1
72
2
73
3
74
0
0
VERTEX
8
0
62
237
10
0
20
0
30
0
70
128
71
1
72
3
73
4
74
0
0
SEQEND
8
0
0
TEXT
8
0
62
255
10
15
20
27
30
0
210
0
220
0
230
1
40
3.000000e-001
51
0
50
0
39
0
72
0
73
0
1
237
0
POLYLINE
8
0
62
238
66
1
10
0
20
0
30
0
70
64
0
VERTEX
8
0
62
238
10
15
20
28
30
0
70
192
0
VERTEX
8
0
62
238
10
15.9
20
28
30
0
70
192
0
VERTEX
8
0
62
238
10
15.9
20
28.9
30
0
70
192
0
VERTEX
8
0
62
238
10
15
20
28.9
30
0
70
192
0
VERTEX
8
0
62
238
10
0
20
0
30
0
70
128
71
1
72
2
73
3
74
0
0
VERTEX
8
0
62
238
10
0
20
0
30
0
70
128
71
1
72
3
73
4
74
0
0
SEQEND
8
0
0
TEXT
8
0
62
255
10
15
20
29
30
0
210
0
220
0
230
1
40
3.000000e-001
51
0
50
0
39
0
72
0
73
0
1
238
0
POLYLINE
8
0
62
239
66
1
10
0
20
0
30
0
70
64
0
VERTEX
8
0
62
239
10
15
20
30
30
0
70
192
0
VERTEX
8
0
62
239
10
15.9
20
30
30
0
70
192
0
VERTEX
8
0
62
239
10
15.9
20
30.9
30
0
70
192
0
VERTEX
8
0
62
239
10
15
20
30.9
30
0
70
192
0
VERTEX
8
0
62
239
10
0
20
0
30
0
70
128
71
1
72
2
73
3
74
0
0
VERTEX
8
0
62
239
10
0
20
0
30
0
70
128
71
1
72
3
73
4
74
0
0
SEQEND
8
0
0
TEXT
8
0
62
255
10
15
20
31
30
0
210
0
220
0
230
1
40
3.000000e-001
51
0
50
0
39
0
72
0
73
0
1
239
0
POLYLINE
8
0
62
240
66
1
10
0
20
0
30
0
70
64
0
VERTEX
8
0
62
240
10
15
20
32
30
0
70
192
0
VERTEX
8
0
62
240
10
15.9
20
32
30
0
70
192
0
VERTEX
8
0
62
240
10
15.9
20
32.9
30
0
70
192
0
VERTEX
8
0
62
240
10
15
20
32.9
30
0
70
192
0
VERTEX
8
0
62
240
10
0
20
0
30
0
70
128
71
1
72
2
73
3
74
0
0
VERTEX
8
0
62
240
10
0
20
0
30
0
70
128
71
1
72
3
73
4
74
0
0
SEQEND
8
0
0
TEXT
8
0
62
255
10
15
20
33
30
0
210
0
220
0
230
1
40
3.000000e-001
51
0
50
0
39
0
72
0
73
0
1
240
0
POLYLINE
8
0
62
241
66
1
10
0
20
0
30
0
70
64
0
VERTEX
8
0
62
241
10
16
20
2
30
0
70
192
0
VERTEX
8
0
62
241
10
16.9
20
2
30
0
70
192
0
VERTEX
8
0
62
241
10
16.9
20
2.9
30
0
70
192
0
VERTEX
8
0
62
241
10
16
20
2.9
30
0
70
192
0
VERTEX
8
0
62
241
10
0
20
0
30
0
70
128
71
1
72
2
73
3
74
0
0
VERTEX
8
0
62
241
10
0
20
0
30
0
70
128
71
1
72
3
73
4
74
0
0
SEQEND
8
0
0
TEXT
8
0
62
255
10
16
20
3
30
0
210
0
220
0
230
1
40
3.000000e-001
51
0
50
0
39
0
72
0
73
0
1
241
0
POLYLINE
8
0
62
242
66
1
10
0
20
0
30
0
70
64
0
VERTEX
8
0
62
242
10
16
20
4
30
0
70
192
0
VERTEX
8
0
62
242
10
16.9
20
4
30
0
70
192
0
VERTEX
8
0
62
242
10
16.9
20
4.9
30
0
70
192
0
VERTEX
8
0
62
242
10
16
20
4.9
30
0
70
192
0
VERTEX
8
0
62
242
10
0
20
0
30
0
70
128
71
1
72
2
73
3
74
0
0
VERTEX
8
0
62
242
10
0
20
0
30
0
70
128
71
1
72
3
73
4
74
0
0
SEQEND
8
0
0
TEXT
8
0
62
255
10
16
20
5
30
0
210
0
220
0
230
1
40
3.000000e-001
51
0
50
0
39
0
72
0
73
0
1
242
0
POLYLINE
8
0
62
243
66
1
10
0
20
0
30
0
70
64
0
VERTEX
8
0
62
243
10
16
20
6
30
0
70
192
0
VERTEX
8
0
62
243
10
16.9
20
6
30
0
70
192
0
VERTEX
8
0
62
243
10
16.9
20
6.9
30
0
70
192
0
VERTEX
8
0
62
243
10
16
20
6.9
30
0
70
192
0
VERTEX
8
0
62
243
10
0
20
0
30
0
70
128
71
1
72
2
73
3
74
0
0
VERTEX
8
0
62
243
10
0
20
0
30
0
70
128
71
1
72
3
73
4
74
0
0
SEQEND
8
0
0
TEXT
8
0
62
255
10
16
20
7
30
0
210
0
220
0
230
1
40
3.000000e-001
51
0
50
0
39
0
72
0
73
0
1
243
0
POLYLINE
8
0
62
244
66
1
10
0
20
0
30
0
70
64
0
VERTEX
8
0
62
244
10
16
20
8
30
0
70
192
0
VERTEX
8
0
62
244
10
16.9
20
8
30
0
70
192
0
VERTEX
8
0
62
244
10
16.9
20
8.9
30
0
70
192
0
VERTEX
8
0
62
244
10
16
20
8.9
30
0
70
192
0
VERTEX
8
0
62
244
10
0
20
0
30
0
70
128
71
1
72
2
73
3
74
0
0
VERTEX
8
0
62
244
10
0
20
0
30
0
70
128
71
1
72
3
73
4
74
0
0
SEQEND
8
0
0
TEXT
8
0
62
255
10
16
20
9
30
0
210
0
220
0
230
1
40
3.000000e-001
51
0
50
0
39
0
72
0
73
0
1
244
0
POLYLINE
8
0
62
245
66
1
10
0
20
0
30
0
70
64
0
VERTEX
8
0
62
245
10
16
20
10
30
0
70
192
0
VERTEX
8
0
62
245
10
16.9
20
10
30
0
70
192
0
VERTEX
8
0
62
245
10
16.9
20
10.9
30
0
70
192
0
VERTEX
8
0
62
245
10
16
20
10.9
30
0
70
192
0
VERTEX
8
0
62
245
10
0
20
0
30
0
70
128
71
1
72
2
73
3
74
0
0
VERTEX
8
0
62
245
10
0
20
0
30
0
70
128
71
1
72
3
73
4
74
0
0
SEQEND
8
0
0
TEXT
8
0
62
255
10
16
20
11
30
0
210
0
220
0
230
1
40
3.000000e-001
51
0
50
0
39
0
72
0
73
0
1
245
0
POLYLINE
8
0
62
246
66
1
10
0
20
0
30
0
70
64
0
VERTEX
8
0
62
246
10
16
20
12
30
0
70
192
0
VERTEX
8
0
62
246
10
16.9
20
12
30
0
70
192
0
VERTEX
8
0
62
246
10
16.9
20
12.9
30
0
70
192
0
VERTEX
8
0
62
246
10
16
20
12.9
30
0
70
192
0
VERTEX
8
0
62
246
10
0
20
0
30
0
70
128
71
1
72
2
73
3
74
0
0
VERTEX
8
0
62
246
10
0
20
0
30
0
70
128
71
1
72
3
73
4
74
0
0
SEQEND
8
0
0
TEXT
8
0
62
255
10
16
20
13
30
0
210
0
220
0
230
1
40
3.000000e-001
51
0
50
0
39
0
72
0
73
0
1
246
0
POLYLINE
8
0
62
247
66
1
10
0
20
0
30
0
70
64
0
VERTEX
8
0
62
247
10
16
20
14
30
0
70
192
0
VERTEX
8
0
62
247
10
16.9
20
14
30
0
70
192
0
VERTEX
8
0
62
247
10
16.9
20
14.9
30
0
70
192
0
VERTEX
8
0
62
247
10
16
20
14.9
30
0
70
192
0
VERTEX
8
0
62
247
10
0
20
0
30
0
70
128
71
1
72
2
73
3
74
0
0
VERTEX
8
0
62
247
10
0
20
0
30
0
70
128
71
1
72
3
73
4
74
0
0
SEQEND
8
0
0
TEXT
8
0
62
255
10
16
20
15
30
0
210
0
220
0
230
1
40
3.000000e-001
51
0
50
0
39
0
72
0
73
0
1
247
0
POLYLINE
8
0
62
248
66
1
10
0
20
0
30
0
70
64
0
VERTEX
8
0
62
248
10
16
20
16
30
0
70
192
0
VERTEX
8
0
62
248
10
16.9
20
16
30
0
70
192
0
VERTEX
8
0
62
248
10
16.9
20
16.9
30
0
70
192
0
VERTEX
8
0
62
248
10
16
20
16.9
30
0
70
192
0
VERTEX
8
0
62
248
10
0
20
0
30
0
70
128
71
1
72
2
73
3
74
0
0
VERTEX
8
0
62
248
10
0
20
0
30
0
70
128
71
1
72
3
73
4
74
0
0
SEQEND
8
0
0
TEXT
8
0
62
255
10
16
20
17
30
0
210
0
220
0
230
1
40
3.000000e-001
51
0
50
0
39
0
72
0
73
0
1
248
0
POLYLINE
8
0
62
249
66
1
10
0
20
0
30
0
70
64
0
VERTEX
8
0
62
249
10
16
20
18
30
0
70
192
0
VERTEX
8
0
62
249
10
16.9
20
18
30
0
70
192
0
VERTEX
8
0
62
249
10
16.9
20
18.9
30
0
70
192
0
VERTEX
8
0
62
249
10
16
20
18.9
30
0
70
192
0
VERTEX
8
0
62
249
10
0
20
0
30
0
70
128
71
1
72
2
73
3
74
0
0
VERTEX
8
0
62
249
10
0
20
0
30
0
70
128
71
1
72
3
73
4
74
0
0
SEQEND
8
0
0
TEXT
8
0
62
255
10
16
20
19
30
0
210
0
220
0
230
1
40
3.000000e-001
51
0
50
0
39
0
72
0
73
0
1
249
0
POLYLINE
8
0
62
250
66
1
10
0
20
0
30
0
70
64
0
VERTEX
8
0
62
250
10
16
20
20
30
0
70
192
0
VERTEX
8
0
62
250
10
16.9
20
20
30
0
70
192
0
VERTEX
8
0
62
250
10
16.9
20
20.9
30
0
70
192
0
VERTEX
8
0
62
250
10
16
20
20.9
30
0
70
192
0
VERTEX
8
0
62
250
10
0
20
0
30
0
70
128
71
1
72
2
73
3
74
0
0
VERTEX
8
0
62
250
10
0
20
0
30
0
70
128
71
1
72
3
73
4
74
0
0
SEQEND
8
0
0
TEXT
8
0
62
255
10
16
20
21
30
0
210
0
220
0
230
1
40
3.000000e-001
51
0
50
0
39
0
72
0
73
0
1
250
0
POLYLINE
8
0
62
251
66
1
10
0
20
0
30
0
70
64
0
VERTEX
8
0
62
251
10
16
20
22
30
0
70
192
0
VERTEX
8
0
62
251
10
16.9
20
22
30
0
70
192
0
VERTEX
8
0
62
251
10
16.9
20
22.9
30
0
70
192
0
VERTEX
8
0
62
251
10
16
20
22.9
30
0
70
192
0
VERTEX
8
0
62
251
10
0
20
0
30
0
70
128
71
1
72
2
73
3
74
0
0
VERTEX
8
0
62
251
10
0
20
0
30
0
70
128
71
1
72
3
73
4
74
0
0
SEQEND
8
0
0
TEXT
8
0
62
255
10
16
20
23
30
0
210
0
220
0
230
1
40
3.000000e-001
51
0
50
0
39
0
72
0
73
0
1
251
0
POLYLINE
8
0
62
252
66
1
10
0
20
0
30
0
70
64
0
VERTEX
8
0
62
252
10
16
20
24
30
0
70
192
0
VERTEX
8
0
62
252
10
16.9
20
24
30
0
70
192
0
VERTEX
8
0
62
252
10
16.9
20
24.9
30
0
70
192
0
VERTEX
8
0
62
252
10
16
20
24.9
30
0
70
192
0
VERTEX
8
0
62
252
10
0
20
0
30
0
70
128
71
1
72
2
73
3
74
0
0
VERTEX
8
0
62
252
10
0
20
0
30
0
70
128
71
1
72
3
73
4
74
0
0
SEQEND
8
0
0
TEXT
8
0
62
255
10
16
20
25
30
0
210
0
220
0
230
1
40
3.000000e-001
51
0
50
0
39
0
72
0
73
0
1
252
0
POLYLINE
8
0
62
253
66
1
10
0
20
0
30
0
70
64
0
VERTEX
8
0
62
253
10
16
20
26
30
0
70
192
0
VERTEX
8
0
62
253
10
16.9
20
26
30
0
70
192
0
VERTEX
8
0
62
253
10
16.9
20
26.9
30
0
70
192
0
VERTEX
8
0
62
253
10
16
20
26.9
30
0
70
192
0
VERTEX
8
0
62
253
10
0
20
0
30
0
70
128
71
1
72
2
73
3
74
0
0
VERTEX
8
0
62
253
10
0
20
0
30
0
70
128
71
1
72
3
73
4
74
0
0
SEQEND
8
0
0
TEXT
8
0
62
255
10
16
20
27
30
0
210
0
220
0
230
1
40
3.000000e-001
51
0
50
0
39
0
72
0
73
0
1
253
0
POLYLINE
8
0
62
254
66
1
10
0
20
0
30
0
70
64
0
VERTEX
8
0
62
254
10
16
20
28
30
0
70
192
0
VERTEX
8
0
62
254
10
16.9
20
28
30
0
70
192
0
VERTEX
8
0
62
254
10
16.9
20
28.9
30
0
70
192
0
VERTEX
8
0
62
254
10
16
20
28.9
30
0
70
192
0
VERTEX
8
0
62
254
10
0
20
0
30
0
70
128
71
1
72
2
73
3
74
0
0
VERTEX
8
0
62
254
10
0
20
0
30
0
70
128
71
1
72
3
73
4
74
0
0
SEQEND
8
0
0
TEXT
8
0
62
255
10
16
20
29
30
0
210
0
220
0
230
1
40
3.000000e-001
51
0
50
0
39
0
72
0
73
0
1
254
0
POLYLINE
8
0
62
255
66
1
10
0
20
0
30
0
70
64
0
VERTEX
8
0
62
255
10
16
20
30
30
0
70
192
0
VERTEX
8
0
62
255
10
16.9
20
30
30
0
70
192
0
VERTEX
8
0
62
255
10
16.9
20
30.9
30
0
70
192
0
VERTEX
8
0
62
255
10
16
20
30.9
30
0
70
192
0
VERTEX
8
0
62
255
10
0
20
0
30
0
70
128
71
1
72
2
73
3
74
0
0
VERTEX
8
0
62
255
10
0
20
0
30
0
70
128
71
1
72
3
73
4
74
0
0
SEQEND
8
0
0
TEXT
8
0
62
255
10
16
20
31
30
0
210
0
220
0
230
1
40
3.000000e-001
51
0
50
0
39
0
72
0
73
0
1
255
0
POLYLINE
8
0
62
256
66
1
10
0
20
0
30
0
70
64
0
VERTEX
8
0
62
256
10
16
20
32
30
0
70
192
0
VERTEX
8
0
62
256
10
16.9
20
32
30
0
70
192
0
VERTEX
8
0
62
256
10
16.9
20
32.9
30
0
70
192
0
VERTEX
8
0
62
256
10
16
20
32.9
30
0
70
192
0
VERTEX
8
0
62
256
10
0
20
0
30
0
70
128
71
1
72
2
73
3
74
0
0
VERTEX
8
0
62
256
10
0
20
0
30
0
70
128
71
1
72
3
73
4
74
0
0
SEQEND
8
0
0
TEXT
8
0
62
255
10
16
20
33
30
0
210
0
220
0
230
1
40
3.000000e-001
51
0
50
0
39
0
72
0
73
0
1
256
0
ENDSEC
0
EOF
